<?xml version="1.0" encoding="UTF-8"?>
<svg xmlns="http://www.w3.org/2000/svg" xmlns:xlink="http://www.w3.org/1999/xlink" viewBox="0 0 1000 1000">
  <defs>
    <style>
      .cls-1 {
        stroke: #231f20;
        stroke-linecap: round;
        stroke-linejoin: round;
        stroke-width: 4.68px;
      }

      .cls-2 {
        fill: #fff;
      }

      .cls-3 {
        fill: #b2d23f;
      }

      .cls-4 {
        fill: #f8f7f2;
      }
    </style>
    <filter id="drop-shadow-1" x="369.45" y="501.66" width="273.19" height="78.68" filterUnits="userSpaceOnUse">
      <feOffset dx="7" dy="7"/>
      <feGaussianBlur result="blur" stdDeviation="5"/>
      <feFlood flood-color="#000" flood-opacity=".1"/>
      <feComposite in2="blur" operator="in"/>
      <feComposite in="SourceGraphic"/>
    </filter>
  </defs>
  <g id="Layer_4" data-name="Layer 4">
    <line class="cls-1" x1="352.01" y1="328.72" x2="352.01" y2="663.57"/>
    <g>
      <g>
        <path d="M462.77,344.36v61.43h-18.1v-4.88c-2.58,2.19-5.39,3.95-8.45,5.29-3.06,1.34-6.28,2-9.66,2-4.59,0-8.91-.87-12.97-2.6-4.06-1.73-7.59-4.1-10.56-7.12-2.98-3.02-5.33-6.54-7.06-10.56-1.73-4.02-2.6-8.29-2.6-12.79s.88-8.91,2.66-12.97c1.77-4.06,4.16-7.58,7.18-10.56,3.02-2.98,6.54-5.33,10.56-7.06,4.02-1.73,8.29-2.59,12.79-2.59,3.38,0,6.6.66,9.66,1.99,3.06,1.33,5.87,3.04,8.45,5.13v-4.71h18.1ZM428.49,391.79c2.25,0,4.41-.44,6.46-1.32,2.05-.88,3.84-2.06,5.37-3.55,1.53-1.48,2.73-3.25,3.62-5.29.88-2.04,1.33-4.23,1.33-6.56s-.44-4.51-1.33-6.55c-.89-2.04-2.09-3.81-3.62-5.29-1.53-1.48-3.32-2.66-5.37-3.55-2.05-.88-4.21-1.32-6.46-1.32s-4.53.44-6.58,1.32c-2.05.88-3.82,2.06-5.31,3.55-1.49,1.48-2.68,3.25-3.56,5.29-.89,2.04-1.33,4.23-1.33,6.55s.44,4.51,1.33,6.56c.88,2.04,2.07,3.81,3.56,5.29,1.49,1.48,3.26,2.66,5.31,3.55,2.05.88,4.24,1.32,6.58,1.32Z"/>
        <path d="M543.15,344.36v61.43h-18.1v-4.88c-2.58,2.19-5.39,3.95-8.45,5.29-3.06,1.34-6.28,2-9.65,2-4.59,0-8.91-.87-12.97-2.6-4.06-1.73-7.59-4.1-10.56-7.12-2.98-3.02-5.33-6.54-7.06-10.56-1.73-4.02-2.6-8.29-2.6-12.79s.88-8.91,2.66-12.97c1.77-4.06,4.16-7.58,7.18-10.56,3.02-2.98,6.54-5.33,10.56-7.06,4.02-1.73,8.29-2.59,12.79-2.59,3.38,0,6.6.66,9.65,1.99,3.06,1.33,5.87,3.04,8.45,5.13v-4.71h18.1ZM508.87,391.79c2.25,0,4.41-.44,6.46-1.32,2.05-.88,3.84-2.06,5.37-3.55,1.53-1.48,2.73-3.25,3.62-5.29.88-2.04,1.33-4.23,1.33-6.56s-.44-4.51-1.33-6.55c-.89-2.04-2.09-3.81-3.62-5.29-1.53-1.48-3.32-2.66-5.37-3.55-2.05-.88-4.21-1.32-6.46-1.32s-4.53.44-6.58,1.32c-2.05.88-3.82,2.06-5.31,3.55-1.49,1.48-2.68,3.25-3.56,5.29-.89,2.04-1.33,4.23-1.33,6.55s.44,4.51,1.33,6.56c.88,2.04,2.07,3.81,3.56,5.29,1.49,1.48,3.26,2.66,5.31,3.55,2.05.88,4.24,1.32,6.58,1.32Z"/>
        <path d="M596.61,405.79l-21.97-21.6v21.6h-18.1v-84.48h18.1v44.41l20.28-21.36h22.33l-28.85,30.29,31.86,31.14h-23.66Z"/>
        <path d="M665.41,341.95c1.93,0,3.84.14,5.73.42,1.89.28,3.68.74,5.37,1.39l-3.74,16.41c-.16-.48-.97-.91-2.41-1.27s-2.9-.54-4.34-.54c-2.9,0-5.47.32-7.72.97-2.25.64-4.16,1.43-5.73,2.35-1.57.93-2.78,1.93-3.62,3.02-.84,1.09-1.27,2.11-1.27,3.08v38.02h-18.1v-61.43h18.1v9.53c.32-1.21,1.15-2.51,2.47-3.92,1.33-1.41,2.85-2.69,4.59-3.86,1.73-1.17,3.54-2.15,5.43-2.96,1.89-.8,3.64-1.21,5.25-1.21Z"/>
        <path d="M694.43,316.48c2.96,0,5.48,1.05,7.56,3.14,2.08,2.09,3.12,4.63,3.12,7.6s-1.04,5.51-3.12,7.6c-2.08,2.09-4.6,3.14-7.56,3.14s-5.48-1.04-7.56-3.14c-2.08-2.09-3.12-4.63-3.12-7.6s1.04-5.51,3.12-7.6c2.08-2.09,4.6-3.14,7.56-3.14ZM685.44,344.36h18.1v61.43h-18.1v-61.43Z"/>
        <path d="M763.28,405.91c-1.77.64-4.12,1.19-7.06,1.63-2.94.44-7.06.66-12.37.66-2.65,0-5.13-.5-7.42-1.51-2.29-1.01-4.28-2.37-5.97-4.1-1.69-1.73-3.04-3.74-4.04-6.03s-1.51-4.77-1.51-7.42l-.12-29.09h-12.55v-15.69h12.55v-19.55h18.1v19.55h14.97l-3.5,15.69h-11.47v25.35c.08,1.77.74,3.28,1.99,4.53,1.25,1.25,2.79,1.87,4.65,1.87,3.14,0,5.41-.34,6.82-1.03,1.41-.68,2.43-1.19,3.08-1.51l3.86,16.66Z"/>
      </g>
      <path d="M815.1,355.9v-25.1h-12.55v-6.64h34.04v6.64h-12.55v25.1h-8.93ZM841.05,355.9v-31.74h13.76l10.5,21.72,10.38-21.72h14v31.74h-8.93v-23.54h-.12l-11.47,23.54h-8.21l-11.47-23.54h-.12v23.54h-8.33Z"/>
      <g>
        <path d="M456.37,516.32c-3.06,4.13-7.24,7.4-12.55,9.79-5.31,2.39-11.1,3.59-17.38,3.59-4.43,0-8.65-.87-12.66-2.59-4.01-1.73-7.52-4.1-10.52-7.12-3-3.02-5.4-6.54-7.19-10.56-1.8-4.02-2.7-8.29-2.7-12.79s.86-8.91,2.58-12.97c1.72-4.06,4.08-7.58,7.07-10.56,3-2.98,6.5-5.33,10.52-7.06,4.01-1.73,8.31-2.59,12.9-2.59,6.36,0,12.13,1.19,17.32,3.56,5.19,2.37,9.31,5.57,12.37,9.59l-14.36,9.9c-1.37-2.01-3.32-3.62-5.85-4.83-2.53-1.21-5.69-1.81-9.47-1.81-2.09,0-4.04.44-5.85,1.32-1.81.88-3.4,2.08-4.77,3.61-1.37,1.52-2.43,3.31-3.2,5.35-.77,2.04-1.15,4.19-1.15,6.43s.4,4.25,1.21,6.25c.8,2,1.91,3.79,3.32,5.35,1.41,1.56,3.02,2.81,4.83,3.73s3.68,1.38,5.61,1.38c3.62,0,6.68-.56,9.17-1.69,2.49-1.13,4.38-2.57,5.67-4.34l15.09,9.07Z"/>
        <path d="M475.62,437.96c2.96,0,5.48,1.05,7.56,3.14,2.08,2.09,3.12,4.63,3.12,7.6s-1.04,5.51-3.12,7.6c-2.08,2.09-4.6,3.14-7.56,3.14s-5.48-1.04-7.56-3.14c-2.08-2.09-3.12-4.63-3.12-7.6s1.04-5.51,3.12-7.6c2.08-2.09,4.6-3.14,7.56-3.14ZM466.63,465.84h18.1v61.43h-18.1v-61.43Z"/>
        <path d="M535.3,463.43c3.62,0,7,.68,10.14,2.05,3.14,1.37,5.89,3.24,8.27,5.61,2.37,2.37,4.24,5.13,5.61,8.27,1.37,3.14,2.05,6.52,2.05,10.14v37.78h-18.1v-34.28c0-1.77-.36-3.46-1.09-5.07-.72-1.61-1.69-3.02-2.9-4.22-1.21-1.21-2.62-2.15-4.22-2.84-1.61-.68-3.3-1.03-5.07-1.03s-3.58.36-5.19,1.09c-1.61.72-3.02,1.69-4.22,2.9-1.21,1.21-2.17,2.62-2.9,4.22-.72,1.61-1.09,3.34-1.09,5.19v34.04h-18.1v-61.43h18.1v7c2.49-2.82,5.29-5.09,8.39-6.82,3.1-1.73,6.54-2.59,10.32-2.59Z"/>
        <path d="M605.79,463.43c4.83,0,9.31.89,13.46,2.66,4.14,1.77,7.72,4.16,10.74,7.18s5.39,6.54,7.12,10.56c1.73,4.02,2.6,8.29,2.6,12.79,0,.89-.04,1.81-.12,2.78-.08.97-.2,1.89-.36,2.78h-48.88c1.04,3.03,2.88,5.63,5.49,7.82,2.61,2.19,5.93,3.28,9.96,3.28,2.9,0,5.73-.56,8.51-1.69,2.78-1.13,4.89-2.61,6.34-4.47l14.6,8.95c-1.61,2.11-3.5,3.99-5.67,5.65-2.17,1.66-4.55,3.08-7.12,4.26-2.58,1.17-5.27,2.09-8.09,2.73-2.82.65-5.67.97-8.57.97-4.83,0-9.35-.87-13.58-2.59-4.22-1.73-7.89-4.1-10.98-7.12-3.1-3.02-5.55-6.54-7.36-10.56-1.81-4.02-2.72-8.29-2.72-12.79s.92-8.91,2.78-12.97c1.85-4.06,4.34-7.58,7.48-10.56,3.14-2.98,6.8-5.33,10.98-7.06,4.18-1.73,8.65-2.59,13.4-2.59ZM605.79,479.84c-3.62,0-6.7.97-9.23,2.9s-4.45,4.27-5.73,7h29.93c-1.21-2.73-3.1-5.07-5.67-7-2.58-1.93-5.67-2.9-9.29-2.9Z"/>
        <path d="M725.51,463.43c3.3,0,6.42.68,9.35,2.05,2.94,1.37,5.49,3.24,7.66,5.61,2.17,2.37,3.88,5.13,5.13,8.27,1.25,3.14,1.87,6.52,1.87,10.14v37.78h-18.1v-34.28c0-1.77-.3-3.46-.91-5.07-.6-1.61-1.41-3.02-2.41-4.22s-2.19-2.15-3.56-2.84c-1.37-.68-2.82-1.03-4.35-1.03s-2.98.36-4.34,1.09c-1.37.72-2.56,1.69-3.56,2.9-1.01,1.21-1.81,2.62-2.41,4.22-.6,1.61-.9,3.34-.9,5.19v34.04h-18.1v-34.28c0-1.77-.3-3.46-.91-5.07-.61-1.61-1.42-3.02-2.43-4.22-1.01-1.21-2.21-2.15-3.58-2.84-1.37-.68-2.83-1.03-4.37-1.03s-2.99.36-4.37,1.09c-1.37.72-2.57,1.69-3.58,2.9-1.01,1.21-1.82,2.62-2.43,4.22-.61,1.61-.91,3.34-.91,5.19v34.04h-18.1v-61.43h18.1l.12,6.64c2.09-2.73,4.41-4.93,6.94-6.58,2.53-1.65,5.49-2.47,8.87-2.47,4.34,0,8.11.84,11.28,2.53,3.18,1.69,5.77,3.94,7.78,6.76,2.33-2.66,5.27-4.87,8.81-6.64,3.54-1.77,8.01-2.66,13.4-2.66Z"/>
        <path d="M828.7,465.84v61.43h-18.1v-4.88c-2.58,2.19-5.39,3.95-8.45,5.29-3.06,1.34-6.28,2-9.65,2-4.59,0-8.91-.87-12.97-2.59-4.06-1.73-7.59-4.1-10.56-7.12-2.98-3.02-5.33-6.54-7.06-10.56-1.73-4.02-2.59-8.29-2.59-12.79s.88-8.91,2.65-12.97c1.77-4.06,4.16-7.58,7.18-10.56,3.02-2.98,6.54-5.33,10.56-7.06,4.02-1.73,8.29-2.59,12.79-2.59,3.38,0,6.6.66,9.65,1.99,3.06,1.33,5.87,3.04,8.45,5.13v-4.71h18.1ZM794.43,513.28c2.25,0,4.41-.44,6.46-1.32,2.05-.88,3.84-2.07,5.37-3.55,1.53-1.48,2.73-3.25,3.62-5.29.88-2.04,1.33-4.23,1.33-6.56s-.44-4.51-1.33-6.55c-.89-2.04-2.09-3.81-3.62-5.29-1.53-1.48-3.32-2.66-5.37-3.55-2.05-.88-4.21-1.32-6.46-1.32s-4.53.44-6.58,1.32c-2.05.88-3.82,2.06-5.31,3.55-1.49,1.48-2.68,3.25-3.56,5.29-.89,2.04-1.33,4.23-1.33,6.55s.44,4.51,1.33,6.56c.88,2.04,2.07,3.81,3.56,5.29,1.49,1.48,3.26,2.67,5.31,3.55,2.05.88,4.24,1.32,6.58,1.32Z"/>
        <path d="M887.96,527.4c-1.77.64-4.12,1.19-7.06,1.63-2.94.44-7.06.66-12.37.66-2.65,0-5.13-.5-7.42-1.51-2.29-1-4.28-2.37-5.97-4.1-1.69-1.73-3.04-3.74-4.04-6.04-1.01-2.29-1.51-4.77-1.51-7.42l-.12-29.09h-12.55v-15.69h12.55v-19.55h18.1v19.55h14.97l-3.5,15.69h-11.47v25.34c.08,1.77.74,3.28,1.99,4.53,1.25,1.25,2.79,1.87,4.65,1.87,3.14,0,5.41-.34,6.82-1.03,1.41-.68,2.43-1.19,3.08-1.51l3.86,16.66Z"/>
        <path d="M905.88,437.96c2.96,0,5.48,1.05,7.56,3.14,2.08,2.09,3.12,4.63,3.12,7.6s-1.04,5.51-3.12,7.6c-2.08,2.09-4.6,3.14-7.56,3.14s-5.48-1.04-7.56-3.14c-2.08-2.09-3.12-4.63-3.12-7.6s1.04-5.51,3.12-7.6c2.08-2.09,4.6-3.14,7.56-3.14ZM896.89,465.84h18.1v61.43h-18.1v-61.43Z"/>
        <path d="M988.26,516.32c-3.06,4.13-7.24,7.4-12.55,9.79-5.31,2.39-11.1,3.59-17.38,3.59-4.43,0-8.65-.87-12.66-2.59-4.01-1.73-7.52-4.1-10.52-7.12-3-3.02-5.39-6.54-7.19-10.56-1.8-4.02-2.7-8.29-2.7-12.79s.86-8.91,2.58-12.97c1.72-4.06,4.07-7.58,7.07-10.56,3-2.98,6.5-5.33,10.52-7.06,4.01-1.73,8.32-2.59,12.9-2.59,6.35,0,12.13,1.19,17.32,3.56,5.19,2.37,9.31,5.57,12.37,9.59l-14.36,9.9c-1.37-2.01-3.32-3.62-5.85-4.83-2.53-1.21-5.69-1.81-9.47-1.81-2.09,0-4.04.44-5.85,1.32-1.81.88-3.4,2.08-4.77,3.61-1.37,1.52-2.43,3.31-3.2,5.35-.77,2.04-1.15,4.19-1.15,6.43s.4,4.25,1.21,6.25c.8,2,1.91,3.79,3.32,5.35,1.41,1.56,3.02,2.81,4.83,3.73,1.81.92,3.68,1.38,5.61,1.38,3.62,0,6.68-.56,9.17-1.69,2.49-1.13,4.38-2.57,5.67-4.34l15.09,9.07Z"/>
      </g>
      <g>
        <path d="M425.36,610.02c2.98.72,6.04,1.57,9.17,2.53,3.14.97,5.97,2.25,8.51,3.86,2.53,1.61,4.63,3.6,6.28,5.97,1.65,2.37,2.47,5.33,2.47,8.87,0,3.78-.93,6.94-2.78,9.47-1.85,2.53-4.18,4.59-7,6.16-2.82,1.57-5.93,2.67-9.35,3.32-3.42.64-6.74.97-9.96.97-6.28,0-11.85-1.43-16.72-4.28-4.87-2.85-8.99-6.9-12.37-12.13l15.69-8.33c1.61,2.74,3.72,4.81,6.34,6.22,2.61,1.41,5.21,2.11,7.78,2.11,3.7,0,6.38-.28,8.03-.84,1.65-.56,2.47-1.33,2.47-2.29,0-.8-.54-1.51-1.63-2.11-1.09-.6-2.33-1.15-3.74-1.63-1.41-.48-2.8-.86-4.16-1.15-1.37-.28-2.33-.46-2.9-.54-2.9-.56-5.83-1.31-8.81-2.23-2.98-.92-5.67-2.17-8.09-3.74s-4.4-3.5-5.97-5.79-2.35-5.13-2.35-8.51.74-6.5,2.23-9.11c1.49-2.61,3.44-4.81,5.85-6.58,2.41-1.77,5.17-3.1,8.27-3.98,3.1-.88,6.26-1.33,9.47-1.33,5.87,0,11.28,1.37,16.23,4.1,4.95,2.74,9.11,6.48,12.49,11.22l-14.6,9.17c-1.77-2.82-3.88-4.87-6.34-6.16-2.46-1.29-4.85-1.93-7.18-1.93-2.66,0-4.75.36-6.28,1.09-1.53.72-2.29,1.65-2.29,2.78,0,.48.36.95,1.09,1.39.72.44,1.63.89,2.72,1.33,1.09.44,2.29.84,3.62,1.21,1.33.36,2.59.66,3.8.9Z"/>
        <path d="M495.06,651.17c-4.98,0-9.64-.87-13.98-2.59-4.34-1.73-8.11-4.1-11.33-7.12-3.21-3.02-5.74-6.54-7.59-10.56-1.85-4.02-2.77-8.29-2.77-12.79s.94-8.91,2.83-12.97c1.89-4.06,4.46-7.58,7.71-10.56,3.25-2.98,7.03-5.33,11.33-7.06,4.3-1.73,8.9-2.59,13.8-2.59s9.52.89,13.86,2.65c4.34,1.77,8.11,4.16,11.33,7.18,3.21,3.02,5.74,6.54,7.59,10.56,1.85,4.02,2.77,8.29,2.77,12.79s-.95,8.89-2.83,12.91c-1.89,4.02-4.44,7.52-7.65,10.5-3.21,2.98-6.99,5.33-11.33,7.06-4.34,1.73-8.92,2.59-13.73,2.59ZM495.11,601.33c-2.65,0-5.05.48-7.18,1.44-2.13.96-3.94,2.25-5.43,3.85-1.49,1.6-2.66,3.41-3.5,5.41-.84,2-1.27,4.01-1.27,6.01s.38,4.11,1.15,6.07c.76,1.96,1.89,3.75,3.38,5.35,1.49,1.6,3.32,2.89,5.49,3.85,2.17.96,4.63,1.44,7.36,1.44s5.17-.48,7.3-1.44c2.13-.96,3.94-2.24,5.43-3.85,1.49-1.6,2.64-3.39,3.44-5.35.8-1.96,1.21-3.99,1.21-6.07s-.42-4.01-1.27-6.01c-.84-2-2.01-3.81-3.5-5.41-1.49-1.6-3.3-2.89-5.43-3.85s-4.53-1.44-7.18-1.44Z"/>
        <path d="M559.44,564.28v84.48h-18.1v-84.48h18.1Z"/>
        <path d="M632.22,648.76h-18.1v-6.28c-2.41,2.66-5.07,4.77-7.96,6.34-2.9,1.57-6.12,2.35-9.66,2.35s-6.84-.69-9.9-2.05c-3.06-1.37-5.71-3.24-7.97-5.61-2.25-2.37-4.04-5.13-5.37-8.27-1.33-3.14-1.99-6.52-1.99-10.14v-37.78h18.1v34.28c0,1.85.32,3.56.97,5.13.64,1.57,1.53,2.96,2.66,4.16,1.13,1.21,2.43,2.15,3.92,2.84,1.49.69,3.08,1.03,4.77,1.03s3.28-.34,4.77-1.03c1.49-.68,2.82-1.63,3.98-2.84,1.16-1.21,2.07-2.63,2.72-4.28.64-1.65.96-3.4.96-5.25v-34.04h18.1v61.43Z"/>
        <path d="M689.91,648.88c-1.77.64-4.12,1.19-7.06,1.63-2.94.44-7.06.66-12.37.66-2.65,0-5.13-.5-7.42-1.51-2.29-1-4.28-2.37-5.97-4.1-1.69-1.73-3.04-3.74-4.04-6.04-1.01-2.29-1.51-4.77-1.51-7.42l-.12-29.09h-12.55v-15.69h12.55v-19.55h18.1v19.55h14.97l-3.5,15.69h-11.47v25.35c.08,1.77.74,3.28,1.99,4.53,1.25,1.25,2.79,1.87,4.65,1.87,3.14,0,5.41-.34,6.82-1.03,1.41-.68,2.43-1.19,3.08-1.51l3.86,16.66Z"/>
        <path d="M707.83,559.45c2.96,0,5.48,1.05,7.56,3.14,2.08,2.09,3.12,4.63,3.12,7.6s-1.04,5.51-3.12,7.6c-2.08,2.09-4.6,3.14-7.56,3.14s-5.48-1.05-7.56-3.14c-2.08-2.09-3.12-4.63-3.12-7.6s1.04-5.51,3.12-7.6c2.08-2.09,4.6-3.14,7.56-3.14ZM698.84,587.33h18.1v61.43h-18.1v-61.43Z"/>
        <path d="M762.87,651.17c-4.98,0-9.64-.87-13.98-2.59-4.34-1.73-8.11-4.1-11.33-7.12-3.21-3.02-5.74-6.54-7.59-10.56-1.85-4.02-2.77-8.29-2.77-12.79s.94-8.91,2.83-12.97c1.89-4.06,4.46-7.58,7.71-10.56,3.25-2.98,7.03-5.33,11.33-7.06,4.3-1.73,8.9-2.59,13.8-2.59s9.52.89,13.86,2.65c4.34,1.77,8.11,4.16,11.33,7.18,3.21,3.02,5.74,6.54,7.59,10.56,1.85,4.02,2.77,8.29,2.77,12.79s-.95,8.89-2.83,12.91c-1.89,4.02-4.44,7.52-7.65,10.5-3.21,2.98-6.99,5.33-11.33,7.06-4.34,1.73-8.92,2.59-13.73,2.59ZM762.93,601.33c-2.65,0-5.05.48-7.18,1.44-2.13.96-3.94,2.25-5.43,3.85-1.49,1.6-2.65,3.41-3.5,5.41-.84,2-1.27,4.01-1.27,6.01s.38,4.11,1.15,6.07c.76,1.96,1.89,3.75,3.38,5.35,1.49,1.6,3.32,2.89,5.49,3.85,2.17.96,4.63,1.44,7.36,1.44s5.17-.48,7.3-1.44c2.13-.96,3.94-2.24,5.43-3.85,1.49-1.6,2.64-3.39,3.44-5.35.8-1.96,1.21-3.99,1.21-6.07s-.42-4.01-1.27-6.01c-.84-2-2.01-3.81-3.5-5.41-1.49-1.6-3.3-2.89-5.43-3.85s-4.53-1.44-7.18-1.44Z"/>
        <path d="M846.32,584.91c3.62,0,7,.69,10.14,2.05,3.14,1.37,5.89,3.24,8.27,5.61,2.37,2.37,4.24,5.13,5.61,8.27,1.37,3.14,2.05,6.52,2.05,10.14v37.78h-18.1v-34.28c0-1.77-.36-3.46-1.09-5.07-.72-1.61-1.69-3.02-2.9-4.22-1.21-1.21-2.62-2.15-4.22-2.84-1.61-.68-3.3-1.03-5.07-1.03s-3.58.36-5.19,1.09c-1.61.72-3.02,1.69-4.22,2.9-1.21,1.21-2.17,2.62-2.9,4.22-.72,1.61-1.09,3.34-1.09,5.19v34.04h-18.1v-61.43h18.1v7c2.49-2.82,5.29-5.09,8.39-6.82,3.1-1.73,6.54-2.59,10.32-2.59Z"/>
        <path d="M914.15,610.02c2.98.72,6.03,1.57,9.17,2.53s5.97,2.25,8.51,3.86c2.53,1.61,4.63,3.6,6.28,5.97,1.65,2.37,2.47,5.33,2.47,8.87,0,3.78-.93,6.94-2.78,9.47-1.85,2.53-4.18,4.59-7,6.16-2.82,1.57-5.93,2.67-9.35,3.32-3.42.64-6.74.97-9.96.97-6.28,0-11.85-1.43-16.72-4.28-4.87-2.85-8.99-6.9-12.37-12.13l15.69-8.33c1.61,2.74,3.72,4.81,6.34,6.22,2.61,1.41,5.21,2.11,7.79,2.11,3.7,0,6.38-.28,8.03-.84,1.65-.56,2.47-1.33,2.47-2.29,0-.8-.54-1.51-1.63-2.11-1.09-.6-2.33-1.15-3.74-1.63s-2.8-.86-4.16-1.15c-1.37-.28-2.33-.46-2.9-.54-2.9-.56-5.83-1.31-8.81-2.23-2.98-.92-5.67-2.17-8.09-3.74s-4.41-3.5-5.97-5.79-2.35-5.13-2.35-8.51.74-6.5,2.23-9.11c1.49-2.61,3.44-4.81,5.85-6.58,2.41-1.77,5.17-3.1,8.27-3.98,3.1-.88,6.26-1.33,9.47-1.33,5.87,0,11.28,1.37,16.23,4.1,4.95,2.74,9.11,6.48,12.49,11.22l-14.6,9.17c-1.77-2.82-3.88-4.87-6.34-6.16-2.46-1.29-4.85-1.93-7.18-1.93-2.66,0-4.75.36-6.28,1.09-1.53.72-2.29,1.65-2.29,2.78,0,.48.36.95,1.09,1.39.72.44,1.63.89,2.72,1.33,1.09.44,2.29.84,3.62,1.21,1.33.36,2.59.66,3.8.9Z"/>
      </g>
    </g>
  </g>
  <g id="Layer_5" data-name="Layer 5">
    <g>
      <path d="M302.52,394.44c6.08,28.36,12.79,58.8,5.32,88.11-.82,3.23-2.05,6.08-4.88,7.79-1.65,1-3.5,1.5-5.37,1.5-1.31,0-2.63-.25-3.9-.75-11-4.41-37-15.44-59.87-29.98,1.39,16.74,1.87,31.39,1.02,38.16-.4,3.17-2.42,6.13-6.2,9.07-2.82,2.2-6.78,4.47-11.75,6.77-4.65,2.14-10.25,4.32-16.58,6.48,2.09,4.45,1.77,8.28.9,11-3.27,10.31-18.11,18.51-45.36,25.08-10.75,2.59-26.46,3.84-39.68,3.84-6.91,0-13.14-.34-17.62-1-6.04-.89-9.22-4.01-10.82-6.46-2.13-3.27-2.63-7.02-2.56-10.08-1.59.08-3.14.14-4.65.18-1.67.05-3.28.07-4.82.07-12.49,0-20.94-1.5-25.77-4.53-6.41-4.04-11.82-12.68-16.55-26.42-3.62-10.5-6.81-23.98-9.48-40.05-4.85-29.12-6.44-56.86-6.44-63.14,0-8.31,10.36-15.37,33.58-22.91,13.89-4.51,27.55-7.56,30.23-8.14,1.76-1.71,3.62-3.33,5.57-4.83,8.47-6.56,18.5-11.03,28.99-12.93,8.16-1.48,16.55-1.36,24.56.3.07-.02.15-.04.22-.06,11.36-2.71,24.16-3.21,32.89-3.15,11.65.08,23.12,1.18,32.3,3.12,6.23,1.31,10.99,8.34,15.41,22.79,1.09,3.56,2.16,7.61,3.2,12.07,11.14-14.89,33.72-43.8,47.76-53.28,2.53-1.71,5.67-2.22,8.63-1.4,2.95.81,5.37,2.86,6.62,5.61,3.5,7.68,10.12,24.02,15.09,47.17ZM297.97,481.73c11.37-26.35-13.52-117.2-19.58-130.49-.02-.05-.08-.17-.26-.22-.18-.05-.3.03-.34.06-15.5,10.47-44.46,49.66-50.69,58.21.95,5.11,1.85,10.59,2.69,16.34,1.09,7.46,2.05,15.29,2.85,22.97,23.44,16.2,52.96,28.75,64.77,33.48.06.02.19.08.36-.03.17-.11.17-.26.19-.31ZM225.01,498.04c.84-6.74.14-25.12-1.97-46.19,0-.05-.01-.09-.01-.15-.78-7.74-1.76-15.85-2.91-23.88-2.33-16.15-5.14-29.94-8.1-39.88-2.3-7.68-4.33-11.92-5.81-14.23-1.48-2.32-2.4-2.71-2.48-2.74h0c-11.55-2.43-29.02-3.68-44.8-2.41,5.57,3.16,10.74,7.19,15.48,12.04,10.63,10.88,19.28,24.71,24.39,38.95,4.78,13.33,5.91,25.48,3.12,33.33-3.23,9.07-11.08,18.67-22.11,27.02-11.68,8.85-25.87,15.59-41.03,19.52-8.9,2.3-17.7,3.45-26.06,3.45-9.57,0-18.57-1.5-26.46-4.5-6.44-2.44-12.14-6.53-16.52-11.82-4.35-5.25-7.27-11.57-8.46-18.25-1.26-7.12-2.68-18.21-2.24-30.6.49-14.03,3.2-26.86,8.06-38.13,1.21-2.81,2.63-5.53,4.24-8.14-4.92,1.28-10.78,2.91-16.63,4.79-25.97,8.37-27.3,13.81-27.3,13.86,0,6.97,1.81,34.6,6.3,61.55,2.59,15.55,5.65,28.5,9.09,38.51,4.89,14.21,9.5,19.45,12.52,21.35,1.52.96,6.77,3.18,22.42,2.98,11.02-.13,25.13-1.45,40.78-3.79,30.96-4.63,64.53-12.79,85.56-20.79,19.09-7.26,20.89-11.61,20.97-11.86ZM192.56,449.68c1.57-4.42,1.58-13.81-3.11-26.89-4.65-12.96-12.53-25.55-22.2-35.45-11.15-11.42-24.95-17.42-39.64-17.42-3.28,0-6.61.3-9.96.91-18.35,3.32-34.23,15.79-41.46,32.54-10.11,23.47-7.59,49.72-5.18,63.27,1.82,10.27,9.03,18.96,18.8,22.67,12.85,4.89,29.34,5.14,46.43.72,13.89-3.59,26.87-9.76,37.51-17.82,9.39-7.11,16.25-15.32,18.81-22.52ZM191.76,529.7c.2-.63.73-2.27-.97-5.04-18.43,5.61-41.15,10.84-63.95,14.58-11.36,1.86-22.09,3.23-31.7,4.06-.15,1.8-.04,4.03.95,5.53.47.7,1.38,1.69,3.95,2.07,11.91,1.76,38.41.97,53.45-2.66,31.65-7.63,37.31-15.5,38.27-18.53Z"/>
      <path class="cls-3" d="M278.4,351.24c6.06,13.29,30.95,104.14,19.58,130.49-.02.05-.02.2-.19.31-.17.1-.3.05-.36.03-11.81-4.72-41.33-17.28-64.77-33.48-.8-7.68-1.77-15.5-2.85-22.97-.85-5.76-1.74-11.23-2.69-16.34,6.22-8.55,35.19-47.74,50.69-58.21.05-.03.16-.1.34-.06.18.05.24.17.26.22Z"/>
      <path d="M282.71,568.42c1.97,1.44,2.58,4.09,1.41,6.21-.19.34-4.69,8.49-12.41,18.75-10.44,13.87-21.31,24.5-32.31,31.58-.83.53-1.77.8-2.71.8-1.31,0-2.61-.5-3.57-1.49-.11-.1-10.67-10.88-21.46-22.34-22.33-23.68-23.9-27.1-24.58-28.57-3.3-7.14.48-19.35,6.09-26.28,4.26-5.28,9.53-7.61,14.84-6.58,5.76,1.13,13.65,4.49,22.22,9.47,7.92,4.61,15.63,10.14,21.93,15.73,2.42-.16,6.56-.38,11-.42,13.39-.1,17.49,1.61,19.56,3.12ZM272.19,575.35c-2.12-.21-5.12-.37-9.37-.32-6.28.07-11.98.53-12.04.54-1.4.12-2.79-.36-3.81-1.31-13.29-12.29-31.88-22.44-40.91-24.21-.17-.03-.33-.05-.49-.05-1.84,0-3.68,1.92-4.66,3.13-4.25,5.26-5.98,13.7-4.82,16.22.42.86,3.33,5.3,22.97,26.12,7.27,7.72,14.43,15.11,18.28,19.07,16.35-11.79,29.17-30.19,34.86-39.19Z"/>
      <path class="cls-3" d="M262.82,575.03c4.24-.05,7.25.1,9.37.32-5.69,9-18.52,27.41-34.86,39.19-3.85-3.96-11-11.35-18.28-19.07-19.63-20.82-22.55-25.26-22.97-26.12-1.16-2.51.57-10.96,4.82-16.22.98-1.21,2.82-3.13,4.66-3.13.17,0,.33.01.49.05,9.03,1.76,27.62,11.92,40.91,24.21,1.02.95,2.41,1.42,3.81,1.31.06,0,5.76-.47,12.04-.54Z"/>
      <path class="cls-3" d="M223.04,451.85c2.12,21.07,2.81,39.45,1.97,46.19-.08.25-1.89,4.6-20.97,11.86-21.03,8-54.61,16.16-85.56,20.79-15.65,2.34-29.76,3.66-40.78,3.79-15.65.2-20.89-2.01-22.42-2.98-3.01-1.9-7.62-7.14-12.52-21.35-3.44-10.01-6.5-22.96-9.09-38.51-4.49-26.95-6.3-54.58-6.3-61.55,0-.05,1.33-5.49,27.3-13.86,5.85-1.89,11.71-3.52,16.63-4.79-1.61,2.61-3.03,5.33-4.24,8.14-4.86,11.27-7.57,24.1-8.06,38.13-.44,12.39.98,23.48,2.24,30.6,1.19,6.69,4.11,13,8.46,18.25,4.38,5.29,10.09,9.37,16.52,11.82,7.9,3,16.89,4.5,26.46,4.5,8.36,0,17.16-1.15,26.06-3.45,15.16-3.92,29.35-10.67,41.03-19.52,11.03-8.35,18.89-17.95,22.11-27.02,2.79-7.85,1.65-20-3.12-33.33-5.11-14.24-13.76-28.07-24.39-38.95-4.74-4.85-9.92-8.87-15.48-12.04,15.78-1.27,33.25-.01,44.8,2.41h0c.08.03,1,.42,2.48,2.74,1.48,2.31,3.51,6.54,5.81,14.23,2.97,9.94,5.77,23.73,8.1,39.88,1.16,8.03,2.13,16.13,2.91,23.88,0,.05,0,.1.01.15Z"/>
      <path class="cls-4" d="M189.44,422.79c4.69,13.09,4.69,22.48,3.11,26.89-2.56,7.2-9.42,15.41-18.81,22.52-10.64,8.06-23.62,14.23-37.51,17.82-17.08,4.42-33.57,4.17-46.43-.72-9.77-3.71-16.98-12.4-18.8-22.67-2.41-13.55-4.93-39.8,5.18-63.27,7.22-16.76,23.11-29.22,41.46-32.54,3.35-.61,6.68-.91,9.96-.91,14.69,0,28.5,6,39.64,17.42,9.67,9.9,17.55,22.49,22.2,35.45ZM174.53,451.38c12.13-14.01,3.26-60.3-30.66-65.01-13.77-1.91-27.48,3.77-35.99,14.57-7.32,9.28-12.72,23.94-3.93,44.93,18.63,44.48,59,18.89,70.58,5.5Z"/>
      <path class="cls-3" d="M190.79,524.65c1.7,2.77,1.17,4.42.97,5.04-.96,3.03-6.62,10.9-38.27,18.53-15.05,3.63-41.55,4.43-53.45,2.66-2.56-.38-3.48-1.37-3.95-2.07-.99-1.5-1.1-3.73-.95-5.53,9.61-.83,20.34-2.2,31.7-4.06,22.81-3.74,45.53-8.97,63.95-14.58Z"/>
      <path d="M143.87,386.37c33.92,4.71,42.79,51,30.66,65.01-11.58,13.39-51.95,38.98-70.58-5.5-8.79-20.99-3.39-35.65,3.93-44.93,8.51-10.8,22.22-16.48,35.99-14.57ZM151.01,442.8c3.14,16.67,32.07-9.41,11.95-15.51,0,0-15.09-1.16-11.95,15.51ZM126.44,436.92c9.49-5.86,21.23-25.43,11.27-33.24,0,0-14.36-2.87-22.53,7.63-8.17,10.49,1.78,31.47,11.26,25.61Z"/>
      <path class="cls-2" d="M162.96,427.29c20.12,6.1-8.81,32.19-11.95,15.51-3.14-16.67,11.95-15.51,11.95-15.51Z"/>
      <path class="cls-2" d="M137.71,403.68c9.96,7.81-1.78,27.38-11.27,33.24-9.48,5.86-19.44-15.12-11.26-25.61,8.17-10.5,22.53-7.63,22.53-7.63Z"/>
      <path d="M137.73,581.73c.11,6.02-.98,16.44-3.66,26.12-2.61,9.42-6.16,16.22-10.62,20.34.9,1.11,1.87,2.37,2.81,3.71,5.02,7.11,6.49,12.33,4.62,16.41-.79,1.71-2.49,2.82-4.4,2.86-.07,0-.4.01-.95.01-2.9,0-12.06-.18-23.21-2.23-7.85-1.44-15.07-3.52-21.48-6.16-8.18-3.38-15.06-7.73-20.44-12.91-1.7-1.64-1.97-4.23-.65-6.18.09-.13,8.56-12.55,17.65-25.36,18.8-26.47,21.87-28.72,23.18-29.67,6.39-4.69,19.35-3.66,27.44.23,6.16,2.97,9.61,7.53,9.71,12.84ZM124.52,605.31c2.42-8.71,3.41-18.24,3.31-23.4-.04-2-2.62-3.55-4.16-4.29-6.14-2.95-14.91-2.81-17.17-1.17-.76.59-4.56,4.33-21.09,27.62-6.09,8.58-11.89,16.97-15.02,21.52,15.55,12.45,39.33,15.14,50.16,15.71-.63-1.18-1.57-2.72-3-4.66-2.49-3.4-5.04-6.11-5.06-6.13-1.11-1.17-1.55-2.8-1.21-4.36.35-1.56,1.46-2.85,2.97-3.45,3.9-1.56,7.64-7.9,10.27-17.4Z"/>
      <path class="cls-3" d="M127.83,581.91c.1,5.16-.89,14.68-3.31,23.4-2.63,9.49-6.37,15.84-10.27,17.4-1.51.6-2.61,1.89-2.97,3.45-.35,1.56.1,3.19,1.21,4.36.02.03,2.58,2.73,5.06,6.13,1.43,1.94,2.37,3.48,3,4.66-10.82-.57-34.61-3.26-50.16-15.71,3.13-4.55,8.92-12.94,15.02-21.52,16.53-23.29,20.33-27.03,21.09-27.62,2.26-1.65,11.03-1.79,17.17,1.17,1.54.74,4.12,2.29,4.16,4.29Z"/>
    </g>
  </g>
</svg>