<?xml version="1.0" encoding="UTF-8"?>
<svg version="1.1" xmlns="http://www.w3.org/2000/svg" width="580" height="430">
<path d="M0 0 C165.99 0 331.98 0 503 0 C504.16912009 205.76513619 504.16912009 205.76513619 504.12695312 281.14160156 C504.12372294 288.74464013 504.128041 296.34767225 504.1321975 303.9507097 C504.13726181 313.62168955 504.13676619 323.29266167 504.13381577 332.96364212 C504.13272187 336.94663423 504.13360866 340.92961779 504.13629532 344.9126091 C504.13917412 349.47357188 504.13719878 354.03450685 504.13140106 358.59546661 C504.13008654 360.24589873 504.13044517 361.89633322 504.13266373 363.54676437 C504.1548856 381.73582474 504.1548856 381.73582474 503 388 C497.23856245 393.76143755 474.98182518 391.25591807 466.94636536 391.25994873 C465.14620911 391.25446876 463.34605347 391.2487859 461.54589844 391.24291992 C459.58816973 391.24399673 457.63044134 391.24594128 455.67271423 391.24867249 C450.41308379 391.25346685 445.15353994 391.24592799 439.89391994 391.23571944 C434.3273322 391.22682066 428.76074624 391.22869883 423.19415283 391.2290802 C413.83042999 391.228147 404.46673976 391.21951938 395.10302734 391.20581055 C384.39021532 391.19018101 373.67743915 391.18480958 362.96461654 391.1855461 C351.42935129 391.18623121 339.89409925 391.17922784 328.35883808 391.1700995 C325.10024525 391.16800309 321.84165466 391.16726313 318.58306122 391.16686058 C295.84831267 391.16148072 273.13218245 391.03139182 250.40616226 390.35885143 C235.27783374 389.9128457 220.15539038 389.84549205 205.02124023 389.86962891 C201.26405798 389.87540443 197.50694545 389.8718808 193.7497654 389.86617851 C177.95176812 389.84599148 162.20270748 390.0522211 146.41772461 390.77294922 C138.94387592 391.10678664 131.4799954 391.14746245 124 391.125 C122.02193359 391.13080078 122.02193359 391.13080078 120.00390625 391.13671875 C112.5208166 391.14065287 105.10202887 390.87210877 97.63713074 390.3901825 C88.70291289 389.82729935 79.760984 389.63608726 70.8125 389.4375 C69.89477814 389.41598877 68.97705627 389.39447754 68.03152466 389.37231445 C52.75550979 389.01807275 37.4878108 388.91342517 22.20825195 389.03686523 C21.4587326 389.04113022 20.70921326 389.0453952 19.9369812 389.04978943 C17.93834576 389.06155242 15.93974824 389.07934043 13.94116211 389.09765625 C9.28115669 388.98218811 4.63830194 388.46383019 0 388 C0 259.96 0 131.92 0 0 Z M22 19 C21.5403531 23.29453207 21.67600221 27.62122818 21.6875 31.9375 C21.67138672 33.14341797 21.65527344 34.34933594 21.63867188 35.59179688 C21.63802734 36.74615234 21.63738281 37.90050781 21.63671875 39.08984375 C21.63373779 40.15066162 21.63075684 41.21147949 21.62768555 42.30444336 C21.79874593 44.9900217 21.79874593 44.9900217 23.23535156 46.84887695 C25.50017341 48.32627526 26.90388471 48.35922657 29.59765625 48.328125 C30.48130859 48.32296875 31.36496094 48.3178125 32.27539062 48.3125 C33.65500977 48.2815625 33.65500977 48.2815625 35.0625 48.25 C35.98611328 48.24484375 36.90972656 48.2396875 37.86132812 48.234375 C42.58816617 48.34239042 42.58816617 48.34239042 47 47 C47.04939662 43.04903022 47.08571755 39.0981797 47.10986328 35.14697266 C47.12488107 33.1408864 47.15028981 31.13488676 47.17578125 29.12890625 C47.18222656 27.87207031 47.18867187 26.61523438 47.1953125 25.3203125 C47.20578613 24.15773926 47.21625977 22.99516602 47.22705078 21.79736328 C47.29261997 18.86089721 47.29261997 18.86089721 45 17 C42.80397205 16.68980304 42.80397205 16.68980304 40.28125 16.734375 C39.34925781 16.73179688 38.41726562 16.72921875 37.45703125 16.7265625 C36.48121094 16.73429687 35.50539063 16.74203125 34.5 16.75 C33.52417969 16.74226563 32.54835938 16.73453125 31.54296875 16.7265625 C30.61097656 16.72914062 29.67898437 16.73171875 28.71875 16.734375 C27.43387695 16.73775879 27.43387695 16.73775879 26.12304688 16.74121094 C23.78411453 16.80498428 23.78411453 16.80498428 22 19 Z M76 19 C75.5327963 21.77728785 75.5327963 21.77728785 75.6015625 25.03125 C75.59769531 26.23394531 75.59382813 27.43664062 75.58984375 28.67578125 C75.60144531 29.93777344 75.61304687 31.19976562 75.625 32.5 C75.61339844 33.76199219 75.60179688 35.02398437 75.58984375 36.32421875 C75.59371094 37.52691406 75.59757812 38.72960937 75.6015625 39.96875 C75.60494629 41.07669922 75.60833008 42.18464844 75.61181641 43.32617188 C75.73991699 44.20853516 75.86801758 45.09089844 76 46 C80.15950425 48.77300283 83.55132168 48.33074562 88.4375 48.3125 C89.72624023 48.33666992 89.72624023 48.33666992 91.04101562 48.36132812 C91.87181641 48.36197266 92.70261719 48.36261719 93.55859375 48.36328125 C94.31454834 48.36626221 95.07050293 48.36924316 95.84936523 48.37231445 C98.69451661 47.87976639 100.00139049 47.08682438 102 45 C102.59984371 42.34940796 102.59984371 42.34940796 102.49609375 39.34375 C102.49673828 38.23902344 102.49738281 37.13429688 102.49804688 35.99609375 C102.46807617 34.26552734 102.46807617 34.26552734 102.4375 32.5 C102.44458984 31.34628906 102.45167969 30.19257812 102.45898438 29.00390625 C102.71405935 23.30126457 102.71405935 23.30126457 100.75805664 18.16918945 C98.51155888 16.67516393 97.12493756 16.62674331 94.4375 16.63671875 C93.55835938 16.63736328 92.67921875 16.63800781 91.7734375 16.63867188 C90.40058594 16.6628418 90.40058594 16.6628418 89 16.6875 C88.08476563 16.68427734 87.16953125 16.68105469 86.2265625 16.67773438 C80.79775197 16.61942343 80.79775197 16.61942343 76 19 Z M131 17 C131 17.66 131 18.32 131 19 C130.34 19 129.68 19 129 19 C128.91307926 23.27070558 128.85963485 27.54118458 128.8125 31.8125 C128.78736328 33.02744141 128.76222656 34.24238281 128.73632812 35.49414062 C128.72666016 36.65751953 128.71699219 37.82089844 128.70703125 39.01953125 C128.6913208 40.09307861 128.67561035 41.16662598 128.65942383 42.27270508 C128.79171957 44.98645249 128.79171957 44.98645249 130.2331543 46.84887695 C132.47921084 48.31221212 133.89056505 48.38717935 136.5625 48.3984375 C137.44164062 48.40230469 138.32078125 48.40617187 139.2265625 48.41015625 C140.59941406 48.39275391 140.59941406 48.39275391 142 48.375 C142.91523438 48.38660156 143.83046875 48.39820312 144.7734375 48.41015625 C145.65257812 48.40628906 146.53171875 48.40242188 147.4375 48.3984375 C148.24058594 48.39505371 149.04367188 48.39166992 149.87109375 48.38818359 C152.04373931 48.13497257 152.04373931 48.13497257 153.76025391 46.84448242 C155.52379964 44.22069589 155.38840919 42.23372023 155.3984375 39.08984375 C155.40230469 37.93548828 155.40617187 36.78113281 155.41015625 35.59179688 C155.39855469 34.38587891 155.38695312 33.17996094 155.375 31.9375 C155.38660156 30.72771484 155.39820313 29.51792969 155.41015625 28.27148438 C155.40435547 26.54188477 155.40435547 26.54188477 155.3984375 24.77734375 C155.39505371 23.71765381 155.39166992 22.65796387 155.38818359 21.56616211 C155.19603271 20.29591187 155.19603271 20.29591187 155 19 C151.74610012 16.83073341 150.86604043 16.75919951 147.11328125 16.8046875 C146.17548828 16.81113281 145.23769531 16.81757812 144.27148438 16.82421875 C143.29501953 16.84097656 142.31855469 16.85773437 141.3125 16.875 C139.83040039 16.88853516 139.83040039 16.88853516 138.31835938 16.90234375 C135.87866235 16.9259157 133.43945303 16.95881978 131 17 Z M184 18 C184 27.57 184 37.14 184 47 C187.64866378 48.82433189 191.92006123 48.27044726 195.9375 48.3125 C197.31711914 48.35600586 197.31711914 48.35600586 198.72460938 48.40039062 C199.60826172 48.40876953 200.49191406 48.41714844 201.40234375 48.42578125 C202.21179443 48.44036377 203.02124512 48.45494629 203.85522461 48.4699707 C206.1317512 48.16544328 206.1317512 48.16544328 207.76464844 46.31933594 C209.26466262 43.50310378 209.37310723 41.64713398 209.36328125 38.46484375 C209.36231445 36.88026367 209.36231445 36.88026367 209.36132812 35.26367188 C209.34521484 34.16603516 209.32910156 33.06839844 209.3125 31.9375 C209.31572266 30.83599609 209.31894531 29.73449219 209.32226562 28.59960938 C209.47614699 22.44428748 209.47614699 22.44428748 207 17 C204.80905414 16.56800509 204.80905414 16.56800509 202.28125 16.671875 C201.34925781 16.67703125 200.41726562 16.6821875 199.45703125 16.6875 C198.48121094 16.708125 197.50539062 16.72875 196.5 16.75 C195.52417969 16.75515625 194.54835937 16.7603125 193.54296875 16.765625 C188.60982441 16.63286103 188.60982441 16.63286103 184 18 Z M238 18 C237.91224395 20.14558827 237.89304781 22.29404421 237.90234375 24.44140625 C237.90556641 25.74658203 237.90878906 27.05175781 237.91210938 28.39648438 C237.92046599 29.7851569 237.92893095 31.17382877 237.9375 32.5625 C237.94251334 33.95507656 237.94707653 35.34765481 237.95117188 36.74023438 C237.96300566 40.1601987 237.9794912 43.58007844 238 47 C241.63897951 48.81948976 245.93159288 48.18470453 249.9375 48.1875 C250.85724609 48.19974609 251.77699219 48.21199219 252.72460938 48.22460938 C253.60826172 48.22654297 254.49191406 48.22847656 255.40234375 48.23046875 C256.21179443 48.23457764 257.02124512 48.23868652 257.85522461 48.24291992 C260.29777907 48.13192317 260.29777907 48.13192317 263 46 C263.45069754 43.22188251 263.45069754 43.22188251 263.36328125 39.96875 C263.36263672 38.76605469 263.36199219 37.56335938 263.36132812 36.32421875 C263.34521484 35.06222656 263.32910156 33.80023438 263.3125 32.5 C263.31572266 31.23800781 263.31894531 29.97601563 263.32226562 28.67578125 C263.77885537 22.24824075 263.77885537 22.24824075 261 17 C258.68895725 16.7059085 258.68895725 16.7059085 256.02734375 16.76953125 C254.55491211 16.77243164 254.55491211 16.77243164 253.05273438 16.77539062 C252.02470703 16.78763672 250.99667969 16.79988281 249.9375 16.8125 C248.90560547 16.81314453 247.87371094 16.81378906 246.81054688 16.81445312 C242.05959754 16.39591689 242.05959754 16.39591689 238 18 Z M292.22607422 18.18505859 C289.59612699 22.0781346 290.53332464 27.40471056 290.5625 31.9375 C290.54251953 33.03513672 290.52253906 34.13277344 290.50195312 35.26367188 C290.50259766 36.32005859 290.50324219 37.37644531 290.50390625 38.46484375 C290.50205322 39.430271 290.5002002 40.39569824 290.49829102 41.39038086 C291.14898954 44.77496309 292.26555361 45.94901663 295 48 C297.15438566 48.5893493 297.15438566 48.5893493 299.44140625 48.49609375 C300.27220703 48.49673828 301.10300781 48.49738281 301.95898438 48.49804688 C303.24772461 48.46807617 303.24772461 48.46807617 304.5625 48.4375 C305.85704102 48.44813477 305.85704102 48.44813477 307.17773438 48.45898438 C311.70088021 48.55964291 311.70088021 48.55964291 315.74658203 46.84228516 C317.53231149 44.21760372 317.37214836 42.24533693 317.36328125 39.08984375 C317.36263672 37.93548828 317.36199219 36.78113281 317.36132812 35.59179688 C317.34521484 34.38587891 317.32910156 33.17996094 317.3125 31.9375 C317.31572266 30.72771484 317.31894531 29.51792969 317.32226562 28.27148438 C317.74866131 22.0540993 317.74866131 22.0540993 315 17 C311.54056667 16.54908325 308.04795566 16.67593578 304.5625 16.6875 C303.59505859 16.67138672 302.62761719 16.65527344 301.63085938 16.63867188 C300.70208984 16.63802734 299.77332031 16.63738281 298.81640625 16.63671875 C297.53938843 16.63224731 297.53938843 16.63224731 296.23657227 16.62768555 C293.96349332 16.84846927 293.96349332 16.84846927 292.22607422 18.18505859 Z M346 18 C345.91224395 20.14558827 345.89304781 22.29404421 345.90234375 24.44140625 C345.90556641 25.74658203 345.90878906 27.05175781 345.91210938 28.39648438 C345.92046599 29.7851569 345.92893095 31.17382877 345.9375 32.5625 C345.94251334 33.95507656 345.94707653 35.34765481 345.95117188 36.74023438 C345.96300566 40.1601987 345.9794912 43.58007844 346 47 C349.64379989 48.82189994 353.92582485 48.22760405 357.9375 48.25 C359.31711914 48.2809375 359.31711914 48.2809375 360.72460938 48.3125 C362.05008789 48.32023437 362.05008789 48.32023437 363.40234375 48.328125 C364.21179443 48.3374707 365.02124512 48.34681641 365.85522461 48.35644531 C368.04290014 48.1404115 368.04290014 48.1404115 369.76464844 46.84887695 C371.52275747 44.21762009 371.37212381 42.23660109 371.36328125 39.08984375 C371.36263672 37.93548828 371.36199219 36.78113281 371.36132812 35.59179688 C371.34521484 34.38587891 371.32910156 33.17996094 371.3125 31.9375 C371.31572266 30.72771484 371.31894531 29.51792969 371.32226562 28.27148438 C371.74866131 22.0540993 371.74866131 22.0540993 369 17 C366.68895725 16.7059085 366.68895725 16.7059085 364.02734375 16.76953125 C362.55491211 16.77243164 362.55491211 16.77243164 361.05273438 16.77539062 C360.02470703 16.78763672 358.99667969 16.79988281 357.9375 16.8125 C356.90560547 16.81314453 355.87371094 16.81378906 354.81054688 16.81445312 C350.05959754 16.39591689 350.05959754 16.39591689 346 18 Z M399 19 C398.53954511 23.48257952 398.6759998 27.99652035 398.6875 32.5 C398.67138672 33.76199219 398.65527344 35.02398437 398.63867188 36.32421875 C398.63802734 37.52691406 398.63738281 38.72960937 398.63671875 39.96875 C398.63373779 41.07669922 398.63075684 42.18464844 398.62768555 43.32617188 C398.75054932 44.20853516 398.87341309 45.09089844 399 46 C402.10403365 48.06935577 402.81900019 48.25517909 406.34375 48.265625 C407.17777344 48.26820312 408.01179688 48.27078125 408.87109375 48.2734375 C410.17240234 48.26183594 410.17240234 48.26183594 411.5 48.25 C412.36753906 48.25773437 413.23507812 48.26546875 414.12890625 48.2734375 C414.96292969 48.27085938 415.79695313 48.26828125 416.65625 48.265625 C417.41744141 48.26336914 418.17863281 48.26111328 418.96289062 48.25878906 C421.31136746 48.11411311 421.31136746 48.11411311 424 46 C424.45069754 43.22188251 424.45069754 43.22188251 424.36328125 39.96875 C424.36263672 38.76605469 424.36199219 37.56335938 424.36132812 36.32421875 C424.34521484 35.06222656 424.32910156 33.80023438 424.3125 32.5 C424.31572266 31.23800781 424.31894531 29.97601563 424.32226562 28.67578125 C424.77885537 22.24824075 424.77885537 22.24824075 422 17 C419.80397205 16.68980304 419.80397205 16.68980304 417.28125 16.734375 C416.34925781 16.73179688 415.41726563 16.72921875 414.45703125 16.7265625 C413.48121094 16.73429687 412.50539063 16.74203125 411.5 16.75 C410.52417969 16.74226563 409.54835938 16.73453125 408.54296875 16.7265625 C407.61097656 16.72914062 406.67898438 16.73171875 405.71875 16.734375 C404.43387695 16.73775879 404.43387695 16.73775879 403.12304688 16.74121094 C400.78411453 16.80498428 400.78411453 16.80498428 399 19 Z M452 19 C451.72123233 21.91487922 451.72123233 21.91487922 451.8046875 25.3203125 C451.81113281 26.57714844 451.81757813 27.83398438 451.82421875 29.12890625 C451.84097656 30.44761719 451.85773438 31.76632813 451.875 33.125 C451.88503017 34.46483721 451.89415596 35.80468152 451.90234375 37.14453125 C451.92597925 40.42986573 451.95892766 43.71484465 452 47 C455.77039057 48.88519529 460.35154595 48.18475994 464.5 48.1875 C465.96373047 48.20586914 465.96373047 48.20586914 467.45703125 48.22460938 C468.38902344 48.22654297 469.32101562 48.22847656 470.28125 48.23046875 C471.56612305 48.23663208 471.56612305 48.23663208 472.87695312 48.24291992 C475.21651269 48.19824733 475.21651269 48.19824733 477 46 C477.31178425 43.21692252 477.31178425 43.21692252 477.265625 39.96875 C477.26820313 38.76605469 477.27078125 37.56335938 477.2734375 36.32421875 C477.26570313 35.06222656 477.25796875 33.80023438 477.25 32.5 C477.25773437 31.23800781 477.26546875 29.97601563 477.2734375 28.67578125 C477.27085937 27.47308594 477.26828125 26.27039063 477.265625 25.03125 C477.26336914 23.92330078 477.26111328 22.81535156 477.25878906 21.67382812 C477.27117301 18.84737418 477.27117301 18.84737418 475 17 C472.80397205 16.68980304 472.80397205 16.68980304 470.28125 16.734375 C469.34925781 16.73179688 468.41726563 16.72921875 467.45703125 16.7265625 C466.48121094 16.73429687 465.50539063 16.74203125 464.5 16.75 C463.52417969 16.74226563 462.54835938 16.73453125 461.54296875 16.7265625 C460.61097656 16.72914062 459.67898438 16.73171875 458.71875 16.734375 C457.43387695 16.73775879 457.43387695 16.73775879 456.12304688 16.74121094 C453.78411453 16.80498428 453.78411453 16.80498428 452 19 Z M12 61 C12 149.11 12 237.22 12 328 C169.41 328 326.82 328 489 328 C489 239.56 489 151.12 489 60 C407.2529302 59.9708647 407.2529302 59.9708647 325.50585938 59.95117188 C315.18417336 59.94933864 304.86248734 59.94746443 294.54080135 59.94547401 C293.14083984 59.94520416 291.74087832 59.94493579 290.3409168 59.94466891 C268.04076829 59.94040554 245.74062232 59.93290436 223.44047535 59.92370278 C199.86183441 59.91399139 176.28319573 59.90800164 152.70455271 59.90591151 C138.5859164 59.90454033 124.46728739 59.90021166 110.34865332 59.89208353 C100.66312711 59.88679205 90.97760467 59.88520118 81.29207712 59.88649862 C75.70655389 59.88713824 70.12104341 59.88616707 64.53552246 59.88079453 C59.41461058 59.87590501 54.29371993 59.8756976 49.17280705 59.87910111 C47.32732988 59.87952136 45.48185136 59.87827267 43.63637685 59.87511682 C41.11120689 59.8710523 38.5861117 59.87329794 36.06094265 59.87695217 C35.35914026 59.87432516 34.65733787 59.87169814 33.93426874 59.86899152 C26.56762404 59.89277923 19.4049538 60.50633641 12 61 Z M22 338 C21.90022976 339.89111673 21.86919328 341.78594186 21.8671875 343.6796875 C21.86589844 344.83597656 21.86460938 345.99226563 21.86328125 347.18359375 C21.86714844 348.40175781 21.87101562 349.61992187 21.875 350.875 C21.87113281 352.08542969 21.86726563 353.29585938 21.86328125 354.54296875 C21.86457031 355.70183594 21.86585937 356.86070312 21.8671875 358.0546875 C21.86831543 359.12187012 21.86944336 360.18905273 21.87060547 361.28857422 C21.88205577 364.0972452 21.88205577 364.0972452 23 367 C35.23550778 368.65529066 35.23550778 368.65529066 47 366 C47 356.76 47 347.52 47 338 C44.51004335 336.75502167 42.81005089 336.87065628 40.02734375 336.8671875 C39.04572266 336.86589844 38.06410156 336.86460937 37.05273438 336.86328125 C35.51069336 336.86908203 35.51069336 336.86908203 33.9375 336.875 C32.3896582 336.86919922 32.3896582 336.86919922 30.81054688 336.86328125 C29.83021484 336.86457031 28.84988281 336.86585938 27.83984375 336.8671875 C26.48427368 336.86887939 26.48427368 336.86887939 25.10131836 336.87060547 C23.01285515 336.76637478 23.01285515 336.76637478 22 338 Z M76 338 C75.92590599 341.95092059 75.87142594 345.90157294 75.83520508 349.85302734 C75.81267749 351.85919374 75.7745643 353.86516526 75.73632812 355.87109375 C75.72666016 357.12792969 75.71699219 358.38476562 75.70703125 359.6796875 C75.6913208 360.84226074 75.67561035 362.00483398 75.65942383 363.20263672 C75.77181396 364.1257666 75.8842041 365.04889648 76 366 C80.15950425 368.77300283 83.55132168 368.33074562 88.4375 368.3125 C89.72624023 368.33666992 89.72624023 368.33666992 91.04101562 368.36132812 C91.87181641 368.36197266 92.70261719 368.36261719 93.55859375 368.36328125 C94.31454834 368.36626221 95.07050293 368.36924316 95.84936523 368.37231445 C98.69451661 367.87976639 100.00139049 367.08682438 102 365 C102.59984371 362.34940796 102.59984371 362.34940796 102.49609375 359.34375 C102.49673828 358.23902344 102.49738281 357.13429688 102.49804688 355.99609375 C102.46807617 354.26552734 102.46807617 354.26552734 102.4375 352.5 C102.44458984 351.34628906 102.45167969 350.19257813 102.45898438 349.00390625 C102.70956361 343.30678878 102.70956361 343.30678878 100.77392578 338.16699219 C98.44866086 336.63729685 96.95609362 336.64143968 94.18359375 336.671875 C92.79043945 336.67960937 92.79043945 336.67960937 91.36914062 336.6875 C89.91797852 336.7184375 89.91797852 336.7184375 88.4375 336.75 C86.98053711 336.75773437 86.98053711 336.75773437 85.49414062 336.765625 C80.58584414 336.635771 80.58584414 336.635771 76 338 Z M129 338 C128.91309747 342.43737712 128.85964074 346.87453634 128.8125 351.3125 C128.78736328 352.57513672 128.76222656 353.83777344 128.73632812 355.13867188 C128.72666016 356.34716797 128.71699219 357.55566406 128.70703125 358.80078125 C128.6913208 359.91622314 128.67561035 361.03166504 128.65942383 362.1809082 C128.77912022 364.9810178 128.77912022 364.9810178 130.26489258 366.86254883 C132.35954026 368.23569693 133.56159728 368.38649796 136.0546875 368.3984375 C136.83457031 368.40230469 137.61445313 368.40617187 138.41796875 368.41015625 C139.63419922 368.39275391 139.63419922 368.39275391 140.875 368.375 C142.07962891 368.39240234 142.07962891 368.39240234 143.30859375 368.41015625 C144.48228516 368.40435547 144.48228516 368.40435547 145.6796875 368.3984375 C146.38851074 368.39505371 147.09733398 368.39166992 147.82763672 368.38818359 C150.85276236 367.84761832 152.62353886 366.95809721 155 365 C155.69010539 362.10763185 155.69010539 362.10763185 155.48828125 358.80078125 C155.47216797 357.59228516 155.45605469 356.38378906 155.43945312 355.13867188 C155.39755859 353.87603516 155.35566406 352.61339844 155.3125 351.3125 C155.28994141 350.03826172 155.26738281 348.76402344 155.24414062 347.45117188 C155.18512262 344.2996104 155.10282975 341.15038721 155 338 C152.51831386 336.75915693 150.83573801 336.87066897 148.0625 336.8671875 C147.08539063 336.86589844 146.10828125 336.86460937 145.1015625 336.86328125 C144.07804688 336.86714844 143.05453125 336.87101562 142 336.875 C140.97648438 336.87113281 139.95296875 336.86726563 138.8984375 336.86328125 C137.92132813 336.86457031 136.94421875 336.86585938 135.9375 336.8671875 C134.58978516 336.86887939 134.58978516 336.86887939 133.21484375 336.87060547 C130.95868875 336.85636916 130.95868875 336.85636916 129 338 Z M184 338 C183.91232888 340.07262076 183.89304127 342.14820294 183.90234375 344.22265625 C183.90556641 345.48271484 183.90878906 346.74277344 183.91210938 348.04101562 C183.92046597 349.38151109 183.92893093 350.72200588 183.9375 352.0625 C183.9425134 353.40689942 183.94707658 354.7513006 183.95117188 356.09570312 C183.96300512 359.39717941 183.97949029 362.69856803 184 366 C190.64118387 369.58284903 199.76106994 368.73104849 207 367 C209.2380858 363.6428713 209.25650054 362.48862636 209.265625 358.5625 C209.26820313 357.50289063 209.27078125 356.44328125 209.2734375 355.3515625 C209.26570313 354.24554688 209.25796875 353.13953125 209.25 352 C209.25773437 350.89398438 209.26546875 349.78796875 209.2734375 348.6484375 C209.26957031 347.05902344 209.26957031 347.05902344 209.265625 345.4375 C209.26336914 344.46683594 209.26111328 343.49617188 209.25878906 342.49609375 C209.17003055 339.75027999 209.17003055 339.75027999 207 337 C204.69447906 336.56755462 204.69447906 336.56755462 202.02734375 336.671875 C201.04572266 336.67703125 200.06410156 336.6821875 199.05273438 336.6875 C197.51069336 336.7184375 197.51069336 336.7184375 195.9375 336.75 C194.3896582 336.75773437 194.3896582 336.75773437 192.81054688 336.765625 C188.05861715 336.37595118 188.05861715 336.37595118 184 338 Z M238 338 C237.90006468 340.0605531 237.86919094 342.1245259 237.8671875 344.1875 C237.86589844 345.44304687 237.86460937 346.69859375 237.86328125 347.9921875 C237.86537598 348.64928711 237.8674707 349.30638672 237.86962891 349.98339844 C237.87497766 351.99161335 237.86968309 353.99960459 237.86328125 356.0078125 C237.86457031 357.26335937 237.86585938 358.51890625 237.8671875 359.8125 C237.86831543 360.97394531 237.86944336 362.13539063 237.87060547 363.33203125 C237.69662526 365.92063284 237.69662526 365.92063284 239 367 C242.63899175 367.25156269 246.29083673 367.18522226 249.9375 367.1875 C250.96552734 367.19974609 251.99355469 367.21199219 253.05273438 367.22460938 C254.03435547 367.22654297 255.01597656 367.22847656 256.02734375 367.23046875 C257.38460571 367.23663208 257.38460571 367.23663208 258.76928711 367.24291992 C261.20418778 367.21341297 261.20418778 367.21341297 263 365 C263.27861397 362.18288521 263.27861397 362.18288521 263.1953125 358.8984375 C263.18886719 357.68671875 263.18242187 356.475 263.17578125 355.2265625 C263.15902344 353.95554687 263.14226562 352.68453125 263.125 351.375 C263.11597656 350.09625 263.10695313 348.8175 263.09765625 347.5 C263.07402303 344.33314833 263.04107629 341.16666576 263 338 C260.51004335 336.75502167 258.81005089 336.87065628 256.02734375 336.8671875 C255.04572266 336.86589844 254.06410156 336.86460937 253.05273438 336.86328125 C251.51069336 336.86908203 251.51069336 336.86908203 249.9375 336.875 C248.3896582 336.86919922 248.3896582 336.86919922 246.81054688 336.86328125 C245.83021484 336.86457031 244.84988281 336.86585938 243.83984375 336.8671875 C242.48427368 336.86887939 242.48427368 336.86887939 241.10131836 336.87060547 C239.01285515 336.76637478 239.01285515 336.76637478 238 338 Z M291 338 C290.88413245 342.43728151 290.81285942 346.87417591 290.75 351.3125 C290.71648437 352.57513672 290.68296875 353.83777344 290.6484375 355.13867188 C290.63554687 356.34716797 290.62265625 357.55566406 290.609375 358.80078125 C290.58842773 359.91622314 290.56748047 361.03166504 290.54589844 362.1809082 C290.7421223 365.07304463 290.7421223 365.07304463 292.74682617 366.86254883 C295.19956643 368.10074547 296.71010927 368.38621172 299.44140625 368.3984375 C300.27220703 368.40230469 301.10300781 368.40617187 301.95898438 368.41015625 C302.81814453 368.39855469 303.67730469 368.38695312 304.5625 368.375 C305.42552734 368.38660156 306.28855469 368.39820313 307.17773438 368.41015625 C308.00724609 368.40628906 308.83675781 368.40242188 309.69140625 368.3984375 C310.44623291 368.39505371 311.20105957 368.39166992 311.97875977 368.38818359 C314.05409085 368.1212338 314.05409085 368.1212338 315.75097656 366.86254883 C317.5706776 364.14900325 317.33864757 362.04397755 317.29296875 358.80078125 C317.28330078 357.59228516 317.27363281 356.38378906 317.26367188 355.13867188 C317.23853516 353.87603516 317.21339844 352.61339844 317.1875 351.3125 C317.17396484 350.03826172 317.16042969 348.76402344 317.14648438 347.45117188 C317.11108199 344.30035943 317.0616979 341.15038955 317 338 C314.51831386 336.75915693 312.83573801 336.87066897 310.0625 336.8671875 C309.08539063 336.86589844 308.10828125 336.86460937 307.1015625 336.86328125 C306.07804687 336.86714844 305.05453125 336.87101562 304 336.875 C302.97648437 336.87113281 301.95296875 336.86726563 300.8984375 336.86328125 C299.92132813 336.86457031 298.94421875 336.86585938 297.9375 336.8671875 C296.58978516 336.86887939 296.58978516 336.86887939 295.21484375 336.87060547 C292.95868875 336.85636916 292.95868875 336.85636916 291 338 Z M346 338 C345.7458445 342.64015325 345.81477202 347.29121306 345.8125 351.9375 C345.80025391 353.25169922 345.78800781 354.56589844 345.77539062 355.91992188 C345.77345703 357.17224609 345.77152344 358.42457031 345.76953125 359.71484375 C345.76542236 360.87105225 345.76131348 362.02726074 345.75708008 363.21850586 C345.71196371 366.140567 345.71196371 366.140567 348 368 C351.29243604 368.44869661 354.61797743 368.32408242 357.9375 368.3125 C358.85724609 368.32861328 359.77699219 368.34472656 360.72460938 368.36132812 C361.60826172 368.36197266 362.49191406 368.36261719 363.40234375 368.36328125 C364.21179443 368.36626221 365.02124512 368.36924316 365.85522461 368.37231445 C368.03982508 368.13603044 368.03982508 368.13603044 369.76904297 366.86474609 C371.56278469 364.14745152 371.33850313 362.03372228 371.29296875 358.80078125 C371.28330078 357.59228516 371.27363281 356.38378906 371.26367188 355.13867188 C371.23853516 353.87603516 371.21339844 352.61339844 371.1875 351.3125 C371.17396484 350.03826172 371.16042969 348.76402344 371.14648438 347.45117188 C371.11108199 344.30035943 371.0616979 341.15038955 371 338 C368.51004335 336.75502167 366.81005089 336.87065628 364.02734375 336.8671875 C363.04572266 336.86589844 362.06410156 336.86460937 361.05273438 336.86328125 C359.51069336 336.86908203 359.51069336 336.86908203 357.9375 336.875 C356.3896582 336.86919922 356.3896582 336.86919922 354.81054688 336.86328125 C353.83021484 336.86457031 352.84988281 336.86585938 351.83984375 336.8671875 C350.48427368 336.86887939 350.48427368 336.86887939 349.10131836 336.87060547 C347.01285515 336.76637478 347.01285515 336.76637478 346 338 Z M399 338 C398.88413245 342.43728151 398.81285942 346.87417591 398.75 351.3125 C398.71648437 352.57513672 398.68296875 353.83777344 398.6484375 355.13867188 C398.63554687 356.34716797 398.62265625 357.55566406 398.609375 358.80078125 C398.58842773 359.91622314 398.56748047 361.03166504 398.54589844 362.1809082 C398.74126844 365.07592664 398.74126844 365.07592664 400.76049805 366.86474609 C403.15147908 368.07678815 404.5629571 368.37438459 407.22265625 368.36328125 C408.00833984 368.36263672 408.79402344 368.36199219 409.60351562 368.36132812 C410.41498047 368.34521484 411.22644531 368.32910156 412.0625 368.3125 C412.87783203 368.31572266 413.69316406 368.31894531 414.53320312 368.32226562 C419.55337361 368.32748225 419.55337361 368.32748225 424 366 C424.43445016 363.10663789 424.43445016 363.10663789 424.328125 359.71484375 C424.32296875 358.46251953 424.3178125 357.21019531 424.3125 355.91992188 C424.2815625 353.94862305 424.2815625 353.94862305 424.25 351.9375 C424.24484375 350.61943359 424.2396875 349.30136719 424.234375 347.94335938 C424.75562864 342.08997985 424.75562864 342.08997985 423 337 C421.38916255 336.9008082 419.77404356 336.8692018 418.16015625 336.8671875 C417.17982422 336.86589844 416.19949219 336.86460937 415.18945312 336.86328125 C414.15755859 336.86714844 413.12566406 336.87101562 412.0625 336.875 C411.03447266 336.87113281 410.00644531 336.86726563 408.94726562 336.86328125 C407.47483398 336.86521484 407.47483398 336.86521484 405.97265625 336.8671875 C404.61539429 336.86887939 404.61539429 336.86887939 403.23071289 336.87060547 C400.96104141 336.85503424 400.96104141 336.85503424 399 338 Z M452 338 C451.71811684 342.63954054 451.7681793 347.2904171 451.75 351.9375 C451.729375 353.25169922 451.70875 354.56589844 451.6875 355.91992188 C451.68234375 357.17224609 451.6771875 358.42457031 451.671875 359.71484375 C451.6625293 360.87105225 451.65318359 362.02726074 451.64355469 363.21850586 C451.76118164 364.13639893 451.87880859 365.05429199 452 366 C455.81601142 368.54400761 458.95414856 368.33116914 463.375 368.3125 C464.50808594 368.33666992 464.50808594 368.33666992 465.6640625 368.36132812 C466.40140625 368.36197266 467.13875 368.36261719 467.8984375 368.36328125 C468.56536621 368.36626221 469.23229492 368.36924316 469.91943359 368.37231445 C472.90021891 367.83890708 474.65351969 366.91991616 477 365 C477.70618846 362.12544546 477.70618846 362.12544546 477.5234375 358.8359375 C477.51183594 357.63195312 477.50023437 356.42796875 477.48828125 355.1875 C477.45089844 353.929375 477.41351562 352.67125 477.375 351.375 C477.36082031 350.10914063 477.34664062 348.84328125 477.33203125 347.5390625 C477.77453839 341.89283437 477.77453839 341.89283437 476 337 C474.30441274 336.90067847 472.60474253 336.86919993 470.90625 336.8671875 C469.87628906 336.86589844 468.84632813 336.86460937 467.78515625 336.86328125 C466.70105469 336.86714844 465.61695313 336.87101562 464.5 336.875 C462.87384766 336.86919922 462.87384766 336.86919922 461.21484375 336.86328125 C460.18488281 336.86457031 459.15492188 336.86585938 458.09375 336.8671875 C456.66579102 336.86887939 456.66579102 336.86887939 455.20898438 336.87060547 C453.02547862 336.75300544 453.02547862 336.75300544 452 338 Z " fill="#060606" transform="translate(36,18)"/>
<path d="M0 0 C149.16 0 298.32 0 452 0 C452 0.33 452 0.66 452 1 C438.83394008 2.64122703 425.92000009 3.28604157 412.65942383 3.24291992 C410.70184262 3.24399649 408.74426173 3.2459407 406.78668213 3.24867249 C401.52286044 3.25347093 396.25912514 3.24592251 390.99531388 3.23571944 C385.42605098 3.22682651 379.85678992 3.22869873 374.28752136 3.2290802 C364.91782218 3.22814668 355.54815556 3.21951507 346.1784668 3.20581055 C335.45829116 3.19018517 324.73815135 3.1848094 314.01796514 3.1855461 C302.47729087 3.18623123 290.93662981 3.17922718 279.39595962 3.1700995 C276.13518136 3.16800292 272.87440534 3.1672631 269.61362648 3.16686058 C246.86809697 3.1614823 224.1411672 3.0317753 201.40437031 2.35885143 C186.27663985 1.91281236 171.15479342 1.84549301 156.02124023 1.86962891 C152.26405798 1.87540443 148.50694545 1.8718808 144.7497654 1.86617851 C128.95176812 1.84599148 113.20270748 2.0522211 97.41772461 2.77294922 C89.94387592 3.10678664 82.4799954 3.14746245 75 3.125 C73.02193359 3.13080078 73.02193359 3.13080078 71.00390625 3.13671875 C63.56609163 3.14062996 56.19453399 2.8739355 48.77528381 2.3901825 C39.17267802 1.78586244 29.5552712 1.64037163 19.9375 1.4375 C17.99153015 1.39416244 16.04556653 1.35054421 14.09960938 1.30664062 C9.39980484 1.20120358 4.69993336 1.09952198 0 1 C0 0.67 0 0.34 0 0 Z " fill="#5C5C5C" transform="translate(85,406)"/>
<path d="M0 0 C5.32285768 0.46781172 10.56865029 0.64835802 15.90625 0.625 C16.65072388 0.62177734 17.39519775 0.61855469 18.16223145 0.61523438 C20.45715965 0.601468 22.75199644 0.58287305 25.046875 0.5625 C43.35126765 0.40149801 43.35126765 0.40149801 51.296875 1.5625 C51.296875 2.2225 51.296875 2.8825 51.296875 3.5625 C52.286875 3.8925 53.276875 4.2225 54.296875 4.5625 C49.00194039 5.30483844 43.8520741 5.70577411 38.50134277 5.68275452 C37.38853054 5.68403615 37.38853054 5.68403615 36.25323725 5.68534368 C33.79054432 5.68697854 31.32792093 5.68151008 28.86523438 5.67602539 C27.09067791 5.67574306 25.31612134 5.67590215 23.54156494 5.6764679 C18.7405286 5.67675409 13.93951738 5.67088617 9.13848686 5.66389394 C4.11499027 5.65763072 -0.90850694 5.65705425 -5.93200684 5.65586853 C-15.43739157 5.65276396 -24.94276477 5.64456237 -34.44814444 5.63451904 C-45.27278991 5.62333074 -56.09743594 5.61784061 -66.92208576 5.61282361 C-89.18243861 5.60237902 -111.44278108 5.58479652 -133.703125 5.5625 C-133.703125 5.2325 -133.703125 4.9025 -133.703125 4.5625 C-128.423125 3.9025 -123.143125 3.2425 -117.703125 2.5625 C-117.703125 2.2325 -117.703125 1.9025 -117.703125 1.5625 C-115.91154011 1.53553635 -114.11984027 1.51612083 -112.328125 1.5 C-111.33039063 1.48839844 -110.33265625 1.47679688 -109.3046875 1.46484375 C-106.703125 1.5625 -106.703125 1.5625 -104.703125 2.5625 C-102.70187057 2.23678264 -100.70210357 1.90190503 -98.703125 1.5625 C-96.24558359 1.49671998 -93.78643722 1.47680838 -91.328125 1.5 C-89.46027344 1.51353516 -89.46027344 1.51353516 -87.5546875 1.52734375 C-86.14316406 1.54474609 -86.14316406 1.54474609 -84.703125 1.5625 C-84.703125 2.5525 -84.703125 3.5425 -84.703125 4.5625 C-72.328125 4.0675 -72.328125 4.0675 -59.703125 3.5625 C-59.703125 2.9025 -59.703125 2.2425 -59.703125 1.5625 C-49.17800696 0.51279989 -38.76723608 0.47272002 -28.203125 0.5625 C-25.0052118 0.58920226 -21.80735798 0.60909048 -18.609375 0.625 C-17.52807312 0.63744751 -17.52807312 0.63744751 -16.42492676 0.65014648 C-13.55851296 0.66410325 -10.88098962 0.59832316 -8.06542969 0.03125 C-5.22622597 -0.53213065 -2.87685051 -0.30391248 0 0 Z " fill="#101305" transform="translate(328.703125,73.4375)"/>
<path d="M0 0 C1.79158489 -0.02696365 3.58328473 -0.04637917 5.375 -0.0625 C6.37273437 -0.07410156 7.37046875 -0.08570312 8.3984375 -0.09765625 C11 0 11 0 13 1 C15.00125443 0.67428264 17.00102143 0.33940503 19 0 C21.45754141 -0.06578002 23.91668778 -0.08569162 26.375 -0.0625 C28.24285156 -0.04896484 28.24285156 -0.04896484 30.1484375 -0.03515625 C31.55996094 -0.01775391 31.55996094 -0.01775391 33 0 C33 0.99 33 1.98 33 3 C45.375 2.505 45.375 2.505 58 2 C58 1.34 58 0.68 58 0 C62.08931682 -0.05001046 66.17851141 -0.08600357 70.26806641 -0.10986328 C71.65481676 -0.11982603 73.04154665 -0.13340118 74.42822266 -0.15087891 C82.52230322 -0.25022863 90.11401645 0.04396682 98 2 C99.99810662 2.34450114 101.99722415 2.68377223 104 3 C104 3.33 104 3.66 104 4 C64.4 4 24.8 4 -16 4 C-16 3.67 -16 3.34 -16 3 C-10.72 2.34 -5.44 1.68 0 1 C0 0.67 0 0.34 0 0 Z " fill="#565945" transform="translate(211,75)"/>
<path d="M0 0 C0 0.99 0 1.98 0 3 C-13.52884161 3.80929052 -27.01708528 4.18641959 -40.57006836 4.18530273 C-43.61910968 4.18754157 -46.66781666 4.20594264 -49.71679688 4.22460938 C-51.66666545 4.22753523 -53.61653571 4.22952542 -55.56640625 4.23046875 C-56.92554893 4.24124702 -56.92554893 4.24124702 -58.31214905 4.25224304 C-59.14830246 4.24916641 -59.98445587 4.24608978 -60.84594727 4.24291992 C-61.5783815 4.24434494 -62.31081573 4.24576996 -63.06544495 4.24723816 C-65 4 -65 4 -68 2 C-68 1.34 -68 0.68 -68 0 C-65.69 0 -63.38 0 -61 0 C-61 0.66 -61 1.32 -61 2 C-58.36 2 -55.72 2 -53 2 C-53 1.34 -53 0.68 -53 0 C-35.57341645 -2.94640213 -17.43166731 -2.56910078 0 0 Z " fill="#1E210E" transform="translate(189,75)"/>
<path d="M0 0 C4.5812697 0.56588614 9.1615291 1.13918408 13.74121094 1.71777344 C15.9022432 1.98778568 18.06421546 2.24857484 20.2265625 2.5078125 C21.53367188 2.67023438 22.84078125 2.83265625 24.1875 3 C25.37730469 3.144375 26.56710938 3.28875 27.79296875 3.4375 C30.78348324 3.96202386 33.2427125 4.75376836 36 6 C32.81688868 7.80341706 29.95453016 8.497527 26.3515625 9.0703125 C25.26359375 9.24433594 24.175625 9.41835938 23.0546875 9.59765625 C21.92289063 9.77167969 20.79109375 9.94570313 19.625 10.125 C18.5009375 10.30675781 17.376875 10.48851562 16.21875 10.67578125 C11.00639974 11.49521693 6.31465043 12 1 12 C0.67 8.04 0.34 4.08 0 0 Z " fill="#1E2016" transform="translate(220,389)"/>
<path d="M0 0 C0 0.33 0 0.66 0 1 C-1.65 1 -3.3 1 -5 1 C-5 1.66 -5 2.32 -5 3 C-4.01 3 -3.02 3 -2 3 C-2 7.29 -2 11.58 -2 16 C-2.99 16 -3.98 16 -5 16 C-5.33 15.34 -5.66 14.68 -6 14 C-7.32 15.32 -8.64 16.64 -10 18 C-10 17.34 -10 16.68 -10 16 C-13.63 16 -17.26 16 -21 16 C-20.34 14.35 -19.68 12.7 -19 11 C-16.375 10.1875 -16.375 10.1875 -14 10 C-13.67 8.68 -13.34 7.36 -13 6 C-15.31 6.33 -17.62 6.66 -20 7 C-19.67 5.68 -19.34 4.36 -19 3 C-18.01 3 -17.02 3 -16 3 C-16 2.34 -16 1.68 -16 1 C-10.61509359 0.08342019 -5.45769811 -0.11138159 0 0 Z " fill="#161910" transform="translate(81,385)"/>
<path d="M0 0 C0.64960693 0.03552979 1.29921387 0.07105957 1.96850586 0.10766602 C4.95782199 0.26684464 7.94759866 0.41473794 10.9375 0.5625 C11.95908203 0.61857422 12.98066406 0.67464844 14.03320312 0.73242188 C20.17004306 1.02651964 25.91418417 0.85671026 32 0 C32.495 1.485 32.495 1.485 33 3 C33.33 2.34 33.66 1.68 34 1 C41.26 1 48.52 1 56 1 C56 1.66 56 2.32 56 3 C56.66 3 57.32 3 58 3 C58 2.34 58 1.68 58 1 C60.64 1 63.28 1 66 1 C66 1.66 66 2.32 66 3 C66.99 3.495 66.99 3.495 68 4 C45.56 4 23.12 4 0 4 C0 2.68 0 1.36 0 0 Z " fill="#202414" transform="translate(411,74)"/>
<path d="M0 0 C33.33 0 66.66 0 101 0 C101 0.33 101 0.66 101 1 C94.07 1 87.14 1 80 1 C80 1.66 80 2.32 80 3 C24.51214956 2.00451687 24.51214956 2.00451687 0 1 C0 0.67 0 0.34 0 0 Z " fill="#4C4C4C" transform="translate(244,406)"/>
<path d="M0 0 C3.12131875 0.25999246 6.24678111 0.41032986 9.375 0.5625 C10.20644531 0.60568359 11.03789062 0.64886719 11.89453125 0.69335938 C13.92953228 0.79861805 15.96474703 0.89973072 18 1 C18 1.66 18 2.32 18 3 C11.4 3 4.8 3 -2 3 C-2 2.34 -2 1.68 -2 1 C-2.66 1.33 -3.32 1.66 -4 2 C-4 2.66 -4 3.32 -4 4 C-9.67287552 4.90206979 -14.52026886 4.96017091 -20.1875 4.125 C-20.87263672 4.03347656 -21.55777344 3.94195312 -22.26367188 3.84765625 C-25.08972926 3.46141934 -27.88276945 3.02519428 -30.671875 2.42578125 C-34.00618743 1.8159825 -37.22350525 2.03018125 -40.59765625 2.16015625 C-43.22596338 1.98493577 -44.70445781 1.22851044 -47 0 C-45.40345581 0.00785522 -45.40345581 0.00785522 -43.7746582 0.01586914 C-39.81438034 0.0340105 -35.85410614 0.04546537 -31.89379883 0.05493164 C-30.18187848 0.05995099 -28.46996239 0.06676785 -26.75805664 0.07543945 C-24.29312078 0.08761021 -21.82824175 0.09325238 -19.36328125 0.09765625 C-18.60163162 0.10281754 -17.83998199 0.10797882 -17.05525208 0.11329651 C-11.01356934 0.11392998 -5.96691548 -1.0894249 0 0 Z " fill="#1B1E0D" transform="translate(329,74)"/>
<path d="M0 0 C1.16660156 0.00322266 2.33320313 0.00644531 3.53515625 0.00976562 C4.75847656 0.01814453 5.98179687 0.02652344 7.2421875 0.03515625 C8.47324219 0.03966797 9.70429687 0.04417969 10.97265625 0.04882812 C14.02088142 0.06064295 17.06901064 0.07711597 20.1171875 0.09765625 C20.1171875 3.06765625 20.1171875 6.03765625 20.1171875 9.09765625 C19.7871875 9.09765625 19.4571875 9.09765625 19.1171875 9.09765625 C19.1171875 7.44765625 19.1171875 5.79765625 19.1171875 4.09765625 C17.86059326 4.10289307 16.60399902 4.10812988 15.30932617 4.11352539 C10.65210684 4.13161042 5.99489062 4.14310112 1.33764648 4.15258789 C-0.67896039 4.15762007 -2.6955636 4.16444639 -4.7121582 4.1730957 C-7.60889589 4.18520998 -10.50558538 4.19089568 -13.40234375 4.1953125 C-14.30555862 4.20047379 -15.2087735 4.20563507 -16.13935852 4.21095276 C-17.400326 4.21106606 -17.400326 4.21106606 -18.68676758 4.21118164 C-19.79596306 4.21451256 -19.79596306 4.21451256 -20.92756653 4.21791077 C-22.8828125 4.09765625 -22.8828125 4.09765625 -25.8828125 3.09765625 C-25.8828125 2.43765625 -25.8828125 1.77765625 -25.8828125 1.09765625 C-23.2428125 1.09765625 -20.6028125 1.09765625 -17.8828125 1.09765625 C-17.8828125 1.75765625 -17.8828125 2.41765625 -17.8828125 3.09765625 C-16.2571318 2.78871693 -14.63228502 2.47538675 -13.0078125 2.16015625 C-11.65042969 1.89912109 -11.65042969 1.89912109 -10.265625 1.6328125 C-2.93206333 -0.01423332 -2.93206333 -0.01423332 0 0 Z " fill="#14180A" transform="translate(505.8828125,73.90234375)"/>
<path d="M0 0 C1.79158489 -0.02696365 3.58328473 -0.04637917 5.375 -0.0625 C6.37273437 -0.07410156 7.37046875 -0.08570312 8.3984375 -0.09765625 C11 0 11 0 13 1 C15.00125443 0.67428264 17.00102143 0.33940503 19 0 C21.45754141 -0.06578002 23.91668778 -0.08569162 26.375 -0.0625 C28.24285156 -0.04896484 28.24285156 -0.04896484 30.1484375 -0.03515625 C31.55996094 -0.01775391 31.55996094 -0.01775391 33 0 C33 0.99 33 1.98 33 3 C30.14512885 3.95162372 28.39545683 4.12163139 25.43676758 4.11352539 C24.51603958 4.11344986 23.59531158 4.11337433 22.64668274 4.11329651 C21.65597275 4.10813522 20.66526276 4.10297394 19.64453125 4.09765625 C18.62775803 4.0962413 17.6109848 4.09482635 16.56340027 4.09336853 C13.31307036 4.08776707 10.06280912 4.07521432 6.8125 4.0625 C4.61002704 4.05748519 2.40755299 4.05292225 0.20507812 4.04882812 C-5.19663804 4.03779717 -10.59831412 4.02105762 -16 4 C-16 3.67 -16 3.34 -16 3 C-10.72 2.34 -5.44 1.68 0 1 C0 0.67 0 0.34 0 0 Z " fill="#3B3F25" transform="translate(211,75)"/>
<path d="M0 0 C0 0.99 0 1.98 0 3 C-3.18689285 3.19892707 -6.37451191 3.38204784 -9.5625 3.5625 C-10.90538086 3.64661133 -10.90538086 3.64661133 -12.27539062 3.73242188 C-17.36418468 4.01202594 -21.98526952 3.92865379 -27 3 C-26.34 2.34 -25.68 1.68 -25 1 C-29.95 0.67 -34.9 0.34 -40 0 C-40 -0.33 -40 -0.66 -40 -1 C-26.38553043 -2.00245846 -13.52880696 -1.87084073 0 0 Z " fill="#171A07" transform="translate(189,75)"/>
<path d="M0 0 C4.29221231 0.10946343 8.5835149 0.24018895 12.875 0.375 C14.70998047 0.42140625 14.70998047 0.42140625 16.58203125 0.46875 C17.74863281 0.50742188 18.91523438 0.54609375 20.1171875 0.5859375 C21.19597168 0.6173584 22.27475586 0.6487793 23.38623047 0.68115234 C26 1 26 1 28 3 C27 4 27 4 24.40795898 4.11352539 C23.28204346 4.10828857 22.15612793 4.10305176 20.99609375 4.09765625 C19.78115234 4.09443359 18.56621094 4.09121094 17.31445312 4.08789062 C16.03505859 4.07951172 14.75566406 4.07113281 13.4375 4.0625 C12.15423828 4.05798828 10.87097656 4.05347656 9.54882812 4.04882812 C6.36583978 4.03699545 3.18294238 4.02051068 0 4 C0 2.68 0 1.36 0 0 Z " fill="#242520" transform="translate(411,74)"/>
<path d="M0 0 C0.3125 2.3125 0.3125 2.3125 0 5 C-2.5 6.8125 -2.5 6.8125 -5 8 C-3.02 8 -1.04 8 1 8 C1 8.99 1 9.98 1 11 C-2.96 11 -6.92 11 -11 11 C-10.34 9.35 -9.68 7.7 -9 6 C-6.375 5.1875 -6.375 5.1875 -4 5 C-3.67 3.68 -3.34 2.36 -3 1 C-5.31 1.33 -7.62 1.66 -10 2 C-6.82020798 -2.76968803 -4.78499148 -2.1985096 0 0 Z " fill="#869156" transform="translate(71,390)"/>
<path d="M0 0 C0 1.32 0 2.64 0 4 C0.66 4.33 1.32 4.66 2 5 C-13.74487472 5.18451025 -13.74487472 5.18451025 -21 4 C-20.67 3.01 -20.34 2.02 -20 1 C-17.04170322 0.832662 -14.08336635 0.66609948 -11.125 0.5 C-9.86236328 0.42845703 -9.86236328 0.42845703 -8.57421875 0.35546875 C-7.76855469 0.31035156 -6.96289062 0.26523438 -6.1328125 0.21875 C-5.38918457 0.17685547 -4.64555664 0.13496094 -3.87939453 0.09179688 C-2.58744125 0.0286929 -1.29349349 0 0 0 Z " fill="#373A2B" transform="translate(84,74)"/>
<path d="M0 0 C0.99 0 1.98 0 3 0 C3 0.66 3 1.32 3 2 C4.07314453 1.89171875 4.07314453 1.89171875 5.16796875 1.78125 C10.79581681 1.25705199 16.4108442 0.8770035 22.0625 0.75 C23.65771484 0.71132812 23.65771484 0.71132812 25.28515625 0.671875 C28 1 28 1 31 4 C20.11 4 9.22 4 -2 4 C-1.01 3.67 -0.02 3.34 1 3 C0.67 2.01 0.34 1.02 0 0 Z " fill="#505245" transform="translate(324,75)"/>
<path d="M0 0 C3.0833134 -0.02911321 6.16659125 -0.04683682 9.25 -0.0625 C10.12269531 -0.07087891 10.99539063 -0.07925781 11.89453125 -0.08789062 C12.73886719 -0.09111328 13.58320313 -0.09433594 14.453125 -0.09765625 C15.22817383 -0.10289307 16.00322266 -0.10812988 16.80175781 -0.11352539 C18.99283598 -0.00036998 20.89637861 0.39447552 23 1 C23 1.66 23 2.32 23 3 C15.41 3 7.82 3 0 3 C0 2.01 0 1.02 0 0 Z " fill="#2C2D28" transform="translate(386,75)"/>
<path d="M0 0 C3.3 0 6.6 0 10 0 C10 0.66 10 1.32 10 2 C11.32 2 12.64 2 14 2 C14 1.34 14 0.68 14 0 C20.0546875 -0.1953125 20.0546875 -0.1953125 22 0 C22.66 0.66 23.32 1.32 24 2 C21.49502996 3.25248502 19.79146726 3.11374406 16.9921875 3.09765625 C16.00605469 3.09443359 15.01992188 3.09121094 14.00390625 3.08789062 C12.97136719 3.07951172 11.93882812 3.07113281 10.875 3.0625 C9.31458984 3.05573242 9.31458984 3.05573242 7.72265625 3.04882812 C5.14838038 3.03701952 2.57421854 3.02055075 0 3 C0 2.01 0 1.02 0 0 Z " fill="#272B14" transform="translate(245,75)"/>
<path d="M0 0 C3.21550733 0.63666586 6.2880599 0.75638772 9.56445312 0.85742188 C10.85673828 0.89931641 12.14902344 0.94121094 13.48046875 0.984375 C14.8352838 1.02417914 16.19010155 1.06389154 17.54492188 1.10351562 C18.91928292 1.14675286 20.29363211 1.19036874 21.66796875 1.234375 C25.02268857 1.34031352 28.37748048 1.44238752 31.73242188 1.54101562 C31.73242188 1.87101562 31.73242188 2.20101562 31.73242188 2.54101562 C16.55242187 2.54101562 1.37242187 2.54101562 -14.26757812 2.54101562 C-14.26757812 2.21101563 -14.26757812 1.88101563 -14.26757812 1.54101562 C-12.37388728 1.17556652 -10.47749031 0.82412388 -8.58007812 0.47851562 C-7.52433594 0.28128906 -6.46859375 0.0840625 -5.38085938 -0.11914062 C-2.26757812 -0.45898438 -2.26757812 -0.45898438 0 0 Z " fill="#85857E" transform="translate(209.267578125,76.458984375)"/>
<path d="M0 0 C5.61 0.33 11.22 0.66 17 1 C16.67 1.99 16.34 2.98 16 4 C10.72 4 5.44 4 0 4 C0 2.68 0 1.36 0 0 Z " fill="#101309" transform="translate(47,74)"/>
<path d="M0 0 C11.55 0 23.1 0 35 0 C34.67 0.99 34.34 1.98 34 3 C33.34 3 32.68 3 32 3 C32 2.34 32 1.68 32 1 C31.154375 1.33 30.30875 1.66 29.4375 2 C25.05404457 3.27518703 21.16425148 3.46794627 16.6875 2.5 C13.22426626 1.85567744 9.91404618 2.02488266 6.40234375 2.16015625 C4 2 4 2 0 0 Z " fill="#1B1E0C" transform="translate(282,74)"/>
<path d="M0 0 C5.28 0 10.56 0 16 0 C16.33 1.32 16.66 2.64 17 4 C14.36 4 11.72 4 9 4 C9.99 3.67 10.98 3.34 12 3 C12 2.34 12 1.68 12 1 C9.69 1 7.38 1 5 1 C5.33 1.99 5.66 2.98 6 4 C3.03 4 0.06 4 -3 4 C-2.01 3.67 -1.02 3.34 0 3 C0 2.01 0 1.02 0 0 Z " fill="#1B1E0E" transform="translate(116,74)"/>
<path d="M0 0 C1.4540625 0.0309375 1.4540625 0.0309375 2.9375 0.0625 C2.9375 0.7225 2.9375 1.3825 2.9375 2.0625 C6.2375 2.0625 9.5375 2.0625 12.9375 2.0625 C12.9375 1.4025 12.9375 0.7425 12.9375 0.0625 C13.9275 0.0625 14.9175 0.0625 15.9375 0.0625 C15.9375 1.0525 15.9375 2.0425 15.9375 3.0625 C12.68802139 3.25988568 9.43791127 3.4436754 6.1875 3.625 C5.26710937 3.68107422 4.34671875 3.73714844 3.3984375 3.79492188 C2.50898438 3.84326172 1.61953125 3.89160156 0.703125 3.94140625 C-0.11381836 3.9885376 -0.93076172 4.03566895 -1.77246094 4.08422852 C-4.04132075 4.06270095 -5.89570921 3.70862135 -8.0625 3.0625 C-7.423125 2.753125 -6.78375 2.44375 -6.125 2.125 C-2.0825 0.0425 -2.0825 0.0425 0 0 Z " fill="#4D503E" transform="translate(173.0625,74.9375)"/>
<path d="M0 0 C1.23556641 0.01740234 1.23556641 0.01740234 2.49609375 0.03515625 C3.32238281 0.04417969 4.14867187 0.05320312 5 0.0625 C5.63808594 0.07410156 6.27617187 0.08570312 6.93359375 0.09765625 C6.27359375 1.41765625 5.61359375 2.73765625 4.93359375 4.09765625 C-2.32640625 4.09765625 -9.58640625 4.09765625 -17.06640625 4.09765625 C-17.06640625 3.76765625 -17.06640625 3.43765625 -17.06640625 3.09765625 C-16.06738281 2.96488281 -15.06835938 2.83210938 -14.0390625 2.6953125 C-12.74871094 2.51871094 -11.45835937 2.34210938 -10.12890625 2.16015625 C-8.84113281 1.98613281 -7.55335938 1.81210938 -6.2265625 1.6328125 C-3.38461575 1.1515434 -2.61413589 0.12354139 0 0 Z " fill="#64665A" transform="translate(158.06640625,74.90234375)"/>
<path d="M0 0 C8.415 1.485 8.415 1.485 17 3 C17 3.33 17 3.66 17 4 C4.79 4 -7.42 4 -20 4 C-20 3.67 -20 3.34 -20 3 C-10.1 2.505 -10.1 2.505 0 2 C0 1.34 0 0.68 0 0 Z " fill="#80827A" transform="translate(298,75)"/>
<path d="M0 0 C1.51980469 0.07831055 1.51980469 0.07831055 3.0703125 0.15820312 C5.54727608 0.28672482 8.02371337 0.42162766 10.5 0.5625 C9.51 0.8925 8.52 1.2225 7.5 1.5625 C7.17 2.5525 6.84 3.5425 6.5 4.5625 C6.5 3.5725 6.5 2.5825 6.5 1.5625 C1.88 1.5625 -2.74 1.5625 -7.5 1.5625 C-7.83 2.2225 -8.16 2.8825 -8.5 3.5625 C-8.5 2.9025 -8.5 2.2425 -8.5 1.5625 C-9.49 2.0884375 -9.49 2.0884375 -10.5 2.625 C-14.5513091 3.89103409 -17.33374555 3.26864482 -21.5 2.5625 C-16.57552301 -2.36197699 -6.44800545 -0.3680948 0 0 Z " fill="#131606" transform="translate(237.5,73.4375)"/>
<path d="M0 0 C0 2.97 0 5.94 0 9 C-0.33 9 -0.66 9 -1 9 C-1 7.35 -1 5.7 -1 4 C-6.94 4 -12.88 4 -19 4 C-19 3.67 -19 3.34 -19 3 C-16.39643759 2.49666458 -13.79223349 1.99720622 -11.1875 1.5 C-10.08051758 1.28537109 -10.08051758 1.28537109 -8.95117188 1.06640625 C-5.92205609 0.49073719 -3.090804 0 0 0 Z " fill="#2A2C24" transform="translate(526,74)"/>
<path d="M0 0 C5.61 0 11.22 0 17 0 C16.67 0.66 16.34 1.32 16 2 C12.223914 3.08179761 8.59502858 3.10543987 4.6875 3.0625 C3.61886719 3.05347656 2.55023438 3.04445313 1.44921875 3.03515625 C0.64097656 3.02355469 -0.16726562 3.01195313 -1 3 C-0.67 2.01 -0.34 1.02 0 0 Z " fill="#33371C" transform="translate(191,75)"/>
<path d="M0 0 C6.27 0 12.54 0 19 0 C18.67 0.99 18.34 1.98 18 3 C15.36 3 12.72 3 10 3 C10 2.34 10 1.68 10 1 C7.36 1 4.72 1 2 1 C2 1.66 2 2.32 2 3 C2.99 3.33 3.98 3.66 5 4 C2.03 3.505 2.03 3.505 -1 3 C-0.67 2.01 -0.34 1.02 0 0 Z " fill="#101205" transform="translate(478,74)"/>
<path d="M0 0 C0 0.66 0 1.32 0 2 C0.99 2.33 1.98 2.66 3 3 C-4.97490128 4.32915021 -12.94186719 4.08801359 -21 4 C-21 3.67 -21 3.34 -21 3 C-19.86111328 2.92652344 -19.86111328 2.92652344 -18.69921875 2.8515625 C-17.20841797 2.73941406 -17.20841797 2.73941406 -15.6875 2.625 C-14.70136719 2.55539063 -13.71523438 2.48578125 -12.69921875 2.4140625 C-7.88337262 1.67530752 -5.2834709 -0.19937626 0 0 Z " fill="#515347" transform="translate(380,75)"/>
<path d="M0 0 C2.31 0 4.62 0 7 0 C6.625 2.4375 6.625 2.4375 6 5 C5.01 5.495 5.01 5.495 4 6 C5.32 6.33 6.64 6.66 8 7 C8 7.66 8 8.32 8 9 C5.03 9 2.06 9 -1 9 C-0.67 7.68 -0.34 6.36 0 5 C1.65 4.67 3.3 4.34 5 4 C5 3.01 5 2.02 5 1 C3.35 1.33 1.7 1.66 0 2 C0 1.34 0 0.68 0 0 Z " fill="#838E57" transform="translate(263,391)"/>
<path d="M0 0 C-3.52679099 2.35119399 -5.02879485 2.21443452 -9.1875 2.125 C-10.27417969 2.10695313 -11.36085938 2.08890625 -12.48046875 2.0703125 C-13.72763672 2.03550781 -13.72763672 2.03550781 -15 2 C-15 1.01 -15 0.02 -15 -1 C-13.25181409 -1.22304441 -11.50129677 -1.4278645 -9.75 -1.625 C-8.77546875 -1.74101563 -7.8009375 -1.85703125 -6.796875 -1.9765625 C-3.86570607 -2.00112537 -2.45471036 -1.5312717 0 0 Z " fill="#242713" transform="translate(373,76)"/>
<path d="M0 0 C4.62 0 9.24 0 14 0 C14 0.99 14 1.98 14 3 C9.38 3 4.76 3 0 3 C0 2.01 0 1.02 0 0 Z " fill="#2E311B" transform="translate(230,75)"/>
<path d="M0 0 C2.64 0 5.28 0 8 0 C8 0.99 8 1.98 8 3 C10.97 3 13.94 3 17 3 C17 3.33 17 3.66 17 4 C10.8894576 4.11269443 5.04829486 3.89604368 -1 3 C-0.67 2.01 -0.34 1.02 0 0 Z " fill="#4C4D46" transform="translate(96,75)"/>
<path d="M0 0 C0.99 0 1.98 0 3 0 C3.99 2.64 4.98 5.28 6 8 C3.69 7.34 1.38 6.68 -1 6 C-1 6.66 -1 7.32 -1 8 C-1.66 7.67 -2.32 7.34 -3 7 C-2.01 4.69 -1.02 2.38 0 0 Z " fill="#7C8553" transform="translate(284,392)"/>
<path d="M0 0 C1.79133978 -0.05391993 3.58313899 -0.09275571 5.375 -0.125 C6.37273437 -0.14820312 7.37046875 -0.17140625 8.3984375 -0.1953125 C11 0 11 0 13 2 C12 3 12 3 9.05859375 3.09765625 C7.26615234 3.08025391 7.26615234 3.08025391 5.4375 3.0625 C3.64119141 3.04896484 3.64119141 3.04896484 1.80859375 3.03515625 C0.88175781 3.02355469 -0.04507812 3.01195313 -1 3 C-0.67 2.01 -0.34 1.02 0 0 Z " fill="#30322D" transform="translate(426,75)"/>
<path d="M0 0 C0 0.66 0 1.32 0 2 C0.763125 1.649375 1.52625 1.29875 2.3125 0.9375 C5 0 5 0 8 1 C8 1.66 8 2.32 8 3 C3.37627754 4.30042194 -0.33710678 3.85486376 -5 3 C-5.33 2.34 -5.66 1.68 -6 1 C-4 0 -4 0 0 0 Z " fill="#444733" transform="translate(314,75)"/>
<path d="M0 0 C2.64 0 5.28 0 8 0 C8 0.66 8 1.32 8 2 C12.455 1.505 12.455 1.505 17 1 C17.33 1.66 17.66 2.32 18 3 C15.56242587 3.02698422 13.12515085 3.04683099 10.6875 3.0625 C9.99720703 3.07087891 9.30691406 3.07925781 8.59570312 3.08789062 C5.4516975 3.10307906 3.00579981 3.00193327 0 2 C0 1.34 0 0.68 0 0 Z " fill="#282A1C" transform="translate(480,75)"/>
<path d="M0 0 C2.97 0.33 5.94 0.66 9 1 C9.33 1.99 9.66 2.98 10 4 C6.04 4 2.08 4 -2 4 C-1.34 2.68 -0.68 1.36 0 0 Z " fill="#757D51" transform="translate(62,397)"/>
<path d="M0 0 C3.3 0 6.6 0 10 0 C10 0.99 10 1.98 10 3 C6.7 3 3.4 3 0 3 C0 2.01 0 1.02 0 0 Z " fill="#34381F" transform="translate(245,75)"/>
<path d="M0 0 C2.31 0 4.62 0 7 0 C7 0.66 7 1.32 7 2 C9.97 2.33 12.94 2.66 16 3 C16 3.33 16 3.66 16 4 C13.89611431 4.05402274 11.79183286 4.09280256 9.6875 4.125 C7.92986328 4.15980469 7.92986328 4.15980469 6.13671875 4.1953125 C3 4 3 4 0 2 C0 1.34 0 0.68 0 0 Z " fill="#55574A" transform="translate(121,75)"/>
<path d="M0 0 C0.99 0 1.98 0 3 0 C3 3.96 3 7.92 3 12 C2.34 12 1.68 12 1 12 C1 9.36 1 6.72 1 4 C0.34 4 -0.32 4 -1 4 C-0.67 2.68 -0.34 1.36 0 0 Z " fill="#858E5D" transform="translate(76,388)"/>
<path d="M0 0 C2.31 0.33 4.62 0.66 7 1 C7 1.33 7 1.66 7 2 C5.35 2 3.7 2 2 2 C2 4.97 2 7.94 2 11 C2.99 11.33 3.98 11.66 5 12 C3.68 12 2.36 12 1 12 C0.67 8.04 0.34 4.08 0 0 Z " fill="#777D59" transform="translate(220,389)"/>
<path d="M0 0 C0.99 0 1.98 0 3 0 C3 0.99 3 1.98 3 3 C0.70858714 3.05384521 -1.58318188 3.09272087 -3.875 3.125 C-5.78925781 3.15980469 -5.78925781 3.15980469 -7.7421875 3.1953125 C-11 3 -11 3 -13 1 C-8.71 1.33 -4.42 1.66 0 2 C0 1.34 0 0.68 0 0 Z " fill="#353921" transform="translate(186,75)"/>
<path d="M0 0 C2.64 0 5.28 0 8 0 C7.67 0.99 7.34 1.98 7 3 C4.36 3 1.72 3 -1 3 C-0.67 2.01 -0.34 1.02 0 0 Z " fill="#1B1E11" transform="translate(56,75)"/>
<path d="M0 0 C0.99 0 1.98 0 3 0 C3 0.66 3 1.32 3 2 C3.99 1.34 4.98 0.68 6 0 C8.1875 0.375 8.1875 0.375 10 1 C9.67 1.66 9.34 2.32 9 3 C6.03 3 3.06 3 0 3 C0 2.01 0 1.02 0 0 Z " fill="#242618" transform="translate(86,75)"/>
<path d="M0 0 C0 0.99 0 1.98 0 3 C-1.65614657 3.38218767 -3.32457024 3.71395102 -5 4 C-5.33 3.67 -5.66 3.34 -6 3 C-7.32 2.67 -8.64 2.34 -10 2 C-6.7 1.34 -3.4 0.68 0 0 Z " fill="#1C200C" transform="translate(226,73)"/>
<path d="M0 0 C0.99 0 1.98 0 3 0 C3 0.66 3 1.32 3 2 C4.98 2 6.96 2 9 2 C5.36576791 4.32590854 2.22911669 4.16265833 -2 4 C-1.01 3.67 -0.02 3.34 1 3 C0.67 2.01 0.34 1.02 0 0 Z " fill="#5D5F53" transform="translate(324,75)"/>
<path d="M0 0 C0.66 0 1.32 0 2 0 C2 2.97 2 5.94 2 9 C1.34 9 0.68 9 0 9 C-0.87890625 2.84765625 -0.87890625 2.84765625 -1 1 C-0.67 0.67 -0.34 0.34 0 0 Z " fill="#8B9367" transform="translate(275,391)"/>
<path d="M0 0 C1.65 0 3.3 0 5 0 C4.34 1.32 3.68 2.64 3 4 C1.35 4 -0.3 4 -2 4 C-1.34 2.68 -0.68 1.36 0 0 Z " fill="#595C3A" transform="translate(160,75)"/>
<path d="M0 0 C2.9375 0.375 2.9375 0.375 6 1 C6.33 1.66 6.66 2.32 7 3 C4.36 3 1.72 3 -1 3 C-0.67 2.01 -0.34 1.02 0 0 Z " fill="#2C3017" transform="translate(292,75)"/>
<path d="M0 0 C3.63 0 7.26 0 11 0 C10.01 0.33 9.02 0.66 8 1 C8 1.66 8 2.32 8 3 C6.68 3 5.36 3 4 3 C4 2.34 4 1.68 4 1 C2.68 0.67 1.36 0.34 0 0 Z " fill="#151905" transform="translate(251,74)"/>
<path d="M0 0 C1.2065625 0.0309375 1.2065625 0.0309375 2.4375 0.0625 C2.7675 1.0525 3.0975 2.0425 3.4375 3.0625 C1.4575 3.3925 -0.5225 3.7225 -2.5625 4.0625 C-2.8925 3.0725 -3.2225 2.0825 -3.5625 1.0625 C-2.5625 0.0625 -2.5625 0.0625 0 0 Z " fill="#181813" transform="translate(440.5625,73.9375)"/>
<path d="M0 0 C0 0.99 0 1.98 0 3 C-2.31 3 -4.62 3 -7 3 C-4.49955934 -0.00052879 -4.2621484 0 0 0 Z " fill="#373B22" transform="translate(244,75)"/>
</svg>
