<?xml version="1.0" encoding="UTF-8"?>
<svg id="Layer_2" data-name="Layer 2" xmlns="http://www.w3.org/2000/svg" viewBox="0 0 945.67 207.78">
  <g id="Layer_1-2" data-name="Layer 1">
    <g>
      <path d="M945.23,108.68c-.64-2.63-3.49-4.45-3.6-6.8-.22-4.79,7.04-12.45-2.21-17.64-12.28-6.9-30.06,3.75-35.34,15.6-6.56-9.72-14.41-18.16-24.77-23.85-9.65-5.33-18.72-4.15-20.01-18.13-1.38-15,12.52-14.58,14.89-26,1.45-7.02,1.11-16.78-7.59-17.47.54-6.56,7.65-6,12.37-4.06,1.94,8.37,4.06,15.2,13.58,16.92,9.74,1.76,13.06-3.36,21.05-4.64,4.51-.73,9.13.38,13.47-.97-4.13-3.94-9.12-8.08-14.05-10.91-20.06-11.57-33.26-7.01-54.69-3.93-1.47.21-2.78,1.63-4.24,2.04l-9.03-8.84-3.46,5.19-7.39-5.15-7.7,8.99c-1.33-.69-2.75-2.06-4.22-2.25-17.63-2.27-31.93-6.76-49.02.42-7.07,2.96-15.24,8.89-19.74,15.08,13.56-3.2,25.86,9.58,38.47,3.65,8.46-3.96,6.11-11.99,8.82-14.84,2.91-3.06,10.97-2.87,13.15,1.35-11.33,5.12-11.35,17.3-4.48,26.86,4.51,6.3,10.41,5.26,11.12,15.24,1.25,17.68-9.58,15.79-21.09,22.3-8.63,4.86-18.37,13.87-22.37,23.02-3.62.95-2.68-2.77-4.62-5.19-7.13-8.89-17.89-14.86-29.61-11.31-12.32,3.74-3.36,15.79-4.13,19.62-.45,2.27-5.07,3.96-5.07,9.39.02,9.74,10.91,13.04,19.01,9.72,4.79-1.97,7.28-8.8,11.09-1.57-2.54,16.07-8.16,33.47-8.96,49.7-.29,5.88-.93,10.57,3.2,15.17,6.99,7.78,18.89,6.68,24.18-2.3-3.74-13.89-8.04-28.02-5.05-42.45l15.76,19.08c7.59,6.3,15,11.76,24.46,15.05,1.42,1.78-6.07,14.88-8.1,17.07-2.63,2.87-17.5,10.03-12.94,13.3,17.63,1.66,35.93,2.96,53.83,2.59,3.1-.05,5.98-1.25,9.1-1.42,2.75-.16,27.45,1.73,25.06-3.89-9.88-7.52-19.2-13.44-21.55-26.81,6.35-4.43,13.46-7.02,19.56-11.95,7.65-6.18,14.48-15.2,20.38-23.02.8,6.04,1.19,12.96.62,19.04-.57,6.04-6.12,20.98-5.03,24.72,2.8,9.55,27.85,7.96,27.47-8.86-.4-17.28-7.71-35.46-9.15-51.51-1.23-13.66,6.19-4.01,10.05-2.11,9.96,4.95,21.34-1.35,18.51-13.23ZM905.44,11.73c3.53,1.38,5.97,4.57,9.79,5.33,1.06,4.03-4.48,2.42-7.66,3.49-2.18.73-3.98,2.61-6.23,3.01-16.52,2.92-21.14-21.79,4.1-11.83ZM789.88,20.51c-2.42,2.4-5.97,3.6-9.38,3.18l-15.14-5.98c4.81-4.27,13.53-8.54,20.03-8.23,8.22.4,10.22,5.33,4.48,11.04ZM769.31,105.13c1.31-1.35,5.28,2.56,3.93,3.93-1.31,1.33-5.28-2.56-3.93-3.93ZM770.61,110.39v2.59l-6.56,1.33-.02-3.93h6.57ZM741.01,116.98c-2.65-3.56-2.61-6.59,1.33-9.08,3.65,3.67,8.87,4.53,13.8,5.12-1.95,4.98-11.38,7.33-15.14,3.96ZM750.91,95.93c5.33-.38,10.14,3.91,10.5,9.18-5.14.9-10.78-3.91-10.5-9.18ZM757.96,92.16c-3.84-2.46-8.25-1.71-12.16-.03-1.38,2.18,3.15,10.74-.8,9.05-2.23-.97-4.83-5.66-4.43-8.25,2.25-14.13,28.33-6.8,26.08,6.94l-8.7-7.7ZM761.42,162.35c.42-6.85,4.24-28,6.33-34.46.54-1.64.5-3.29,2.23-4.36,1.75-.4,2.98,1.18,3.01,2.94.09,5.24-2.32,13.28-2.42,18.68-.14,6.75,5.4,27.97-4.48,27.07-5.21-1.09-4.95-5.47-4.67-9.88ZM775.87,173.49c-1.28,7.58-12.7,6.07-17.07,1.97,6.75.42,10.67,1.19,17.07-1.97ZM777.2,181.4c-2.91,5.67-16.17,5.9-17.09-1.33,5.62,4.13,10.86,2.44,17.09,1.33ZM891.57,94.6l-11.83.02-1.3-10.52c6.24-.78,12.3,4.13,13.13,10.5ZM867.27,78.84c5.33-1.16,5.67,16.03,1.28,17.07-5.74,1.35-6.56-15.93-1.28-17.07ZM866.59,18.35c1.35,1.37-2.61,5.28-3.93,3.93-1.35-1.35,2.61-5.26,3.93-3.93ZM860.02,10.46c1.4,1.38-2.35,10.03-6.56,7.87-.29-2.18,3.53-10.85,6.56-7.87ZM846.23,3.89c3.1,4.36,2.13,9.76.62,14.46-3.44.42-2.06-.1-2.65-1.94-1.42-4.43-1.52-8.96,2.02-12.52ZM835.02,3.89c1.02,4.46,3.3,10.69-.64,14.43-2.46.07-3.72-13.46.64-14.43ZM820.58,10.46c4.34-.09,5.79,4.13,5.26,7.87-4.34.09-5.79-4.12-5.26-7.87ZM814.03,17.04c2.61.69,2.96,2.8,2.59,5.26-2.61-.71-2.96-2.8-2.59-5.26ZM812.87,32.66l-.09-3.68c2.84-4.43,49.87-7.4,55.11,1.87-5.45,9.22-51.98,6.71-55.02,1.82ZM833.73,45.96c2.63-.66,3.62,2.7,5.92,2.66,1.63-.02,2.49-1.68,3.34-1.97,7.73-2.63-.76,8.18-1.38,11.14-2.58,1.78-9.38-10.17-7.87-11.83ZM833.71,63.05l-7.2-10.53c-2.32-1.04-1.89-3.62,0-3.93,3.53-.55,8.23,11.3,7.2,14.46ZM854.76,48.59c1.56,1.73-7.07,12.94-9.18,14.46-.73-2.44,6.5-17.45,9.18-14.46ZM829.78,68.98c12.9,2.94,17.73.8,30.24-1.97,4.48,4.6-12.28,7.7-15.07,7.92-8.74.69-18.54-.4-25.69-5.98,1.02-6.09,6.62-.86,10.52.03ZM857.37,95.91c-8.68,2.04-7.78-16.03-3.23-17.07,7.18,1.87,4.67,11.52,3.23,17.07ZM842.98,94.01c-7.51,8.77-11.28-13.13-4.48-15.1,5.9-1.7,8.82,10.02,4.48,15.1ZM823.9,95.9c-5.5-1.82-3.22-21.14,3.17-17,3.42,2.21,3.86,19.3-3.17,17ZM812.07,78.84c5.52-1.18,6.11,15.93,1.26,17.07-5.07,1.19-6.9-15.86-1.26-17.07ZM800.84,84.1l.02,10.52-11.83-.02c-1.97-4.36,9.77-12.66,11.81-10.5ZM803.28,154.38c-7.97-.93-24.93-16.26-22.14-25.58,5.86-1.07,5.93,5.54,8.63,9.12,7.58,10.05,22.05,11.04,30.79,2.04.88-.9,8.67-14.88,10.48-6.47,1.97,9.2-18.68,21.93-27.76,20.9ZM785.09,113.02h9.18c1.02.97-7.28,13.73,4.03,9.93l1.16-1.57-1.23-7.04h9.2c-3.29,4.69-5.19,8.08-1.31,13.13l-22.35-1.31c3.51-4.57,4.46-7.97,1.31-13.13ZM798.2,120.25c0,.86-3.15,2.72-3.91,1.95-1.99-1.99,3.91-5.6,3.91-1.95ZM814.01,115.65l8.54-.02-.57,7.06c1.02,3.25,7.73,3.56,7.52-1.37-.1-2.56-2.87-3.03-2.35-5.67h7.89c-2.49,4.46-1.14,8.58,0,13.15h-21.03c3.32-4.81,3.37-8.3,0-13.15ZM819.27,131.42c-4.32,12.97-23.68,9.2-28.92-1.31,6.42.67,7.66,6.23,15.24,6.43,6.05.16,8.68-3.18,13.68-5.12ZM867.91,199.77c-6.11,3.36-13.51-.19-18.77.29-10.46.99-10.67.21-20-.03-4.83-.12-11.42,3.3-16.45-.9,13.65-11.83,42.48-12.45,55.21.64ZM843.52,164.34c-6.9-1.21-9.36,1.61-15.05,3.87,3.34-9.17,17.7-8.15,23.65-1.95-2.59,3.79-5.21-1.31-8.6-1.92ZM844.24,168.23v5.24c-12.26,1.47-12.32-6.68,0-5.24ZM853.17,179.1c2.47-.14,3.7-1.14,5.52,1.63-10.6,7.49-24.91,4.41-36.79,1.94v-3.91c10.48,2.23,20.74.9,31.27.35ZM851.73,162.72c-12.37-8.35-19.23-2.73-28.51,4.88-4.2,3.42-6.69.61-4-2.68,2.32-2.84,9.36-6.78,12.59-9.77,1.95-1.8,7.23-11.04,9.77-9.25,1.42,4.51,6.33,8.51,9.84,11.87,2.35,2.25,13.47,7.92,9.89,11.8-2.18,2.34-7.32-5.31-9.6-6.83ZM867.91,165.59c-2.06,1.99-18.56-14.84-20.39-17.06-2.47-3.03-5.24-6.57-5.92-10.53-2.18-1.59-8.58,10.19-10.53,12.45-5.12,5.88-11.17,10.95-17.78,15.08l-1.89-2.54c13.3-5.36,19.17-17.28,25.95-28.59.62-1.02-.12-2.2,2.32-1.71,3.06.5,9.44,14.13,12.51,17.76,4.05,4.79,8.49,7.04,12.75,10.93,1.42,1.3,3.65,1.38,2.99,4.2ZM844.24,115.65h9.2l-2.56,7.07c.9,3.11,6.5,2.85,7.82.1l-2.61-7.18,8.53-.02c.12,5.19-2.39,8.68,1.97,13.16h-22.35c3.04-4.77,4.06-8.6,0-13.15ZM887.75,120.22l-2.72-5.24c2.2-3.01,5.9-1.87,9.17-1.95-1.7,5.1-1.9,8.6,1.33,13.13l-21.05,1.31c2.54-4.69,1.42-8.87-1.31-13.13h9.2c-7.44,8.67,4.88,12.97,5.38,5.88ZM886.29,120.25c0,.86-3.17,2.72-3.91,1.95-1.99-1.99,3.91-5.6,3.91-1.95ZM874.98,136.63l13.96-6.52c-3.91,11.74-23.42,12.77-28.9,1.95l14.94,4.57ZM894.75,141.82c-15.52,20.74-37.05,12.75-46.53-8.44l3.29-2.04c4.91-.48,4.69,4.45,7.2,7.32,5.02,5.74,10.03,7.92,17.75,7.23,14.3-1.28,17.42-16.52,19.74-17.09,7.61-1.89-.03,11.16-1.44,13.02ZM897.52,109.08c-13.46,1.63-27.31.9-40.84,1.25-22.99.61-47.83,1.78-70.95.07-1.28-.1-5.95-.88-5.92-1.99l119.65-1.95c2.09,1.59.02,2.39-1.94,2.63ZM779.83,103.8c-.17-3.08-.45-2.32,1.94-2.63,5.26-.67,11.69.36,17.18.07,27.95-1.56,53.45-1.68,81.4,0,6.19.36,16.4-2.3,20.45,2.56h-120.96ZM909.99,110.39c12.66-.29,2.2,7.59,0,1.94v-1.94ZM903.42,181.4c6.21,1.11,11.45,2.8,17.07-1.33,3.79,3.79-15.74,9.32-17.07,1.33ZM914.47,178.73c-4.01.45-9.95-.73-9.74-5.24,5.54,3.68,11.55,3.7,17.07,0,2.42,2.35-6.23,5.1-7.33,5.24ZM919.05,165.12c.14,6.33-6.02,9.27-10.1,5.41-1.26-1.19-.05-29.49-.22-34.56-.12-3.27-4.2-16.48,2.47-12.37,1.8,1.11,7.78,37.83,7.85,41.51ZM914.57,99.86c-4.08,1.82-.19-5.98.67-7.21,3.72-5.34,9.81-8.11,16.33-7.2,13.23,1.85,5.83,19.42.76,15.72l2.46-6.95c-5.98-8.53-16.05-.92-20.22,5.64ZM919.19,105.12c-.28-5.29,5.36-10.1,10.5-9.18-.36,5.28-5.17,9.57-10.5,9.18ZM924.45,113.02l13.8-5.24c8.34,11.87-8.7,14.91-13.8,5.24Z"/>
      <path d="M444.56,39.39v-10.52c-1.61-2.09-2.39,0-2.63,1.94-.67,5.41,2.09,13.2-3.94,16.47v-29.58l3.23-1.99c4.83,2.13,8.51,3.81,13.94,2.06,1.94-.64,12.97-11.02,13.04-11.9.35-5.17-9.98,5.62-11.17,4.62l-8.99-6.5-25.79,22.92,5.22.64c-1.49,15.43,1.99,34.42.09,49.4-.22,1.7-5.26,10.98.57,7.16.74-.5,8.34-7.01,8.63-7.51,3.34-5.6-.64-17.09,2.2-23.75.81-1.89.35-1.95,2.98-1.63v43.38c-31.55,3.6-30.93-47.74-24.61-67.34,3.65-11.3,10.5-12.54,15.41-20.08,1.12-1.71,1.38-2.94-.69-3.3-5.45-.95-22.12,19.91-24.77,25.17-16.69,33.07,4.7,80.45,44.92,67.27,30.7-10.05,29.02-59.45-7.63-56.93ZM444.78,57.57l-.22-14.24c20.69-3.03,23.06,24.87.22,14.24ZM444.57,94.6l.59-14.51c4.41-3.34,8.89-2.42,13.8-1.19.5,7.68-7.06,14.43-14.39,15.71ZM461.64,76.19c-5.86-1.85-11.21-1.85-17.07,0v-14.46c5.86,1.85,11.21,1.85,17.07,0v14.46Z"/>
      <path d="M81.05,84.1c-1.63,4.51-8.56,4.15-8.56.64V20.32c0-.55,5.66-5.24,6.54-6.57-1.83-3.39-4.2-.31-6.52-1.28-1.87-.78-7.54-8.56-8.56-8.56l-12.49,12.49c1.9,7.85,5.67-5.83,10.57,2.54,7.46,12.73-11.36,15.05-19.79,9.93V5.21c-3.91.07-3.91,3.91-8.49,4.03-6.83.17-12.9-6.99-22.33-5.29C.03,6-5.12,27.99,8.06,31.5-4.79,2.99,17.42,19.2,28.42,18.42c5.55-.38,7.11-3.89,11.19-6.64v74.93c-7.42-2.56-12.96-5.09-21.1-3.36C-.42,87.37-7.34,115.2,9.75,125.11c3.48,2.02,15.34,6.97,15.39-.26-36.12.42-21.71-47.62,8.86-26.55l2.82.07c.02-3.56,10.53-10.86,10.66-12.32.17-1.95-4.05-1.9-5.22-.64-3.1-16,7.4-17.16,19.82-12.32,5.12,9.17-5.31,10.12-5.36,17.56,7.54-4.93,8.6,10.53,15.74,7.28.73-.33,10.22-11.17,10.53-11.9.71-1.63-.36-2.47-1.94-1.94ZM42.91,32.8c6.99,2.09,13.39,1.56,20.36.02v11.83h-21.03l.67-11.85ZM61.32,69.59c-6.56-4.55-12.35-2.01-19.06.03l1.23-13.89,19.22.66c1,2.28,1.4,12.97-1.38,13.2Z"/>
      <path d="M314.46,99.2c-.59-6.56-5.86-9.29-6.61-13.16-.67-3.48-.45-28.44.66-30.86.43-.97,8.91-7.2,3.87-7.92-1.75-.24-3.17,2.72-4.98,2.46-2.47-.33-7.13-6.66-9.25-6.28-6.75,6.56-16.59,9.15-25.82,9.1-.97,3.44,3.49,3.03,3.98,4.88.83,3.18.21,24.6-1.02,27.66-1.28,3.13-5.73,4.46-5.59,8.22l5.9-3.58,13.82,6.23c.95,1.25-17.75,21-19.7,24.34-.95,1.63-1.7,2.85.67,3.27,1.85.33,3.93-2.87,5.85-3.42,8.11-2.37,13.08,8.89,15.88,8.16,10.29-7.94,23.7-13.75,22.35-29.08ZM285.68,83.87l-1.35-28.54,9.7-3.74c.73.05,4.58,3.91,4.58,4.22v30.24l-3.22,1.99-9.72-4.17ZM299.1,119.49c-6.18-4.12-10.79-7.87-18.89-6.49l17.76-21.02c1.42,3.94,6,4.65,7.54,8.2,3.51,8.04.4,14.82-6.42,19.3Z"/>
      <path d="M664.11,49.26c-.76-4.06-5.05,1.61-6.95.52l-8.16-6.14-13.79,11.52c-.17-4.55-2.54-8.82-5.92-11.81l-11.16,11.16,5.24-.03c3.46,2.27,3.42,24.54,2.59,28.94-.69,3.65-6.49,6.94-6.52,7.9-.12,3.42,5.62.78,6.56-.66v28.28c0,.55-5.67,5.22-6.56,6.57l3.25,1.95,12.51-12.49v-23.01l8.35,5.17c5.05-5.26,10.08-9.43,17.94-9.12,1.3-3.48-2.28-2.06-2.65-3.48-.67-2.51-.22-27.33.69-29.37.88-1.94,5.03-3.49,4.57-5.92ZM648.35,88.03c-4.2-4.08-7.66-5.71-13.23-7.37.35-11.66-2.87-20.88,8.6-27.8.93-.07,4.64,2.47,4.64,2.96v32.21Z"/>
      <path d="M585.24,86.72c2.1,2.16,10.84-7.2,12.93-8.76v-21.93s-7.65-2.84-7.65-2.84l11.11-9.86,5.47,6.41c1.27.25,7.24-4.18,7.03-.49-.06,1.02-5.82,4.24-6.52,7.92-.67,3.5-.26,28.44,1.3,29.55l3.97-1.97c7.3,1.95-6.83,8.81-8.68,12.44-3.81.85-7.03-11.3-5.84-14.41l-16.42,14.42c-4.08-4.9-6.15-6.37-12.48-3.91-.23-4.23,5.32-5.46,6.3-8.81,1.1-3.78.71-30.61-3.02-30.61l-2.63,2.59-1.96-3.24,11.17-9.86c1.78.02,5.92,11.93,5.92,13.78v29.58Z"/>
      <path d="M257.88,86.73c-1.57-1.12-1.95-26.07-1.3-29.56.97-5.1,7.4-5.28,6.52-7.9-1.35-3.98-4.06,1.23-6.94.5-2.09-.52-4.69-4.19-4.91-6.42h-2.58c.24,3.87-10.93,12.21-13.16,10.48,1.61-3.22,2.34-6.61-.54-9.31-16.9-3.39-5.12,14.01.43,20.32-7.9,6.99-20.55,21.85-7.73,30.36,8.89,5.88,12.92-5.98,19.65-9.81-.03,2.46,2.37,12.56,5.85,11.78,1.07-.24,20.57-17.04,4.7-10.45ZM247.35,80.8l-9.86,7.28c-10.46-4.65-8.56-12.97-.64-19.2l6.54,2.06-7.87-13.13c2.91,1.26,7.87-3.74,8.54-3.72.47.02,3.29,2.82,3.29,3.04v23.66Z"/>
      <path d="M562.19,47.26l-5.03,2.53-8.1-6.02c-8.01,6.12-16.66,9.01-26.93,8.77-.88,4.13,3.25,1.78,3.96,5.88.61,3.41.38,24.56-.71,26.97-1.16,2.58-8.22,5.05-3.91,7.89,4.69-6.94,9.72,4.5,14.24,3.7,1.33-.22,6.05-4.19,9.06-5.36,5.41-2.11,11.14-2.61,16.8-3.58.73-3.72-1.26-2.37-3.81-2.7.81-8.35-1.61-20.31-.1-28.16.86-4.6,8.84-6.52,4.53-9.91ZM548.43,86.71c-3.06,2.04-13.15.21-13.15-3.29v-27.61c4.69-4.36,8.15-3.22,13.15-.66v31.55Z"/>
      <path d="M198.7,51.22c-4.56-.99-4.8,2.67-7.23,5.23-4.19-4.57,1.69-12.86,7.31-13.93.6-5-1.42-13.13.6-17.57.46-1.01,9.57-9.89,10.7-10.34,8.48-3.44-2.17,6.48-2.17,7.03v19.72c0,1.63,4.22,2.3,5.92,2.05,4.06-.6,1.79-4.95,5.9-4.02.73.88-2.1,9.45-3.24,10.55-2.74,2.67-7.57-.68-8.59,4.55-.64,3.25-.53,27.11.28,29.97.39,1.38,1.74,2.61,3,3.29,13.97-6.96-1.17,6.8-5.24,9.42l-6.77-6.32c-14.67,5.69-.46-5.24-.46-6.11v-33.53Z"/>
      <path d="M123.85,62.29l-11.95-18.96-1.89.03c-5.83,6.56-14.79,7.97-23.06,9.18-.92,3.7,2.91,3.53,5.24,2.61.69,1.28.38,27.23-.26,29.32-.88,2.98-6.26,4.34-4.98,8.8,2.35.83,3.3-2.2,4.58-2.21,1.66-.03,6.85,6.23,10.33,5.9,1.07-.1,17.64-11.19,17.99-12.23.47-1.44.42-4.17-1.99-3.27-4.32,1.63-9.93,12.11-15.24,4.69-1.85-2.59-2.08-6.66.12-9.29,2.04-2.47,20.91-13.32,21.1-14.58ZM101.41,54.5l3.98-1.37,7.68,11.71-11.66,8.72v-19.06Z"/>
      <path d="M682.53,66.99h24.98v18.41c2.66-.34,3.01-.1,2.63,2.62-6.55-2.46-17.33,8.64-19.25,9.01-2.21.43-6.41-3.88-10.36-3.85-4.52.04-4.63,4.03-8.51,4.05,3.09-8.32,16.58-15.13,24.33-9.23,2.87-.23,2.33-12.01,1.39-14.51l-24.41-1.22c-.64-.64.61-12.15-.02-14.9-.07-.31-5.59-3.07-1.72-4.81,5.46,2.33,16.62-8.73,18.16-8.85,2.82-.24,11.35,8.48,17.11-.34,1.61-.09,1.78,1.67.68,3.28-.92,1.33-8.95,7.45-10.47,7.94-5.66,1.85-6.53-.4-10.56-1.46-6.42-1.68-3.34,9.84-3.98,13.87Z"/>
      <path d="M357.55,61.09l-13.56-17.64c-6.66,6.35-15.36,8.48-24.34,9.1-1.45,4.5,6.09,2.65,6.66,4.74-1.82,11.1,4.64,26.14-6,33.37l1.31,2.61c4.24-5.97,9.17,4.76,14.15,3.77l18.04-13.61c-2.02-2.7-2.02-1.66-4.31-.4-5.36,2.96-7.23,9.2-13.77,3.41-6.3-10.79,17.21-18.13,21.81-25.34ZM335.43,54.5c.29-.99,2.92-2.66,3.93-1.95l7.92,12.42-11.85,8.6v-19.06Z"/>
      <path d="M161.89,52.53c-7.74,6.99-7.2,11.26-18.39,2.63-3.08,2.37-3.66,25.07-1.96,28.89,3.09,6.93,7.14,2.45,10.51,1.36,1.8-.58,2.36.16,1.94,1.94l-12.71,9.7c-2.43.21-6.71-5.83-9.2-6.22-2.13-.33-3.11,3.19-5.68,2.45-1.05-4.86,4.42-5.71,5.22-9.88.67-3.5.26-28.36-1.3-29.55-2.73,1.55-3.77,4.48-6.53.65l12.48-11.13,4.6,9.15,9.17-9.2,3.96,7.28c2.32,1.62,4.38-.22,5.93-2,1.82,1.11,1.61,2.26,1.97,3.92,3.34-3.02,6.8-5.95,10.04-9.11,6.81,3.44,5.12,8.32,13.62,3.86-.08,4.56-5.7,5.47-6.54,9.88-.86,4.52-.51,24.83,1.94,28.24,1.47,2.63,6.91-4.67,5.94.67-.35,1.92-8.71,10.83-10.06,11.07-4.11.73-6.56-9.61-6.91-12.54-.62-5.21,1.44-30.03-2.15-30.76l-5.88,2.63c-.18-1.25.24-2.8,0-3.94Z"/>
      <path d="M491.87,43.34l3.98,9.19,6.58-9.2,7.38,7.82c1.89,1.06,6.31-4.64,7.05-.57.3,1.62-5.86,8.69-7.85,9.32-5.54,1.77-9.63-5.36-10.54-4.75-3.49,5.76-5.88,32.58,3.24,32.85,2.67.08,4.97-3.87,7.27-1.94l-12.73,10.98c-2.43.21-6.71-5.83-9.2-6.22-2.13-.33-3.11,3.19-5.68,2.45-1.05-4.86,4.42-5.71,5.22-9.88.67-3.5.26-28.41-1.3-29.55-.81.38-6.73,4.16-6.53.65.05-.87,11.61-12.21,13.1-11.17Z"/>
      <path d="M23.84,53.85l-5.35.57c-2.68,1.84.96,10.54-5.16,9.94-1.65-9.07-1.63-20.23,10.46-19.77l.74-17.01,9.2-7.9c4.17-.53.64,2.72.64,3.27v48.65c0,.79-10.52,11.67-11.81,6.57.02-.49,1.29-.91,1.29-1.31v-23.01Z"/>
      <path d="M82.3,180.12c-1.92-1.78-5.12-8.72-4.43-11.07.45-1.54,2.89-1.78,3.37-2.54.97-1.52,3.11-5.07,2.85-6.62-4.76-7.78-15.52-5.9-23.44-6.11l4.01,3.34c.83,3.27-3.41,20.86-5.43,23.52-2.08,2.7-4.95.9-5.15,3.36h17.07c.05-2.66-4.08-.38-5.14-3.44-1.28-3.63.83-12.54,6.33-9.55,1.14,10.15,5.17,14.53,15.9,12.99-.48-2.28-3.94-2.02-5.95-3.87ZM68.55,168.22l2.63-11.81c10.97.31,6.45,12.42-2.63,11.81Z"/>
      <path d="M921.8,51.22c-16.14-.35-27.4-5.97-43.33.71-7.78,3.27-6.75,4.48.97,8.13,8.74,4.15,20.12,4.06,29.18.99,1.68-.57,15.84-7.52,13.18-9.82ZM878.46,55.82c5.15-5.55,6.83-.99,10.41.07,8.96,2.65,14.41-5,23.75-2.02-2.7,9.81-34.14,7.16-34.16,1.95Z"/>
      <path d="M757.48,51.23c11.87,14.89,34.7,14.98,49.95,5.22-13.99-14.15-32.95-5.02-49.95-5.22ZM766.68,53.86c3.04.88,7.18-1.28,9.65-.93,2.77.4,5.28,3.91,10.71,3.63,5.12-.26,8.13-5.17,13.8-2.7-4.01,11.02-27.8,7.78-34.16,0Z"/>
      <path d="M227.3,164.5c-7.7,1.45-8.42,14.89-10.19,20.83,5.48-2.85,8.53-4.45,13.13-9.2.43,7.51-4.74,21.26-14.5,15.15-3.27-2.04.86-4.31,1.37-5.95-2.4,1.25-6.28,1.16-7.82,4.76,2.39,7.96,16.1,4.67,20.51.05,6.76-7.07,2.4-19.15,9.65-25.82-3.75,1.49-9.13-.38-12.16.19ZM223.69,178.75l2.63-11.83,5.26,1.33c1.35,1.83-5.47,9.77-7.89,10.5Z"/>
      <path d="M368.12,164.46l-6.33-.29-.07-3.82c-6.59-.69-4.7,8.49-11.81,11.17l3.93-.66c.66.88-3.89,17.47-4.91,19.41-1.45,2.77-3.94,1.99-4.27,4.24h14.44l-5.26-1.3c-1.59-8.94,3.25-6.69,7.85-9.91,5.57-3.91,9.91-12.37,6.43-18.84ZM358.47,181.38c-3.75-.71,1.68-11.52,1.83-13.68l4.05-.78c1.09,1.06-1.47,14.67-5.88,14.46Z"/>
      <path d="M198.69,164.28l.02,5.27c3.68-2.31,5.27-6.45,10.5-5.26.66,5.68-1.2,10.92-3.94,15.76l5.92-3.92c2.57,3.12-9.23,11.17-11.17,9.19l4.6-18.39c-4.4,1.8-10.91,19.03-14.45,18.39-2.98-.54-.93-3.26-.64-4.54.95-4.26,3.32-8.2,3.9-12.55l-4.6,3.94c-1.07-4.86,4.7-8.87,9.86-7.89Z"/>
      <path d="M497.15,164.28l.02,5.27c3.68-2.31,5.27-6.45,10.5-5.26.66,5.68-1.2,10.92-3.94,15.76l5.92-3.92c2.57,3.12-9.23,11.17-11.17,9.19l4.6-18.39c-4.4,1.8-10.91,19.03-14.45,18.39-2.98-.54-.93-3.26-.64-4.54.95-4.26,3.32-8.2,3.9-12.55l-4.6,3.94c-1.07-4.86,4.7-8.87,9.86-7.89Z"/>
      <path d="M380.14,177.43c-1.79,3-4.47,9.91-9.9,6.61-2.66-4.08,5.01-18.32,9.54-19.55,3.3-.9,7.2,1.71,10.87-.2l-3.92,15.77,6.55-3.29-9.85,8.6-3.26-2.01,2.59-7.24c-.19-.26-2.07.99-2.62,1.31,2.28-3.83,6.97-9.02.64-10.42l-5.89,12.41c1.43,1.95,3.88-1.16,5.25-1.98Z"/>
      <path d="M621.75,155.4c-10.57-10.55-28.21,20.26-7.59,20.06l-10.52,9.84c10.53-.26,26.5-21.52,18.11-29.91ZM612.24,172.16c-4.13-1.23-2.23-15.14,2.61-17.07,5.22-1.07,5.21,19.41-2.61,17.07Z"/>
      <path d="M600.7,155.4c-10.55-10.55-28.19,20.26-7.58,20.06l-10.52,9.84c10.52-.26,26.5-21.52,18.09-29.91ZM591.2,172.16c-4.15-1.23-2.23-15.14,2.59-17.07,5.22-1.07,5.22,19.41-2.59,17.07Z"/>
      <path d="M645.71,174.13l-5.24-1.97,5.24-18.39c-2.27-.59-2.63.95-3.94,1.95-6.33,4.88-12.07,13.16-18.37,18.42,2.85,3.49,7.89,1.56,11.8,1.97.69.64-1.19,4.58-1.97,5.26-1.87,1.64-4.72.36-4.58,2.61h14.44c-2.32-2.99-5.14-2.51-3.94-7.87l6.57-1.99ZM636.38,172.04l-7.75-.52,9.18-8.54-1.44,9.06Z"/>
      <path d="M301.27,160.34l-1.44-5.17h-3.73s-2.73,10.42-2.73,10.42c1.05.99,7.97-2.24,6.57,2.63l-7.29,1.26c-2.29,9.75-2.24,27-16.37,25.03v-5.25s5.88,2.63,5.88,2.63c3.32-.73,4.65-19.15,6.04-22.89l-2.72-1.44c6.08-2.72,4.13-12.12,11.76-14.56,10.26-3.28,6.13,8.96,4.03,7.32Z"/>
      <path d="M147.41,164.29l2.66,14.45,3.23-13.18c1.34-2.36,4.37-.73,4.64.73.71,3.82-14.34,31.46-22.34,28.22l1.3-4.68c13.72,1.62,7.88-11.58,7.89-20.29l-5.27,4.58c.53-4.58,2-10.65,7.89-9.84Z"/>
      <path d="M579.98,153.78l-6.04,27.69,4.73,2.53h-15.76c.17-2.49,3.22-.64,5.18-3.35,1.44-1.99,5.94-19.83,5.21-22.12-.78-2.45-4.95-.94-3.81-4.75h10.51Z"/>
      <path d="M163.21,30.18c-1.5-1.67,7.04-9.09,8.8-10.37l12.22,5.79-9.87,9.53c-3.73-2.98-5.73-7.18-11.15-4.95Z"/>
      <path d="M161.9,180.06l6.56-3.93c-1.76,4.72-6.49,9.11-11.83,9.18-1.13-10.78,9.63-19.59,5.24-30.22l7.88-2.64-7.86,27.61Z"/>
      <path d="M131.64,160.35c.25.26-.55,2.73.25,3.61.87.96,4.02.22,4.98,2.3-1.54,2.59-5.74,1.32-7.24,3.25-1.39,1.8-1.11,8.05-3.25,10.54l7.88-3.28c-3.57,2.73-6.15,8.55-11.15,8.55-4.66-1.2,2.51-13.3,2.06-16.23l-4.05-3.47c4.11,1.2,7.76-8.03,10.51-5.27Z"/>
      <path d="M257.86,180.05l5.92-3.92c2.56,2.99-10.04,12.78-11.13,7.16-.75-3.88,6.92-17.42,7.57-22.6.68-5.5-4.22-4.6,5.51-8.23l-7.87,27.6Z"/>
      <path d="M319.63,167.58c-9.65-13.06-22.82,15.36-14.96,17.68,3.51,1.04,14.44-6.97,12.35-9.13-1.54.66-7.71,6.92-9.18,5.26-4.08-4.64,10.29-10.02,11.8-13.8ZM309.15,171.54c2.25-8.42,10.19-1.54,0,1.95.02-.64-.16-1.33,0-1.95Z"/>
      <path d="M428.76,167.58c-9.65-13.06-22.82,15.36-14.96,17.68,3.51,1.04,14.44-6.97,12.33-9.13-1.52.66-7.71,6.92-9.18,5.26-4.08-4.64,10.29-10.02,11.81-13.8ZM418.28,171.54c2.25-8.42,10.19-1.54,0,1.95,0-.64-.16-1.33,0-1.95Z"/>
      <path d="M545.78,167.58c-9.65-13.06-22.82,15.36-14.96,17.68,3.51,1.04,14.44-6.97,12.33-9.13-1.52.66-7.71,6.92-9.18,5.26-4.08-4.64,10.29-10.02,11.81-13.8ZM535.3,171.54c2.25-8.42,10.19-1.54,0,1.95,0-.64-.16-1.33,0-1.95Z"/>
      <path d="M98.78,173.48c4.29-3.58,2.34-10.09-.72-5.28-1.45,2.28.42,4.42.2,6-.26,1.83-4.74,3.59-3.41,7.17l8.55-3.93.64,2.6c-4.55,1.43-12.33,10.65-13.25.7-.52-5.6,2.46-12.3,7.51-14.95,10.85-5.69,10.83,6.18.49,7.69Z"/>
      <path d="M931.02,51.21c-20.49-9.39-39.88-8.25-60.48,0,16.45-12.5,44.08-12.73,60.48,0Z"/>
      <path d="M808.75,51.21c-19.7-8.56-39.5-9.14-59.16,0,15.62-12.58,43.39-12.67,59.16,0Z"/>
      <path d="M519.53,168.24l-2.65,11.15,2.67,1.42,5.88-4.68c1.93,3.15-7.21,10.07-10.39,9.13-5.78-5.45-.13-20.54,7.86-20.98,2.4-.13,4.43.47,4.49,3.27-2.21,3.53-4.82.42-7.86.68Z"/>
      <path d="M402.51,168.24l-2.65,11.15,2.67,1.42,5.88-4.68c1.93,3.15-7.21,10.07-10.39,9.13-2.66-1.36-2.3-4.59-2.21-7.2.45-13.95,15.94-16.86,14.56-10.51-2.21,3.53-4.82.42-7.86.68Z"/>
      <path d="M177.66,180.05l6.56-3.93c2.11,2.2-12.7,15.28-11.59,4.93.4-3.68,4.18-7.41,3.7-11.51l-3.28,2.62c-1.96-2.4,5.01-8.62,7.87-7.88,4.38,1.12-2.16,13.17-3.26,15.76Z"/>
      <path d="M481.37,164.29l-3.92,15.77,6.55-3.29c-3.78,2.93-6.42,9.06-11.82,8.55l3.95-15.1-3.95-1.31c2.53-3.1,4.82-5.41,9.19-4.61Z"/>
      <path d="M278.89,164.29l-3.92,15.77,6.55-3.29c-3.78,2.93-6.42,9.06-11.82,8.55l3.95-15.1-3.95-1.31c2.53-3.1,4.82-5.41,9.19-4.61Z"/>
      <path d="M434.04,166.93l4.67,11.93c-1.48,7.04-15.94,9.52-9.27-.09l4.59,3.92c1.52-5.04-5.38-10.22-3.34-14.44,1.93-4.01,11.98-5.91,11.24-.69-.66,4.69-6.77-1.55-7.88-.62Z"/>
      <path d="M461.66,166.92c.8,6.58,8.88,10.89,1.27,16.39-5.12,3.69-10.97,1.47-5.87-4.53l4.59,3.92c1.52-5.04-5.38-10.22-3.34-14.44,1.93-4.01,11.97-5.91,11.24-.69-.66,4.69-6.91-1.61-7.88-.63Z"/>
      <path d="M119.81,164.29v5.25s-6.56-2.62-6.56-2.62c-.35,6.3,6.64,8.33,2.68,14.85-5.05,8.3-15.92-.13-8.58-3.01,2.97-1.16,2.07,5.13,5.89,3.92-2.85-9.6-8.65-18.49,6.58-18.39Z"/>
      <path d="M345.95,164.29v5.25s-6.56-2.62-6.56-2.62c-.35,6.3,6.64,8.33,2.68,14.85-5.05,8.3-15.92-.13-8.58-3.01,2.97-1.16,2.07,5.13,5.89,3.92-2.85-9.6-8.65-18.49,6.58-18.39Z"/>
      <path d="M925.75,2.56l.03,9.2c2.85.03-.76-5.76,4.58-3.96,1.09.36,1.25,3.98,3.27,3.98V2.58l-7.89-.02ZM930.35,6.5l-3.27-1.97,5.26-.64-1.99,2.61Z"/>
      <path d="M180.96,152.47c6.05-1.7,6.05,8.24,0,6.55-2.64-.74-2.64-5.81,0-6.55Z"/>
      <path d="M662.65,178.89c2.31,1.75-.08,7.01-3.11,6.43-3.98-.77-2.25-10.49,3.11-6.43Z"/>
      <path d="M673.17,178.89c2.31,1.75-.08,7.01-3.11,6.43-3.98-.77-2.25-10.49,3.11-6.43Z"/>
      <path d="M652.13,178.89c2.31,1.75-.08,7.01-3.11,6.43-3.98-.77-2.25-10.49,3.11-6.43Z"/>
      <path d="M480.74,152.46c3.56-.81,4.5,5.83,1.28,6.56-3.56.81-4.5-5.83-1.28-6.56Z"/>
      <path d="M278.26,152.46c3.56-.81,4.5,5.83,1.28,6.56-3.56.81-4.5-5.83-1.28-6.56Z"/>
    </g>
  </g>
</svg>