<?xml version="1.0" encoding="UTF-8"?>
<svg id="Layer_1" data-name="Layer 1" xmlns="http://www.w3.org/2000/svg" viewBox="0 0 1000 1000">
  <defs>
    <style>
      .cls-1 {
        fill: #757575;
      }

      .cls-2 {
        fill: #4f4f4f;
      }

      .cls-3 {
        fill: #f6f6f6;
      }

      .cls-4 {
        fill: #9c9c9c;
      }

      .cls-5 {
        fill: #fcfcfc;
      }

      .cls-6 {
        fill: #4a4a4a;
      }

      .cls-7 {
        fill: #4d4d4d;
      }

      .cls-8 {
        fill: #bababa;
      }

      .cls-9 {
        fill: #c9c9c9;
      }

      .cls-10 {
        fill: #5e5e5e;
      }

      .cls-11 {
        fill: #383838;
      }

      .cls-12 {
        fill: #6e6e6e;
      }

      .cls-13 {
        fill: #424242;
      }

      .cls-14 {
        fill: #8a8a8a;
      }

      .cls-15 {
        fill: #404040;
      }

      .cls-16 {
        fill: #3b3b3b;
      }

      .cls-17 {
        fill: #1f1f1f;
      }

      .cls-18 {
        fill: #363636;
      }

      .cls-19 {
        fill: #454545;
      }

      .cls-20 {
        fill: #575757;
      }

      .cls-21 {
        fill: #8c8c8c;
      }

      .cls-22 {
        fill: #878787;
      }

      .cls-23 {
        fill: #2b2b2b;
      }

      .cls-24 {
        fill: #0d0d0d;
      }

      .cls-25 {
        fill: #595959;
      }

      .cls-26 {
        fill: #a8a8a8;
      }

      .cls-27 {
        fill: #919191;
      }

      .cls-28 {
        fill: #cfcfcf;
      }

      .cls-29 {
        fill: #ccc;
      }

      .cls-30 {
        fill: #696969;
      }

      .cls-31 {
        fill: #545454;
      }

      .cls-32 {
        fill: #f5f5f5;
      }

      .cls-33 {
        fill: #292929;
      }

      .cls-34 {
        fill: gray;
      }

      .cls-35 {
        fill: #0a0a0a;
      }

      .cls-36 {
        fill: #a1a1a1;
      }

      .cls-37 {
        fill: #3d3d3d;
      }

      .cls-38 {
        fill: #d1d1d1;
      }

      .cls-39 {
        fill: #161616;
      }

      .cls-40 {
        fill: #b5b5b5;
      }

      .cls-41 {
        fill: #2e2e2e;
      }
    </style>
  </defs>
  <path class="cls-3" d="M143.38,592.99s11.38-42.56-51.22-2.43v189.03l33.74.62,16.85,8.82s4.41,32.3,6.94,37.98c16.55,37.19,445.32,120.78,738.68,4.67l3.33-48.3,21.81,6.64,34.14-8.54v-180.37s-16.12-26.64-36.04-24.15c-19.92,2.49-.95,24.15-.95,24.15l-80.62-8.13s-41.73,2.51-39.83,26.27c1.9,23.76,2.85,65.49,2.85,65.49l-13.2,23.08s-426.92,29.43-538.79-10.13l4.74-66.06s3.79-50.59-73.03-30.51c0,0-51.71,15.82-29.4-8.13Z"/>
  <g>
    <g>
      <path class="cls-39" d="M297.86,788.42c-2.2,4.38-4.27,8.24-6.26,11.53-1.99,3.3-4.03,6.54-6.16,9.7-2.13,3.17-4.34,6.46-6.68,9.88-2.34,3.42-4.97,7.47-8.05,12.12-1.75,2.15-3.6,3.08-5.5,2.8-1.9-.28-3.63-1.92-4.32-4.45-1.05-3.82-1.83-8.4-3.11-12.37-1.28-3.97-2.71-7.98-4.27-12.02-1.56-4.04-3.18-8.23-4.83-12.56-1.65-4.33-3.28-8.94-4.83-13.84-.63,3.06-1.17,6.46-1.67,10.17-.49,3.71-1,7.38-1.54,10.98-.54,3.61-1.08,7.05-1.62,10.3-.54,3.26-1.08,5.92-1.6,8.01,2.27,1.59,4.01,3.51,5.17,5.74,1.16,2.23,1.61,4.43,1.32,6.59-.29,2.16-1.32,4.13-3.08,5.93-1.77,1.79-4.31,3.01-7.58,3.67-3.82.77-7.6.86-11.26.23-3.66-.64-7.5-1.9-10.84-2.68-3.1-.72-5.91-1.63-7.45-3.37-1.54-1.74-2.3-3.71-2.31-5.9-.01-2.19.7-4.35,2.12-6.48,1.42-2.13,3.41-3.83,5.99-5.11,2.26-1.11,3.53-2.93,3.91-5.33.7-4.49,1.54-9.36,2.3-14.43.75-5.06,1.48-10.24,2.25-15.5.77-5.26,1.47-10.43,2.19-15.49.71-5.06,1.42-9.86,2.14-14.39.2-1.1.09-2.08-.34-2.93-.43-.85-.93-1.69-1.51-2.52-1.05-1.53-1.96-3.12-2.73-4.75-.77-1.64-1.05-3.54-1.11-5.41-.1-3.22.8-6.08,3.14-8.12,2.34-2.03,5.64-2.91,9.84-2.61,5.08.36,9.61,1.21,13.59,2.47,3.99,1.26,8.3,2.62,12.85,3.91,4.34,1.23,6.88,4.07,7.72,8.59.6,3.27,1.26,6.71,1.97,10.34.71,3.63,1.47,7.33,2.28,11.12.8,3.78,1.65,7.55,2.5,11.28.86,3.73,1.67,7.33,2.42,10.79.88-2.54,2.05-5.4,3.54-8.54,1.48-3.15,3.03-6.32,4.67-9.5,1.63-3.18,3.22-6.15,4.77-8.91,1.54-2.76,2.88-4.98,3.96-6.7,3.16-5.54,8.35-7.82,15.15-7.02,2.2.25,4.28.56,6.22.94,1.94.38,3.84.81,5.68,1.31,1.84.49,3.68,1.05,5.51,1.67,1.83.62,3.9,1.24,5.99,1.97,1.84.64,3.52,1.58,4.95,2.59,1.43,1.01,2.53,2.16,3.31,3.43.77,1.27,1.14,2.62,1.09,4.03-.05,1.42-.62,2.91-1.72,4.42-1.34,1.84-2.96,3.38-4.78,4.6-1.01.54-1.69,1.18-2.02,1.9-.34.73-.57,1.6-.7,2.61-.61,6.85-1.05,14.31-1.48,22.33-.43,8.03-.32,16.12-1.15,22.61-.36,2.8-.6,5.75-.02,8.32.58,2.57,1.6,5.06,3.09,7.46,2.53,3.87,3.1,7.4,1.66,10.65-1.44,3.25-4.59,5.41-9.41,6.5-5.11,1.16-10.27,1.5-15.4.99-5.13-.51-10.01-1.59-14.61-3.28-3.3-1.22-5.58-2.98-6.87-5.29-1.29-2.3-1.07-5.08.55-8.31.4-.83,1.01-1.66,1.8-2.48.79-.82,1.68-1.65,2.67-2.49.98-.84,1.96-1.58,2.93-2.22.97-.64,1.84-1.19,2.62-1.66.58-2.57.99-4.87,1.25-6.89s.47-4.36.6-6.99c.13-2.64.25-5.84.35-9.61.1-3.77.34-8.57.77-14.37Z"/>
      <path class="cls-39" d="M419.23,845.24c-.12,2.67-.56,5.34-1.81,7.53-1.25,2.19-2.9,3.98-4.93,5.39-2.03,1.41-4.3,2.43-6.79,3.07-2.49.64-4.88.78-7.14.44-2.26-.34-4.3-1.22-6.14-2.62-1.84-1.41-3.18-3.42-4.06-6.06-4.44,2.24-9.09,3.68-13.89,4.32-4.8.64-9.28.43-13.38-.67-4.1-1.1-7.57-3.12-10.47-6.1-2.9-2.99-4.79-7.12-5.53-12.19-.9-6.13-.74-12.48.28-18.58,1.03-6.1,3-11.45,6.01-16.02,3.01-4.56,7-8.12,11.95-10.7,4.95-2.59,11.2-3.98,17.44-3.28,2.31.26,4.84,1.38,7.25,2.9,2.4,1.51,4.53,2.73,6.37,3.65,1.37-1.66,3.07-2.7,4.78-3.16,1.71-.46,3.54-.73,5.38-.71,2.94.04,5.46,1.08,7.38,2.99,1.92,1.91,2.86,4.35,2.81,7.34-.31,7.05-.82,14.08-1.73,21-.91,6.92-1.56,13.5-2.05,19.69.23.64.41,1.3.55,1.97.14.67.69,1.14,1.56,1.24.85.1,1.48-.2,1.75-.8.27-.6.71-1.27.86-1.8.33-1.11.42-2.33.83-2.74.41-.42.84-.5,1.31-.24.47.25.85.77,1.14,1.55.29.78.33,1.7.29,2.61ZM391.09,812.34c-1.17-.58-2.58-1.06-4.23-1.44-1.65-.38-3.31-.57-4.96-.59-1.66-.02-3.17.2-4.54.67-1.37.47-2.41,1.2-3.12,2.21-2.79,2.86-4.57,6.03-5.35,9.53-.78,3.49-.58,6.69.32,9.42.7,2.12,1.81,3.65,3.46,4.39,1.65.74,3.44.97,5.37.68,1.93-.28,3.83-.94,5.69-1.96,1.85-1.02,3.78-2.4,4.24-3.56,1.03-2.65,1.01-7.1,1.73-9.99.71-2.89,1.17-6.01,1.4-9.36Z"/>
      <path class="cls-39" d="M430.28,860.75c-.99-.93-1.55-2.23-1.66-3.23-.11-.99.06-1.93.51-2.82.45-.88,1.1-1.76,1.95-2.63.84-.87,1.77-1.76,2.78-2.67.59-.5,1.17-1.01,1.73-1.56.55-.54.89-1.3.99-2.26.97-9.31,1.41-18.33,1.81-26.77.4-8.44.55-16.25,1.2-22.65.3-2.95-.38-6.02-2.35-8.96-1.31-2.02-1.96-3.97-1.95-5.85,0-1.88.53-3.5,1.55-4.87,1.02-1.37,2.5-2.45,4.44-3.25,1.94-.8,4.3-1.3,6.84-1.27,2.45.03,4.91.14,7.12.1,2.22-.04,4.67.03,7.22.32,2.46.29,4.2,1.14,5.1,2.45.9,1.3,1.36,2.77,1.4,4.41.04,1.64-.15,3.33-.57,5.07-.42,1.74-.77,3.14-1.08,4.2-2.51,9.17-3.79,19.48-3.97,28.93-.18,9.18-.43,18.26-.93,26.82-.09,1.15,0,2.19.27,3.12.27.93,1.17,1.75,1.95,2.49.98.93,1.65,2.6,2.02,4.03.37,1.43.4,2.79.1,4.06-.3,1.27-1.05,2.37-2.22,3.3-1.17.93-2.9,1.73-4.84,1.93-2.09.23-4.87.18-7.84.25-2.97.06-5.89.04-8.75-.08-2.86-.11-5.45-.37-7.79-.77-2.34-.4-4.16-1-5.04-1.83Z"/>
      <path class="cls-39" d="M564.77,848.03c-.14,2.6-.65,5.3-2.08,7.53-1.43,2.23-3.31,4.09-5.62,5.61-2.31,1.52-4.89,2.68-7.72,3.48-2.83.8-5.54,1.13-8.12.99-2.58-.14-4.91-.8-7.03-1.98-2.12-1.18-3.67-2.98-4.71-5.43-4.93,2.54-10.07,4.29-15.34,5.3-5.26,1.01-10.13,1.18-14.57.51-4.44-.67-8.18-2.23-11.32-4.74-3.13-2.5-5.21-6.17-6.08-10.84-1.05-5.67-.98-11.74.06-17.74,1.04-6,3.11-11.46,6.36-16.34,3.25-4.87,7.59-8.93,13.05-12.19,5.46-3.25,12.33-5.53,19.4-5.66,2.58-.05,5.43.74,8.13,1.95,2.7,1.21,5.08,2.18,7.15,2.89,1.55-1.82,3.38-3.05,5.49-3.69,2.11-.64,4.32-1.1,6.54-1.27,3.54-.26,6.49.54,8.71,2.27,2.22,1.73,3.26,4.1,3.14,7.11-.5,7.12-1.26,14.28-2.46,21.33-1.2,7.04-2.05,13.69-2.63,19.83.26.61.48,1.24.64,1.9.16.65.8,1.06,1.81,1.09,1,.03,1.72-.32,2.03-.94.31-.61.82-1.31,1.01-1.85.37-1.08.5-2.34.98-2.79.47-.45.98-.57,1.52-.35.54.21.98.7,1.31,1.44.33.74.37,1.66.32,2.56ZM532.54,817.85c-1.31-.45-2.9-.77-4.75-.95-1.85-.18-3.71-.18-5.56,0-1.85.18-3.55.59-5.08,1.22-1.53.63-2.69,1.5-3.49,2.59-3.12,3.19-5.1,6.55-5.96,10.07-.86,3.53-.64,6.64.36,9.19.77,1.98,2,3.36,3.82,3.91,1.82.55,3.8.58,5.95.1,2.15-.48,4.26-1.31,6.33-2.51,2.07-1.2,4.24-2.71,4.75-3.96,1.09-2.63,1.17-7.16,1.99-10.13.82-2.96,1.37-6.15,1.65-9.54Z"/>
      <path class="cls-39" d="M580.91,862.69c-1.98-.52-3.27-1.27-3.87-2.24-.61-.98-.81-2.1-.63-3.36.19-1.26.67-2.61,1.44-4.04.77-1.43,1.56-2.76,2.37-3.99,2.21-2.83,3.36-5.95,3.63-9.2.23-2.73.58-5.6.91-8.46.33-2.86.58-5.77.76-8.71,0-.73-.03-1.42-.07-2.06-.04-.64,0-1.36-.05-1.92-.13-1.24-.8-2.39-1.5-3.06-.7-.67-1.38-1.51-2.02-2.5-2.04-2.25-2.84-4.53-2.4-6.82.44-2.29,2.06-4.23,4.84-5.82,1.96-.94,4.36-1.74,7.17-2.39,2.81-.65,5.54-.93,8.2-.86,2.66.07,4.93.62,6.83,1.65,1.91,1.03,2.86,2.94,3.26,5.2.17.94.32,2.9.24,5.73-.08,2.83-.22,6.07-.42,9.69-.21,3.62-.46,7.35-.78,11.16s-.51,7.22-.67,10.11c-.16,2.98.59,5.7,2.41,8.04,1.13,1.42,1.75,2.91,1.83,4.47.09,1.56-.27,3.01-1.06,4.36-.8,1.35-2,2.5-3.6,3.45-1.6.95-3.54,1.58-5.71,1.78-4.04.37-7.8.55-11.01.72-3.21.18-6.58-.13-10.11-.93ZM609.43,777.13c.68,1.41.95,2.83.83,4.28-.12,1.45-.54,2.82-1.28,4.09-.73,1.27-1.79,2.37-3.18,3.28-1.39.91-3.03,1.6-4.75,1.83-3.44.46-7.02-.15-10.25-1.5s-5.37-3.54-6.34-6.54c-.42-1.37-.48-2.71-.19-4.03.29-1.31.93-2.48,1.89-3.49.96-1.01,2.13-1.85,3.49-2.53,1.36-.67,2.92-1.12,4.61-1.29,3.19-.32,6.2.02,8.96.95,2.76.93,4.79,2.56,6.2,4.95Z"/>
      <path class="cls-39" d="M667.01,804.67c-3.35.03-6.18.9-8.48,2.62-2.31,1.73-4.05,3.91-5.32,6.59-1.27,2.68-2.12,5.62-2.55,8.82-.43,3.2-.46,6.33-.07,9.36.39,3.03,1.2,5.78,2.42,8.23,1.23,2.45,2.87,4.33,4.84,5.35,2.06,1.06,4.33,1.11,6.73.24,2.4-.88,4.28-2.48,5.61-4.85.71-1.49.95-2.73.75-3.69-.21-.96-.99-1.82-2.33-2.56-.63-.38-1.2-.74-1.73-1.09-.53-.35-.86-.67-1.01-.97-.14-.3-.07-.65.24-1.05.3-.4,1.06-.89,2.26-1.5,2.55-1.5,5.18-2.57,7.9-3.19,2.72-.62,5.21-.66,7.46-.08,2.25.58,4.08,1.8,5.47,3.66,1.39,1.86,1.99,4.43,1.75,7.62-.79,5.64-2.8,10.13-5.89,13.6-3.09,3.47-6.78,6.05-10.97,7.83-4.19,1.78-8.77,2.84-13.19,3.19-4.42.35-8.97.34-13.13-.42-6.12-1.11-11.24-3.94-14.83-7.9-3.58-3.95-6.3-9.37-7.44-15.77-.85-4.82-.71-10.13.03-15.26.74-5.12,2.21-9.88,4.33-14.25,2.12-4.37,4.95-8.18,8.51-11.51,3.56-3.33,7.81-5.93,12.69-7.72,2.63-.97,5.76-1.68,9.16-2.19,3.4-.51,6.79-.71,10.18-.58,3.38.13,6.53.64,9.45,1.57,2.91.92,5.28,2.33,7.07,4.25,1.8,1.92,2.83,4.41,3.08,7.45.25,3.04-.64,6.73-2.69,10.95-3.26,5.9-8.03,8.77-14.17,8.61-2.74-.07-4.81-1.25-6.22-3.5-1.4-2.25-1.75-4.97-1.05-8.17.26-.6.46-1.17.59-1.71.13-.53.31-1.2.54-1.98Z"/>
      <path class="cls-39" d="M746.62,786.92c-3.55.44-6.54,1.78-8.97,3.99-2.43,2.22-4.33,4.9-5.71,8.04-1.38,3.14-2.29,6.5-2.74,10.06-.45,3.57-.44,6.97.02,10.21.46,3.24,1.37,6.08,2.75,8.54,1.38,2.47,3.22,4.25,5.4,5.05,2.29.84,4.85.55,7.34-.71,2.48-1.25,4.41-3.21,5.75-5.93.71-1.7.94-3.07.71-4.09-.23-1.02-1.06-1.86-2.48-2.51-.66-.34-1.28-.66-1.83-.97-.56-.31-.92-.62-1.08-.93-.16-.31-.08-.7.23-1.17.31-.47,1.1-1.11,2.35-1.91,2.65-1.94,5.4-3.4,8.25-4.36,2.85-.96,5.46-1.23,7.83-.8,2.36.43,4.29,1.62,5.76,3.53,1.47,1.91,2.12,4.65,1.91,8.14-.76,6.17-2.76,11.17-5.9,15.16-3.14,4-6.9,7.11-11.18,9.46-4.29,2.35-8.91,4-13.81,5-4.91,1-9.82,1.59-14.26,1.35-6.5-.36-11.88-2.66-15.7-6.31-3.81-3.65-6.79-8.94-8.19-15.47-1.06-4.96-1.13-10.56-.56-16.13.57-5.57,1.92-10.94,4.09-16.08,2.17-5.14,5.17-9.85,9-14.17,3.83-4.32,8.45-7.96,13.8-10.75,2.89-1.51,6.2-2.76,9.84-3.79,3.63-1.03,7.25-1.68,10.85-1.91,3.6-.23,6.95.02,10.03.77,3.09.75,5.59,2.1,7.49,4.07,1.9,1.96,3,4.6,3.27,7.89.28,3.3-.65,7.36-2.78,12.12-3.4,6.67-8.37,10.21-14.84,10.71-2.89.22-5.08-.82-6.59-3.1-1.51-2.29-1.91-5.22-1.2-8.81.27-.69.47-1.34.6-1.94.13-.6.32-1.35.55-2.23Z"/>
      <path class="cls-39" d="M865.13,803.18c.19,3.01.04,6.12-1.06,8.84-1.1,2.72-2.67,5.07-4.7,7.11-2.03,2.04-4.37,3.71-6.99,5.06-2.62,1.35-5.2,2.17-7.71,2.48-2.51.31-4.86.05-7.06-.82-2.2-.87-3.95-2.49-5.27-4.96-4.39,3.75-9.06,6.66-13.95,8.84-4.89,2.17-9.52,3.4-13.87,3.69-4.35.29-8.16-.46-11.49-2.36-3.33-1.9-5.77-5.29-7.1-10.16-1.62-5.95-2.11-12.72-1.65-19.78.45-7.07,1.97-13.9,4.62-20.38,2.65-6.48,6.4-12.33,11.23-17.51,4.84-5.18,11.05-9.55,17.71-11.4,2.38-.66,5.19-.43,7.87.36,2.67.79,5.03,1.4,7.07,1.79,1.28-2.45,2.88-4.26,4.81-5.45,1.93-1.18,3.98-2.16,6.08-2.78,3.33-.99,6.26-.6,8.59,1.03,2.33,1.63,3.6,4.23,3.81,7.79.29,8.45.29,17.05-.13,25.52-.41,8.47-.51,16.34-.33,23.46.33.65.61,1.34.85,2.05.24.71.92,1.07,1.9.93.97-.13,1.63-.65,1.86-1.4.23-.75.64-1.61.75-2.27.24-1.33.21-2.76.62-3.35.41-.59.89-.81,1.45-.65.55.16,1.04.65,1.46,1.45.42.8.56,1.83.63,2.88ZM830.84,774.02c-1.29-.25-2.83-.28-4.6-.09-1.77.2-3.53.61-5.27,1.25-1.74.64-3.3,1.51-4.69,2.6-1.39,1.1-2.41,2.38-3.05,3.84-2.65,4.44-4.21,8.81-4.69,13.07-.48,4.26.04,7.77,1.25,10.42.95,2.08,2.25,3.33,4.04,3.54,1.79.2,3.68-.2,5.67-1.21,1.99-1.01,3.91-2.42,5.76-4.23,1.84-1.81,3.73-3.94,4.1-5.54.81-3.43.37-8.52.86-12.15.49-3.63.69-7.46.62-11.5Z"/>
    </g>
    <path class="cls-17" d="M721.58,435.33c-13.48-29.83-9.91-79-10.38-86.21-.23-1.1-12.84-80.05-13.15-81.11-1.07-3.57-5.99-28.13-5.99-28.13.24-4.74-15.98,1.12-17.83-.16,1.05-24.27,30.47-10.66,30.47-10.66,6.08,2.49,20.08,6.89,20.08,6.89,46.74,3.14,65.08-44.86,65.64-46.03-3.69-2.1-24.63-12-24.63-12-6-4.08-19.58-12.27-26.79-13.46l-16.13.02c-5.96.98-19.98,3.56-19.98,3.56-14.25,6.58-25.39,2.98-30.31-.71-1.94-1.46-24.14-17.56-28.24-41.19l.23-13.8c-4.3-.83-67.42,7.25-69.95,5.14-5.79.3-24.87.42-24.87.42l-26.04-5.21c-23.12-3.83-36.22-1.57-47.89,20.64l-1.56,3.01.75,1.89c-2.24,5.8-4.76,11.46-7.55,16.97l-.87,2.46c-3.05,11.56-3.09,23.27-3.66,35.27l1.69,2.36c.85,7.26,1.54,14.52,2.08,21.79.69.17.94-.59.75-2.26-4.43-12.52,2.73-32.91,18.61-32.87.73-.85-11.04-.32-11.51.31-4.32-1.97.05-4.9,2.78-6.6,9.41-5.85,23.41-.13,27.01,10.01-.55-2.87-.27-5.22.83-7.06-.31-1.09-.31-1.29.75-.75,5.15,2.3,7.12,11.56,7.45,17.08.78,13.12-7.37,25.72-16.45,34.41,11.43,2.51,22.38,6.39,32.66,12.03.45.25.78.72,1.13,1.22s.62,1.08.87,1.66c1.98-1.42,5.81.6,5.28,3.02,1.15-.07,2.16.69,3.02,2.26l3.45,1.03c1.18,2.57,3.05,4.74,5.6,6.51,1.78-1.15,2.34-.38,1.51,1.51,2.5,1.44,3.65,2.71,5.25,4.85.41.55,2.53,3.42,2.53,3.93,0,.34-.1.69-.23,1.03,5.54,2.98,8.22,12.96,9.2,19.19.94,5.9,1.61,16.31-3.17,20.05l.91,1.74c-2.03,4.31-5.12,8-8.17,11.62,10.75-1.09,26.73-8.43,34.27-16.44.3-.32-3.25-4.38-4.02-4.97.51-.56.69-1.14.39-1.75-1.35.55-2.68-.2-3.99-2.26-9.13-6.27-2.23-6.49,4.93-4.2,14.63,4.68,22.01,16.52,18.56,31.63-.7,3.05-4.93,16.07-8.87,14.5-2.55-1.01-.06-10.06.69-12.52l-1.59-1.71c.35-9.58-1.26-10.16-4.82-1.75-9.22,17.94-19.04,36.66-31.24,53.13-14.44,19.49-35.03,38.02-60.3,38.93-34.41,1.24-26.29-36.09-20.58-58.14.82-7.19,2.8-28.1-8.24-27.28,3.39,16.44.4,31.67-3.66,48.05-8.88,72.78,74.47,46.8,95.29,4.16l2.7-1.82c.98-1,1.15-.58.75.75.55.68.97,1.45,1,2.34.11,3.19-3.71,9.83-5.53,12.75-.19,1.28.06,1.79.75,1.51,6.88-8.52,13.46-17.35,19.62-26.55,2.7-3.25,6.91-4.29,10.88-5.17l19.65-2.26c30.32-3.9,48.3-29.02,49.31-58.48l1.65-2.6c2.76-.15,4.99,20,.5,38.05-12.85,37.38-36.05,39.64-64.4,40.27-7.26,1.04-9.7,2.33-14.55,7.58-23.97,35.77-65.12,61.09-109.39,48.37-1.7,5.32-4.48,9.36-8.34,12.1-2.54,7.08-6.64,13.6-12.32,19.56-17.62,20.19-36.05,39.65-55.27,58.38-7.01,8.13-14.41,15.85-22.19,23.17.37.58.58,1.3.16,1.8-18.38,22.29-35.46,45.81-49.66,73.04-12.84,24.62-19.69,46.17-27.13,72.62-.51,1.81-1.48,3.45-2.54,4.99-1.02,1.33-14.53,1-15.9-1.54l-1.28-.2,4.78-24.93c-9.85-2.13-19.46-5.1-28.84-8.91l-1.82-2.18c-2.19-5.07-2.13-10.76,0-15.84l3.15-.43c10.48,4.38,21.43,7.57,32.21,10.64,11.84-31.58,28.28-64.76,49.38-91.31,1.37-1.72,3.23-2.96,5.05-4.15.89-4.96,88.24-92.93,89.03-92.81-.09-1.23-.59-1.99-1.51-2.26-.47.72-122.02,40.03-123.27,40.4-4.16.02-43.04,5.79-46.46,10.24-.69.9.24,3.87.6,4.98,5.38,11.57,9.94,22.79,8.66,36.23-.49,5.17-1.67,13.55-6.27,16.05-.98,1-1.14.58-.75-.75l-1.19-2.44c.72-7.35.89-15.56-2.29-22.24-.52,9.34-8.92,28.05-17.6,31.99-2.64,1.2-4.67.96-3.68-2.46,11.15-20.42,13.06-44.14,9.33-66.83-6.51-31.58-10.56-65.36.76-96.34-3.63,1.24-6.95,1.94-10.78,2.17-1.93.12-6.7-.17-7-2.3l1.17-2.18c18.2-7.82,37.86-18.49,40.11-40.37,0,0,.39-59.53.97-67.61,0,0-.26-9.31,1.11-12.92-24.8,3.24-44.84,20.86-60.84,39.04-3.75,2.46-4.53,1.92-3.32-2.57,4.33-11.87,9.96-23.77,17.47-33.68.34-2.25,1.84-23.98,2.24-25.25-18.84,27.01-42.68,93.47-42.68,93.47-.85,31.34,22.64,49.04,22.64,49.04-1.06,3.04-6.11,2.32-8.84,1.69-7.08-1.62-13.36-7.08-16.47-13.55-18.11,49.35-27.25,104.65-35.79,157.46l-1.53,3.8-.49,1.61c-2.02.63-14.62,3.62-15.43,2.75-.65-.7-.4-4.66.08-5.87-.44-11.86,3.41-29.56,5.5-41.66,5.81-33.56,13.81-69.1,23.55-101.7,2.68-8.98,10.59-26.81,11.65-34.39.58-4.09-1.01-11.38-.71-16.54,2.42-41.64,24.4-83.45,53.92-112.07,1.48-1.44,10.75-7.62,8.7-9.78-14.4-2.25-29.9-5.46-27.84-23.69l45.37-137.98c2.93-7.94,10.7-10.85,19.48-10.54,6.41.22,34.33,6.6,38.48,11.72,1.94,2.39,2.67,5.75.95,10.47-1.09,3-1.3,12.91.51,17.11,1.46,3.39,8.52,12.62,9.85,15.17,2.87,5.51,1.13,8.07,1.51,13.08.61,8,.84,24.44-.59,31.52-7.08,35.17-1.81,39.6-8.72,74.81-6.36,19.19-23.6,12.64-38.31,9.19-1.67,6.3-3.79,12.67-5.16,19.04-.3,1.39-.14.97.9.9,5.7-.4,19.57-4.87,21.48,3.68-1.98,26.34-1.82,52.68-2.12,79.11-.18,15.81.37,28.34-9.17,42.07-6.98,10.04-15.44,18.82-18.5,31.3-5.08,20.73-2.35,45.78,1.29,66.55,34.22-10.99,71.19-8.59,105.79-18.32,33.49-9.42,64.34-32.11,89.55-55.35-9.92-13.33-12.4-28.8-11.23-45.15.98-13.71,7.23-26.79,5.18-40.66-.36-2.4-.96-8.32-3.29-8.78-13.17-.28-26.14-.26-39.27.79-18.39-2.07-25.77-15.98-29.42-32.45-5.42-24.48-.14-48.63,20.76-63.78-11.33-8.45-20.84-20.15-24.9-33.94-5.81-19.77-2.37-59.63,27.7-49.58,2.69.9,9.24,5.31,11.16,5.34,2.15.04,13.58-5.34,17.86-6.22,2.43-.5,5.35-.95,7.82-1.24,1.73-.2,7.54.71,7.91-1.16.19-.97-6.39-15.02-7.33-18.3-4.35-15.19-8.49-50.29,10.51-56.96,16.25-5.71,23.85,9.37,36.15,15.58,11.75,5.93,18.89,4.98,31.12,6.6,17.39,2.3,30.92,8.3,49.17,7.49,20.95-.93,42.5-6.45,64.06-7.6,4.95-.26,11.41.95,15.94.14,11.53-2.07,19.54-13.25,30.22-17.38,16.05-6.21,31.3,1.65,34.78,18.6,3.52,17.12-2.88,38.75-9.6,54.49,18.96-4.71,39.98-5.05,57.28,4.97,6.35,3.67,11.73,9.27,18.41,12.52,4.52,2.2,9.71,2.93,14.02,5.59,25.35,15.66-4.3,56.51-21.13,67.77-17.43,11.66-37.7,13.49-58.03,10.26,7.43,30.24,12.51,61.28,14.37,92.39.99,16.67-.2,33.98,2.35,50.47,3.9,25.26,19.64,47.29,30.2,70.15,18.62,40.32,31.06,83.77,36.08,128.02l.56,1.55c-5.65,5.14-7.82,9-14.55,17.6l-3.22,82.43c-2.16,1.26-4.57,2.31-4.57,2.31.14-37.73-16.7-168.02-16.7-168.02"/>
    <path class="cls-17" d="M188.26,603.8c-10.35,2.5-20.3,6.02-30.45,9.39-12.31,4.56-41.9,9.33-45.22-8.6-1.06-5.73,2.47-17.54,8.02-19.33.21-.64-.29-.89-1.51-.75l-1.93.47c-7.53,2.18-14,8.35-15.43,16.6,0,.05-.01.11-.01.16l.2,173.43c0,.25.11.49.3.65,6.65,5.62,15.42,5.53,23.67,4.41.41-.06.72-.41.72-.83l.02-109.35c0-.3,1.27-9.28,2.55-11.89,4.26-8.71,13.3-14.98,22.11-18.47.03-.01.07-.03.11-.03,11.94-3.04,23.66-6.72,35.15-11.05.03-.01.06-.02.09-.04,5.56-2.75,7.99-5.98,4.91-10.75-1.1-1.71-.38-3.98,1.54-4.67,3.89-1.4,10.72-1.55,14.12-.92.04,0,.08.02.12.03l6.73,2.31s.04.02.07.03c21.1,9.09,6.36,29.69-10.65,32.55-.02,0-.03,0-.05.01l-19.57,4.99c-18.58,5.73-26.62,18.88-26.98,37.81-.42,43.44-.37,86.91.14,130.41,0,.22.09.44.25.6,5.85,5.71,25.17,52.95,317.85,58.65,292.68,5.7,383.8-40.32,401.79-50.31,4.07-2.26,4.77-10.18,4.98-14.56,2.1-43.98.76-86.98.02-132.09,0-.03,0-.07,0-.1l-.29-2.14c-3.53-24.22-27.94-29.07-48.23-33.38-.02,0-.03,0-.05-.01-8.51-2.33-18.25-7.36-20.32-16.65-3.5-15.77,31.9-19.65,33.99-16.4,1.17,1.81-2.73,6.22-4.35,6.68-1.59.11-.83,1.84.76,3.1,1.91,1.47,2.89,2.21,5.64,3.64.03.01.05.03.08.04,10.5,4.57,20.9,8.28,32.09,10.71.02,0,.04,0,.05.01,19.42,5.67,29.2,16.33,30,36.85,1.36,34.71.79,69.89-.39,104.36-.01.39.24.73.61.83,6.09,1.69,21.99.85,23.91-5.59.02-.08.04-.17.04-.25l.05-172.74s0-.08,0-.11c-.89-7.65-7.69-12.39-14.54-14.81-.73-.26-1.38.56-.98,1.23,17.76,29.57-16.38,33.91-38.5,25.96l-22.04-6.96c-18.83-6.57-45.6-11.54-56.05,9.42-1.47,2.94-2.21,6.19-2.27,9.47l-.68,37.65c-.08,4.5,3.9,8,8.36,7.34l20.28-2.84-.23-.46c-.84-2.39.88-9.19,1.43-10.89.51-1.42,1.47-1.06,2.79-.8,43.82,6.85,42.16,30.95.41,45.76-28.95,10.27-103.92,16.75-103.92,16.75l7.29-17.35c.13-.23,44.74-5.99,44.74-6.7l2.85-79.36c1.01-7.8,3.12-9.16,4.29-10.96,2.53-3.88,8.18-8.54,8.18-8.54l2.27-2.17c.8-.77,1.75-1.35,2.8-1.71,2.04-.71,5.45-1.9,6.52-2.29,20.04-7.37,40.97-3.36,61.03,1.81.53.14,1.04-.26,1.04-.81v-30.27c0-.55.52-.95,1.06-.8,28.81,7.96,72.27,3.49,83.23,37.85.03.09.04.18.04.27l.16,182.78c0,.15-.04.3-.12.43-6.09,10.53-16.03,15.22-27.79,16.79-5.23.76-10.6.67-15.84,0-2.21-.12-8.13-1.44-10.48-1.56-.46-.02-.84.35-.85.81-.19,9.78-.43,19.53-.74,29.27,0,.09-.02.19-.05.28-2.45,6.69-5.89,11.03-13.87,15.7-.04.02-4.33,3.97-54.51,18.37-50.17,14.4-157.51,33.86-287.71,33.7h-49.04c-54.58-.6-109.13-3.99-163.3-10.59-2.95-.36-59.03-8.5-67.72-10.02-29.8-5.19-99.41-19.31-120.2-40.51-.72-.73-5.66-6.71-5.66-7.16v-28.79c0-.53-.48-.92-.99-.82-11.01,2.13-21.98,3.37-32.96.19-6.96-2.02-17.68-8.31-20.32-15.33-.04-.09-.05-.19-.05-.29-.71-60-.71-122.35,0-182.37,0-.05,0-.1.01-.14,3.06-17.75,19.21-26.1,35.31-29.87,2.31-.54,32.07-5.73,37.99-6.97.43-.09.78-.47.73-.9-.29-2.49,9.9-2.75,9.99-1.19.56,9.3.5,32.53,3.49,31.46,0,0,17.06-5.06,24.95-5.92.03,0,.07,0,.1,0l22.1.07s.07,0,.11,0c46.81,5.84,38.99,60.91,38.77,62.41,0,.02,0,.04,0,.07.07,5.23-.02,10.5,0,15.74,0,.05,0,.09.01.14,1.89,10.37,1.54,32.38,2.08,32.28,3.52-.65,32.13,4.98,35.5,5.36.09.01,38.7,3.06,39.85,3.51.21.08,20.81,14.64,21.01,14.78.8.56-.04,3.95-1.95,4.13l-50.57-4.23c-32.94-2.82-65.18-8.85-96.31-18.61l-3.15-1.07s-.06-.02-.09-.02c-1.72-.34-14.46-3.7-22.5-10.04-3.32-2.62-5.4-6.46-5.77-10.67-1.49-17.02,18.47-22.18,31.36-22.87.39-.02.46-.01.86.11,0,0,1.73.57,2.19,2.39.65,2.59-.84,9.54-.4,9.6,5,.66,22.73,5.22,27.23,6.38.53.14,1.04-.26,1.04-.81v-45.96s0-.04,0-.06c0,0-3.29-33.82-45.82-24.03"/>
    <path class="cls-16" d="M540.99,893.88h-47.09c15.66.18,31.43.16,47.09,0Z"/>
    <path class="cls-32" d="M696.11,354.4l1.65,2.49c-.03,25.05,2.06,47.97,19.63,67.47l4.37,7.75c3.17,7.53,9.68,15.98,13.71,23.64,10.17,19.32,18.35,41.09,23.26,62.38l-2.83-.99c-21.59-24.07-56.74-25.3-84.99-13.08-25.18,10.9-57.09,40.09-34.45,67.62,26.11,31.74,55.07,16.37,82.88-2.58l2.41.34,1.4,1.02c6.41,31.46,3.64,90.38-18.66,115.02-17.47,19.3-39.51,13.32-61.8,6.08l-42.1-14.27c-33.2-11.3-73.26-18.61-104.28,1.41-3.3,1.7-6.85,2.63-10.47,1.85-10.46-4.61-20.74-6.16-30.65,1.61l-2.05-.3c-3.62-6.51-7.61-12.98-11.97-19.4l-.24-2.31c26.07-13.32,51.8-27.06,77.2-41.24,39-19.87,90.31-29.41,129.62-5.87-8.71-12.92-23.7-19.84-38.69-22.46-4.73-2.76,4.45-6.06,6.65-6.83,6.22-2.18,13.22-3.21,19.9-3.26-12.76-9.14-31.44-4.06-41.36,7.19-1.87,1.19-14.28,1.13-15.14.02-2.69-3.44-4.94-11.41-6-15.85-3.7-15.48-1.63-31.38,6.91-44.91-18.33,15.45-21.99,40.82-11.78,61.88.29,2.3-1.5,3.1-3.49,3.51-23.51,3.37-46.23,13.96-67.2,25.9l-3.66.25-1.48-.72c9.96-62.75-58.8-103.74-111.05-69.63l-2.91.18c27.76-35.65,65.21-62.8,89.79-101.11l3.04-.8c22.25,6.77,46.99,9.61,69.15.98,23.79-9.27,38.32-29.27,52.04-49.03,2.51-3.24,5.14-6.15,9.55-6.19,13.8-.44,27.74-1.43,39.82-9.69,11.92-8.14,15.92-20.77,20.04-33.91.96-3.05,1.86-6.12,2.54-9.25.32-2.25.51-4.53.75-6.79.52-.21,1.04-.38,1.58-.46,4.72-.68,27.75,16.22,29.12,20.78.15.5.2,1.03.23,1.56Z"/>
    <path class="cls-31" d="M645.56,113.71c-.6,3.48-.6,7,0,10.56,1,6.26,5.85,19.48,7.55,21.13,3.99,6.73,13.45,18.59,45.42,22.21,2.79.31,5.61.06,8.29-.76,5.85-1.79,12-3.61,17.97-4.09,14.56-.8,30.76,3.75,40.57,12.08,3.43,3.08,6.55,4.74,9.23,6.78.93.8,1.74,1.31,3.02,1.51,1.62.75,4.49,1.22,6.07,1.84,2.52,1,9.34,3.82,6.76,8.72-.23,1.25-1.03,3.33-1.56,4.58-1.12,2.15-2.53,5.94-9.01,15.04-.69,1.01-6.77,8.01-11.3,12.8-9.46,7.74-12.9,7.57-17.05,9.54-7.92,3.19-24.49.55-26.73.3-6.32-.64-16.09-3.35-21.88-6.04-1.3-.8-2.56-1.05-3.77-.75-.86-.29-5.07-1.98-5.28-2.26-3.93-2.55-13.62-1.54-16.6,3.77-1.92,4.12,21.2,121.89,22.32,123.78,0,0-2.89,2.02-3.46-.04-8.87-9-18.92-17.34-30.94-21.88.14-1.29,1.4-19.26-.75-31.69l-1.49-1.48c-2.71-27.37-34.46-55.31-62.11-42.66-7.09,3.85-14.38,7.31-21.85,10.36l-2.06-.92c-6.11,1.32-12.23,2.54-18.5,1.86-1.68-3.7-4.34-7.05-7.9-9.4-.29-.38-.97-.81-1.51-1.51-2.79-3.1-5.81-5.62-9.05-7.55-.8-1.47-1.81-2.23-3.02-2.26-1.17-.81-3.76-2.12-5.28-3.02-2.57-3.54-2.69-7.89-.36-13.05,8.6-16.6,9.63-35.24,8.63-53.89l-2.38-26.59c-.14-14.39,3.09-23.71,12.65-34.28l1.84.29c1.73.27,3.55.58,5.28.75,5.8.34,11.56.3,17.35,0,3.48-.31,7.11-1.12,10.56-1.51,4.45-.62,9.92-1.03,13.58-1.51,6.05-.95,46.54-5.41,47.48-2.57.21.64-.69,1.51-.7,1.82Z"/>
    <path class="cls-28" d="M493.9,618.48c-.26.57-.54,1.13-.9,1.63s-.7.93-1.15,1.2c-17.64,10.31-35.52,20.53-54.04,29.17-36.04,13.4-103.99,53.72-103.99,53.72,0,0-34.92-2.32-34.58-3.47,9.82-48.53,33.5-93.48,63.07-132.73,3.45-4.57,12.17-16.83,16.16-19.68,47.06-33.67,115.6-3.15,116.04,55.46l-.6,14.71Z"/>
    <path class="cls-28" d="M233.59,415.51s5.2,1.01,8.67.74c4.06-.32,7.82-2.04,11.7-3-9.28,21.79-9.24,47.15-6.69,70.45,1.34,12.19,4.74,24.11,5.93,36.32,2.08,21.23-.71,42.1-11.31,60.72,1.32,1.09,7.65-5.56,8.69-6.77,7.21-8.46,10.45-19.17,10.94-30.19l3.04,5.63c2.57,8.06,2.75,16.25,1.48,24.55.04,1.17.29,1.42.75.75,6.55-12.43,6.06-25.99,1.72-39.07-1.41-4.27-8.36-15.41-5.9-19.06,1.29-1.91,18.26-6.42,21.53-7.14,9.76-2.15,19.56-2.91,29.43-4.14,16.56.38,24.06,16.93,23.37,31.81,1.26,8.04,3.6,16.2,9,22.48l.08,2.3c-22.68,29.3-40.48,61.83-53.67,96.49-12.57-1.77-24.34-6.85-36.12-11.23-.15-11.58,1.14-23.9-3.2-34.9-5.76-14.63-22.15-25.07-37.54-26.21-3.64-1.1-7.43-1.5-11.33-1.4l.35-3.63c11.24-19.38,14.03-41.78,13.27-63.82l-2.73-44.67c-4.43-19.69,5.27-54.54,5.27-54.54l.46-3.22c3.68.36,12.83.75,12.83.75Z"/>
    <path class="cls-31" d="M758.73,518.13c2.09,2.56,8.13,34.33,9.05,36.22.92,4.71,2.55,16.54,3.02,18.11.27,1.07.51,1.63.75,3.02-1.14,3.18-9.47,3.23-10.56,0-.46,1.26-1.21,1.01-2.26-.75l-1.68.9-12.26-7.77c-6.45-4.08-14.18-1.23-20.6,1.37l-1.68-.53c.89,1.07.46,1.44-.75.75-24.46,14.17-45.87,33.39-74.18,14.19-19.84-13.46-27.5-33.11-12.45-53.66,27.16-37.1,92.21-50.31,123.6-11.83Z"/>
    <path class="cls-32" d="M220.76,414.76c-.87,8.72-4.71,16.17-3.77,26.03,8.86,93.29-12.84,143.84-12.84,143.84,0,0-24.02,4.21-33.94,5.93h-.75c-2.49-.48-3.28-1.27-3.77-3.77,0-9.05,0-18.12,0-27.17-1.23-.31-14.74,2.7-16,2.78,6.66-49.78,16.28-101.87,31.64-149.73.41-1.29,5.02-16.17,6.23-15.26,2.37,8.17,11.07,13.91,19.53,14.51,2.43.17,12.9.53,13.68,2.84Z"/>
    <path class="cls-31" d="M302.53,95.89c1.58,2.98,9.26,29.51,9.26,29.51,0,0,5.45,44.95,9.17,45.47l-15.86,74.33c-1.4,2.44-4.01,4.35-6.92,4.26-8.09-.25-19.74-6.38-28.37-6.73-1.86,1.25-20.14-4.32-20.65-6.17-.18-.64-3.32-12.09-3.37-12.95-1.67-30.5-.84-62.16,10.27-90.19,1.79-.57,2.51-2.56,2.17-5.94,1.87-6.77,26.58-43.24,29.6-44.36.51-.19,1.05-.28,1.6-.35,5.95,1.39,9.24,1.75,14.9,3.94,1.72.67-2.79,8.29-1.8,9.18Z"/>
    <path class="cls-32" d="M664.42,300.83c-1.31,32.68-17.09,56.93-50.29,62.51-7.66,1.28-25.35.86-30.02,6.95-7.57,9.88-9.97,17.08-20.79,25.61-1.06,1-1.45.58-.75-.75,5.87-13.72,11.58-27.53,17.14-41.43,2.94-5.47,13.7-25.31,17.35-27.82.53-.37,1.12-.65,1.72-.91.16,3.71.42,7.58-.75,11.31,1.61.35,1.71-.82,2.39-1.75,3.64-4.99,6.18-13.67,5.94-19.78-.57-14.41-13.35-22.2-26.44-23.73.98,1.45,3.05,2.1,4.53,3.38,1.26,1.09,1.99,2.3,3.01,3.4l.97,2.12c-.25,2-20.51,10.54-23.96,9.5-.45-.13-.45-1.13-.39-1.81,4.81-13.05,1.47-27.95-6.04-39.23,6.27-.15,12.56-.91,18.86-2.26,17.72-5.37,25.52-17.57,46.82-13.24,19.15,3.89,41.5,28.19,40.71,47.95Z"/>
    <path class="cls-30" d="M227.7,301.35c-5.82,9.82-11.15,20.17-14.47,31.17,17.08-20.05,39.07-39.24,66.39-42.25-2.53,4.6-3.15,9.96-3.77,15.08.07,14.76,1.67,54.28,1.5,59.03.79,33.16-22.79,41.72-43.75,51.13-4.28-.23-8.56-.19-12.83-.75-1.72-.23-5.32-1.08-7.52-1.63-1.28-.32-2.63-.72-3.55-1.68-25.23-26.45-19.3-45.54-19.87-48,1.41-23.76,15.24-51.76,27.03-72.19,5.07-8.78,10.74-18.49,17.48-25.9,1.13,30.15-4.03,31.58-6.64,35.98Z"/>
    <path class="cls-40" d="M538.42,263.86c12.78,18.97-.27,55.31-25.73,52.52-31.8-6.57-65.04-6.76-97.75-6.51-4.51-.31-9.75-1.17-12.33-5.26-10.09-23.98-5.77-49.44,18.2-62.15,34.88-18.5,89.04-3.25,117.61,21.41Z"/>
    <path class="cls-32" d="M552,116.73c-2.42,4.39-6.27,7.49-8.69,12.06-8.1,15.27-2.44,32.95-1.87,49.38.45,13.12.4,27.81-3.4,40.42-2.72,9.02-8.57,15.19-6.41,25.66-11.23-6.64-24.03-11.45-36.97-13.59-.92-.9,4.43-5.43,5.26-6.43,11.94-14.34,16.86-29.53,6.06-46.38-.96.13-1.3-1.32-1.51-2.26h-1.97c-15.3-14.8-34.21-2.25-37.64,16.38l-1.89.98c-1.16-15.95.42-22.71,4.53-37.73,5.74-15.26,25.6-8.7,34.17.55-2.64-13.96-10.97-26.37-26.15-18.08l-1.23-1.34c19.63-39.61,42.41-25.04,77.72-19.62Z"/>
    <path class="cls-28" d="M664.42,339.31c-4.29,29.93-14.6,48.88-47.26,53.47-4.62.65-15.8.23-18.67,1.71-4.18,2.15-13.76,17.72-17.53,22.46-23.55,29.66-48.9,41.14-87.32,36.17-8.69-1.12-16.94-3.88-25.4-5.91,2.8-4.36,5.06-9,7.88-13.34,38.13,9.36,71.35-4.31,96.64-32.67,5.88-6.6,13.12-20.02,21.46-22.3,10.72-2.93,24.13-1.63,35.97-4.77,18.83-5,28.57-16.56,34.23-34.8Z"/>
    <path class="cls-31" d="M432.06,462.4c19.37-8.17,4.41,5.06,2.98,6.68-.25.25-85.9,88.76-89.03,92.81-6.31-6.4-9.01-15.18-10.46-23.87-.62-3.73-.41-8.23-1.05-11.78-2.01-11.14-12.53-17.7-23-20.67,0,0,47-12.14,120.55-43.16Z"/>
    <path class="cls-9" d="M514.27,352.89c-3.22,4.69-4.52,10.84-6.02,16.24,1.63,1.48,2.19-1.96,3.43-3.38,2.93-3.36,12.4-12.6,16.17-13.61,13.85-8.41,27.53,9.15,21.13,21.88-10.22,12.14-20.82,24.23-36.96,28.3-27.14,6.85-33.19-5.46-26.03-29.81,2.4-8.16,6.13-15.45,11.69-21.88,3.23-2.51,6.53-3.34,10.56-2.75,2.93.43,8.65,1.62,6.04,5.02Z"/>
    <path class="cls-28" d="M598.78,324.97c-6.28,10.52-13.89,21.45-19.26,32.43-6.06,12.41-8.11,26.93-16.96,37.74v-.75c1.85-4.6,3.42-10.23,4.53-15.09-.06-1.2-.31-1.45-.75-.75-6.79,13-15.9,22.94-27.99,31.24-36.06,24.76-78.15,17.99-71.5-33.78,1.12-8.76,4.65-17.84,5.2-26.49.5-7.79-1.19-15.4-2.29-23.04,11.2.56,10.83,3.37,12.06,13.21,2.26,18.08-3.84,27.19-5.26,43.01-2.84,31.71,22.16,34.34,45.77,23.89,28.22-12.49,44.29-41.98,59.23-67.53,3.7-6.34,10.26-21.19,14.21-25.78.32-.37,1.26-1.43,1.5-1.14,1,4.52,1.32,8.24,1.52,12.83Z"/>
    <path class="cls-6" d="M290.04,80.63c-4.37,5.16-8.45,13.18-12.38,18.67-4.91,6.88-17.02,21.89-18.31,30.05-.23,1.48.71,2.9.57,3.54-.25,1.17-2.27.71-2.96,1.73-.99,1.47-4.15,13.5-4.77,16.17-5.52,23.4-7.23,48.68-4.92,72.59l3.67,14.06c-.23,2.1-1.79,2.1-2.26,0-6.39-1.64-20.33-4.18-25.44-6.63-3.35-1.6-5.7-5.67-4.56-9.41l45.19-135.9c5.59-11.73,17-7.02,26.18-4.87Z"/>
    <path class="cls-2" d="M680.27,235.96c7.66-2.11,12.12-1.41,11.97,3.37l3.27,10.41c2.55,6.95,3.8,14.49,4.63,21.72.18,2.48.73,4.79,1.66,6.95,1.28,6.45,2.25,12.88,3.31,19.29-.04,1.37.23,2.65.83,3.86.04.25-.04.52,0,.77-.03,1.36.24,2.65.83,3.86.63,4.13,5.18,48.37,5.59,52.52.25,2.21.44,12.61-.32,13.74-.25.37-.67.64-1.13.88-.98.12-1.82-.18-2.71-.53-11.71-4.7-14.52-30.24-14.67-30.86-2.03-8.48-2.35-16.65-5.07-25.24-5.2-16.42-14.03-35.3-18.12-51.93-.7-2.84-2.02-13.36-1.69-16.09.37-3.14,1.14-5.79,3.33-8.85,3.05-1.78,4.96-2.81,8.28-3.86Z"/>
    <path class="cls-32" d="M433.54,219.34c1.82,1.68,4.13,3.33,5.66,5.28.53.68,1.78,1.13.39,1.9-.45.25-8.76,1.1-10.17,1.16-9.2.35-22.74-11.64-27.88-18.97-6.99-9.97-9.06-19.86-7.98-31.99,1.69-19.06,7.52-9.51,17.89-5.84,11.94,4.23,18.13-3.54,29.45-5.67,5.6-1.05,11.16-.41,16.78-.2-2.68,14.67-4.83,29.76-1.52,44.51-14.64-6.19-14.9-24.74-32.22-26.85-7.23-.88-16.43,4.65-22.09-1.83.86,15.35,6.87,24.5,19.61,32.44,3.63-.37,9.86,3.16,12.07,6.04Z"/>
    <path class="cls-21" d="M402.6,304.6c3.76,2.23,8.1,3.4,12.46,3.76,12.49,1.05,26.52-.48,39.25-.02,12.57.46,25.79,1.64,38.35,3.15,17.74,2.12,30.21,10,42.58-8.16,8.32-12.21,8.03-25.95,3.16-39.47,6.79,5.86,14.67,14.51,15.76,23.85,1.76,15.05-3.05,29.37-17.18,36.1-23.49-3.19-46.97-7.46-70.64-9.39-12.51-1.02-26.74-1.94-39.22-1.51-6.08.21-11.44,2.77-17.5.13-4.16-1.81-5.39-4.56-7.03-8.44Z"/>
    <path class="cls-32" d="M771.56,575.47c2.88,16.08,4.75,34.59,6.03,50.94,1.78,22.7,2,45.5,2.27,68.28-8.81,2.23-11.11,2.89-12.07,3.02l-.11-4.25c-.24-38.88-3.16-78.9-6.52-115.96l-.16-2.02c3.67,1,6.9.92,10.56,0Z"/>
    <path class="cls-34" d="M690.83,91.07c5.94,2.16,4,11.52,1.99,16.36-1.16,2.79-4.18,9.11-7.27,8.54-1.35,1.1-2.35.6-3.62-.27,1.27,1.17,1.47,2.26.6,3.28.3.53.75,1.31.46,1.67-1.08,1.36-8.9,9.24-9.96,9.25-.35,0-.71-.15-1.06-.36-2.34,1.07-7.11-3.7-6.04-6.04-.71-.16-1.21.09-1.51.75,2.42.96,4.22,6.78,3.02,9.05,1.23,1.96-2.74,5.17-4.53,3.77-5.29-8.3-8.56-17.01-8.22-27.09,12.11.43,26.46-18.15,36.14-18.94Z"/>
    <path class="cls-28" d="M712.12,372.14c-.16,2.78-.32,4.07-.17,7.16,1.04,17,3.15,37.01,9.81,52.82-10.21-12.11-19.97-25.47-23.17-41.35-2.46-12.23-1.04-24.16-2.49-36.37.56.57,16.02,17.74,16.02,17.74Z"/>
    <path class="cls-28" d="M504.46,175.58c.55,1.12.8,2.13.75,3.02,1.04,4.68.73,9.56.75,14.33l-4.52-10.18c-7.35-9.07-19.9-11.26-27.92-1.9,6.14-.65,13.05-3,17.35,3.02-19.28-3.48-24.27,15.61-23.39,30.94.3,1.53.05,2.28-.75,2.26-2.49-8-3.17-15.85-3.77-24.14,4.47-14.45,10.23-26.44,27.57-24.93,6.37.56,10.02,2.74,13.93,7.57Z"/>
    <path class="cls-27" d="M548.98,374.02c1.95-14.23-5.57-26.05-21.13-21.88,11.11-8.65,26.98-10.72,40.39-6.81.77.99-.34,2.15-.76,3.05-3.91,8.45-12.52,18.53-18.5,25.63Z"/>
    <path class="cls-5" d="M499.94,198.21l-1.71.99c-2.21-.73-4.55-1.19-6.88-.86,5.99,7.07-4.31,13.73-9.14,6.36-2.78,5.98-1.56,16.43,5.73,18.33l.68,1.58c1.55,1.67-1.4,3.35-2.61,3.44-1.29.1-9.74-1.59-10.27-2.43-4.08-6.45-3.03-28.75,3.45-34.21s16.14-3.03,20.17,4.02c.62,1.08.35,2.24.59,2.78Z"/>
    <path class="cls-33" d="M474.28,136.34c3.59-.36,7.28-3.01,10.94-3.01,11.85-.03,18.33,17.27,18.48,27.16-8.07-11.28-26.87-19.52-36.21-5.28,2.3-8.41,2.9-11.01,6.79-18.86Z"/>
    <path class="cls-26" d="M268.3,247.26c-1.02,4.08-6.34,29.6-7.72,30.76-.97.81-9.23,3.03-11.13,3.95-.62-.56-1.54-14.46-1.52-16.6-.39-3.01.05-6.1,1.3-9.26-1.29-.73-.52-1.01.97-1.3.2-2.36,1.45-2.62,3.77-.75v-.75c1.11-2.25,2.55-4.04,3.02-.75-1.94,10.85-1.69,10.85.75,0-1.05-1.06-.6-1.47.75-.75v-1.51c1.36-2.57,7.7-5.08,9.81-3.02Z"/>
    <path class="cls-40" d="M421.47,213.3c-4.66-7.81-9.72-15.75-11.32-24.9,6.94-.79,4.52.55,6.65,5.05,1.65,3.49,4.67,7.93,8.44,9.29,1.87,0,3.97.88,6.28,2.64,3.88,1.07,7.57,2.45,11.07,4.15,3.86,4.3,7.37,7.88,12.07,11.31l-21.13-1.5c-4.39-1.24-8.25-3.66-12.07-6.04Z"/>
    <path class="cls-24" d="M499.94,198.21c.23.51,1.41,1.24,1.74,2.25,1.64,5.05-.94,12.12-4.01,16.24-1.35,1.82-7.09,8-9.05,7.92-9.63-.4-12.24-17.47-5.66-23.39.03,7.68,10.4,6.19,8.54-.21-.6-2.06-3.03-2-3.63-3.55,4.36-1.28,7.9-.83,12.07.75Z"/>
    <path class="cls-34" d="M460.7,87.3c.97-.23,2.04.05,2.96.41,4.16,1.65,11.2,9.02,15.96,11.98,2.69,1.67,5.98,3.23,8.99,4.22.22,1.05.15.96-.48,1.56-1.16,1.11-3.67,2.29-5.2,3.69-3.81,3.48-8.06,7.83-10.92,12.09-2.6,2.02-5.13-2.66-3.77-5.28.34-2.16-.17-3.41-1.51-3.77-2.32.59-4.83-5.32-3.02-6.79-.6-1.85,2.22-2.49,3.77-2.26.88-.56.62-.81-.75-.75-.63,1.1-3.1,2.27-3.77.75-3.34-3-4.63-11.62-2.26-15.84Z"/>
    <path class="cls-28" d="M587.46,297.81c1.23,1.33,6.14,5.71,4.95,7.55-11.4,9.7-24.53,16.67-39.66,18.1,3.63-4.43,9.34-10.47,11.32-15.84,1.5,1.24,5.31-.41,6.95-.97,4.27-1.46,10.42-3.84,14.21-6.17,1.17-.71,2.32-.88,2.24-2.67Z"/>
    <path class="cls-31" d="M696.86,130.31c-1.29,4.3-2.78,9.5-4.53,13.58-.33.3-.68.58-1.07.78-1.92,1-7.85-2.84-9.82-4.19-3.36-2.3-9.43-7.05-9.49-10.92l10.56-10.56,2.27.2c3.65,3.21,7.51,6.16,11.59,8.85l.48,2.27Z"/>
    <path class="cls-31" d="M699.13,122.76c-4.65.68-11.21-2.7-13.58-6.79,5.66-6.66,10.96-16.61,5.28-24.9,2.33-.19,4.01-.11,6.01,1.16,6.91,4.42,3.66,23.43,2.29,30.53Z"/>
    <path class="cls-17" d="M671.96,129.55c5.75,6.12,11.76,12.45,20.37,14.34-1.53,3.57-3.13,6.04-5.28,9.05-3.11-.11-6.08-1.73-8.89-4.86-4.14-3.42-11.18-9.46-10.72-14.76-1.67-3.1-2.14-5.93-3.02-9.05-.65-2.04.06-2.27,1.51-.75,1.54,2.07,4.31,4.2,6.04,6.04Z"/>
    <path class="cls-27" d="M527.1,340.06c1.25.54,1.5,1.04.75,1.51-3.3,1.27-11.54,8.35-13.58,11.32.09-1.93-1.04-1.96-2.41-2.5-5.25-2.08-8.99-.96-14.19.23,7.94-9.18,17.33-12.54,29.43-10.56Z"/>
    <path class="cls-21" d="M442.59,209.53c-4.81.06-14.48-2.76-17.35-6.79-2.25-3.17-3.79-9.78-2.65-13.58,8.9,4.07,13.61,13.27,20,20.37Z"/>
    <path class="cls-31" d="M687.05,152.94c-1.5,2.11-.92,4.66-4.76,2.9-6.93-3.17-15.34-12.4-19.38-18.74l4.53-3.77c4.32,8.02,12.25,14.5,19.62,19.62Z"/>
    <path class="cls-17" d="M685.55,115.97c4.46,2.5,8.85,4.84,13.58,6.79-.5,2.61-1.68,5.59-2.26,7.55-4.78-3.78-10.23-6.72-14.34-11.32-.82-.92-5.86-7.67-5.27-8.3,2.5,2.29,5.38,3.65,8.29,5.28Z"/>
    <path class="cls-31" d="M472.02,121.25c-2.92,4.34-5.86,9.93-6.8,15.09l-3.76-7.54c-.78-4.28,2.67-11.62,6.79-12.83,1,1.92,1.63,4.31,3.77,5.28Z"/>
    <path class="cls-27" d="M250.95,237.45c.63.16,1.87,1.22,3.02,1.51,1.81.88.7,5.08-1.51,4.53l-2.26,9.05c2.16.84,1.93,1.16,0,2.26-.68,3.71-2.21,6.31-2.26,10.56-1.31-.65-.59-2.62-.75-3.77.48-2.32.23-4.33-.75-6.04-.01-.16-.73-.84-.78-1.83-.31-5.9,2.31-10.55,3.05-16.28.63.16,1.63-.16,2.26,0Z"/>
    <path class="cls-17" d="M466.74,112.2c.93-.64,6.12-3.55,6.79-3.01-1.95,2.19-3.62,4.36-5.28,6.78-2.9,4.23-4.91,8.03-6.79,12.83-1.66-2.64-2.37-6.04-3.02-9.05.77-2.73,5.43-8.79,8.3-7.55Z"/>
    <path class="cls-31" d="M462.96,103.14c-.13,2.16-4.43,4.97-6.04,3.02-.09-3.27-.16-17.95,3.77-18.86-.37,5.4,1.37,10.6,2.26,15.84Z"/>
    <path class="cls-31" d="M466.74,112.2c-3.24,2.23-4.98,5.8-8.3,7.55-.39-1.82-.53-4.78-.75-6.79-.51-3.88,2-8.54,6.04-7.55l3.02,6.79Z"/>
    <path class="cls-27" d="M269.81,242.73c.06,1.62-1.2,3.31-1.51,4.53l-9.81,3.02c.46-3.29,1.22-6.56,2.26-9.81,2.85.69,6.35.79,9.05,2.26Z"/>
    <path class="cls-31" d="M550.49,258.57c1.04.63,5.54,2,5.89,2.38.12.13-1.03,2.23,1.66,2.16.36,1.45-1.67,0-1.5,1.49,3.55.61,2.06,2.89,2.25,3.02.56.38,4.46-.26,5.66.01-.42-4.04,1.25.14,2.25.07,2.54-.17,6.46-2.91,10.21-1.59-.19.06-.72.78-1.6,1-5.82,1.47-11.3,1.69-17.27,1.26-2.05-3.09-5.18-6.74-7.55-9.81Z"/>
    <path class="cls-17" d="M466.74,102.39c1.13-.37,1.33-.34.75.75-1.29.73-2.56,1.38-3.77,2.26-2.28,1.68-6.07,4.58-6.04,7.55-.26-2.28-.68-4.02-.75-6.79,2.03-.8,4.03-2.3,6.04-3.02,1.23-.44,2.52-.49,3.77-.75Z"/>
    <path class="cls-20" d="M539.92,249.52c1.24.65,4.43-.22,4.52-.01.21.47-.24,1.74.23,2.83.13.3,3.35,3.49,4.3,4.73-3.42-1.95-5.96-5.25-9.05-7.55Z"/>
    <path class="cls-4" d="M246.42,255.56h2.26s-1.5,6.04-1.5,6.04c-.3-2.12-.56-3.86-.75-6.04Z"/>
    <path class="cls-36" d="M467.49,214.81c.04.66,1.56,3.52.75,5.28h-.74c.12-1.12-.46-2.03-.76-3.01l.75-2.26Z"/>
    <path class="cls-8" d="M562.56,395.14l.75.75c-.32.25-.55,1.3-1.14,1.5h-1.12c-.52-1.48,1.18-2.2,1.51-3.01v.75Z"/>
    <path class="cls-10" d="M536.91,247.26c1.65-2.11,2.81,2.15,3.02,2.26-.93-.69-2.21-1.7-3.02-2.26Z"/>
    <path class="cls-30" d="M567.09,379.3l-.75-.75c.54-1.03.51-2.51,1.5-2.26.62,1.33-.61,2.39-.75,3.01Z"/>
    <path class="cls-1" d="M266.79,574.72c-.54,1.02-.5,2.51-1.5,2.26-.62-1.31.67-2.51.75-3.01l.75.75Z"/>
    <path class="cls-14" d="M527.1,340.06c.86.14,3.97.97,3.01,1.5-.67.14-1.77-.18-2.26,0l-.75-1.51Z"/>
    <path class="cls-25" d="M505.97,177.84l-.75.75c-.15-.68-1.31-1.73-.75-3.02.7.86.97,1.42,1.51,2.26Z"/>
    <path class="cls-17" d="M493.9,618.48c19.39-10.39,33.96-18.8,55.67-24.68,3.61-.98,14.76-2.47,16.78-3.59,1.27-.7.3-1.03.11-1.64-1.37-4.32-3.43-8.46-4.32-13.06-4.34-22.55,4.97-43.05,24.18-55.13l-5.5,8.08c-11.03,18.64-9.97,38.98-.78,58.2.55.34,11.94.39,12.92.13.34-.09,3.91-3.97,5.13-4.85,13.49-9.71,30.04-10.89,42.94.3-6.31-.53-11.89-.29-18.12,1.13-4.48,1.02-10.99,2.67-14.33,5.66,17.46,2.52,36.75,12.38,43.75,29.43-24.82-20.28-60.5-20.21-90.54-13.97-32.1,6.67-54.83,22.72-82.97,37.75-12.13,6.48-24.46,12.79-36.99,18.48,0,0,13.37,22.9,11.32,23.38l-1.79-.12c-2.24-4.1-14.85-17.29-18.84-17.81s-28.62,12.03-33.74,14.81c-2.01,1.09-38.2,21.02-39.36,23.19-.34.64,10.41,9.28,11.07,8.97,11.13-7.77,22.45-15.56,34.55-21.81,5.38-2.78,26.85-8.48,23.17-5.62-3.91,2.47-12.77,9.2-12.77,9.2-18.16,13.1-36.45,26.28-54.88,39.54,0,0,60.13,18.93,88.04,12.91l1.8-10.19c3.76-10.66,6.45-20.45,4.88-31.93-.57-4.02.23-6.79,2.4-8.3,0,0,6.08,8.85,7.32,13.37,8.9-9.67,19.64-12.25,31.38-6.05,6.55-.48,12.25-4.21,17.09-11.19,5.27-4.99,12.49-4.46,19.41-3.51,15.73,2.15,30.81,6.79,45.65,12.42l46.34,17.48c23.69,7.98,50.52,15.43,74.74,5.64,32.73-13.23,35.54-71,36.07-101.15l-.34-38.36,1.51-1.07c2.52-.5,9.8,10.54,10.23,14.57,1.75,2.69,12.21-18.34,12.04-19.01l1.12-.09c2.95,11.33-2.69,23.95-7.81,33.96l-.57,2.02c.18,13.86-.02,27.74-1.79,41.82-1,7.94-5.05,38.25-9.49,42.58-.44.42-9.09,16.19-9.02,17.7-2.37.67-7.37,8-10.21,10.54-28.61,25.6-74.64,14.18-107.14,3.05-7.66-2.62-11.53-5.67-19.98-6.05-.4-.79-22.7-8.66-24.49-9.49,0,0-36.51-10.07-46.13-10.37-1.53,2.11-12.73,11.66-16,12.95-6.52,2.58-16.35,2.89-21.86-1.51-4.45-1.26-15.27,9.17-15.27,9.17-3.18,4.63-3.52,5.59-5.07,11.15-1.99,7.18-2.73,14.39-3.96,21.69-43.13,13.01-88.48-2.4-126.78-22.29-.21-1.05-.15-.96.48-1.56,3.6-3.44,13.14-9.9,17.63-12.76.46-.29,2.44-2.74,1.51-3.77-1.6-.62-20.5-14.64-20.5-14.64,0,0,5.28-4.68,6.23-5.3,30.76-20,57.12-34.34,91.39-47.44,19.92-7.62,43.28-22.7,62.47-32.98Z"/>
    <path class="cls-28" d="M761,575.47c.76,10.73,2.75,21.37,3.77,32.07,2.84,29.97,3.13,60.05,3.02,90.16-9.54,1.3-19.08,2.8-28.67,3.77,7.3-19.44,10.23-45.73,11.35-66.74.32-5.99-.9-14.05,0-19.61.36-2.19,3.35-6.62,4.31-9.27,2.91-7.95,6.04-17.31,5.46-25.86-1.27-.15-1.53-1.16-.75-3.02-2.1.18-2.24-.88-.75-2.26.4.16,1.82.63,2.26.75Z"/>
    <path class="cls-28" d="M736.85,584.53l-.03,15.5c1.2,34.22,1.86,109.48-35.44,125.96-50.93,22.5-122.74-33.97-176.33-35.48-10.65-.3-12.39,7.22-19.46,12.48-8.91,6.63-11.65.44-19.81-.56-9.74-1.19-15.55,5.21-22.06,11.12.24-6.16-3.8-11.22-6.04-16.6-.42-.06-.83-.15-1.21-.31-1-.43-4.85-10.88-3.32-12.52-.11-.7.16-1.66,0-2.26,5.72-4.82,13.84-7.67,21.31-6.59,7.15,1.03,11.16,6.28,19.2,2.96,6.39-2.64,10.98-6.84,18.76-9.15,54.08-16.05,101.5,15.76,151.98,26.75,56.38,12.27,62.28-69.25,59.61-107.14-.29-4.08-2.92-16.46-2.26-19.25.1-.43.52-.54.75-.75,2.69-.27,5.16,1.19,7.41,4.37,2.7,2.76,7.32,7.85,6.92,11.47Z"/>
    <path class="cls-33" d="M564.82,175.58c1.4-3.1,6.96-2.22,10.03-1.67,23.17,4.2,34.99,38.16,25.17,58.3,1.94.4,3.79,1.14,5.54,2.22,4.13,2.1,9.62,2.23,12.83,6.04h-10.94c-6.06,0-18.04,5.96-24.98,6.71-10.96,1.17-22.42-4.11-27.08-14.26-.66-1.44-2.53-5.46-1.14-6.78l1.85.73c5.18,13.16,33.22,17.3,36.26.9,4.41-23.82-29.45-45.97-37.93-16.39l-1.69,1.18c-3.83-16.37,7.58-28.5,24.14-26.42-4.17-4.42-12.63-4.88-18.11-3.01-3.94,1.56-4.59.32-2.26-3.02,1.59-1.3,6.41-4.1,8.3-4.53Z"/>
    <path class="cls-33" d="M711.95,225.38c-7.48-1.09-13.79-3.72-19.63-8.67-1.44-1.22-3.91-4.89-4.54-5.26-1.27-.76-4.77-.83-6.75-1.55-3.45-1.26-8.55-4.75-9.07-8.66,7.88,3.49,14.77,3.46,22.84.58,21.1-7.52,24.29-29.96,52.62-23.6,13.37,3,25.76,12.02,30.92,24.91-1.62,1.03-2.76-1.55-4.74-1.04-1.19.31-2.6,2.66-3.55,3.67-4.47,3.95-9.45,7.3-14.34,10.56-.21.09-.54-.09-.75,0-4.18,1.23-4.43.22-.75-3.02l-.39-1.89,7.91-8.82c4.24-3.58,3.49-6.71-2.25-9.38v-1.79s-2.32.32-2.32.32c-8.46-5.07-18.62-6.28-27.46-1.57-2.56,1.36-21.27,16.59-21.65,17.94-.28.99,17.03-6.83,18.12-7.76.8-.07,1.82-.15,2.31.41,3.03,3.48-13.43,17.08-18.36,16.61l-.43,1.21c2.57.22,8.44,1.76,8.3,4.53,2.66.57,3.87,1.42,3.63,2.55l-9.67-.28Z"/>
    <path class="cls-5" d="M554.26,226.13c-1.15-3.75-1.93-9.72-1.51-13.58,1.59-14.61,15.01-21,27.68-13.73,14.3,8.2,22.07,38.69-.15,40.88-10.11,1-22.78-3.02-26.02-13.57Z"/>
    <path class="cls-2" d="M564.82,175.58l-2.25-1.49c1.59.24,2.84-2.86,3.55-3,2.66-.54,14.13-.34,17,.15,16.27,2.78,26.26,17.6,29.01,32.86,1.35,7.5,7.47,32.81.48,32.74-4.32-.04-12.59-2.45-15.35-2.41,8.15-15.18,5.34-33.42-4.65-47.02-6.39-8.7-16.72-14.34-27.79-11.82Z"/>
    <path class="cls-33" d="M601.79,150.68c2.26,5.49,3.07,11.15,2.41,16.97l-1.66.39c-8.44-18.54-23.59-32.63-41.5-13.96l-3.77,6.41c-1.22-10.05,4.23-26.55,15.64-28.49,15.48-2.63,23.63,5.35,28.87,18.68Z"/>
    <path class="cls-40" d="M759.49,191.42c1.98,1.3,7.09,4.39,6.7,7-.45,2.98-9.65,11.92-11.98,14.89-1.75,2.94-4.27,4.7-7.55,5.28-7.34,4.23-13.39,5.54-21.88,5.28-1.6,1.45-3.87,1.2-6.79-.75-3.02-1.55-5.6-1.89-8.3-4.53-.22-1.28,2.8-2.05,4.12-2.32,18.13.82,32.54-12.63,43.84-25.11l1.84.27Z"/>
    <path class="cls-33" d="M665.17,171.06c.17,1.42-1.49.52-2.28.4-19.03-2.89-25.42-16.31-23.36-34.36l5.75,13.48c4.83,7.99,11.17,16.71,19.9,20.48Z"/>
    <path class="cls-41" d="M643.29,260.08c-5.69-3.2-11.39-6.43-17.71-8.31l-23.78-5.26c12.2-3.65,24.71-3.84,34.71,4.89,1.05.92,7.64,7.78,6.77,8.69Z"/>
    <path class="cls-33" d="M601.79,150.68c1.07,2.73,3.77,9.07,3.77,11.69v11.69c-1.44-.62-2.13-4.09-3.02-6.04.99-1.41,1.2-11.66.76-12.08-.28-.26-2.68.27-3.03,0-1.51-1.18.91-1.43.95-1.51.76-1.48.71-2.15.56-3.76Z"/>
    <path class="cls-23" d="M770.05,205.76c-4.77,5.06-7.84,7.63-14.34,10.56-.35-1.65.89-1.65,1.88-2.26,1.94-1.19,5.22-2.87,6.88-4.09,1.67-1.23,2.97-4.71,5.57-4.21Z"/>
    <path class="cls-41" d="M724.78,223.87l1.12,1.51c-5.19,1.13-9,.72-13.95,0h9.05c-.17-.73-2.35-1.93-3.01-2.26,2.29.54,4.44.68,6.79.75Z"/>
    <path class="cls-23" d="M754.21,213.3c-.04.05.19.67-.21,1.32-.13.21-3.95,1.6.97,1.7-2.22.94-6.34,3.5-8.3,2.26,2.67-1.54,4.71-3.99,7.55-5.28Z"/>
    <path class="cls-23" d="M556.52,180.11c-.04,2.61-.68,3.43,2.26,3.02-1.04.36-5.59,3.49-6.03,3.01-.13-2.67,1.92-4.52,3.77-6.03Z"/>
    <path class="cls-32" d="M758.73,574.72c.44.69.52,1.5.75,2.26,1.21,4.98-12.2,17.62-15.58,15.84-.37-.19-.7-.46-1.02-.75-1.46-2.61-4.24-5.1-6.04-7.55-4.34-5.92-8.02-11.76-14.34-15.84,2.49-2.31,12.63-4.74,16.12-4.47,7.33.59,13.77,7.92,20.1,10.5Z"/>
    <path class="cls-27" d="M256.23,238.96l.68.87c-1.66,4.82-2.64,9.56-2.95,14.22-.77,2.99-2.02,5.92-2.27,9.05-1.36.18-.69-1.64-.56-2.44.26-1.64,3.4-8.7-.94-5.85.13-.69-.14-1.6,0-2.26l2.26-9.05c.58-1.49,1.31-2.91,1.51-4.53.64.16,1.63-.16,2.26,0Z"/>
    <path class="cls-27" d="M260,239.71c-.35,3.94-.86,7.97-1.51,12.07-.06.24-.7.53-.75.75-.21.66-.47.65-.75,0-.74-1.07-2.03.4-3.02.75.41-4.35,1.41-10.1,3.77-13.58.63.16,1.62-.16,2.26,0Z"/>
    <path class="cls-7" d="M291.69,189.16c-3.05,1.03-5.52.7-8.3-.75-.86-.99-1.8-1.65-1.41-3.24.96-3.84,4.12-.85,5.59-.56,3.06.6,7.95-1.09,4.12,4.55Z"/>
    <path class="cls-7" d="M260.75,166.52c-.64,5.31-4.38,5.36-8.3,3.02-.6-.88-1.44-1.17-1.52-2.69-.26-4.88,3.97-1.5,5.72-1.13,1.02.21,3.51-1.21,4.1.8Z"/>
    <path class="cls-2" d="M280.84,85.84c-2.21,4.81-4.83,3.95-9.05,2.26-.31-.3-1.18-.3-1.26-1.07s.76-3.92,1.71-4.18c.57-.16,8.38,1.94,8.61,2.99Z"/>
    <path class="cls-7" d="M281.93,145.82c-3.24,1.93-5.04,1.61-8.3,0-1.06-1.55-.75-2.94-1.51-4.52,2.57-1.23,3.94.26,6.35.9,3,.8,5.32-1.1,3.46,3.62Z"/>
    <path class="cls-18" d="M280.84,85.84c.47,2.18-2.14,5.74-4.28,5.93-.8.07-3.96-2.87-4.77-3.66,1.45-1.33,3.35.17,5.5-.13s1.62-2.31,3.56-2.13Z"/>
    <path class="cls-18" d="M260.75,166.52c1.42,4.82-3.76,9.67-8.3,3.02l.44-.58c3.8,1.09,5.72,1.05,7.86-2.43Z"/>
    <path class="cls-18" d="M281.93,145.82c-1.86,4.71-5.93,3.47-8.3,0,1.17-1.53,3.2.23,4.87.03,2.19-.27,3.78-4.65,3.43-.03Z"/>
    <path class="cls-18" d="M291.69,189.16c-2.95,4.34-5.43,2.57-8.3-.75,2.16-1.55,6.96,1.96,7.55-2.26l.75,3.01Z"/>
    <path class="cls-16" d="M272.07,134.84c-.65,5.08-3.7,5.68-6.78,1.88-.28-2.35,2.24,0,3.95-.48,1.02-.29,1.45-1.78,2.83-1.39Z"/>
    <path class="cls-7" d="M263.39,124.6c-.7-2.41,3.12-3.8,5.33-1.26.5.57.77,1.34.61,2.07-.31,1.43-1.78,1.67-4.4.73-.71-.26-1.33-.81-1.54-1.54Z"/>
    <path class="cls-6" d="M286.41,232.17c-.38-.32-1.25-.37-1.29-1.11,0-.17.62-1.04.83-1.53.3-.71-1.28-1.44,1.61-1.13,1.85.2,1.04.85,1.13,2.26,1.46.22.42-1.65.77-2.27.09-.15,2.82.38,3,1.52-.53,2.25-2.54,3.01-6.04,2.26Z"/>
    <path class="cls-11" d="M253.96,206.52c-.26,5.68-3.01,4.73-6.78,2.25l6.78-2.25Z"/>
    <path class="cls-18" d="M286.41,232.17c-.52-3.19,3.8.97,6.04-2.26.58,3.87-3.06,4.75-6.04,2.26Z"/>
    <path class="cls-11" d="M313.57,177.84c-.12,4.04-3.37,5.56-6.04,2.26.14-.18-.18-1.14.08-1.39.23-.22,4.28,2.15,4.95-.86l1.01-.02Z"/>
    <path class="cls-18" d="M264.09,125.81c1.35-1.78,4.33,1.57,5.28-1.51,1.97,3.76-2.29,4.99-5.28,1.51Z"/>
    <path class="cls-37" d="M269.81,208.02c2.44.79,3.27,1,5.27-.76.32,4.24-4.55,5.37-5.27.76Z"/>
    <path class="cls-16" d="M273.58,232.92c-.09,4.02-2.94,3.97-5.27,1.13l5.27-1.13Z"/>
    <path class="cls-16" d="M297.62,220.73c-.93,1.55-4.94.34-4.41-2.15,2.13,1.24,2.77.53,4.51-.75-.11.88.3,2.23-.1,2.9Z"/>
    <path class="cls-1" d="M257.74,239.71c-1.8,4.31-2.63,9.06-3.77,13.58-.06.24.06.52,0,.75-1.5-.77-.48-2.51-.22-3.6.91-3.8,2.24-7.55,2.48-11.49.7.18,1.23.68,1.51.75Z"/>
    <path class="cls-19" d="M259.99,149.93c.19,3.6-1.86,3.8-3.75,1.13l3.75-1.13Z"/>
    <path class="cls-13" d="M255.47,183.88c.07,3.1-3.83,3.1-3.77,0h3.77Z"/>
    <path class="cls-13" d="M302.25,205.76c1.35,1.37-2.66,3.19-3.76.37.08-1.35,3.58-.55,3.76-.37Z"/>
    <path class="cls-15" d="M278.86,119.75c0,2.97-2.99,3-3.01,0h3.01Z"/>
    <path class="cls-37" d="M279.61,156.72c.89.91-1.5,2.98-3.01,2.26-1.12-1.43,2.61-2.66,3.01-2.26Z"/>
    <path class="cls-16" d="M263.77,223.86c-.5.5-3.01-.21-3.01-1.5l3.01-.76c-.07.61.15,2.11,0,2.26Z"/>
    <path class="cls-16" d="M285.66,147.66c-1.37-1.2,2.87-2.44,3.01-2.26.91,1.19-2.03,3.11-3.01,2.26Z"/>
    <path class="cls-11" d="M290.18,168.78c-.5.5-3.01-.21-3.01-1.5l3.01-.76c-.07.61.15,2.11,0,2.26Z"/>
    <path class="cls-1" d="M260.75,240.47c.03,3.44-1.46,6.57-2.26,9.81-.11.44.11,1.07,0,1.51-1.94-3.73,2.3-8.06,1.51-12.07.24.06.54.7.75.75Z"/>
    <path class="cls-26" d="M265.28,305.36c-2.29,11.76-1.08,23.63-1.12,35.47-20.91,11.58-44.31,23.67-57.58,44.27l-3.15,6.27c-3.93-17.4-.67-27.09,9.19-40.98,13.03-18.36,32.35-35.37,52.67-45.03Z"/>
    <path class="cls-33" d="M517.29,260.08c28.07,15.88-16.97,65.53-33.95,36.22-8.57-18.16,18.24-38.29,33.74-25.92.47-2.17-.31-4.37-1.3-6.3l.76-1.73c-.26-.45-.47-1.21-.75-1.51-.82-.94-.31-1.19,1.51-.75Z"/>
    <path class="cls-33" d="M425.99,294.04c-11.53,10.26-23.25-8.73-22.32-19.83.43-5.06,5.15-15.8,9.88-17.89,1.75-.78.89,1.71,1.12,2.26.54,1.99.5,4.26-.12,6.8,11.49,2.98,19.22,18.62,11.44,28.66Z"/>
    <path class="cls-38" d="M503.71,250.27h-16.98c-.85,0-7.08,1.65-8.51,2.05-8.13,2.25-15.33,6.35-20.53,13.04.76-6.1,3.9-23.28,10.51-25.32,6.97-2.14,18.84,2.03,25.45,4.81l10.05,5.42Z"/>
    <path class="cls-21" d="M516.53,262.35c2.27,3.87,2.8,6.96,1.5,11.31-1.11.02-.95-1.36-1.97-2.17-14.55-11.53-38.27,7.61-32.73,24.81-12.87-22.22,12.46-40.82,33.2-33.95Z"/>
    <path class="cls-38" d="M456.17,238.2c-8.37,6.67-12.58,16.32-15.47,26.42-1.67-9.81-9.26-16.91-19.24-17.74,2.47-2.06,5.87-3.61,8.85-4.73,2.93-1.1,12.26-3.95,14.91-3.95h10.94Z"/>
    <path class="cls-33" d="M461.45,240.47c-2.19,4.63-5.02,9.04-6.92,13.82-4.41,11.06-5.28,18.55-5.19,30.31,0,.9.65,2.81-.7,2.65-6.91-13.63-6.84-26.75,3.03-38.83.96-1.18,8.67-9.06,9.78-7.94Z"/>
    <path class="cls-21" d="M425.99,294.04c4.48-8.83.26-21.29-8.37-25.95-4.07-2.2-5.2.66-4.25-5.91.17-1.19.39-2.74,1.3-3.6.23.54,8.06,4.89,9.73,6.49,7.47,7.16,9.83,21.64,1.59,28.97Z"/>
    <path class="cls-18" d="M517.29,260.08l-1.51.75c-.42-.44-1.64-1.14-2.26-1.51-.59-.22-.58-.47,0-.75,1.67.51,2.18.61,3.77,1.51Z"/>
    <path class="cls-12" d="M513.52,258.57v.75c-.87-.52-3.04-.59-3.03-1.13.85-1.34,2.44.2,3.03.38Z"/>
    <path class="cls-7" d="M263.02,98.62c-3.9-8.17,4.01-2.31,8.3-3.01.29.16-.77,1.26-.76,1.5.13,4.76-4.79,4.36-7.55,1.51Z"/>
    <path class="cls-18" d="M270.56,97.11c0,.15.76.69.71,1.23-.6,6.07-6.13,4.73-8.25.28,2.85.54,5.79,1.66,7.55-1.51Z"/>
    <path class="cls-18" d="M229.07,217.07c.28-1.54,3.36-.3,4.51-1.5-.02,3.09-2.46,2.21-4.51,1.5Z"/>
    <path class="cls-17" d="M665.93,123.52l-1.51.75c-.44-1.55-1.87-3.32-1.5-5.28,1.94.56,2.24,3.48,3.01,4.53Z"/>
    <path class="cls-22" d="M257.74,252.54c-1.21,4.94-1.78,10.23-3.4,15.1-1.71,0,2.93-13.74,2.64-15.1h.75Z"/>
    <path class="cls-17" d="M466.74,102.39c.59-.12,1.68-1.37,3.01-.75.25,1.03-1.25.93-2.26,1.5l-.75-.75Z"/>
    <path class="cls-1" d="M250.19,252.54c.8-3.77.71-5.09,2.26-9.05l-2.26,9.05Z"/>
    <path class="cls-17" d="M594.25,725.62c-6.68-.3-12.89.71-19.24.78-34.78.39-69.69-.34-104.51-.03,3.32-4.83,10.43-14.07,16.07-10.53.85.53,1.99,1.53,2.56,1.93,3.87,2.77,20.51.76,28.91-6.71,12.51-.22,23.5-.26,36-.54.69-.02,1.37.08,2.03.28,6.39,1.95,41.33,12.75,38.18,14.81Z"/>
    <path class="cls-30" d="M453.16,684.12c1.92,3.69,2.78,8.64,4.53,12.83-1.99,7.17.1,15.64-.82,22.95-.61,4.87-3.67,12.45-5,17.64-.57,2.23-1.34,9.58-2.1,10.73s-7.95,2.08-9.82,2.25c-18.23,1.68-37.25-1.27-54.7-6.41-8.77-2.58-17.38-6.01-25.65-9.8,13.23-10.47,26.82-20.56,40.5-30.42,5.21-3.75,10.88-7.02,16.08-10.7,3.44-1.58-29.17,10.26-45.64,21.69-.79.06-11.29-8.34-12.73-9.57-.82-.7-.81-.7-.12-1.56,1.43-1.76,12.85-8.2,15.73-9.93,8.89-5.35,18.73-11.1,27.92-15.84,4.89-2.52,27.86-13.89,31.71-13.25.71.12,3.53,2.3,4.5,2.95,5.08,3.41,12.81,11.1,15.61,16.46Z"/>
    <path class="cls-29" d="M760.24,580l-4.39,11.08c-2.62,3.75-5.02,9.11-9.94,10.05-.41-2.95-1.58-6.48-3.02-9.06,7.83-2.1,12.54-8.55,16.6-15.09.4,1.27.63,1.24.75,3.02Z"/>
    <path class="cls-29" d="M554.55,710.53c-10.81.79-25.31,1.07-36.51.54,1.35-1.25,3.35-5.73,4.86-6.61,2.48-1.44,11.43.51,14.78,1.14,5.02.94,12.14,2.98,16.86,4.93Z"/>
    <path class="cls-21" d="M759.49,191.42l-11.31,11.71c-8.38,7.04-17.97,13.32-29.15,14.61-3.06.35-6.66-.7-9.34.85-.39-.38-1.14-.11-.75-1.5,2.25-.59,4.83-2.15,6.72-3.47,4.63-3.22,9.94-7,12.13-12.38l-13.93,6.81c-2.72.58-5.69,1.81-8.41,2.16-.8.11-2.74.64-2.55-.67,3.25-1.74,6.58-4.44,9.41-6.82,9.34-7.85,15.66-17.13,29.04-16.99,6.96.07,12.41,1.94,18.14,5.7Z"/>
    <path class="cls-35" d="M562.57,211.04c1.8.8,1.35,2.84,3.01,4.14,5.69,4.44,10.91-4.85,5.57-7.83-1.49-.83-3.71-.29-4.06-1.59,14.84-9.46,30.74,10.89,18.05,22.2-11.78,10.5-28.6-2.77-22.58-16.93Z"/>
    <path class="cls-18" d="M309.93,105.59c.05,1.92-.38,4.92.61,6.57,2.86,4.75,10.43,16.63,10.73,18.11,1.11,5.47-1.03,3.91-.01,29.94-.24,5.22,1.05,12.59-3.13,12.06-2.72-.35-17.24,1.93-23.04-12.06-2.56-6.18.09-23.13.63-27.68.09-.71-.27-1.4-.9-1.74-1.13-.62-5.72-2.75-7.71-5.49-1.99-2.74-4-6.41-5.35-9.51-1.79-4.13-3.28-9.28-2.81-12.44,1.31-8.89,3.72-19.72,9.88-22.49,5.17-2.32,16.27,2.99,19.69,4.75.63.33,1.03.97,1.05,1.69l.36,18.3Z"/>
    <path class="cls-32" d="M309.43,109.79c.05,1.92.6,3.79,1.58,5.43,2.86,4.75,9.3,14.07,9.52,15.56.84,5.79-1.15,5.28-.13,31.31-.24,5.22.96,9.13-3.84,8.92-2.74-.12-16.24-3.07-19.47-12.21-2.23-6.31-.57-22.08-.02-26.62.08-.7-.26-1.39-.88-1.73-1.12-.62-3.12-1.93-5.89-4.57-2.4-2.29-4.29-5.06-5.61-8.11-1.82-4.2-3.79-8.3-3.79-13.42,0-10.13,3.63-18.82,9.79-21.58,5.09-2.29,14.14,2.19,17.13,3.82.61.33,1,.97,1.02,1.67l.6,21.54Z"/>
    <path class="cls-18" d="M298,92.79l4.52,1.87c-2.07,3.17-4.57,1.66-4.52-1.87Z"/>
    <path class="cls-18" d="M300.26,119.67c-1.81,2.35-4.2.56-2.39-1.83l2.39,1.83Z"/>
    <path class="cls-18" d="M305.94,141.85c.63,2.9-2.29,3.57-2.94.64l2.94-.64Z"/>
    <path class="cls-18" d="M313.73,154.29c2.95-.25,3.25,2.73.26,3l-.26-3Z"/>
    <path class="cls-18" d="M304.57,128.02c-2.69,1.24-3.98-1.46-1.26-2.73l1.26,2.73Z"/>
    <path class="cls-18" d="M303.97,105.59c1.66,2.46-.81,4.16-2.5,1.68l2.5-1.68Z"/>
    <path class="cls-32" d="M293.33,157.83l.15-1.22s2.94,14.71,18.04,15.57l-2.22.25c-5.18-.14-16.17.15-15.97-14.6Z"/>
  </g>
</svg>