<?xml version="1.0" encoding="UTF-8"?>
<svg id="Layer_1" data-name="Layer 1" xmlns="http://www.w3.org/2000/svg" viewBox="0 0 897.08 478">
  <path d="M368.47,393.07c2.86-8.36-4.21-16.13-6.43-24.25-5.29.02-18.05-2.17-21.22,1.72-1.75,2.15-5.63,14.47-5.11,17.42,2.65,2.62,7.63-1.55,6.16,5.11h-26.59s10.06-7.33,10.06-7.33l24.29-61.64,6.55-6.73c5.69,10.35,23.9,67.22,30.69,70.6,2.98,1.48,6.83,1.48,10.03.78,2.7-1.83,8.64-55.65,10.44-64.24.59-2.82-.2-5.15,3.08-7.12,4.02.14,25.87,47.63,27.64,55.21l24.82-49.84c1.26-1.83,4.66-7.51,6.91-3.38l9.44,66.26,9.96,7.42-24.56.02-5.11-45.04c-3.58,6.79-17.85,42.79-22.53,45.02-3.52,1.68-3.15-2.44-4.02-4.04-6.05-11.08-10.88-23.7-16.99-34.23-1.29-2.22.21-3.56-4.55-2.63l-4.12,36.82c4.16.44,9.59-2.39,8.2,4.09h-47.06ZM360.28,362.36c-4.74-6.01-3.73-16.38-10.21-20.45l-6.15,20.45h16.37Z"/>
  <path d="M388.96,186.41c2.51-1.82,11.26,6.02,10,10.88-.25.96-10.15,10.19-2.87,9.54.51-.05,6.62-6.09,7.29-7.08.54-.8,1.54-1.33,1.75-2.38l-13.13-17.08c-5.32,7.27-18.19,15.46-22.55,22.43-.94,1.51-1.35,2.15-.97,4.1,6.78,1.27,11.39,8.19,14.97,13.7,5.27.65,8.57,11.73,12.54,10.83,5.7-1.29,50.71-53.71,60.47-60.37,5.28-3.09,9.06,2.57,12.14,6.47l-72.51,72.48-46.14-46.14,41.79-41.83,33.96,33.75-29.87,29.45-21.11-19.57,14.23-19.18Z"/>
  <path d="M487.99,238.7c-6.6-6.65-12.4-14.12-20.38-19.42-.38-4.33-10.33-8.48-9.08-11.35.93-2.13,30.65-31.82,32.71-32.89s2.06-1.06,4.1,0c7.33,3.8,17.52,22.26,26.52,26.86,1.81,5.78-15.5,18.44-19.61,23.26l-19.16-17.27,9.18-9.18c.69,0,11.99,13.77,11.22,5.09-.1-1.15-8.75-8.05-10.2-10.24l-12.22,10.69-1.18,6.66c.61,1.24,18.31,18.97,19.54,19.61,2.04,1.06,2.06,1.06,4.1,0,1.48-.77,22.88-22.15,23.64-23.64.48-.95,1.28-1.62.79-2.82l-60.31-60.62c-3.09-5.28,2.57-9.06,6.47-12.14l72.48,72.51-43.07,45.08c-5.86,3.19-11.09-5.7-15.52-10.17Z"/>
  <path d="M525.37,74.53c7.44,7.44,14.41,17.97,23.14,24.91l-42.18,41.82-35.52-33.68,6.83-8.42,23.06-21.08,21.12,19.57c-6.69,9.47-16.59,25.52-26.44,9.98l8.13-11.25c-1.32-1.32-14.94,6.67-10.32,13.35.84,1.22,9.47,9.84,10.32,10.28,3.08,1.6,2.99.47,5.18-1.04,1.74-1.2,17.87-17.35,18.47-18.51,1.06-2.04,1.06-2.06,0-4.1-.81-1.56-23.22-24.04-24.92-24.43l-62.15,60.36c-4.79,2.48-8.61-5.63-12.25-8.3l72.61-72.61c6.94,8.73,17.48,15.71,24.92,23.14Z"/>
  <path d="M620.16,393.07c1.34-8.94-4.45-15.99-6.38-24.32-20.4-3.04-22.84.96-28.43,19.18.16,2.38,9.03-1.13,6.16,5.13h-24.54c-1.63-6.42,5.7-3.01,8.29-7.03l28.56-68.66c4.54-.74,3.25.02,4.52,2.6,5.42,11.03,23.5,64.64,30.21,68.02,3.77,1.9,8.32.83,12.31,1.01l2.05-71.62c3.07-3.32,12.29,11.28,14.26,13.35,13.15,13.71,26.9,27.11,40.98,39.85v-31.72c0-2.46-4.2-10.38-2.03-15.36-4.13-.42-9.61,2.39-8.19-4.07h26.59c1.64,6.52-5.78,2.81-8.18,7.15v65.48c0,.23-2.99,4.11-4.09,2.06l-51.16-50.15v39.9c0,.62,2.23,3.24,2.33,4.86l7.91.26v4.09h-51.17ZM609.92,362.37c.52-.49-2.42-10.18-3.13-12.2-.79-2.25-2.25-8.25-5.03-8.24l-6.15,20.44h14.31Z"/>
  <path d="M393.03,96.38c-1.97,1.96,8.02,12.81,11,12.15l13.43-13.43-23.16-23.16-25.71,27.25,60.36,60.61c2.36,4.55-7.07,13.16-11.33,8.9-2.09-2.09-4.07-3.83-6.18-5.85-16.81-16.15-32.61-34.34-49.07-51.17-4.59-4.69-11.79-7.53-14.37-15.28,2.57.07,4.41-1.41,6.22-3,14.47-12.72,27.39-29.07,41.88-42.02l41.83,42.17-33.64,35.53-29.55-31.44,21.37-19.79,17.27,15.7c.61,2.8-6.23,9.05-9.09,9.05-4.74,0-5.98-7.17-11.25-6.23Z"/>
  <path d="M239.55,476.97c-1.73-6.67,4.34-2.36,6.32-5.28,3.51-18.86,2.01-39.25.97-58.31l-7.31-1.9c-1.52-8.12,10.37-1.86,15.35-1.83,4.07.02,7.5-1.91,11.72-1.76,8.35.31,19.72,4.09,21.69,13.27,2.72,12.65-11.18,20.1-9.67,25.77.67,2.54,18.21,22.1,21.17,24.01,6.62,4.28,12.84,3.33,13.51-5.12.53-6.58.54-50.14-1.07-52.41-1.7-2.4-6.95-.37-5.15-6,9.16,4.91,22.22-3.5,26.59,4.07l-7.32,1.9c-1.61,2.2-1.72,48.55-.88,54.4.23,1.63.42,3.22,1.95,4.2l8.3,4.99h-41.95c-8.18,0-19.91-19.87-24.95-26.12-2.68-3.33-8.5-4.1-8.84-1.36v23.4c4.16.42,9.6-2.4,8.21,4.08h-28.65ZM257.97,442.17c23.21,7.28,23.81-25.06,6.78-28.29-9.51-1.81-4.28,11.68-4.63,19.22-.16,3.52-.45,5.95-2.15,9.07Z"/>
  <path d="M780.79,319.41c3.93.47,13.05,3.65,16.78,5.72,22.09,12.28,22.45,46.17,2.54,60.66-19.94,14.52-40.77,5.74-63.31,7.27-2.32-6.61,5.78-2.44,6.25-5.18l-.1-64.39c-4.15-.42-9.59,2.39-8.2-4.08,14.62,1.26,31.77-1.72,46.04,0ZM757.26,328.62v42.97c0,.92,3.27,13.99,3.96,14.46,46.56,13.48,52.13-55.11,9.18-60.35-4.64-.57-10.17-1.29-13.14,2.92Z"/>
  <path d="M243.65,324.52c.2-1.51,3.04-4.26,2.06-7.16,6.27,1.23,7.66,6.7,11.19,10.28,14.23,14.42,28.81,28.49,43.02,42.92,3.38-1.57-1.03-4.79-1.03-5.11v-41.95c-3.76-.46-9.57,2.5-8.18-4.08h26.59c1.84,6.47-5.02,2.86-7.29,5.97-3.13,22.86,2.07,47.07-2.95,69.73-2.69,3.25-50.7-48.54-54.21-53.19-3.38,1.58,1.03,4.79,1.03,5.11v38.88c0,2.61,10.28,3.12,10.23,7.16h-28.65v-4.09s8.19,0,8.19,0c1.89-20.23-2.55-44.79,0-64.46Z"/>
  <path d="M93.71,317.84c30.99-5.15,55.26,19.9,44.52,50.64-6.63,18.98-24.7,28.9-44.47,26.1-43.86-6.22-43.79-69.48-.05-76.75ZM118.15,382.16c12.34-12.59,7.74-52.03-10.99-56.2-30.45-6.78-37.69,23.56-27.7,46.11,5.92,13.36,27.66,21.34,38.69,10.09Z"/>
  <path d="M181.7,317.84c15.93-2.57,37.51,4.74,43.98,20.56,12.4,30.31-11.77,60.69-43.93,56.19-43.49-6.1-43.64-69.71-.05-76.74ZM177.53,325.93c-10.07,2.97-14.3,22.06-13.73,31.29,1.98,32.23,43.36,44.26,48.62,9.74,3.43-22.53-7.92-48.98-34.89-41.04Z"/>
  <path d="M851.38,319.41c1.68,6.92-6.21,2.23-7.95,7.4-1.28,3.82-.86,36.93-.08,42.57,1.91,13.77,10.91,21.33,25.04,17.15,15.51-4.59,12.27-49.97,9.53-62.97-1.43-1.53-10.2,3.1-8.12-4.15h26.59c1.16,5.67-2.06,4.07-6.13,4.08v35.81c0,.54-1.68,2.32-1.93,4.21-.69,5.38.23,8.77-1.71,14.66-8.1,24.57-53.27,22.57-57.66-6.7-1.76-11.71,2.66-35.61-.36-44.66-2.07-6.2-11.57.29-9.97-7.43h32.74Z"/>
  <path d="M369.97,407.87c43.24-7.34,62.35,39.4,30.22,62.96-25.05,18.37-62.21-1.33-58.17-33.61,1.63-13,15.03-27.16,27.95-29.35ZM369.9,413.96c-23.96,5.44-17.29,67.43,19.15,55.95,20.38-6.42,16.94-64.15-19.15-55.95Z"/>
  <path d="M96.32,456.5v-42.97c-3.71-1.04-9.67-.55-8.18-6.13,8.28,1.04,14.2,2.54,22.49,0,1.8,5.63-3.45,3.6-5.15,6-2.5,3.52-.56,27.14-.88,33.99-.44,9.46-3.84,19.44-2.15,29.57-3.49.86-4.09-1.34-6.14-3.05-15.32-12.78-28.53-30.19-42.96-44v39.9l6.75,3.1.41,4.07-23.52-.02c-1.64-6.52,5.78-2.81,8.18-7.15v-62.41c3.51-.83,4.09,1.34,6.15,3.06,16.25,13.54,29.85,31.33,45.01,46.05Z"/>
  <path d="M493.3,472.89c2.15,6.72-11.31,4.32-14.91,3.63-16.68-3.23-17.46-28.96-34.2-28.2l.23,21.25,7.94,7.4h-26.59c-1.79-5.63,3.45-3.6,5.15-6,1.67-2.36,1.8-55.25.09-57.59-3.05-2.94-8.83.33-7.29-5.97,14.01,4.68,31.77-4.76,44.05,6.07,15.24,13.44-5.66,27.72-4.29,32.96,1.43,5.46,21.46,28.79,29.81,26.46ZM444.18,442.18c24.18,5.46,21.69-31.22,0-28.65v28.65Z"/>
  <path d="M38,319.41c13.26,2.26,19.23,18.06,13.03,29.4-3.95,7.23-18.68,17.2-26.32,10.47-.46-5.72,8.01-2,11.78-5.58,8.96-8.54,1.2-31.92-13.84-28.15v60.36l10.25,3.08v4.09H.14c.72-3.77,4.92-4.18,8.19-4.09v-65.48H.13s.01-4.09.01-4.09c11.53,1.37,26.89-1.87,37.86,0Z"/>
  <path d="M450.18.3c8.71,16.65,31.28,29.5,41.16,43.83,2.87,4.16-1.26,10.26-5.47,11.19-3.72.82-32.7-32.19-38.62-36.68-2.46,0-28.85,30.8-34.72,34.86s-12.37-4.4-10.41-8.29c14.85-12.01,28.32-31.72,43.05-43,1.69-1.3,2.15-2.89,5.01-1.92Z"/>
  <path d="M352.09,186.44c2.13,2.96-7.32,9.83-9.2,12.22l-45.92-46.26,45.92-47.81,9.18,9.18-36.68,38.63c11.92,11.06,22.58,26.4,36.71,34.04Z"/>
  <path d="M410.42,247.84l37.08,36.67,38.63-36.68,9.18,9.18-47.81,45.92-43.29-42.86c-3.19-5.48,2.72-8.64,6.2-12.23Z"/>
  <path d="M553.65,104.6l45.92,46.25c.55,2.49-1.74,3.4-2.9,4.91-5.95,7.76-30.09,31.99-37.82,37.88-8.06,6.15-14.7-.91-11.4-7.22s34.77-30.75,33.71-35.56c-6.32-10.33-28.93-24.87-33.71-34.02-3.01-5.77,2.58-8.46,6.2-12.23Z"/>
  <path d="M564.84,319.48l.07,16.29c-6.34,1.43-3.82-5.76-8.25-9.12-6.24-4.73-18.2-1.58-18.34,6.01-.18,9.69,22.73,20.04,27.1,30.25,10.21,23.9-17.45,39.11-37.36,29.18-4.07-3.42-1.25-14.16-2.01-19.46l9.05,12.42c7.65,4.24,19.66,3.19,19.76-7.28.14-15.96-27.61-18.59-26.92-40.99.61-19.98,21.42-21.18,36.92-17.3Z"/>
  <path d="M646.74,407.4l22.11,56.69,12.69,12.87-22.66-.95-5.77-20.36c-16.82-4.56-25.9-1.35-26.82,17.22,4.06.09,7.3-1.63,6.14,4.09h-24.54c-1.24-7.52,6.23-1.33,10.06-7.33,9.33-14.61,13.96-43.21,23.13-58.71,1.55-2.63,2.03-4.24,5.66-3.52ZM648.8,448.31c.8-.78-4.41-19.65-8.16-20.45,1.43,8.06-5.24,13.1-6.15,20.45h14.31Z"/>
  <path d="M754.19,476.97c-.8-.21-3.69-3.59-3.07-4.08l7.32-1.9-.02-57.62-7.31-1.9c-1.51-8.16,12.32-2.16,17.31-1.94,8.65.38,17.39.31,25.66-2.13v14.31c-5.99,1.63-3.22-4.3-7.45-5.78-19.73-6.9-14.73,5.13-15.06,20.12l20.46-2.05.02,15.34-4.08-.5-1.12-4.73-15.28.11c.97,11.72-5.25,25.97,11.24,26.31,10.4.21,7.53-4.81,13.31-9.93l-2.03,16.37c-10.86-1.85-30.33,2.53-39.9,0Z"/>
  <path d="M566.96,476.97c-1.82-6.49,5.02-2.87,7.3-5.98v-57.61c-2.27-3.11-9.13.5-7.29-5.97,4.67-.91,9.06,2.03,13.36,2.16,4.91.15,8.89-2.39,13.99-2.09,34.37,2.05,24.39,42.2-4.85,38.78,2.29-5.09,9.17-4.07,12.41-9.06,6.71-10.34-1.51-26.47-14.45-23.66v56.27l10.25,3.08v4.09h-30.71Z"/>
  <path d="M184.31,476.97c-1.73-6.67,4.34-2.36,6.32-5.28l1.96-56.84-8.28-3.38c-1.68-7.82,10.37-2.16,15.25-1.93,5.31.26,11.14.1,16.48-.08,4.46-.15,8.12-4.22,11,.94l-1.81,11.32c-5.83,1.13-3.65-1.95-4.2-5.93l-16.24-2.24v24.54s20.44-4.08,20.44-4.08c-.17,4.25,1.49,14.57-3.07,16.36-2.97-8.73-9.63-5.95-17.39-6.14l.2,24.38c12.5,4.45,16.58,1.48,24.35-8,.13,5.69-.88,12.22-5.1,16.37h-39.9Z"/>
  <path d="M740.88,427.85c-6.75,1.28-2.7-5.06-5.97-9.36-4.78-6.28-23.9-6.88-29.94-3.02-19.8,12.66-12.79,49.68,10.76,54.92,11.57,2.57,20.59-.12,24.12-11.83,5.3,2.22.65,15.56-3.03,17.42-9.61,4.86-33.75.27-42.89-6.28-26.08-18.69-15.1-58.92,17.25-62.32,5.07-.53,30.81-.12,31.29,5.05l-1.6,15.43Z"/>
  <path d="M141.33,415.58c-10.06-.21-17.28-1.83-24.54,6.14l1.84-13.13c2.57-3.63,14.94.75,19.53.94,11.84.49,25.61.84,36.89-2.13,4.31,3.14.16,9.03,3.1,14.3-5.96,1.76-3.44-4.65-7.36-5.88-4.67-1.47-12.03.45-17.19-.25v54.22l10.25,3.08v4.09h-28.66v-4.06c1.73-.02,6.14-1.89,6.14-3.1v-54.22Z"/>
  <path d="M896.4,423.75c-9.47,2.67-4.19-7.65-11.62-9.85-8.44-2.5-13.7-.45-12.86,8.69s10.68,10.79,16.38,16.43c22.42,22.14-2.12,47.62-28.48,35.64l-.23-18.16c5.28,1.52,2.89,8.04,6.1,11.28,4.99,5.05,13.75,6.2,18.59.13,10.39-13.04-18.11-23.73-21.51-33.97-1.56-4.7-2.37-14.02-.15-18.38,3.8-7.47,23.22-10.06,30.44-7.88,5.55,1.68-.12,11.26,3.35,16.08Z"/>
  <path d="M554.43,409.7l.24,14.06c-6.97,1.37-3.75-8.04-9.51-9.94-3.69-1.22-15.06-.66-15.21,4.8-.44,15.7,26.67,19.56,26.15,38.53-.56,20.32-22.24,23.51-38.01,17.51l-.24-18.15c7.14-1.49,2.78,7.94,6.62,11.79,7.14,7.14,17.38,3.22,21.73-4.92-2.74-17.45-28.81-20.91-26.28-40.49,2.18-16.89,21.19-18.3,34.5-13.2Z"/>
  <path d="M845,409.7l.24,14.06c-7.65.77-2.92-8.64-11.23-10.24-6.8-1.31-13.63-.83-13.5,7.2.17,10.81,19.15,16.56,23.19,26.09,10.31,24.27-14.99,36.81-35.03,27.86l-.23-18.16c5.26,1.68,4.02,9.02,7.13,12.28,5.82,6.12,18.49,3.34,19.53-5.2,1.85-15.12-25.1-20.06-24.84-38.82.25-18.02,20.89-20.59,34.74-15.07Z"/>
  <path d="M6.28,411.49H.14c-1.45-8.3,8.86-1.98,13.31-1.98s8.65-3.04,13.29-2.11l-6.13,4.08v58.32c3.3,4.62,9.88.71,8.19,7.16H.14v-4.09s6.14,0,6.14,0v-61.39Z"/>
  <path d="M362.35,149.57l-6.17,1.03,6.15,9.2h-18.42s-.07-6.94-.07-6.94l4.19-2.26-4.19-2.26.07-6.94c8.14.4,19.95-3.36,18.44,8.17Z"/>
  <path d="M458.5,255.97h-18.4s0-16.37,0-16.37l8.17.02,2.04,10.22c-.58-3.02-.48-13.66,5.11-12.27,4.9,1.22.61,14.33,3.09,18.4Z"/>
  <polygon points="552.62 141.4 552.7 148.32 548.52 150.6 552.71 152.86 552.64 159.8 536.25 159.8 536.25 151.63 546.51 150.6 534.22 149.56 536.32 141.42 552.62 141.4"/>
  <polygon points="446.22 47.27 446.3 54.2 442.11 56.47 446.3 58.75 446.22 65.67 438.05 65.67 438.05 47.27 446.22 47.27"/>
</svg>