<?xml version="1.0" encoding="UTF-8"?>
<svg id="Layer_1" data-name="Layer 1" xmlns="http://www.w3.org/2000/svg" viewBox="0 0 944.67 365.64">
  <path d="M437.36,233.57c-3.19-11.28,13.19-10.4,14.33-13.96.89-2.78-3.33-18.91-2.61-24.7,1.16-9.32,4.11-19.26,4.07-28.94,0-2.03-1.47-15.73-1.94-16.41-2.05-2.96-12.49-.02-13.46-7.32-.8-6,6.93-9.05,12.04-9.69,6.13-.76,24.2-.83,30.26-.03,3.6.47,10.19,6.91,9.2,9.25-2.75,6.46-18.53,4.42-20.16,10.09-.82,2.85-1.73,14.89.07,17.15,3.59,4.52,17.84-8.71,21.55-11.27,3.51-2.42,8.41-2.04,8.24-7.24-.07-2.31-5.26-17.9.71-17.9h20.98c1.43,0,2.31,6.29,3.9,6.46,1.05.11,20.05-10.56,14.43,1.37-3.84,8.14-13.47,5.06-18.94,8.6-2.4,1.55-2.93,4.09-4.43,5.41-4.22,3.7-19.71,14.34-19.26,19.38.19,2.18,20.81,33.46,23.68,36.79s6.35,6.38,10.04,8.32c2.35,1.24,11.69,3.81,12.04,4.35,1.26,1.99.58,7.33-2.03,8.74-3.98,2.16-35.79,2.35-41.77,1.62-5.17-.63-6.46-3.47-9.77-6.61.16,1.58-2.28,6.55-3.29,6.55h-47.87ZM470.46,221.44c1.09,1.26,17.6,2.84,19.79,2.53,1.06-.15,12.66-4.78,12.66-5.48-6-5.43-14.51-34.1-23.62-31.61-4.29,1.18-10.46,10.86-11.25,15.18-.5,2.74,1.12,17.87,2.42,19.38Z"/>
  <path d="M587.8,275.91c-3-3.63-22.1-4.08-15.86-9.66,10.19-9.12,14.32.92,19.6,1.43,4.2.41,7.53-4.62,13-5.29,5.27-.64,24.48.11,18.87,9.03-.9,1.43-13.68,2.88-15.26,7.68-2.67,8.13-2.51,23.87-1.54,32.45-1.46,13.04,2.37,30.72-1.47,42.98-.34,1.07-2.5,1.03-2.53,1.78-.08,1.76,2.12,4.66,1.31,7.09-2.03,1.96-16.29-4.7-18.96-6.6-3.79-9.32-6.42-21.07-10.67-29.99-2.18-4.58-14.34-23.82-17.59-27.01-12.44-12.24-3.11,11.09-2.63,15.75.77,7.51-1.66,24.41.23,29.93,2.16,6.29,16.66-.21,20.6,2.35,1.91,1.25,3.89,11.33-.74,14.01-8.1,4.69-10.46-1.38-15.54-2.32-3.08-.57-25.47-1.88-27.34-1.21-2.64.95-1.38,4.74-2.91,5.18-10.61,3.1-13.39-11.9-8.44-15.3,1.06-.72,16.15,2.66,18.14-4.07-1.56-10.63,3.19-60.02-.38-65.98-2.36-3.94-13.44-.15-17.77-3.22-5.84-4.14,5.21-10.12,8.67-11.08,3.2-.89,17.29-1.75,20.93-1.55,5.51.3,7.23,2.75,10.05,7.08,3.62,5.57,20.02,37.47,21.43,42.85,1.58,6.01-3.9,23.53,8.5,13.82,11.32-8.87,3.99-9.48,1.37-17.17-2.26-6.66,1.48-27.45-3.09-32.97Z"/>
  <path d="M429.86,3.65c3.4,2.04,9.38,1.88,8.91,7.6-.46,5.55-14.37,2.49-16.94,8.09.16,9.18-2.59,19.48-2.42,28.48.04,1.89,1.9,3.95,1.94,5.72.14,6.86,1.5,32.38-.96,36.17-1.06,1.64-4.08,1.27-4.1,4.16-.02,2.75,5.41,4.68,4.02,8.54-4.54-.09-9.4.36-13.84-.66-8.41-1.94-5.44-4.74-8.19-10.74-4.3-9.38-5.06-15.88-10.02-24.08-4.78-7.91-11.32-21.07-16.43-27.81-5.6-7.37-7.45-.7-6.64,6.29.4,3.44,2.3,5.66,2.7,9.1.67,5.78-1.42,32.24,1.41,34.65,4.24,3.61,19.56-6.83,21.87,1.09,3.1,10.61-.22,12.77-10.89,12.27-4.53-.21-8.01-2.66-11.83-2.78-4.22-.13-7.82,1.94-13,1.32-2.03-.24-4.09-2.13-5.34-2.12-2.93.02-15.65,10.52-17.66.16-2.96-15.22,13-3.64,18.38-11.71,4.52-6.78,1.19-12.08,1.22-18.35.02-4.78,1.25-10.77,1.12-14.5-.24-6.76-3.11-12.31-2.42-21.01.41-5.11,3.95-11.35,4-13.11.24-7.73-31.13,3.11-19.14-12.52,11.36-.51,25.74-10.37,34.92-1.92,3.27,3.01,25.55,45.45,26.86,50.51s-.55,8.43-.02,13.18c15.81-2.67,8.33-11.98,7.15-21.62-.84-6.89.68-14.97-.13-22.17-.25-2.22-2.91-12.8-3.97-13.72-1.57-1.38-15.19,2.43-12.87-4.76,2.48-7.69,18.52.9,22.55.38,5.87-.75,12.3-7.44,14.84-7.71,4.31-.47,3.81,2.95,4.9,3.6Z"/>
  <path d="M187.35,324.92c1.14,1.76,4.5,3.52,5.47,6.96,1.15,4.08-.46,9.73,1.79,12.64,3.02,3.9,19.65,5.19,18.25,14-1.66,10.41-36.92,7.73-35-2.15.55-2.81,6.5-3.37,6.25-6.5-.34-4.25-12.2-10.62-6.16-20.96.92-1.57,6.72-4.54,4.98-6.15-1.16-1.07-4.19,2.82-7.09,2.65s-5.77-3.47-8.86-4.41c-4.83-1.46-21.76-4.22-24.82-.34-2.5,3.17-3.46,19.38-1.82,23.05,2.47,5.53,28.46,8.97,15.78,18.45-4.09,3.05-26.76,3.94-30.32,1.34-1.64-1.2-3.05-6.06-5.13-6.38-2.73-.42-3.58,4.62-6.59,5.06-9.41,1.38-12.98-9.41-2.28-14.17,5.35-2.38,9.6-.64,12.09-7.64,2.84-7.97-2.84-29.56-1.36-40.65.61-4.57,4.88-6.5,4.88-9.11,0-1.33-5.29-8.1-6.58-9.37-3.65-3.6-28.01-16.59-8.09-18.85,13.54-1.54,59-1.36,70.53,2.96,6.02,2.25,12.38,5.34,14.21,12.14.82,3.02-.29,4.92.12,7.51.49,3.11,2.8,4.5,2.46,9.53-.78,11.36-18.88,20.87-12.71,30.38ZM151.13,277.19c-13.38,1.96-16.27,10.61-11.22,22.33,1.97,4.57,3.14,5.6,8.23,6.2,13.13,1.54,39.25,1.51,37.52-17.75-.98-10.92-26.19-12.01-34.53-10.79Z"/>
  <path d="M681.3,4.06c-1.32,7.54-10.51,9.43-13.21,16.28-1.69,4.28-2.02,15.54.09,19.45s16.08,2,20.32,2.3c4.6.32,12.98,5.5,14.84-.93.48-1.67,1.6-14.57,1.32-16.44-1.66-11.14-14.88-4.37-15.55-12.22s10.14-5.16,14.85-6.12c2.27-.46,4.16-2.52,6.14-3.04,5.78-1.51,22.12-1.11,25.54,4.7,6.95,11.81-11.06,7.03-14.33,14.38-2.31,5.19-.4,20.06-2.19,25.35-.78,2.31-4.78,2.1-5.15,5.46-.51,4.7,4.26,4.18,5.14,6.75,2.52,7.32-4.08,23.08,5.07,27.72,3.79,1.92,13.36,1.32,14.68,6.42,1.9,7.33-16.29,12.31-20.86,9.58-.3-.18,3.02-4.07-3.32-4.03-2.97.02-2.38,4.18-5.45,5.11-2.32.71-12.98.85-14.29-.98-3.99-5.6,6.75-10.33,8.29-15.5,1.55-5.19,1.86-26.51-1.29-30.16-1.86-2.15-25.35-2.31-29.16-1.6-2.05.38-3.77,1.39-4.37,3.5s-1.52,12.55-1.62,15.43c-.95,26.85,8.42,9.88,14.56,14.37,1.98,1.44,1.99,10.38-.06,11.94-4.74,3.6-40.83,5.21-44.31.32-.93-1.31-1.12-9.33-.21-10.09.66-.55,12.42.3,13.1-2.21.84-3.13-.23-12.54-.07-16.88.27-7.39,1.25-14.77,1.37-22.25.1-6.06,1.07-27.34-.25-31.35-1.5-4.58-20.61,1.57-13.95-10.37,1.8-3.23,13.5-7.36,17.46-7.58,7.47-.4,18.05,5.14,26.84,2.69Z"/>
  <path d="M13.74,148.32l-13.12-1.31c-3.52-16.69,27.9-19.93,36.16-11.9,5.65,5.49,7.72,18.02,7.06,25.6-.18,2.1-2.27,4.38-2.21,5.33.11,1.63,4.63,3.29,4.95,6.59s-3.39,5.88-2.09,8.44c.74,1.45,3.4,2.8,4.5,4.79,1.54,2.78,1.78,8.96,4.08,10.37,3.06,1.87,7.48-.77,11.13-.76,13.06.03.43,15.13,2.54,22.38,1.85,6.36,11.27,4.03,11.27,1.94v-35.41c0-.65,8.97-8.65,9.58-8.91,1.87-.78,6.16.07,6.16.38v22.95c0,1.44-4.68,3.98-3.75,8.86,1.41,7.37,25.7,17.07,12.99,25.3l-76.82.62c-3.27.87-6.88-4.1-8.92-3.77-3.66.59-3.81,4.93-13.01,3.39-11.3-1.89,8.07-9.72,9.23-13.69,2.27-7.76-1.3-22.7.27-31.21.29-1.56.43-2.56,2.15-3.1,2.79-.88,14.19-1.79,15.58,1.15,1.77,3.75-2.51,20.99-.42,27.93.71,2.35,10.88,8.18,11.54,7.46-3.89-13.66-7.76-28.46-1.33-41.89-10.38-6.06-16.91-2.64-27.52-.07v-31.48Z"/>
  <path d="M601.19,10.53c.54-.39.71-4.66,2.71-5.85,1.64-.98,8.16-1.41,9.33.15,3.07,4.09-2.17,7.19-2.29,9.06-.26,3.97,8.44,19.92,1.37,25.43-1.54,1.2-12.8,5.99-13.62,5.39-1.72-1.26.41-10.97-.06-13.7-1.38-7.99-16-13.13-23.1-13.35-12.97-.4-28.23,11.3-15.59,23.17,10.22,9.6,23.92,2.64,35.15,5.51,2.36.6,18.75,8.94,20.69,10.79,4.25,4.05,6.73,9.61,4.93,15.52-.79,2.59-4.57,3.52-5.03,6.9-.61,4.49,3.58,5.65,2.06,9.67-4.25,11.23-23.41,15.9-34.07,15.87-6.92-.02-18-4.1-23.71-4.03s-10.45,6.69-16.87,2.52c-6.79-4.41-1.21-19.68-.79-26.74.25-4.33-4.79-18.12,6.61-14.53,7.2,2.26,6.78,12.36,11.78,18.43,10.2,12.4,30.45,13.31,42.03,2.75,6.29-5.74-.18-22.24-8.03-25-4.93-1.73-5.9,1.28-9.84,1.9-5.2.81-22.3-2.96-27.85-4.8-33.07-10.92-13.09-52.35,15.16-53.87,6.11-.33,27.25,10.13,29.06,8.81Z"/>
  <path d="M293.09,64.38c-11.5,2.6-34.59-8.29-44.61-3.29-4.14,2.06-4.69,18.65-3.33,23.03,2.73,8.83,25.26,5.82,18.46,17.02-2.61,4.3-27.92,5.07-32.56,3.65-4.44-1.35-2.27-9.07-7.22-5.99-.49.3-.58,2.8-2.37,3.42-4.3,1.5-11.22.83-11.92-4.57-1.33-10.27,17.8-9.56,20.01-16.13,2.93-8.69-4.44-30.92-2.13-42.64.3-1.51,3.41-.28,3.9-.8,1.86-1.95-4.4-15.47-6.41-17.66-4.8-5.22-18.44-3.54-13.78-13.72,2.83-6.2,15.14-5.51,20.86-5.16,11.12.66,22.8.43,34.26,1.15,11.43.72,34.46,4.08,37.12,18.07.58,3.05-1.02,5.32-.72,7.35.25,1.69,2.39,2.82,2.33,6.7-.18,11.18-11.99,15.62-13.01,20-.57,2.47,2,6.56,1.11,9.57ZM247.52,18.82c-4.08,3.85-5.82,19.31-1.71,23.99,4.33,4.93,28.46,3.98,34.54,1.62,7.01-2.72,5.66-5.81,8.98-10.69,1.95-2.88,8.83-4.06,2.93-8.53-7.58-5.75-38.28-12.48-44.74-6.39Z"/>
  <path d="M59.65,44.71c-1.61-1.64,4.52-13.33-2.55-20.05-.78-.75-12.46-5.86-13.93-6.09-12.2-1.93-29.89,2.68-24.9,18.35,3.76,11.8,28.74,8.23,39.05,10.77,9.07,2.23,25.94,10.31,26,21.28.04,7.57-9.01,7.15-6.47,14.29,1.16,3.27,7.31-.15.52,8.69-7.34,9.56-19.68,13.14-31.44,13.14-7.26,0-18.77-4.16-25.03-4.02-4.83.11-11.83,6.3-17.37,2.38-2.19-1.55-2.13-28.9-1.62-33.19,1.15-9.74,10.86-11.71,14.76-2.91,2.1,4.74.98,8.04,4.95,13.41,10,13.54,30.88,12.4,43.21,2.59,3.9-3.1,1.45-13.63-.69-17.57-5.59-10.32-17-4.64-25.81-5.67-7.81-.91-24.95-4.74-30.37-10.28C.41,42.11-.36,35.53,3.41,25.86,10.7,7.2,25.6-.39,44.9,5.02c4.49,1.26,14.17,6.98,17.37,4.96,2.61-1.64,2.97-8.97,10.48-5.28,5.81,2.85-.19,6.95-.03,10.37.33,6.84,8.39,15.44,1.37,23.75-1.92,2.28-12.54,7.83-14.44,5.88Z"/>
  <path d="M398,262.43l-3.24,15.76c-.84,1.44-5.35,2.76-7.19,3.32-4.43,1.35-7.75-1.42-6.62,4.51,2.92.45,15.05-1.42,15.75,2,.35,1.69-9.27,19.09-17.12,11.83-8.76-8.1,1.75-19.59-16.46-21.55-15.82-1.7-22.54,4.77-28.31,18.62-.65,1.55-4.65,12.92-4.75,13.63-.23,1.6,2.08,3.09,2.33,5.03,1.27,9.93.73,15.33,7.35,24.12,7.25,9.64,22.43,15.13,31.64,4.94,1.22-1.35,5.35-13.21,5.46-14.95.28-4.24-17.07-5.35-16.25-13.64,1.29-13.15,25.8-3.04,32.83-2.46,5.67.47,18.35-4.66,19.07,3.32.69,7.65-12.07,6.99-15.8,9.12-4.49,2.57-2.11,31.74-5.14,36.5-4.67,7.35-12.8-3.21-16.5-3.19-4.07.02-10.59,5.71-19.69,5.46-19.4-.53-37.78-17.97-38.74-37.5-.41-8.33,6.11-7.31,6.63-13.08.34-3.82-4.2-.68-6.01-3.17-4.57-6.28,5.72-11.04,6.81-14.48,1.27-4.01-1.9-5.44-1.8-8.33.61-18.7,28.86-28.78,44.63-25.51,4.64.96,9.41,6.84,14.7,6.28,3.64-.39,9.16-9.86,16.42-6.57Z"/>
  <path d="M923.55,268.57c1.99-1.69,1.97-5.02,6.58-5.93,9.83-1.95,3.06,8.75,3.19,13.59.2,7.24,8.83,23.61-5.13,25.26-10.57,1.25-3.01-15.56-16.63-20.81-11.35-4.38-28.44-4.36-33.9,8.34-2.7,6.28,2.13,10.55,7.53,12.78,15.19,6.28,36.13,2.69,49.88,13.07,4.01,3.03,9.52,10.27,9.59,15.34.06,4.62-12.33,10.5-8.13,13.61,1.21.9,6.4,1.25,5.7,4.4-.16.69-7.94,8.34-9.24,9.15-9.7,6.09-30.05,7.73-41.13,5.95-3.99-.64-7.08-4.77-9.48-4.99-2.92-.28-5.07,5.32-7.93,6.15-3.17.92-8.83-.81-10.21-3.71-1.43-3.02-1.18-34.42.55-37.16,2.02-3.19,8.71-2.89,11.37.32,3.55,4.28,1.62,14.55,9.05,21.11,7.7,6.8,42.02,6.51,42.76-5.9.22-3.7-4.62-17.04-7.58-18.79-5.11-3.01-19.84-1.12-26.93-1.92-3.44-.39-8.44-1.59-11.79-2.63-38.02-11.81-14.84-58.73,20.53-53.31,6.66,1.02,16.08,10.53,21.35,6.06Z"/>
  <path d="M320.46,212.39c1.53-2.61-7.08-13.14-1-20.01,2.67-3.01,11.48-5.2,13.64-.78,1.54,3.16,1.17,37.26-.75,39.91-1.74,2.4-10.26,3.18-13.63,3.42-9.54.69-34.74,1.08-42.99-1.7-2.17-.73-3.24-3.55-5.55-3.6-3.76-.08-18.48,3.65-24.9,3.98-8.21.43-11.39-.23-10.75-9.71.9-13.34,20.18.02,27.14-6.95l-2.41-45.69c.18-3.85,2.33-8.05,2.34-11.8.05-18.1-20.23-7-27.2-12.77-6.25-5.18,4.32-11.81,9.86-12.55,4.04-.54,6.73,1.38,10.03,1.07,16.01-1.52,26.05-.99,42.07-1.32,4.64-.09,12.15-4.1,11.17,5.78-1.3,12.97-25.01,4.75-27.29,10.87-5.41,14.51.8,44.99-1.53,61.36,1.95,4.64,7.34,9.72,12.45,9.94,4.12.18,27.62-6.55,29.32-9.45Z"/>
  <path d="M848.85,320.45c2.95,2.54,3.03,39.22-2.28,42.32-1.29.75-10.12,1.84-12.42,2-15.31,1.1-32.47.97-46.54-3.39-10.19-3.16-38.66,10.88-39.39-6.65-.55-13.27,26-.03,28.7-7.91l-1.18-67.36c-4.84-.54-23.94-.39-26.78-2.47-1.29-.94-1.22-6.71-.55-7.81.29-.48,9.18-5.01,9.89-5.17,5.45-1.26,9.29,1.38,12.79,1.01,1.9-.2,3.57-2.25,6.54-2.67,11.85-1.67,29.21,3.66,42,1.42,4.34,1.27,5.4,3.01,3.14,6.97-6.06,10.62-26.38,4.88-28.46,10.92-1.52,4.41-2.61,20.39-2.89,25.96-.37,7.31-1.03,29.99,1.27,35.56,4.25,10.3,31.81,7.64,39.39,2.47,6.73-4.59-1.29-14.83,2.84-22.09,2.56-4.5,10.24-6.29,13.94-3.1Z"/>
  <path d="M738.89,351.72c2.12,3.04-4.57,10.59-7.36,11.42-2.36.7-26.25.76-28.37.05-2.58-.87-3.93-5.79-3.57-8.22.23-1.58,7.91-.76,9.1-4.21.88-2.55-1-11.5-2.77-13.27-3.23-3.22-29.87-2.04-34.35,1.1-10.33,7.25,14.26,18.21,5.5,24.54-3.63,2.62-36.86,2.26-39.72-1.01-1.95-2.23-2.45-8.38-.01-10.54,1.81-1.61,7.21-1.66,10.78-3.64,8.24-4.56,11.55-25.27,15.12-34.71,6.37-16.84,13.56-33.56,20.76-50.07,14.03-7.03,17.83,11.41,21.54,21.59,7.26,19.94,12.17,41.1,20.63,60.69.9,3.7,12.07,5.36,12.72,6.29ZM691.58,295.44c-5.4-3.26-9.64,9.81-10.91,14.23-6.47,22.57,1.37,18.18,16.45,9.67.67-2.45-4.17-23.06-5.55-23.9Z"/>
  <path d="M169.51,90.34c2.63-4.5-2.38-11.47-6.6-13.17-5.46-2.2-21.78-1.58-27.1,1.08-.55.28-6.65,4.94-6.75,5.36-1.41,6.44,6.87,7.11,8.59,10.95.76,1.71,1.33,8.07.52,9.03-1.72,2.04-36.37,2.32-39.63.25-2.86-1.82-2.63-8.36-.25-10.64,2.46-2.35,8.91-.62,12.42-3.31,6.04-4.61,6.89-17.25,9.18-23.61,5.33-14.84,12.22-28.95,18.1-43.54,5.2-12.88,7.18-34.73,22.85-11.7l27.44,77.48c3.36,4.19,18.77,1.14,10.37,10.63-8.68,9.81-17.69,5.35-28.34,3.4-2.53-.46-10.38.89-11.01-2.12-.7-3.35,9.53-8.95,10.19-10.08ZM139.64,65.7c3.19,3.2,18.56-5.57,19.42-10.02.42-2.14-5.22-19.53-8.42-20.08-6.98-1.2-12.36,28.73-11,30.1Z"/>
  <path d="M123.25,233.57c-.63-.17-4.13-3.91-4.4-4.87-2.18-7.75,9.2-7,14.17-10.28,11.72-7.71,9.1-17.62,12.51-28.14,5.6-17.28,13.9-33.97,19.64-51.18,3.65-10.95,14.41-10.44,18.9-.45l25.26,74.42c3.62,6.63,9.84,6.55,15.22,9.71.78.46,2.66.24,1.65,2.25-.31.63-9.93,8.27-11.17,8.51-3.01.58-29.71-.2-30.8-1.28-.47-.47.02-5.23.66-6.56,1.2-2.51,9.55-5.56,9.69-7.18.05-.58-4.62-10.16-5.01-10.6-2.51-2.88-20.96-2.34-25.54-1.77-4.16.52-9.89,2.05-9.76,7.07.2,8.11,10.9,10.43,7.68,20.37-10.09-1.81-29.91,2.43-38.69,0ZM174.9,164.21c-.59-.38-3.03-.37-3.63,0-1.3.82-9.59,27.4-9.37,29.36.92,8.23,20.92-4.73,21.47-6.25.81-2.23-7.43-22.45-8.47-23.11Z"/>
  <path d="M76.23,276c32.01,31.36,8.91,95.97-39.41,87.28-22.57-4.06-41.19-27.89-35.91-51.39,1.2-5.36,6.84-6.21,7.49-8.35.6-1.99-2.94-6.9-2.6-11.59.99-13.89,23.54-28.14,36.14-29.53,13.35-1.47,24.97,4.43,34.3,13.58ZM39.6,275.84c-11.66,2.4-20.82,19.47-21.92,30.53-1.45,14.57-.96,31.11,13.72,38.72,2.19,1.13,23.21,7.48,24.45,7.2,2.04-.46,7.6-6.01,9.03-7.9,9.4-12.45,11.8-35.84,5.5-50.08-4.41-9.98-19.63-20.76-30.78-18.47Z"/>
  <path d="M439.32,279.47c-8.44-1.5-20.1-15-4.86-15.49,4.61-.15,4.21,3,6.85,4.33,6.28,3.17,5.08-2.48,8.4-4.67,5.44-3.59,24.48-.15,31.57.21,5.92.3,21.23-3.95,21.77,5.79.8,14.41-25.55,4.77-27.48,10.67l-.23,65.33c1.58,14.49,10.94,2.43,17.85,2.12,1.57-.07,9.27,1.69,10.29,2.38,2.1,1.42,1.69,11.08-2.85,12.93-7.36,3-48.6,2.4-58.74,1.71-6.18-.42-21.63-2.79-12.33-11.14,8.52-7.65,18.89-2.27,25.86-5.61,4.05-1.94,3.29-7.25,4.44-8.03,1.06-.71,11.46-.47,11.57-3.48.1-2.62-9.67-1.57-12.22-3.17-4.37-2.74-1.56-18.91-.21-23.71.58-2.08,3.63-5.63,3.24-7.15-.37-1.43-3.54-1.42-3.92-2.96-1.62-6.64.72-13.52,1.33-20.06-6.18-.76-14.48,1.04-20.33,0Z"/>
  <path d="M240.29,264.09c1.23,1.26.13,5.33,4.95,5.69,4.09.3,3.53-4.36,5.17-6.07,3.47-3.62,26.56-.08,32.86.13s16.34-4.63,19.67,5.23c3.59,10.63-25.01,10.18-30.83,10.42l3.96,4.54-1.08,64.04c5.93,8.07,15.29-.56,25.23,1.01,12.68,2.01.98,15.01-7.74,15.7-14.41,1.14-39.49,1.17-53.88,0-17.11-1.4-9.68-13.2,1.66-15.49,3.58-.72,13.23.44,14.61-.46.86-.56.72-5.27,2.82-7.02,2.66-2.22,11.62-2.43,14.39-6.59-5.4-4.99-14.22,2.77-15.52-5.57-.24-1.52.84-14.49,1.18-16.64.58-3.7,4.27-7.03,3.9-10.52-.37-3.59-5.96-5.05-5.28-11.72.26-2.54,3.96-8.29,3.87-9.33-.35-4.12-25.6.89-29.45-7.19-4.28-8.96,4.99-14.76,9.5-10.14Z"/>
  <path d="M356.7,148.32c-6.1-1.21-13.34-10.41-3.65-12.82,10.8-2.69,7.44,2.66,8.32,3.51,4.46,4.28,11.56-7.46,14.9-7.63,1.91-.1,4.94,1.31,7.91,1.28,2.66-.03,11.18-1.32,11.76-1.18,1.93.47,2.26,4.4,4.17,4.88,2.26.58,8.03-3.88,11.68-3.87.95,0,10.69,3,11.17,3.34,3.08,2.23,1.12,12.49-4.61,12.49h-21.64l1.31,73.45c1.87,1.94,19.77-7.78,27.27-1.01,2.34,2.11-.65,11.1-2.72,12.44-3.91,2.55-50.1,2.24-58.06,1.74-4.32-.27-16.12-.59-16.29-5.93-.34-10.63,21.06-7.49,27.43-10.6,4.62-2.25,3.52-7.96,5.24-9.19s14.43-.86,14.48-3.85c.06-3.66-16.19-1.13-17.03-1.96-.62-.62-.13-15.18.15-17.57.46-3.89,3.87-10.88,3.75-13.32s-3.5-3.43-3.98-7.75c-.72-6.45,3.43-10.24,2.72-16.44-7.18-.97-17.57,1.33-24.26,0Z"/>
  <path d="M524.57,90.61c.51-.03,2.36-2.01,3.27-1.32,3.81,2.91-2.58,15.04-7.23,15.72-18.73-1.5-40.68,2.11-58.99.02-4.19-.48-10.1-1.69-9.61-6.86,1.09-11.54,18.09-3.31,25.99-8.24,2.77-1.73,1.89-6.55,3.3-8.5s8.31-2.25,9.82-5.93c0-3.93-8.72-2.61-8.51.67-2.98-1.3-2.32-19.13-1.9-22.88.3-2.67,2.51-4.78,2.66-7.96.24-5.05-3.79-8.75-3.84-13.07-.03-3.43,3.93-9.72,1.87-12.56-2.9-4-27.73,3.14-28.93-7.62-.65-5.85,5.43-8.48,10.36-8.07.86.07,3.51,7.31,6.64,6.59,1.63-.38,2.84-5.59,4.66-7.17,4.98-4.34,10.78.24,16.37.59,6.72.42,34.04-2.14,35.88,4.88.34,1.32-.82,7.69-1.28,8.09-2.02,1.74-24.47-2.86-27.14,6.35,1.12,12.13,1.26,24.29,1.13,36.49-.04,4.05-3.67,30.76.58,30.76,8.12,0,16.92.5,24.92,0Z"/>
  <path d="M102.74,135.38c1.08,1.73,0,7.58-1.26,9.53-2.26,3.52-7.96,2.73-8.93,5.56-1.41,4.14,3.95,12.76-.02,18.27-2.75,3.82-16.28,6.22-16.97,7.3-1.19,1.88.82,8.32-.35,10.14-.78,1.21-13.45,3.78-15.65,2.22-3.05-2.16,1.39-20.08,2.29-24.11,2.49-11.08,7.07-29.53,20.82-31.66,2.55-.39,19.28,1.49,20.06,2.74Z"/>
  <path d="M315.04,103.38c-3.02,2.44-28.19,2.46-29.63.16-1.7-2.71,1.13-10.01.84-13.28-.51-5.77-7.39-13.22-4.97-20.63,5.15,1.36,11.78-3.11,15.18,1.21,2.98,3.79,1.21,6.65,2.45,10.68,2.98,9.69,16.73,9.05,18.52,11.66,1.46,2.12-.79,8.9-2.4,10.2Z"/>
</svg>