<?xml version="1.0" encoding="UTF-8"?>
<svg id="Layer_1" data-name="Layer 1" xmlns="http://www.w3.org/2000/svg" viewBox="0 0 1000 1000">
  <path d="M235.77,777.9c-.48,1.92-2.64,1.65-3.01-.99-2.04-14.38.96-34.92.65-49.85-.06-2.81-2.66-6.91-.75-9.23,2.2-2.67,7.14-1.1,8.99,1.17,7.06,14.38,14.04,28.79,20.67,43.38.58,1.28-.19,2.37,1.96,2.03,1.87-.29,1.89-.9,2.7-2.31,7.09-12.42,11.89-30.12,19.95-42.05,2.88-4.26,7.7-6.05,9.37-.2-.35,13.65-1.37,28.48-.59,42.08.26,4.41,1.08,13.27,3.19,16.81,1.07,1.79,3.04,2.78,3.85,4.64-6.45.56-12.23-3.54-13.56-9.93-2.68-12.86-.43-26.79-1.4-39.6-.4-5.24-1.92-5.78-4.09-1.01-6.39,14-12.6,28.15-18.74,42.26-1.85,3.59-3.43,2.98-5.41,0-6.83-10.28-12.01-27.91-18.42-39.58-1.35-2.46-2.85-5.83-5.38-7.12v49.5Z"/>
  <path d="M127.81,741.86c-.85-10.28-9.99-20.52-19.83-23.17-7.17-1.94-21.64-2.11-29.7-2.36-4.02-.13-7.52,1.44-11.51,1.08,3.17,3.5,6.19,2.79,7,8.49v52c0,3.51,16.29,2.74,19.49,2.49,24.11-1.81,36.59-13.84,34.55-38.53ZM106.07,773.21c-1.1.62-6.19,3.19-6.8,3.19h-15l-1.5-1.5v-53l1.5-1.5h17c5.93,0,14.82,12.32,16.22,17.77,3.3,12.81.79,28.09-11.42,35.04Z"/>
  <path d="M909.03,717.64c-6.94-1.1-21.36-.93-28.94-.88-2.62.02-5.49,1.17-8.32.65,1.59,2.98,5.29,1.5,5.97,5.52,2.9,17.22-.83,36.17.98,53.02.34,3.17,1.29,4.15,4.5,4.5,7.85.84,23.42-.58,30.82-3.27,27.5-10.03,25.09-54.79-5.01-59.54ZM916.3,769.44c-7.36,7.61-18.76,7.9-28.53,6.96v-54.5l1.5-1.5h16c5.5,0,13.98,9.15,15.99,14,4.19,10.15,2.92,26.89-4.96,35.04Z"/>
  <path d="M480.26,717.41c-6.13-.61-16.82-1.1-22.99-1.1-3.56,0-6.9,1.57-10.5,1.1,1.11,2.93,5.68,2.17,6,5.48.89,16.68-1.2,34.53-.05,51.05.11,1.53.2,4.15,1.28,5.23,2.73,2.73,23.13.76,27.82-.21,35.78-7.41,34.28-58.04-1.56-61.55ZM478.81,775.95c-2.73.75-17.04,2.72-17.04-1.05v-53c.13-.46,1.63-1.46,2.25-1.74,2.3-1.07,12.12-.16,15.17.32,23.42,3.71,27.18,47.88-.38,55.47Z"/>
  <path d="M802.74,723.92c-7.35-9.08-17.12-9.61-28.19-8.24-25.71,3.18-31.09,44.78-11.7,60.13,9.38,7.43,26.77,7.48,35.94.12,15.14-12.15,15.87-37.3,3.95-52.01ZM784.28,777.4c-22.5,2.25-25.03-19-23.5-36.49.98-11.29,6.64-21.76,18.75-23.33,4.69-.61,13.27,3.7,16.25,7.3,11.15,13.48,9.81,50.39-11.5,52.52Z"/>
  <path d="M369.71,736.96c-4.74-17.22-16.98-23.46-34.16-21.28-32.83,4.15-31.83,62.14.81,65.61,25.94,2.76,39.76-21.03,33.35-44.33ZM357.6,768.74c-8.95,13.4-29.03,11.82-34.88-3.79-5.55-14.8-3.43-45.34,16.77-47.34,4.78-.47,13.22,3.55,16.29,7.27,8.46,10.23,9.19,32.82,1.82,43.86Z"/>
  <path d="M616.87,747.73c-.14-1.8,2.94-2.88,4.42-4.3,6.42-6.14,13.42-12.98,7.31-22.36-5.86-8.98-25.83-7.4-30.08,2.59-3.67,8.63,3.21,20.33,9.23,26.24-7.94,4.45-16.83,11.19-13.54,21.56,1.48,4.66,9.42,9.36,14.17,9.84,2.74.28,14.17-.44,16.87-.92,1.59-.28,3.01-1.43,3.52-2.97-8.66.65-23.4,4.55-26.53-6.98-1.49-5.46-.47-9.77,3-14.05,4.51-5.55,6.22-3.83,11.07.98,6.32,6.27,15.25,21.97,24.03,23.03,1.87.22,3.26.17,4.42-1.5-7.21-12.23-19.72-19.61-27.89-31.16ZM606.74,732.93c-.65-5.46-.7-13.6,5.78-15.32,10.44-2.79,13.96,15.63,5.76,22.8-5.3,4.64-10.91-2.24-11.54-7.48Z"/>
  <path d="M740.76,747.4c-.68,3.14-3.11,4.1-3.76,7.73-1.61,8.97,3.82,19.21-6.33,23.67-5.13,2.25-18.53,2.14-24.44,1.64-25.56-2.14-34.29-41.35-15.96-58.04,8.53-7.76,24.9-9.16,35.49-5.5,4.69,1.62,12.77,9.93,12,14.98s-5.51-4.41-6-4.99c-8.38-9.95-21.77-12.53-32.5-4.5-15.55,11.64-13.92,52.36,8.11,54.89,4.71.54,20.36,1.59,21.37-4.41,1.69-10.01-4.64-25.04,12.02-25.48Z"/>
  <path d="M528.07,736.1c4.01,4.7,18.67,10.26,24.63,14.86,15.05,11.64,5.12,29.99-12.42,30.5-12.53.37-25.54-5.46-22.5-20.07,4.52,2.45,3.93,8.37,7.45,12.04,8.61,9.01,34.31,3.71,25.75-11.75-6.25-11.3-35.56-13.69-33.12-32.71,1.84-14.32,19.88-15.95,30.92-12.08,6.65,2.33,11.97,9.84,7.5,16.48-3.85-7.77-7.79-14.25-17.25-15.76-10.38-1.67-18.65,9.45-10.95,18.48Z"/>
  <path d="M223.76,778.42c-.14-.19-2.57-.86-4.04-2.47-8.64-9.47-16.94-38.74-23.1-51.91-1.41-3.01-2.8-7.27-6.83-6.63l-26.02,61.99c4.25,4.3,10.4-16.94,11.22-17.77,1.75-1.77,22.83-1.77,25.83-.79,4.4,1.44,6.08,11.93,10.43,15.57,2.66,2.22,8.61,4.44,12.01,4,.85.11.63-1.81.5-1.99ZM199.83,754.89c-.08.88-.96,2.51-1.56,2.51-3.85,0-15.42.79-18,0-.81-.24-1.47-1.57-1.55-2.49-.23-2.78,7.6-19.11,9.56-22.53.63-1.1-.1-2.44,1.98-1.99,1.41,5.1,9.9,20.37,9.57,24.5Z"/>
  <path d="M433.76,778.39c-1.28,1.31-4.14-1.61-5.03-2.47-11.63-11.17-21.07-27.88-32.45-39.55-2.71-2.78-6.56-4.51-8.01-5.99-1.93-1.98-1.08-6-2.6-8.4-1.44-2.27-4.91-2.01-5.91-4.58,2.97.23,6.39-.52,9.26.23,6.62,1.73,28.63,32.79,35.22,39.78,7.95,8.43,6.71,5.4,6.57-4.56-.11-7.58.23-15.24,0-23-.11-3.76-2.01-7.87-.91-11.83.33-1.2,1.55-2.17,2.38-.64l1.48,61.01Z"/>
  <path d="M868.77,777.4c-1.63,2.47-8.48,2.85-11.46,3.04-4.56.29-28.25.78-30.09-2-.43-.66-1.07-13.5-1.09-15.71-.08-8.01,2.67-34.84-.91-40.28-.67-1.01-8.16-5.31-3.94-6.05.57-.1,10.67,1.65,11.25,2.24.44.44.6,1.1.79,1.68l.43,53.6c-.46,1.83,4.43,3.49,5.51,3.49h29.5Z"/>
  <path d="M142.77,717.9c.84-2.75,7.18-1.28,7.91,1.17.54,1.82-.92,3.79-.83,5.73.42,8.63-.15,46.06,1.68,50.35,1.2,2.81,7.47,6.44-1.16,5.16-3.25-.48-7.59-2.73-7.59-6.41v-56Z"/>
  <path d="M389.77,733.4v45c-5.38-.27-2-4.7-2-6.5v-38.5h2Z"/>
  <path d="M646.76,757.4c.75.75-5.97,10.62-7.99,11-.76-2.21,6.37-12.62,7.99-11Z"/>
  <path d="M229.63,398.04c-.76-2.32-3.92-1.6-5.86-1.64v16h-15.5l-1.5-1.5v-14.5h-41.51c-2.83.22-2.66,2.6-2.49,5,.52.52,14-4.61,14-.5v32.5c1.86.05,4.18.45,4.86-1.64,1.63-5.04-.55-20.13.13-26.86.26-2.51.65-5.97,3.49-6.51,2.61-.5,17.52-.72,17.52,2.51v32.5h4.99c-.81-2.62-2.27-18,.51-18h15.5c2.49,6.15-2.79,20.39,7.01,18.49-2.24-11.73-.32-23.95-1.15-35.85ZM266.76,429.4c-2.75.93-18.99,5.12-18.99.5v-14.5c4.37-.64,10.4,1.59,13.99-1.51.47-2.42-1.95-1.43-3.49-1.49-9.14-.35-11.86,2.16-10.55-9.55.6-5.41,4.97-4.82,9.54-4.44,3.77.32,6.16,1.8,9.5,2.99v-5s-23.99,0-23.99,0v28.5c0,.38,1.28,7.19,1.47,7.52,1.96,3.45,17.65,2.24,21.27.23,1.94-1.08,1.33-.93,1.25-3.25ZM330.27,404.39c-1.11-2.44-6.72-7.99-9-7.99h-21c-3.13,2.15.02,3.16.47,5.53.93,4.84-.34,12.63-.02,18.01.73,12.01,1.55,16.57,15.31,14.22,13.52-2.3,19.69-17.79,14.24-29.77ZM326.71,418.84c-1.41,9.04-18.4,19.06-19.95,10.07-.83-4.79-.53-11.96-.99-17.01,1.77-3.07-.37-12.37,2.63-13.36,2.74-.9,10.19.46,12.75,1.98,5.67,3.34,6.46,12.46,5.56,18.32ZM346.77,427.9c-1.07-8.85,0-21.63,0-31,0-1.94-4.2-1.81-4.77,1.12-.21,1.05.8,3.2.81,4.83.03,5.06-1.04,28.04,1.19,30.31.97.99,3.36,1.3,4.76,1.23.68-.64-1.86-5.39-1.99-6.49ZM383.89,422.78c-2.44-4.98-7.24-20.93-10.08-23.92-1.04-1.1-1.91-1.75-3.52-1.46l-14.52,34.99c1.91,1.92,8.6-8.89,9.19-10.29,1.98-4.76,1.87-10.41,3.55-15.48.28-.87-.08-3.13,1.74-2.21,3.47,1.74,8.29,31.5,20.51,29.99l-6.87-11.62ZM433.77,423.9c-.89-7.49,0-18.09,0-26,0-1.7-5.03-2.27-6.06-.06l-11.44,27.56c-1.17-.91-1.92-2.07-2.7-3.3-2.27-3.58-10.8-24.74-11.96-25.54-.92-.64-3.51.04-4.85-.16l-1.99,35.99c2.44,2.59,4-7.6,4.03-8.54.1-3.14-1.12-5.81-1.12-8.95-.01-1.29.74-10.1,1.09-10.5,2.02-2.3,5.64,9.32,6.14,10.36,1.04,2.2,7.49,16.36,8.39,16.62,1.44.43,2.72-.22,3.37-1.58l10.11-24.39c1.37.09,1.77,4.54,1.87,5.61.46,5.16-1.36,24.67,5.77,25.26,4.83.4-.35-9.83-.65-12.38ZM459.54,394.63c-7.65.89-12.49,4.75-15.01,12.04-3.4,9.85,2.26,24.49,12.27,28.19,6.93,2.56,16.72-3.89,19.46-10.46,5.46-13.08.11-31.73-16.72-29.77ZM463.58,431.74c-10.34,3.01-16.53-12.07-15.39-20.39,1.29-9.31,11.53-19.11,20.24-10.62,7.74,7.54,7.06,27.53-4.85,31.01ZM516.76,396.39h-2.99c-.08,8.71.61,17.51-1.5,26.01l-20.81-25.69c-8.64-3.84-3.19,2.69-2.66,7.16.52,4.42-1.03,28.44-.03,29.53.53.57,2.76-.69,3-1.5,1.63-5.69-1.21-18.9,0-25.5,1.98-.23,3.33,1.69,4.51,2.99,4.28,4.74,8.05,11.58,12.51,16.49,1.94,2.14,5.93,7.58,8.98,6.01-4.89-11.02.54-23.7-1.01-35.5ZM544.26,396.41c-5.82-.48-11.51,1.28-17.49,0-.39,1.13.95,2.08,1,2.49.84,7.24,0,17.37,0,25,0,.35,1.02,6.2,1.19,6.8.9,3.2,10.07,3.94,13.05,3.49,22.76-3.44,24.98-35.9,2.25-37.78ZM535.42,431.24c-4.93-1.6-2.03-18.12-1.66-22.34.23-2.65-1.09-9.58,1.64-10.43.51-.16,8.56.89,9.63,1.16,16.32,4.22,9.37,37.76-9.61,31.61ZM613.27,396.4c-3.97-.71-10.53.14-15,0-2.39-.07-4.9-2.37-6.44.62,1.21,10.24,2.22,20.59,1.99,30.93-.04,1.61-1.1,4.13-.95,4.87.46,2.19,4.34,2.03,4.9.08.7-2.46,0-11.55,0-15,0-.18.9-3.36,1.01-3.5.34-.46,9.1,3.16,10.98-.51.47-2.42-1.94-1.43-3.48-1.49-5.65-.22-7.88,2.06-8.52-4.48-1.38-14.11,4.85-9.35,14.78-7.79,5.56.88,3.8-3.19.73-3.73ZM634.63,400.04c-1.22-2.47-3.27-2.95-5.86-2.64l-.47,6.04-12.53,28.96c9.27-5.64,8.93-17.78,12.54-26,.36-.84.25-2.8,1.94-1.99,2.7,1.28,4.07,11.48,5.33,14.68,1.14,2.94,10.32,18.98,14.18,15.31,1.36-1.3-15.13-29.55-15.13-34.36ZM681.3,397.37c-12.19-8.81-27.48,1.73-28.47,15.67-.68,9.44,8.4,22.75,18.4,22.42,4.54-.15,13.23-4.41,12.53-10.06-14.86,18.37-32.32-2.96-23.17-20.68,7.07-13.69,14.99-7.37,23.68-.32,1.56,1.26,2.52.08,2.48-.5-.03-.42-4.89-6.13-5.45-6.53ZM720.76,396.4c-6.2-.67-12.46.54-18.49.82-1.72.08-3.54-1.1-5.92-.82-2.58.3-7.22,3.69-8.58,5.99,4.02-.47,9.94-3.65,13.72-3.82.95-.05,2.07.59,2.28,1.33v32c0,1.88,5,1.88,5,0v-31c0-3.17,8.38-2.4,10.52-2.5,1.65-.07,2.74-.9,1.47-2ZM739.5,394.64c-19.32,3.15-20.05,29.31-5.07,38.59,7.63,4.73,16.55.33,20.75-6.92,7.19-12.39,2.04-34.56-15.68-31.67ZM749.31,428.45c-7.57,8.09-16.76,2.04-19.1-6.99-2.09-8.06-1.18-15.62,4.89-21.72.9-.91,2.96-2.07,4.21-2.29,14.58-2.47,18.73,21.67,10,31ZM795.76,432.91c-.67-1.56-5.85-5.4-7.43-7.57-9.37-12.89,3.03-9.65,4.26-19.71.48-3.84-4.74-8.61-8.32-9.23-3.81-.66-10.72,0-15,0-2.53,0-.5,5.87-.46,7.46.12,4.51-.83,26.72.4,28.6.87,1.34,3.14.92,4.55.94.76-3.08-3.25-17.21.59-17.9.5-.09,3.71.8,4.16,1.16.71.58,5.68,9.44,7.74,11.75,1.02,1.15,3.97,4.43,4.96,5.04,1.45.89,5.63,2,4.55-.54ZM775.45,413.21c-2.77-1.02-2.44-14.13-.06-14.74,1.81-.46,10.52,2.49,11.22,4.58,2.55,7.71-3.94,12.81-11.16,10.16ZM832.76,393.4c-5.85,4.66-10.77,11.67-14.41,18.12-1.17,2.06-.34,5.61-4.03.82-4.77-6.18-6.04-18.04-16.55-15.94l8.41,10.09c5.79,8.22,8.14,16.8,7.59,26.91h3.99c-4.42-16.52,5.86-24,13.4-36.1.78-1.25,1.93-2.21,1.6-3.9ZM832.76,393.4c-5.85,4.66-10.77,11.67-14.41,18.12-1.17,2.06-.34,5.61-4.03.82-4.77-6.18-6.04-18.04-16.55-15.94l8.41,10.09c5.79,8.22,8.14,16.8,7.59,26.91h3.99c-4.42-16.52,5.86-24,13.4-36.1.78-1.25,1.93-2.21,1.6-3.9ZM795.76,432.91c-.67-1.56-5.85-5.4-7.43-7.57-9.37-12.89,3.03-9.65,4.26-19.71.48-3.84-4.74-8.61-8.32-9.23-3.81-.66-10.72,0-15,0-2.53,0-.5,5.87-.46,7.46.12,4.51-.83,26.72.4,28.6.87,1.34,3.14.92,4.55.94.76-3.08-3.25-17.21.59-17.9.5-.09,3.71.8,4.16,1.16.71.58,5.68,9.44,7.74,11.75,1.02,1.15,3.97,4.43,4.96,5.04,1.45.89,5.63,2,4.55-.54ZM775.45,413.21c-2.77-1.02-2.44-14.13-.06-14.74,1.81-.46,10.52,2.49,11.22,4.58,2.55,7.71-3.94,12.81-11.16,10.16ZM739.5,394.64c-19.32,3.15-20.05,29.31-5.07,38.59,7.63,4.73,16.55.33,20.75-6.92,7.19-12.39,2.04-34.56-15.68-31.67ZM749.31,428.45c-7.57,8.09-16.76,2.04-19.1-6.99-2.09-8.06-1.18-15.62,4.89-21.72.9-.91,2.96-2.07,4.21-2.29,14.58-2.47,18.73,21.67,10,31ZM720.76,396.4c-6.2-.67-12.46.54-18.49.82-1.72.08-3.54-1.1-5.92-.82-2.58.3-7.22,3.69-8.58,5.99,4.02-.47,9.94-3.65,13.72-3.82.95-.05,2.07.59,2.28,1.33v32c0,1.88,5,1.88,5,0v-31c0-3.17,8.38-2.4,10.52-2.5,1.65-.07,2.74-.9,1.47-2ZM681.3,397.37c-12.19-8.81-27.48,1.73-28.47,15.67-.68,9.44,8.4,22.75,18.4,22.42,4.54-.15,13.23-4.41,12.53-10.06-14.86,18.37-32.32-2.96-23.17-20.68,7.07-13.69,14.99-7.37,23.68-.32,1.56,1.26,2.52.08,2.48-.5-.03-.42-4.89-6.13-5.45-6.53ZM634.63,400.04c-1.22-2.47-3.27-2.95-5.86-2.64l-.47,6.04-12.53,28.96c9.27-5.64,8.93-17.78,12.54-26,.36-.84.25-2.8,1.94-1.99,2.7,1.28,4.07,11.48,5.33,14.68,1.14,2.94,10.32,18.98,14.18,15.31,1.36-1.3-15.13-29.55-15.13-34.36ZM613.27,396.4c-3.97-.71-10.53.14-15,0-2.39-.07-4.9-2.37-6.44.62,1.21,10.24,2.22,20.59,1.99,30.93-.04,1.61-1.1,4.13-.95,4.87.46,2.19,4.34,2.03,4.9.08.7-2.46,0-11.55,0-15,0-.18.9-3.36,1.01-3.5.34-.46,9.1,3.16,10.98-.51.47-2.42-1.94-1.43-3.48-1.49-5.65-.22-7.88,2.06-8.52-4.48-1.38-14.11,4.85-9.35,14.78-7.79,5.56.88,3.8-3.19.73-3.73ZM544.26,396.41c-5.82-.48-11.51,1.28-17.49,0-.39,1.13.95,2.08,1,2.49.84,7.24,0,17.37,0,25,0,.35,1.02,6.2,1.19,6.8.9,3.2,10.07,3.94,13.05,3.49,22.76-3.44,24.98-35.9,2.25-37.78ZM535.42,431.24c-4.93-1.6-2.03-18.12-1.66-22.34.23-2.65-1.09-9.58,1.64-10.43.51-.16,8.56.89,9.63,1.16,16.32,4.22,9.37,37.76-9.61,31.61ZM516.76,396.39h-2.99c-.08,8.71.61,17.51-1.5,26.01l-20.81-25.69c-8.64-3.84-3.19,2.69-2.66,7.16.52,4.42-1.03,28.44-.03,29.53.53.57,2.76-.69,3-1.5,1.63-5.69-1.21-18.9,0-25.5,1.98-.23,3.33,1.69,4.51,2.99,4.28,4.74,8.05,11.58,12.51,16.49,1.94,2.14,5.93,7.58,8.98,6.01-4.89-11.02.54-23.7-1.01-35.5ZM459.54,394.63c-7.65.89-12.49,4.75-15.01,12.04-3.4,9.85,2.26,24.49,12.27,28.19,6.93,2.56,16.72-3.89,19.46-10.46,5.46-13.08.11-31.73-16.72-29.77ZM463.58,431.74c-10.34,3.01-16.53-12.07-15.39-20.39,1.29-9.31,11.53-19.11,20.24-10.62,7.74,7.54,7.06,27.53-4.85,31.01ZM433.77,423.9c-.89-7.49,0-18.09,0-26,0-1.7-5.03-2.27-6.06-.06l-11.44,27.56c-1.17-.91-1.92-2.07-2.7-3.3-2.27-3.58-10.8-24.74-11.96-25.54-.92-.64-3.51.04-4.85-.16l-1.99,35.99c2.44,2.59,4-7.6,4.03-8.54.1-3.14-1.12-5.81-1.12-8.95-.01-1.29.74-10.1,1.09-10.5,2.02-2.3,5.64,9.32,6.14,10.36,1.04,2.2,7.49,16.36,8.39,16.62,1.44.43,2.72-.22,3.37-1.58l10.11-24.39c1.37.09,1.77,4.54,1.87,5.61.46,5.16-1.36,24.67,5.77,25.26,4.83.4-.35-9.83-.65-12.38ZM383.89,422.78c-2.44-4.98-7.24-20.93-10.08-23.92-1.04-1.1-1.91-1.75-3.52-1.46l-14.52,34.99c1.91,1.92,8.6-8.89,9.19-10.29,1.98-4.76,1.87-10.41,3.55-15.48.28-.87-.08-3.13,1.74-2.21,3.47,1.74,8.29,31.5,20.51,29.99l-6.87-11.62ZM346.77,427.9c-1.07-8.85,0-21.63,0-31,0-1.94-4.2-1.81-4.77,1.12-.21,1.05.8,3.2.81,4.83.03,5.06-1.04,28.04,1.19,30.31.97.99,3.36,1.3,4.76,1.23.68-.64-1.86-5.39-1.99-6.49ZM330.27,404.39c-1.11-2.44-6.72-7.99-9-7.99h-21c-3.13,2.15.02,3.16.47,5.53.93,4.84-.34,12.63-.02,18.01.73,12.01,1.55,16.57,15.31,14.22,13.52-2.3,19.69-17.79,14.24-29.77ZM326.71,418.84c-1.41,9.04-18.4,19.06-19.95,10.07-.83-4.79-.53-11.96-.99-17.01,1.77-3.07-.37-12.37,2.63-13.36,2.74-.9,10.19.46,12.75,1.98,5.67,3.34,6.46,12.46,5.56,18.32ZM266.76,429.4c-2.75.93-18.99,5.12-18.99.5v-14.5c4.37-.64,10.4,1.59,13.99-1.51.47-2.42-1.95-1.43-3.49-1.49-9.14-.35-11.86,2.16-10.55-9.55.6-5.41,4.97-4.82,9.54-4.44,3.77.32,6.16,1.8,9.5,2.99v-5s-23.99,0-23.99,0v28.5c0,.38,1.28,7.19,1.47,7.52,1.96,3.45,17.65,2.24,21.27.23,1.94-1.08,1.33-.93,1.25-3.25ZM229.63,398.04c-.76-2.32-3.92-1.6-5.86-1.64v16h-15.5l-1.5-1.5v-14.5h-41.51c-2.83.22-2.66,2.6-2.49,5,.52.52,14-4.61,14-.5v32.5c1.86.05,4.18.45,4.86-1.64,1.63-5.04-.55-20.13.13-26.86.26-2.51.65-5.97,3.49-6.51,2.61-.5,17.52-.72,17.52,2.51v32.5h4.99c-.81-2.62-2.27-18,.51-18h15.5c2.49,6.15-2.79,20.39,7.01,18.49-2.24-11.73-.32-23.95-1.15-35.85ZM229.63,398.04c-.76-2.32-3.92-1.6-5.86-1.64v16h-15.5l-1.5-1.5v-14.5h-41.51c-2.83.22-2.66,2.6-2.49,5,.52.52,14-4.61,14-.5v32.5c1.86.05,4.18.45,4.86-1.64,1.63-5.04-.55-20.13.13-26.86.26-2.51.65-5.97,3.49-6.51,2.61-.5,17.52-.72,17.52,2.51v32.5h4.99c-.81-2.62-2.27-18,.51-18h15.5c2.49,6.15-2.79,20.39,7.01,18.49-2.24-11.73-.32-23.95-1.15-35.85ZM266.76,429.4c-2.75.93-18.99,5.12-18.99.5v-14.5c4.37-.64,10.4,1.59,13.99-1.51.47-2.42-1.95-1.43-3.49-1.49-9.14-.35-11.86,2.16-10.55-9.55.6-5.41,4.97-4.82,9.54-4.44,3.77.32,6.16,1.8,9.5,2.99v-5s-23.99,0-23.99,0v28.5c0,.38,1.28,7.19,1.47,7.52,1.96,3.45,17.65,2.24,21.27.23,1.94-1.08,1.33-.93,1.25-3.25ZM330.27,404.39c-1.11-2.44-6.72-7.99-9-7.99h-21c-3.13,2.15.02,3.16.47,5.53.93,4.84-.34,12.63-.02,18.01.73,12.01,1.55,16.57,15.31,14.22,13.52-2.3,19.69-17.79,14.24-29.77ZM326.71,418.84c-1.41,9.04-18.4,19.06-19.95,10.07-.83-4.79-.53-11.96-.99-17.01,1.77-3.07-.37-12.37,2.63-13.36,2.74-.9,10.19.46,12.75,1.98,5.67,3.34,6.46,12.46,5.56,18.32ZM346.77,427.9c-1.07-8.85,0-21.63,0-31,0-1.94-4.2-1.81-4.77,1.12-.21,1.05.8,3.2.81,4.83.03,5.06-1.04,28.04,1.19,30.31.97.99,3.36,1.3,4.76,1.23.68-.64-1.86-5.39-1.99-6.49ZM383.89,422.78c-2.44-4.98-7.24-20.93-10.08-23.92-1.04-1.1-1.91-1.75-3.52-1.46l-14.52,34.99c1.91,1.92,8.6-8.89,9.19-10.29,1.98-4.76,1.87-10.41,3.55-15.48.28-.87-.08-3.13,1.74-2.21,3.47,1.74,8.29,31.5,20.51,29.99l-6.87-11.62ZM433.77,423.9c-.89-7.49,0-18.09,0-26,0-1.7-5.03-2.27-6.06-.06l-11.44,27.56c-1.17-.91-1.92-2.07-2.7-3.3-2.27-3.58-10.8-24.74-11.96-25.54-.92-.64-3.51.04-4.85-.16l-1.99,35.99c2.44,2.59,4-7.6,4.03-8.54.1-3.14-1.12-5.81-1.12-8.95-.01-1.29.74-10.1,1.09-10.5,2.02-2.3,5.64,9.32,6.14,10.36,1.04,2.2,7.49,16.36,8.39,16.62,1.44.43,2.72-.22,3.37-1.58l10.11-24.39c1.37.09,1.77,4.54,1.87,5.61.46,5.16-1.36,24.67,5.77,25.26,4.83.4-.35-9.83-.65-12.38ZM459.54,394.63c-7.65.89-12.49,4.75-15.01,12.04-3.4,9.85,2.26,24.49,12.27,28.19,6.93,2.56,16.72-3.89,19.46-10.46,5.46-13.08.11-31.73-16.72-29.77ZM463.58,431.74c-10.34,3.01-16.53-12.07-15.39-20.39,1.29-9.31,11.53-19.11,20.24-10.62,7.74,7.54,7.06,27.53-4.85,31.01ZM516.76,396.39h-2.99c-.08,8.71.61,17.51-1.5,26.01l-20.81-25.69c-8.64-3.84-3.19,2.69-2.66,7.16.52,4.42-1.03,28.44-.03,29.53.53.57,2.76-.69,3-1.5,1.63-5.69-1.21-18.9,0-25.5,1.98-.23,3.33,1.69,4.51,2.99,4.28,4.74,8.05,11.58,12.51,16.49,1.94,2.14,5.93,7.58,8.98,6.01-4.89-11.02.54-23.7-1.01-35.5ZM544.26,396.41c-5.82-.48-11.51,1.28-17.49,0-.39,1.13.95,2.08,1,2.49.84,7.24,0,17.37,0,25,0,.35,1.02,6.2,1.19,6.8.9,3.2,10.07,3.94,13.05,3.49,22.76-3.44,24.98-35.9,2.25-37.78ZM535.42,431.24c-4.93-1.6-2.03-18.12-1.66-22.34.23-2.65-1.09-9.58,1.64-10.43.51-.16,8.56.89,9.63,1.16,16.32,4.22,9.37,37.76-9.61,31.61ZM613.27,396.4c-3.97-.71-10.53.14-15,0-2.39-.07-4.9-2.37-6.44.62,1.21,10.24,2.22,20.59,1.99,30.93-.04,1.61-1.1,4.13-.95,4.87.46,2.19,4.34,2.03,4.9.08.7-2.46,0-11.55,0-15,0-.18.9-3.36,1.01-3.5.34-.46,9.1,3.16,10.98-.51.47-2.42-1.94-1.43-3.48-1.49-5.65-.22-7.88,2.06-8.52-4.48-1.38-14.11,4.85-9.35,14.78-7.79,5.56.88,3.8-3.19.73-3.73ZM634.63,400.04c-1.22-2.47-3.27-2.95-5.86-2.64l-.47,6.04-12.53,28.96c9.27-5.64,8.93-17.78,12.54-26,.36-.84.25-2.8,1.94-1.99,2.7,1.28,4.07,11.48,5.33,14.68,1.14,2.94,10.32,18.98,14.18,15.31,1.36-1.3-15.13-29.55-15.13-34.36ZM681.3,397.37c-12.19-8.81-27.48,1.73-28.47,15.67-.68,9.44,8.4,22.75,18.4,22.42,4.54-.15,13.23-4.41,12.53-10.06-14.86,18.37-32.32-2.96-23.17-20.68,7.07-13.69,14.99-7.37,23.68-.32,1.56,1.26,2.52.08,2.48-.5-.03-.42-4.89-6.13-5.45-6.53ZM720.76,396.4c-6.2-.67-12.46.54-18.49.82-1.72.08-3.54-1.1-5.92-.82-2.58.3-7.22,3.69-8.58,5.99,4.02-.47,9.94-3.65,13.72-3.82.95-.05,2.07.59,2.28,1.33v32c0,1.88,5,1.88,5,0v-31c0-3.17,8.38-2.4,10.52-2.5,1.65-.07,2.74-.9,1.47-2ZM739.5,394.64c-19.32,3.15-20.05,29.31-5.07,38.59,7.63,4.73,16.55.33,20.75-6.92,7.19-12.39,2.04-34.56-15.68-31.67ZM749.31,428.45c-7.57,8.09-16.76,2.04-19.1-6.99-2.09-8.06-1.18-15.62,4.89-21.72.9-.91,2.96-2.07,4.21-2.29,14.58-2.47,18.73,21.67,10,31ZM795.76,432.91c-.67-1.56-5.85-5.4-7.43-7.57-9.37-12.89,3.03-9.65,4.26-19.71.48-3.84-4.74-8.61-8.32-9.23-3.81-.66-10.72,0-15,0-2.53,0-.5,5.87-.46,7.46.12,4.51-.83,26.72.4,28.6.87,1.34,3.14.92,4.55.94.76-3.08-3.25-17.21.59-17.9.5-.09,3.71.8,4.16,1.16.71.58,5.68,9.44,7.74,11.75,1.02,1.15,3.97,4.43,4.96,5.04,1.45.89,5.63,2,4.55-.54ZM775.45,413.21c-2.77-1.02-2.44-14.13-.06-14.74,1.81-.46,10.52,2.49,11.22,4.58,2.55,7.71-3.94,12.81-11.16,10.16ZM832.76,393.4c-5.85,4.66-10.77,11.67-14.41,18.12-1.17,2.06-.34,5.61-4.03.82-4.77-6.18-6.04-18.04-16.55-15.94l8.41,10.09c5.79,8.22,8.14,16.8,7.59,26.91h3.99c-4.42-16.52,5.86-24,13.4-36.1.78-1.25,1.93-2.21,1.6-3.9ZM832.76,393.4c-5.85,4.66-10.77,11.67-14.41,18.12-1.17,2.06-.34,5.61-4.03.82-4.77-6.18-6.04-18.04-16.55-15.94l8.41,10.09c5.79,8.22,8.14,16.8,7.59,26.91h3.99c-4.42-16.52,5.86-24,13.4-36.1.78-1.25,1.93-2.21,1.6-3.9ZM795.76,432.91c-.67-1.56-5.85-5.4-7.43-7.57-9.37-12.89,3.03-9.65,4.26-19.71.48-3.84-4.74-8.61-8.32-9.23-3.81-.66-10.72,0-15,0-2.53,0-.5,5.87-.46,7.46.12,4.51-.83,26.72.4,28.6.87,1.34,3.14.92,4.55.94.76-3.08-3.25-17.21.59-17.9.5-.09,3.71.8,4.16,1.16.71.58,5.68,9.44,7.74,11.75,1.02,1.15,3.97,4.43,4.96,5.04,1.45.89,5.63,2,4.55-.54ZM775.45,413.21c-2.77-1.02-2.44-14.13-.06-14.74,1.81-.46,10.52,2.49,11.22,4.58,2.55,7.71-3.94,12.81-11.16,10.16ZM739.5,394.64c-19.32,3.15-20.05,29.31-5.07,38.59,7.63,4.73,16.55.33,20.75-6.92,7.19-12.39,2.04-34.56-15.68-31.67ZM749.31,428.45c-7.57,8.09-16.76,2.04-19.1-6.99-2.09-8.06-1.18-15.62,4.89-21.72.9-.91,2.96-2.07,4.21-2.29,14.58-2.47,18.73,21.67,10,31ZM720.76,396.4c-6.2-.67-12.46.54-18.49.82-1.72.08-3.54-1.1-5.92-.82-2.58.3-7.22,3.69-8.58,5.99,4.02-.47,9.94-3.65,13.72-3.82.95-.05,2.07.59,2.28,1.33v32c0,1.88,5,1.88,5,0v-31c0-3.17,8.38-2.4,10.52-2.5,1.65-.07,2.74-.9,1.47-2ZM681.3,397.37c-12.19-8.81-27.48,1.73-28.47,15.67-.68,9.44,8.4,22.75,18.4,22.42,4.54-.15,13.23-4.41,12.53-10.06-14.86,18.37-32.32-2.96-23.17-20.68,7.07-13.69,14.99-7.37,23.68-.32,1.56,1.26,2.52.08,2.48-.5-.03-.42-4.89-6.13-5.45-6.53ZM634.63,400.04c-1.22-2.47-3.27-2.95-5.86-2.64l-.47,6.04-12.53,28.96c9.27-5.64,8.93-17.78,12.54-26,.36-.84.25-2.8,1.94-1.99,2.7,1.28,4.07,11.48,5.33,14.68,1.14,2.94,10.32,18.98,14.18,15.31,1.36-1.3-15.13-29.55-15.13-34.36ZM613.27,396.4c-3.97-.71-10.53.14-15,0-2.39-.07-4.9-2.37-6.44.62,1.21,10.24,2.22,20.59,1.99,30.93-.04,1.61-1.1,4.13-.95,4.87.46,2.19,4.34,2.03,4.9.08.7-2.46,0-11.55,0-15,0-.18.9-3.36,1.01-3.5.34-.46,9.1,3.16,10.98-.51.47-2.42-1.94-1.43-3.48-1.49-5.65-.22-7.88,2.06-8.52-4.48-1.38-14.11,4.85-9.35,14.78-7.79,5.56.88,3.8-3.19.73-3.73ZM544.26,396.41c-5.82-.48-11.51,1.28-17.49,0-.39,1.13.95,2.08,1,2.49.84,7.24,0,17.37,0,25,0,.35,1.02,6.2,1.19,6.8.9,3.2,10.07,3.94,13.05,3.49,22.76-3.44,24.98-35.9,2.25-37.78ZM535.42,431.24c-4.93-1.6-2.03-18.12-1.66-22.34.23-2.65-1.09-9.58,1.64-10.43.51-.16,8.56.89,9.63,1.16,16.32,4.22,9.37,37.76-9.61,31.61ZM516.76,396.39h-2.99c-.08,8.71.61,17.51-1.5,26.01l-20.81-25.69c-8.64-3.84-3.19,2.69-2.66,7.16.52,4.42-1.03,28.44-.03,29.53.53.57,2.76-.69,3-1.5,1.63-5.69-1.21-18.9,0-25.5,1.98-.23,3.33,1.69,4.51,2.99,4.28,4.74,8.05,11.58,12.51,16.49,1.94,2.14,5.93,7.58,8.98,6.01-4.89-11.02.54-23.7-1.01-35.5ZM459.54,394.63c-7.65.89-12.49,4.75-15.01,12.04-3.4,9.85,2.26,24.49,12.27,28.19,6.93,2.56,16.72-3.89,19.46-10.46,5.46-13.08.11-31.73-16.72-29.77ZM463.58,431.74c-10.34,3.01-16.53-12.07-15.39-20.39,1.29-9.31,11.53-19.11,20.24-10.62,7.74,7.54,7.06,27.53-4.85,31.01ZM433.77,423.9c-.89-7.49,0-18.09,0-26,0-1.7-5.03-2.27-6.06-.06l-11.44,27.56c-1.17-.91-1.92-2.07-2.7-3.3-2.27-3.58-10.8-24.74-11.96-25.54-.92-.64-3.51.04-4.85-.16l-1.99,35.99c2.44,2.59,4-7.6,4.03-8.54.1-3.14-1.12-5.81-1.12-8.95-.01-1.29.74-10.1,1.09-10.5,2.02-2.3,5.64,9.32,6.14,10.36,1.04,2.2,7.49,16.36,8.39,16.62,1.44.43,2.72-.22,3.37-1.58l10.11-24.39c1.37.09,1.77,4.54,1.87,5.61.46,5.16-1.36,24.67,5.77,25.26,4.83.4-.35-9.83-.65-12.38ZM383.89,422.78c-2.44-4.98-7.24-20.93-10.08-23.92-1.04-1.1-1.91-1.75-3.52-1.46l-14.52,34.99c1.91,1.92,8.6-8.89,9.19-10.29,1.98-4.76,1.87-10.41,3.55-15.48.28-.87-.08-3.13,1.74-2.21,3.47,1.74,8.29,31.5,20.51,29.99l-6.87-11.62ZM346.77,427.9c-1.07-8.85,0-21.63,0-31,0-1.94-4.2-1.81-4.77,1.12-.21,1.05.8,3.2.81,4.83.03,5.06-1.04,28.04,1.19,30.31.97.99,3.36,1.3,4.76,1.23.68-.64-1.86-5.39-1.99-6.49ZM330.27,404.39c-1.11-2.44-6.72-7.99-9-7.99h-21c-3.13,2.15.02,3.16.47,5.53.93,4.84-.34,12.63-.02,18.01.73,12.01,1.55,16.57,15.31,14.22,13.52-2.3,19.69-17.79,14.24-29.77ZM326.71,418.84c-1.41,9.04-18.4,19.06-19.95,10.07-.83-4.79-.53-11.96-.99-17.01,1.77-3.07-.37-12.37,2.63-13.36,2.74-.9,10.19.46,12.75,1.98,5.67,3.34,6.46,12.46,5.56,18.32ZM266.76,429.4c-2.75.93-18.99,5.12-18.99.5v-14.5c4.37-.64,10.4,1.59,13.99-1.51.47-2.42-1.95-1.43-3.49-1.49-9.14-.35-11.86,2.16-10.55-9.55.6-5.41,4.97-4.82,9.54-4.44,3.77.32,6.16,1.8,9.5,2.99v-5s-23.99,0-23.99,0v28.5c0,.38,1.28,7.19,1.47,7.52,1.96,3.45,17.65,2.24,21.27.23,1.94-1.08,1.33-.93,1.25-3.25ZM229.63,398.04c-.76-2.32-3.92-1.6-5.86-1.64v16h-15.5l-1.5-1.5v-14.5h-41.51c-2.83.22-2.66,2.6-2.49,5,.52.52,14-4.61,14-.5v32.5c1.86.05,4.18.45,4.86-1.64,1.63-5.04-.55-20.13.13-26.86.26-2.51.65-5.97,3.49-6.51,2.61-.5,17.52-.72,17.52,2.51v32.5h4.99c-.81-2.62-2.27-18,.51-18h15.5c2.49,6.15-2.79,20.39,7.01,18.49-2.24-11.73-.32-23.95-1.15-35.85ZM229.63,398.04c-.76-2.32-3.92-1.6-5.86-1.64v16h-15.5l-1.5-1.5v-14.5h-41.51c-2.83.22-2.66,2.6-2.49,5,.52.52,14-4.61,14-.5v32.5c1.86.05,4.18.45,4.86-1.64,1.63-5.04-.55-20.13.13-26.86.26-2.51.65-5.97,3.49-6.51,2.61-.5,17.52-.72,17.52,2.51v32.5h4.99c-.81-2.62-2.27-18,.51-18h15.5c2.49,6.15-2.79,20.39,7.01,18.49-2.24-11.73-.32-23.95-1.15-35.85ZM266.76,429.4c-2.75.93-18.99,5.12-18.99.5v-14.5c4.37-.64,10.4,1.59,13.99-1.51.47-2.42-1.95-1.43-3.49-1.49-9.14-.35-11.86,2.16-10.55-9.55.6-5.41,4.97-4.82,9.54-4.44,3.77.32,6.16,1.8,9.5,2.99v-5s-23.99,0-23.99,0v28.5c0,.38,1.28,7.19,1.47,7.52,1.96,3.45,17.65,2.24,21.27.23,1.94-1.08,1.33-.93,1.25-3.25ZM330.27,404.39c-1.11-2.44-6.72-7.99-9-7.99h-21c-3.13,2.15.02,3.16.47,5.53.93,4.84-.34,12.63-.02,18.01.73,12.01,1.55,16.57,15.31,14.22,13.52-2.3,19.69-17.79,14.24-29.77ZM326.71,418.84c-1.41,9.04-18.4,19.06-19.95,10.07-.83-4.79-.53-11.96-.99-17.01,1.77-3.07-.37-12.37,2.63-13.36,2.74-.9,10.19.46,12.75,1.98,5.67,3.34,6.46,12.46,5.56,18.32ZM346.77,427.9c-1.07-8.85,0-21.63,0-31,0-1.94-4.2-1.81-4.77,1.12-.21,1.05.8,3.2.81,4.83.03,5.06-1.04,28.04,1.19,30.31.97.99,3.36,1.3,4.76,1.23.68-.64-1.86-5.39-1.99-6.49ZM383.89,422.78c-2.44-4.98-7.24-20.93-10.08-23.92-1.04-1.1-1.91-1.75-3.52-1.46l-14.52,34.99c1.91,1.92,8.6-8.89,9.19-10.29,1.98-4.76,1.87-10.41,3.55-15.48.28-.87-.08-3.13,1.74-2.21,3.47,1.74,8.29,31.5,20.51,29.99l-6.87-11.62ZM433.77,423.9c-.89-7.49,0-18.09,0-26,0-1.7-5.03-2.27-6.06-.06l-11.44,27.56c-1.17-.91-1.92-2.07-2.7-3.3-2.27-3.58-10.8-24.74-11.96-25.54-.92-.64-3.51.04-4.85-.16l-1.99,35.99c2.44,2.59,4-7.6,4.03-8.54.1-3.14-1.12-5.81-1.12-8.95-.01-1.29.74-10.1,1.09-10.5,2.02-2.3,5.64,9.32,6.14,10.36,1.04,2.2,7.49,16.36,8.39,16.62,1.44.43,2.72-.22,3.37-1.58l10.11-24.39c1.37.09,1.77,4.54,1.87,5.61.46,5.16-1.36,24.67,5.77,25.26,4.83.4-.35-9.83-.65-12.38ZM459.54,394.63c-7.65.89-12.49,4.75-15.01,12.04-3.4,9.85,2.26,24.49,12.27,28.19,6.93,2.56,16.72-3.89,19.46-10.46,5.46-13.08.11-31.73-16.72-29.77ZM463.58,431.74c-10.34,3.01-16.53-12.07-15.39-20.39,1.29-9.31,11.53-19.11,20.24-10.62,7.74,7.54,7.06,27.53-4.85,31.01ZM516.76,396.39h-2.99c-.08,8.71.61,17.51-1.5,26.01l-20.81-25.69c-8.64-3.84-3.19,2.69-2.66,7.16.52,4.42-1.03,28.44-.03,29.53.53.57,2.76-.69,3-1.5,1.63-5.69-1.21-18.9,0-25.5,1.98-.23,3.33,1.69,4.51,2.99,4.28,4.74,8.05,11.58,12.51,16.49,1.94,2.14,5.93,7.58,8.98,6.01-4.89-11.02.54-23.7-1.01-35.5ZM544.26,396.41c-5.82-.48-11.51,1.28-17.49,0-.39,1.13.95,2.08,1,2.49.84,7.24,0,17.37,0,25,0,.35,1.02,6.2,1.19,6.8.9,3.2,10.07,3.94,13.05,3.49,22.76-3.44,24.98-35.9,2.25-37.78ZM535.42,431.24c-4.93-1.6-2.03-18.12-1.66-22.34.23-2.65-1.09-9.58,1.64-10.43.51-.16,8.56.89,9.63,1.16,16.32,4.22,9.37,37.76-9.61,31.61ZM613.27,396.4c-3.97-.71-10.53.14-15,0-2.39-.07-4.9-2.37-6.44.62,1.21,10.24,2.22,20.59,1.99,30.93-.04,1.61-1.1,4.13-.95,4.87.46,2.19,4.34,2.03,4.9.08.7-2.46,0-11.55,0-15,0-.18.9-3.36,1.01-3.5.34-.46,9.1,3.16,10.98-.51.47-2.42-1.94-1.43-3.48-1.49-5.65-.22-7.88,2.06-8.52-4.48-1.38-14.11,4.85-9.35,14.78-7.79,5.56.88,3.8-3.19.73-3.73ZM634.63,400.04c-1.22-2.47-3.27-2.95-5.86-2.64l-.47,6.04-12.53,28.96c9.27-5.64,8.93-17.78,12.54-26,.36-.84.25-2.8,1.94-1.99,2.7,1.28,4.07,11.48,5.33,14.68,1.14,2.94,10.32,18.98,14.18,15.31,1.36-1.3-15.13-29.55-15.13-34.36ZM681.3,397.37c-12.19-8.81-27.48,1.73-28.47,15.67-.68,9.44,8.4,22.75,18.4,22.42,4.54-.15,13.23-4.41,12.53-10.06-14.86,18.37-32.32-2.96-23.17-20.68,7.07-13.69,14.99-7.37,23.68-.32,1.56,1.26,2.52.08,2.48-.5-.03-.42-4.89-6.13-5.45-6.53ZM720.76,396.4c-6.2-.67-12.46.54-18.49.82-1.72.08-3.54-1.1-5.92-.82-2.58.3-7.22,3.69-8.58,5.99,4.02-.47,9.94-3.65,13.72-3.82.95-.05,2.07.59,2.28,1.33v32c0,1.88,5,1.88,5,0v-31c0-3.17,8.38-2.4,10.52-2.5,1.65-.07,2.74-.9,1.47-2ZM739.5,394.64c-19.32,3.15-20.05,29.31-5.07,38.59,7.63,4.73,16.55.33,20.75-6.92,7.19-12.39,2.04-34.56-15.68-31.67ZM749.31,428.45c-7.57,8.09-16.76,2.04-19.1-6.99-2.09-8.06-1.18-15.62,4.89-21.72.9-.91,2.96-2.07,4.21-2.29,14.58-2.47,18.73,21.67,10,31ZM795.76,432.91c-.67-1.56-5.85-5.4-7.43-7.57-9.37-12.89,3.03-9.65,4.26-19.71.48-3.84-4.74-8.61-8.32-9.23-3.81-.66-10.72,0-15,0-2.53,0-.5,5.87-.46,7.46.12,4.51-.83,26.72.4,28.6.87,1.34,3.14.92,4.55.94.76-3.08-3.25-17.21.59-17.9.5-.09,3.71.8,4.16,1.16.71.58,5.68,9.44,7.74,11.75,1.02,1.15,3.97,4.43,4.96,5.04,1.45.89,5.63,2,4.55-.54ZM775.45,413.21c-2.77-1.02-2.44-14.13-.06-14.74,1.81-.46,10.52,2.49,11.22,4.58,2.55,7.71-3.94,12.81-11.16,10.16ZM832.76,393.4c-5.85,4.66-10.77,11.67-14.41,18.12-1.17,2.06-.34,5.61-4.03.82-4.77-6.18-6.04-18.04-16.55-15.94l8.41,10.09c5.79,8.22,8.14,16.8,7.59,26.91h3.99c-4.42-16.52,5.86-24,13.4-36.1.78-1.25,1.93-2.21,1.6-3.9ZM832.76,393.4c-5.85,4.66-10.77,11.67-14.41,18.12-1.17,2.06-.34,5.61-4.03.82-4.77-6.18-6.04-18.04-16.55-15.94l8.41,10.09c5.79,8.22,8.14,16.8,7.59,26.91h3.99c-4.42-16.52,5.86-24,13.4-36.1.78-1.25,1.93-2.21,1.6-3.9ZM788.33,425.34c-9.37-12.89,3.03-9.65,4.26-19.71.48-3.84-4.74-8.61-8.32-9.23-3.81-.66-10.72,0-15,0-2.53,0-.5,5.87-.46,7.46.12,4.51-.83,26.72.4,28.6.87,1.34,3.14.92,4.55.94.76-3.08-3.25-17.21.59-17.9.5-.09,3.71.8,4.16,1.16.71.58,5.68,9.44,7.74,11.75,1.02,1.15,3.97,4.43,4.96,5.04,1.45.89,5.63,2,4.55-.54-.67-1.56-5.85-5.4-7.43-7.57ZM775.45,413.21c-2.77-1.02-2.44-14.13-.06-14.74,1.81-.46,10.52,2.49,11.22,4.58,2.55,7.71-3.94,12.81-11.16,10.16ZM739.5,394.64c-19.32,3.15-20.05,29.31-5.07,38.59,7.63,4.73,16.55.33,20.75-6.92,7.19-12.39,2.04-34.56-15.68-31.67ZM749.31,428.45c-7.57,8.09-16.76,2.04-19.1-6.99-2.09-8.06-1.18-15.62,4.89-21.72.9-.91,2.96-2.07,4.21-2.29,14.58-2.47,18.73,21.67,10,31ZM702.27,397.22c-1.72.08-3.54-1.1-5.92-.82-2.58.3-7.22,3.69-8.58,5.99,4.02-.47,9.94-3.65,13.72-3.82.95-.05,2.07.59,2.28,1.33v32c0,1.88,5,1.88,5,0v-31c0-3.17,8.38-2.4,10.52-2.5,1.65-.07,2.74-.9,1.47-2-6.2-.67-12.46.54-18.49.82ZM681.3,397.37c-12.19-8.81-27.48,1.73-28.47,15.67-.68,9.44,8.4,22.75,18.4,22.42,4.54-.15,13.23-4.41,12.53-10.06-14.86,18.37-32.32-2.96-23.17-20.68,7.07-13.69,14.99-7.37,23.68-.32,1.56,1.26,2.52.08,2.48-.5-.03-.42-4.89-6.13-5.45-6.53ZM628.77,397.4l-.47,6.04-12.53,28.96c9.27-5.64,8.93-17.78,12.54-26,.36-.84.25-2.8,1.94-1.99,2.7,1.28,4.07,11.48,5.33,14.68,1.14,2.94,10.32,18.98,14.18,15.31,1.36-1.3-15.13-29.55-15.13-34.36-1.22-2.47-3.27-2.95-5.86-2.64ZM613.27,396.4c-3.97-.71-10.53.14-15,0-2.39-.07-4.9-2.37-6.44.62,1.21,10.24,2.22,20.59,1.99,30.93-.04,1.61-1.1,4.13-.95,4.87.46,2.19,4.34,2.03,4.9.08.7-2.46,0-11.55,0-15,0-.18.9-3.36,1.01-3.5.34-.46,9.1,3.16,10.98-.51.47-2.42-1.94-1.43-3.48-1.49-5.65-.22-7.88,2.06-8.52-4.48-1.38-14.11,4.85-9.35,14.78-7.79,5.56.88,3.8-3.19.73-3.73ZM544.26,396.41c-5.82-.48-11.51,1.28-17.49,0-.39,1.13.95,2.08,1,2.49.84,7.24,0,17.37,0,25,0,.35,1.02,6.2,1.19,6.8.9,3.2,10.07,3.94,13.05,3.49,22.76-3.44,24.98-35.9,2.25-37.78ZM535.42,431.24c-4.93-1.6-2.03-18.12-1.66-22.34.23-2.65-1.09-9.58,1.64-10.43.51-.16,8.56.89,9.63,1.16,16.32,4.22,9.37,37.76-9.61,31.61ZM516.76,396.39h-2.99c-.08,8.71.61,17.51-1.5,26.01l-20.81-25.69c-8.64-3.84-3.19,2.69-2.66,7.16.52,4.42-1.03,28.44-.03,29.53.53.57,2.76-.69,3-1.5,1.63-5.69-1.21-18.9,0-25.5,1.98-.23,3.33,1.69,4.51,2.99,4.28,4.74,8.05,11.58,12.51,16.49,1.94,2.14,5.93,7.58,8.98,6.01-4.89-11.02.54-23.7-1.01-35.5ZM459.54,394.63c-7.65.89-12.49,4.75-15.01,12.04-3.4,9.85,2.26,24.49,12.27,28.19,6.93,2.56,16.72-3.89,19.46-10.46,5.46-13.08.11-31.73-16.72-29.77ZM463.58,431.74c-10.34,3.01-16.53-12.07-15.39-20.39,1.29-9.31,11.53-19.11,20.24-10.62,7.74,7.54,7.06,27.53-4.85,31.01ZM433.77,397.9c0-1.7-5.03-2.27-6.06-.06l-11.44,27.56c-1.17-.91-1.92-2.07-2.7-3.3-2.27-3.58-10.8-24.74-11.96-25.54-.92-.64-3.51.04-4.85-.16l-1.99,35.99c2.44,2.59,4-7.6,4.03-8.54.1-3.14-1.12-5.81-1.12-8.95-.01-1.29.74-10.1,1.09-10.5,2.02-2.3,5.64,9.32,6.14,10.36,1.04,2.2,7.49,16.36,8.39,16.62,1.44.43,2.72-.22,3.37-1.58l10.11-24.39c1.37.09,1.77,4.54,1.87,5.61.46,5.16-1.36,24.67,5.77,25.26,4.83.4-.35-9.83-.65-12.38-.89-7.49,0-18.09,0-26ZM373.81,398.86c-1.04-1.1-1.91-1.75-3.52-1.46l-14.52,34.99c1.91,1.92,8.6-8.89,9.19-10.29,1.98-4.76,1.87-10.41,3.55-15.48.28-.87-.08-3.13,1.74-2.21,3.47,1.74,8.29,31.5,20.51,29.99l-6.87-11.62c-2.44-4.98-7.24-20.93-10.08-23.92ZM346.77,396.9c0-1.94-4.2-1.81-4.77,1.12-.21,1.05.8,3.2.81,4.83.03,5.06-1.04,28.04,1.19,30.31.97.99,3.36,1.3,4.76,1.23.68-.64-1.86-5.39-1.99-6.49-1.07-8.85,0-21.63,0-31ZM321.27,396.4h-21c-3.13,2.15.02,3.16.47,5.53.93,4.84-.34,12.63-.02,18.01.73,12.01,1.55,16.57,15.31,14.22,13.52-2.3,19.69-17.79,14.24-29.77-1.11-2.44-6.72-7.99-9-7.99ZM326.71,418.84c-1.41,9.04-18.4,19.06-19.95,10.07-.83-4.79-.53-11.96-.99-17.01,1.77-3.07-.37-12.37,2.63-13.36,2.74-.9,10.19.46,12.75,1.98,5.67,3.34,6.46,12.46,5.56,18.32ZM247.77,429.9v-14.5c4.37-.64,10.4,1.59,13.99-1.51.47-2.42-1.95-1.43-3.49-1.49-9.14-.35-11.86,2.16-10.55-9.55.6-5.41,4.97-4.82,9.54-4.44,3.77.32,6.16,1.8,9.5,2.99v-5s-23.99,0-23.99,0v28.5c0,.38,1.28,7.19,1.47,7.52,1.96,3.45,17.65,2.24,21.27.23,1.94-1.08,1.33-.93,1.25-3.25-2.75.93-18.99,5.12-18.99.5ZM229.63,398.04c-.76-2.32-3.92-1.6-5.86-1.64v16h-15.5l-1.5-1.5v-14.5h-41.51c-2.83.22-2.66,2.6-2.49,5,.52.52,14-4.61,14-.5v32.5c1.86.05,4.18.45,4.86-1.64,1.63-5.04-.55-20.13.13-26.86.26-2.51.65-5.97,3.49-6.51,2.61-.5,17.52-.72,17.52,2.51v32.5h4.99c-.81-2.62-2.27-18,.51-18h15.5c2.49,6.15-2.79,20.39,7.01,18.49-2.24-11.73-.32-23.95-1.15-35.85ZM724.77,367.4v-111h87.5c5.76,0,15.85,8.44,18.37,13.63.94,1.92,2.55,9.37,3.63,9.37h22.5l1-83h-23.5c-1.55,0-1.79,7.26-2.46,9.55-1.21,4.18-3.25,6.87-6.99,9-2.45,1.39-11.08,4.45-13.55,4.45h-86.5v-83h73.5c6.5,0,17.78,4.94,22.97,9.02,2.78,2.18,9.55,10.78,12.06,11.01,2.99.29,14.21-7.36,17.78-9.21,4.53-2.35,7.13-.04,4.9-6.54-9.36-14.89-15.77-34.45-25.02-48.97-3.22-5.05-2.79-2.53-6.98-.59-11.2,5.18-21.49,6.9-33.72,8.28h-144.5c-.15,6.82.2,13.71.05,20.54-.05,2.34-2.21,8.8.13,10.3,1.13.73,9.47,1.05,11.88,1.61,7.43,1.7,23.44,6.36,24.95,15.05v220.5h-34c-.1-20.82-1.09-41.76-4.16-62.34-13.56-90.94-70.42-175.79-163.83-197.17-22.93-5.25-58.16-8.38-81.56-6.54-1.95.15-3.61.59-5.45,1.05v26.5c5.81,3.26,12.62,3.78,18.33,7.66,8.45,5.75,12.7,14.48,13.55,24.46,1.96,23.17-1.26,48.52.16,71.92l-1.09,6.92.05,127.54h-146v-222c24.5-2.34,52.49-3.14,66.98,20.51,2.74,4.47,4.49,10.46,6.07,15.45l25.84-7.07c1.26-1.84-4.27-15.8-5.41-18.87-6.46-17.36-14.33-34.29-20.03-51.98l-2.15-1.85c-51.93.08-103.91-.74-155.85-.23-3.22.03-6.22,1.19-9.99,1.1-4.55-.12-16.51-3.08-19.53.38-.54.61-4.34,9.95-5.13,11.86-6.57,15.9-15.88,37.22-20.85,53.15-.68,2.16-1.28,4.23-.94,6.53,8.52.62,16.08,5.28,24.37,6.97,1.84-.51,1.56-3.96,2.41-5.66,13.64-27.37,30.65-33.41,60.7-31.29,2.12.15,11.51,1.21,11.51,2.5v219l-1.5,1.5h-99c-.83,0-1.79,2.42-1.56,3.45-.48,27.67.81,55.44.1,83.09-.05,1.97-1.56,5.21-.62,6.51,1.29,1.78,9.3.76,12.07.95,1.98.15,3.82.95,5.96,1.04,27.87,1.18,56.6-.97,84.55-.04v79.5c0,2.61-1.59,10.69-2.53,13.48-2.4,7.12-8.88,13.37-15.78,16.21-4.99,2.06-11.33,2.19-15.69,5.31v29.5c30.71-.28,61.74,2.43,92.54,1.04,5.2-.23,11.08-1.52,16.52-1.48,1.91-1.27.82-25.48.5-29.62-13.52-3.37-27.18-7.8-31.28-22.73-.77-2.8-2.28-10.2-2.28-12.71v-77l1.5-1.5h144c1.1,0,1.43,2.44,1.55,3.45,2.48,21.27-2,47.3-.01,69.09-1.58,8.94-.22,16.27-4.22,24.78-5.5,11.67-15.67,16.15-27.7,18.81l.31,26.93c4.34.86,10.44,1.75,15.02,1.98,37.78,1.93,83.83-5.26,117.57-22.52,48.44-24.78,77.59-64.59,100.16-112.84.87-1.87,2.93-9.68,5.32-9.68h50.5v86.5c0,.55-1.42,6.21-1.78,7.23-2.28,6.49-8.57,12.57-14.95,15.04-2.76,1.07-17.27,3.45-17.27,4.73v29.5h109v-31c-10.15-.07-21.74-4.12-27.84-12.67-1.36-1.91-5.16-9.98-5.16-11.83v-87.5h133.5l1.5-1.5v-93.5h-135ZM469.27,141.36c5.69-.03,25.38,7.88,31.47,10.57,53.27,23.52,85.92,75,99.95,130.05,7.11,27.89,9.27,56.72,9.08,85.42h-143l-.05-215.54c.56-3.05.93-5.86,1.06-8.97.07-1.72-.46-1.52,1.49-1.53ZM571.58,495.72c-22,33.73-51.11,56.66-89.28,69.72-2.61.89-10.99,3.89-13.02,4-1.88.09-1.46.09-1.52-1.51-.17-4.28-.84-8.06-1.04-11.99-1.3-25.66-.89-57.54,1.04-83.04.26-3.48-.17-7.03.01-10.5h116.5c.94-.09,2.74-1.74,4.49-1,1.77,1.8-14.66,30.46-17.18,34.32ZM855.77,457.4c-2.22.14-4.2.88-6.46,1.05-24.8,1.8-54.75.14-80.09-.01-178.53-1.06-358.48.25-537.91.01-27.84-.04-59.83,1.94-87.09,0-1.93-.14-5.66-.16-5.52-2.51l1.02-82.88c.21-.87,1.97-1.35,2.77-1.42,24.95-2.17,52.61,3.74,77.78-.24,186.92.6,374.59.23,561.95-.04,21.6,2.12,48.12-2.67,69.1-.02,2.31.3,4.45,2,4.45,4.56v81.5ZM818.35,411.52c-1.17,2.06-.34,5.61-4.03.82-4.77-6.18-6.04-18.04-16.55-15.94l8.41,10.09c5.79,8.22,8.14,16.8,7.59,26.91h3.99c-4.42-16.52,5.86-24,13.4-36.1.78-1.25,1.93-2.21,1.6-3.9-5.85,4.66-10.77,11.67-14.41,18.12ZM788.33,425.34c-9.37-12.89,3.03-9.65,4.26-19.71.48-3.84-4.74-8.61-8.32-9.23-3.81-.66-10.72,0-15,0-2.53,0-.5,5.87-.46,7.46.12,4.51-.83,26.72.4,28.6.87,1.34,3.14.92,4.55.94.76-3.08-3.25-17.21.59-17.9.5-.09,3.71.8,4.16,1.16.71.58,5.68,9.44,7.74,11.75,1.02,1.15,3.97,4.43,4.96,5.04,1.45.89,5.63,2,4.55-.54-.67-1.56-5.85-5.4-7.43-7.57ZM775.45,413.21c-2.77-1.02-2.44-14.13-.06-14.74,1.81-.46,10.52,2.49,11.22,4.58,2.55,7.71-3.94,12.81-11.16,10.16ZM739.5,394.64c-19.32,3.15-20.05,29.31-5.07,38.59,7.63,4.73,16.55.33,20.75-6.92,7.19-12.39,2.04-34.56-15.68-31.67ZM749.31,428.45c-7.57,8.09-16.76,2.04-19.1-6.99-2.09-8.06-1.18-15.62,4.89-21.72.9-.91,2.96-2.07,4.21-2.29,14.58-2.47,18.73,21.67,10,31ZM702.27,397.22c-1.72.08-3.54-1.1-5.92-.82-2.58.3-7.22,3.69-8.58,5.99,4.02-.47,9.94-3.65,13.72-3.82.95-.05,2.07.59,2.28,1.33v32c0,1.88,5,1.88,5,0v-31c0-3.17,8.38-2.4,10.52-2.5,1.65-.07,2.74-.9,1.47-2-6.2-.67-12.46.54-18.49.82ZM681.3,397.37c-12.19-8.81-27.48,1.73-28.47,15.67-.68,9.44,8.4,22.75,18.4,22.42,4.54-.15,13.23-4.41,12.53-10.06-14.86,18.37-32.32-2.96-23.17-20.68,7.07-13.69,14.99-7.37,23.68-.32,1.56,1.26,2.52.08,2.48-.5-.03-.42-4.89-6.13-5.45-6.53ZM628.77,397.4l-.47,6.04-12.53,28.96c9.27-5.64,8.93-17.78,12.54-26,.36-.84.25-2.8,1.94-1.99,2.7,1.28,4.07,11.48,5.33,14.68,1.14,2.94,10.32,18.98,14.18,15.31,1.36-1.3-15.13-29.55-15.13-34.36-1.22-2.47-3.27-2.95-5.86-2.64ZM613.27,396.4c-3.97-.71-10.53.14-15,0-2.39-.07-4.9-2.37-6.44.62,1.21,10.24,2.22,20.59,1.99,30.93-.04,1.61-1.1,4.13-.95,4.87.46,2.19,4.34,2.03,4.9.08.7-2.46,0-11.55,0-15,0-.18.9-3.36,1.01-3.5.34-.46,9.1,3.16,10.98-.51.47-2.42-1.94-1.43-3.48-1.49-5.65-.22-7.88,2.06-8.52-4.48-1.38-14.11,4.85-9.35,14.78-7.79,5.56.88,3.8-3.19.73-3.73ZM544.26,396.41c-5.82-.48-11.51,1.28-17.49,0-.39,1.13.95,2.08,1,2.49.84,7.24,0,17.37,0,25,0,.35,1.02,6.2,1.19,6.8.9,3.2,10.07,3.94,13.05,3.49,22.76-3.44,24.98-35.9,2.25-37.78ZM535.42,431.24c-4.93-1.6-2.03-18.12-1.66-22.34.23-2.65-1.09-9.58,1.64-10.43.51-.16,8.56.89,9.63,1.16,16.32,4.22,9.37,37.76-9.61,31.61ZM516.76,396.39h-2.99c-.08,8.71.61,17.51-1.5,26.01l-20.81-25.69c-8.64-3.84-3.19,2.69-2.66,7.16.52,4.42-1.03,28.44-.03,29.53.53.57,2.76-.69,3-1.5,1.63-5.69-1.21-18.9,0-25.5,1.98-.23,3.33,1.69,4.51,2.99,4.28,4.74,8.05,11.58,12.51,16.49,1.94,2.14,5.93,7.58,8.98,6.01-4.89-11.02.54-23.7-1.01-35.5ZM459.54,394.63c-7.65.89-12.49,4.75-15.01,12.04-3.4,9.85,2.26,24.49,12.27,28.19,6.93,2.56,16.72-3.89,19.46-10.46,5.46-13.08.11-31.73-16.72-29.77ZM463.58,431.74c-10.34,3.01-16.53-12.07-15.39-20.39,1.29-9.31,11.53-19.11,20.24-10.62,7.74,7.54,7.06,27.53-4.85,31.01ZM433.77,397.9c0-1.7-5.03-2.27-6.06-.06l-11.44,27.56c-1.17-.91-1.92-2.07-2.7-3.3-2.27-3.58-10.8-24.74-11.96-25.54-.92-.64-3.51.04-4.85-.16l-1.99,35.99c2.44,2.59,4-7.6,4.03-8.54.1-3.14-1.12-5.81-1.12-8.95-.01-1.29.74-10.1,1.09-10.5,2.02-2.3,5.64,9.32,6.14,10.36,1.04,2.2,7.49,16.36,8.39,16.62,1.44.43,2.72-.22,3.37-1.58l10.11-24.39c1.37.09,1.77,4.54,1.87,5.61.46,5.16-1.36,24.67,5.77,25.26,4.83.4-.35-9.83-.65-12.38-.89-7.49,0-18.09,0-26ZM373.81,398.86c-1.04-1.1-1.91-1.75-3.52-1.46l-14.52,34.99c1.91,1.92,8.6-8.89,9.19-10.29,1.98-4.76,1.87-10.41,3.55-15.48.28-.87-.08-3.13,1.74-2.21,3.47,1.74,8.29,31.5,20.51,29.99l-6.87-11.62c-2.44-4.98-7.24-20.93-10.08-23.92ZM346.77,396.9c0-1.94-4.2-1.81-4.77,1.12-.21,1.05.8,3.2.81,4.83.03,5.06-1.04,28.04,1.19,30.31.97.99,3.36,1.3,4.76,1.23.68-.64-1.86-5.39-1.99-6.49-1.07-8.85,0-21.63,0-31ZM321.27,396.4h-21c-3.13,2.15.02,3.16.47,5.53.93,4.84-.34,12.63-.02,18.01.73,12.01,1.55,16.57,15.31,14.22,13.52-2.3,19.69-17.79,14.24-29.77-1.11-2.44-6.72-7.99-9-7.99ZM326.71,418.84c-1.41,9.04-18.4,19.06-19.95,10.07-.83-4.79-.53-11.96-.99-17.01,1.77-3.07-.37-12.37,2.63-13.36,2.74-.9,10.19.46,12.75,1.98,5.67,3.34,6.46,12.46,5.56,18.32ZM247.77,429.9v-14.5c4.37-.64,10.4,1.59,13.99-1.51.47-2.42-1.95-1.43-3.49-1.49-9.14-.35-11.86,2.16-10.55-9.55.6-5.41,4.97-4.82,9.54-4.44,3.77.32,6.16,1.8,9.5,2.99v-5s-23.99,0-23.99,0v28.5c0,.38,1.28,7.19,1.47,7.52,1.96,3.45,17.65,2.24,21.27.23,1.94-1.08,1.33-.93,1.25-3.25-2.75.93-18.99,5.12-18.99.5ZM229.63,398.04c-.76-2.32-3.92-1.6-5.86-1.64v16h-15.5l-1.5-1.5v-14.5h-41.51c-2.83.22-2.66,2.6-2.49,5,.52.52,14-4.61,14-.5v32.5c1.86.05,4.18.45,4.86-1.64,1.63-5.04-.55-20.13.13-26.86.26-2.51.65-5.97,3.49-6.51,2.61-.5,17.52-.72,17.52,2.51v32.5h4.99c-.81-2.62-2.27-18,.51-18h15.5c2.49,6.15-2.79,20.39,7.01,18.49-2.24-11.73-.32-23.95-1.15-35.85ZM229.63,398.04c-.76-2.32-3.92-1.6-5.86-1.64v16h-15.5l-1.5-1.5v-14.5h-41.51c-2.83.22-2.66,2.6-2.49,5,.52.52,14-4.61,14-.5v32.5c1.86.05,4.18.45,4.86-1.64,1.63-5.04-.55-20.13.13-26.86.26-2.51.65-5.97,3.49-6.51,2.61-.5,17.52-.72,17.52,2.51v32.5h4.99c-.81-2.62-2.27-18,.51-18h15.5c2.49,6.15-2.79,20.39,7.01,18.49-2.24-11.73-.32-23.95-1.15-35.85ZM266.76,429.4c-2.75.93-18.99,5.12-18.99.5v-14.5c4.37-.64,10.4,1.59,13.99-1.51.47-2.42-1.95-1.43-3.49-1.49-9.14-.35-11.86,2.16-10.55-9.55.6-5.41,4.97-4.82,9.54-4.44,3.77.32,6.16,1.8,9.5,2.99v-5s-23.99,0-23.99,0v28.5c0,.38,1.28,7.19,1.47,7.52,1.96,3.45,17.65,2.24,21.27.23,1.94-1.08,1.33-.93,1.25-3.25ZM330.27,404.39c-1.11-2.44-6.72-7.99-9-7.99h-21c-3.13,2.15.02,3.16.47,5.53.93,4.84-.34,12.63-.02,18.01.73,12.01,1.55,16.57,15.31,14.22,13.52-2.3,19.69-17.79,14.24-29.77ZM326.71,418.84c-1.41,9.04-18.4,19.06-19.95,10.07-.83-4.79-.53-11.96-.99-17.01,1.77-3.07-.37-12.37,2.63-13.36,2.74-.9,10.19.46,12.75,1.98,5.67,3.34,6.46,12.46,5.56,18.32ZM346.77,427.9c-1.07-8.85,0-21.63,0-31,0-1.94-4.2-1.81-4.77,1.12-.21,1.05.8,3.2.81,4.83.03,5.06-1.04,28.04,1.19,30.31.97.99,3.36,1.3,4.76,1.23.68-.64-1.86-5.39-1.99-6.49ZM383.89,422.78c-2.44-4.98-7.24-20.93-10.08-23.92-1.04-1.1-1.91-1.75-3.52-1.46l-14.52,34.99c1.91,1.92,8.6-8.89,9.19-10.29,1.98-4.76,1.87-10.41,3.55-15.48.28-.87-.08-3.13,1.74-2.21,3.47,1.74,8.29,31.5,20.51,29.99l-6.87-11.62ZM433.77,423.9c-.89-7.49,0-18.09,0-26,0-1.7-5.03-2.27-6.06-.06l-11.44,27.56c-1.17-.91-1.92-2.07-2.7-3.3-2.27-3.58-10.8-24.74-11.96-25.54-.92-.64-3.51.04-4.85-.16l-1.99,35.99c2.44,2.59,4-7.6,4.03-8.54.1-3.14-1.12-5.81-1.12-8.95-.01-1.29.74-10.1,1.09-10.5,2.02-2.3,5.64,9.32,6.14,10.36,1.04,2.2,7.49,16.36,8.39,16.62,1.44.43,2.72-.22,3.37-1.58l10.11-24.39c1.37.09,1.77,4.54,1.87,5.61.46,5.16-1.36,24.67,5.77,25.26,4.83.4-.35-9.83-.65-12.38ZM459.54,394.63c-7.65.89-12.49,4.75-15.01,12.04-3.4,9.85,2.26,24.49,12.27,28.19,6.93,2.56,16.72-3.89,19.46-10.46,5.46-13.08.11-31.73-16.72-29.77ZM463.58,431.74c-10.34,3.01-16.53-12.07-15.39-20.39,1.29-9.31,11.53-19.11,20.24-10.62,7.74,7.54,7.06,27.53-4.85,31.01ZM516.76,396.39h-2.99c-.08,8.71.61,17.51-1.5,26.01l-20.81-25.69c-8.64-3.84-3.19,2.69-2.66,7.16.52,4.42-1.03,28.44-.03,29.53.53.57,2.76-.69,3-1.5,1.63-5.69-1.21-18.9,0-25.5,1.98-.23,3.33,1.69,4.51,2.99,4.28,4.74,8.05,11.58,12.51,16.49,1.94,2.14,5.93,7.58,8.98,6.01-4.89-11.02.54-23.7-1.01-35.5ZM544.26,396.41c-5.82-.48-11.51,1.28-17.49,0-.39,1.13.95,2.08,1,2.49.84,7.24,0,17.37,0,25,0,.35,1.02,6.2,1.19,6.8.9,3.2,10.07,3.94,13.05,3.49,22.76-3.44,24.98-35.9,2.25-37.78ZM535.42,431.24c-4.93-1.6-2.03-18.12-1.66-22.34.23-2.65-1.09-9.58,1.64-10.43.51-.16,8.56.89,9.63,1.16,16.32,4.22,9.37,37.76-9.61,31.61ZM613.27,396.4c-3.97-.71-10.53.14-15,0-2.39-.07-4.9-2.37-6.44.62,1.21,10.24,2.22,20.59,1.99,30.93-.04,1.61-1.1,4.13-.95,4.87.46,2.19,4.34,2.03,4.9.08.7-2.46,0-11.55,0-15,0-.18.9-3.36,1.01-3.5.34-.46,9.1,3.16,10.98-.51.47-2.42-1.94-1.43-3.48-1.49-5.65-.22-7.88,2.06-8.52-4.48-1.38-14.11,4.85-9.35,14.78-7.79,5.56.88,3.8-3.19.73-3.73ZM634.63,400.04c-1.22-2.47-3.27-2.95-5.86-2.64l-.47,6.04-12.53,28.96c9.27-5.64,8.93-17.78,12.54-26,.36-.84.25-2.8,1.94-1.99,2.7,1.28,4.07,11.48,5.33,14.68,1.14,2.94,10.32,18.98,14.18,15.31,1.36-1.3-15.13-29.55-15.13-34.36ZM681.3,397.37c-12.19-8.81-27.48,1.73-28.47,15.67-.68,9.44,8.4,22.75,18.4,22.42,4.54-.15,13.23-4.41,12.53-10.06-14.86,18.37-32.32-2.96-23.17-20.68,7.07-13.69,14.99-7.37,23.68-.32,1.56,1.26,2.52.08,2.48-.5-.03-.42-4.89-6.13-5.45-6.53ZM720.76,396.4c-6.2-.67-12.46.54-18.49.82-1.72.08-3.54-1.1-5.92-.82-2.58.3-7.22,3.69-8.58,5.99,4.02-.47,9.94-3.65,13.72-3.82.95-.05,2.07.59,2.28,1.33v32c0,1.88,5,1.88,5,0v-31c0-3.17,8.38-2.4,10.52-2.5,1.65-.07,2.74-.9,1.47-2ZM739.5,394.64c-19.32,3.15-20.05,29.31-5.07,38.59,7.63,4.73,16.55.33,20.75-6.92,7.19-12.39,2.04-34.56-15.68-31.67ZM749.31,428.45c-7.57,8.09-16.76,2.04-19.1-6.99-2.09-8.06-1.18-15.62,4.89-21.72.9-.91,2.96-2.07,4.21-2.29,14.58-2.47,18.73,21.67,10,31ZM795.76,432.91c-.67-1.56-5.85-5.4-7.43-7.57-9.37-12.89,3.03-9.65,4.26-19.71.48-3.84-4.74-8.61-8.32-9.23-3.81-.66-10.72,0-15,0-2.53,0-.5,5.87-.46,7.46.12,4.51-.83,26.72.4,28.6.87,1.34,3.14.92,4.55.94.76-3.08-3.25-17.21.59-17.9.5-.09,3.71.8,4.16,1.16.71.58,5.68,9.44,7.74,11.75,1.02,1.15,3.97,4.43,4.96,5.04,1.45.89,5.63,2,4.55-.54ZM775.45,413.21c-2.77-1.02-2.44-14.13-.06-14.74,1.81-.46,10.52,2.49,11.22,4.58,2.55,7.71-3.94,12.81-11.16,10.16ZM832.76,393.4c-5.85,4.66-10.77,11.67-14.41,18.12-1.17,2.06-.34,5.61-4.03.82-4.77-6.18-6.04-18.04-16.55-15.94l8.41,10.09c5.79,8.22,8.14,16.8,7.59,26.91h3.99c-4.42-16.52,5.86-24,13.4-36.1.78-1.25,1.93-2.21,1.6-3.9ZM832.76,393.4c-5.85,4.66-10.77,11.67-14.41,18.12-1.17,2.06-.34,5.61-4.03.82-4.77-6.18-6.04-18.04-16.55-15.94l8.41,10.09c5.79,8.22,8.14,16.8,7.59,26.91h3.99c-4.42-16.52,5.86-24,13.4-36.1.78-1.25,1.93-2.21,1.6-3.9ZM795.76,432.91c-.67-1.56-5.85-5.4-7.43-7.57-9.37-12.89,3.03-9.65,4.26-19.71.48-3.84-4.74-8.61-8.32-9.23-3.81-.66-10.72,0-15,0-2.53,0-.5,5.87-.46,7.46.12,4.51-.83,26.72.4,28.6.87,1.34,3.14.92,4.55.94.76-3.08-3.25-17.21.59-17.9.5-.09,3.71.8,4.16,1.16.71.58,5.68,9.44,7.74,11.75,1.02,1.15,3.97,4.43,4.96,5.04,1.45.89,5.63,2,4.55-.54ZM775.45,413.21c-2.77-1.02-2.44-14.13-.06-14.74,1.81-.46,10.52,2.49,11.22,4.58,2.55,7.71-3.94,12.81-11.16,10.16ZM739.5,394.64c-19.32,3.15-20.05,29.31-5.07,38.59,7.63,4.73,16.55.33,20.75-6.92,7.19-12.39,2.04-34.56-15.68-31.67ZM749.31,428.45c-7.57,8.09-16.76,2.04-19.1-6.99-2.09-8.06-1.18-15.62,4.89-21.72.9-.91,2.96-2.07,4.21-2.29,14.58-2.47,18.73,21.67,10,31ZM720.76,396.4c-6.2-.67-12.46.54-18.49.82-1.72.08-3.54-1.1-5.92-.82-2.58.3-7.22,3.69-8.58,5.99,4.02-.47,9.94-3.65,13.72-3.82.95-.05,2.07.59,2.28,1.33v32c0,1.88,5,1.88,5,0v-31c0-3.17,8.38-2.4,10.52-2.5,1.65-.07,2.74-.9,1.47-2ZM681.3,397.37c-12.19-8.81-27.48,1.73-28.47,15.67-.68,9.44,8.4,22.75,18.4,22.42,4.54-.15,13.23-4.41,12.53-10.06-14.86,18.37-32.32-2.96-23.17-20.68,7.07-13.69,14.99-7.37,23.68-.32,1.56,1.26,2.52.08,2.48-.5-.03-.42-4.89-6.13-5.45-6.53ZM634.63,400.04c-1.22-2.47-3.27-2.95-5.86-2.64l-.47,6.04-12.53,28.96c9.27-5.64,8.93-17.78,12.54-26,.36-.84.25-2.8,1.94-1.99,2.7,1.28,4.07,11.48,5.33,14.68,1.14,2.94,10.32,18.98,14.18,15.31,1.36-1.3-15.13-29.55-15.13-34.36ZM613.27,396.4c-3.97-.71-10.53.14-15,0-2.39-.07-4.9-2.37-6.44.62,1.21,10.24,2.22,20.59,1.99,30.93-.04,1.61-1.1,4.13-.95,4.87.46,2.19,4.34,2.03,4.9.08.7-2.46,0-11.55,0-15,0-.18.9-3.36,1.01-3.5.34-.46,9.1,3.16,10.98-.51.47-2.42-1.94-1.43-3.48-1.49-5.65-.22-7.88,2.06-8.52-4.48-1.38-14.11,4.85-9.35,14.78-7.79,5.56.88,3.8-3.19.73-3.73ZM544.26,396.41c-5.82-.48-11.51,1.28-17.49,0-.39,1.13.95,2.08,1,2.49.84,7.24,0,17.37,0,25,0,.35,1.02,6.2,1.19,6.8.9,3.2,10.07,3.94,13.05,3.49,22.76-3.44,24.98-35.9,2.25-37.78ZM535.42,431.24c-4.93-1.6-2.03-18.12-1.66-22.34.23-2.65-1.09-9.58,1.64-10.43.51-.16,8.56.89,9.63,1.16,16.32,4.22,9.37,37.76-9.61,31.61ZM516.76,396.39h-2.99c-.08,8.71.61,17.51-1.5,26.01l-20.81-25.69c-8.64-3.84-3.19,2.69-2.66,7.16.52,4.42-1.03,28.44-.03,29.53.53.57,2.76-.69,3-1.5,1.63-5.69-1.21-18.9,0-25.5,1.98-.23,3.33,1.69,4.51,2.99,4.28,4.74,8.05,11.58,12.51,16.49,1.94,2.14,5.93,7.58,8.98,6.01-4.89-11.02.54-23.7-1.01-35.5ZM459.54,394.63c-7.65.89-12.49,4.75-15.01,12.04-3.4,9.85,2.26,24.49,12.27,28.19,6.93,2.56,16.72-3.89,19.46-10.46,5.46-13.08.11-31.73-16.72-29.77ZM463.58,431.74c-10.34,3.01-16.53-12.07-15.39-20.39,1.29-9.31,11.53-19.11,20.24-10.62,7.74,7.54,7.06,27.53-4.85,31.01ZM433.77,423.9c-.89-7.49,0-18.09,0-26,0-1.7-5.03-2.27-6.06-.06l-11.44,27.56c-1.17-.91-1.92-2.07-2.7-3.3-2.27-3.58-10.8-24.74-11.96-25.54-.92-.64-3.51.04-4.85-.16l-1.99,35.99c2.44,2.59,4-7.6,4.03-8.54.1-3.14-1.12-5.81-1.12-8.95-.01-1.29.74-10.1,1.09-10.5,2.02-2.3,5.64,9.32,6.14,10.36,1.04,2.2,7.49,16.36,8.39,16.62,1.44.43,2.72-.22,3.37-1.58l10.11-24.39c1.37.09,1.77,4.54,1.87,5.61.46,5.16-1.36,24.67,5.77,25.26,4.83.4-.35-9.83-.65-12.38ZM383.89,422.78c-2.44-4.98-7.24-20.93-10.08-23.92-1.04-1.1-1.91-1.75-3.52-1.46l-14.52,34.99c1.91,1.92,8.6-8.89,9.19-10.29,1.98-4.76,1.87-10.41,3.55-15.48.28-.87-.08-3.13,1.74-2.21,3.47,1.74,8.29,31.5,20.51,29.99l-6.87-11.62ZM346.77,427.9c-1.07-8.85,0-21.63,0-31,0-1.94-4.2-1.81-4.77,1.12-.21,1.05.8,3.2.81,4.83.03,5.06-1.04,28.04,1.19,30.31.97.99,3.36,1.3,4.76,1.23.68-.64-1.86-5.39-1.99-6.49ZM330.27,404.39c-1.11-2.44-6.72-7.99-9-7.99h-21c-3.13,2.15.02,3.16.47,5.53.93,4.84-.34,12.63-.02,18.01.73,12.01,1.55,16.57,15.31,14.22,13.52-2.3,19.69-17.79,14.24-29.77ZM326.71,418.84c-1.41,9.04-18.4,19.06-19.95,10.07-.83-4.79-.53-11.96-.99-17.01,1.77-3.07-.37-12.37,2.63-13.36,2.74-.9,10.19.46,12.75,1.98,5.67,3.34,6.46,12.46,5.56,18.32ZM266.76,429.4c-2.75.93-18.99,5.12-18.99.5v-14.5c4.37-.64,10.4,1.59,13.99-1.51.47-2.42-1.95-1.43-3.49-1.49-9.14-.35-11.86,2.16-10.55-9.55.6-5.41,4.97-4.82,9.54-4.44,3.77.32,6.16,1.8,9.5,2.99v-5s-23.99,0-23.99,0v28.5c0,.38,1.28,7.19,1.47,7.52,1.96,3.45,17.65,2.24,21.27.23,1.94-1.08,1.33-.93,1.25-3.25ZM229.63,398.04c-.76-2.32-3.92-1.6-5.86-1.64v16h-15.5l-1.5-1.5v-14.5h-41.51c-2.83.22-2.66,2.6-2.49,5,.52.52,14-4.61,14-.5v32.5c1.86.05,4.18.45,4.86-1.64,1.63-5.04-.55-20.13.13-26.86.26-2.51.65-5.97,3.49-6.51,2.61-.5,17.52-.72,17.52,2.51v32.5h4.99c-.81-2.62-2.27-18,.51-18h15.5c2.49,6.15-2.79,20.39,7.01,18.49-2.24-11.73-.32-23.95-1.15-35.85ZM229.63,398.04c-.76-2.32-3.92-1.6-5.86-1.64v16h-15.5l-1.5-1.5v-14.5h-41.51c-2.83.22-2.66,2.6-2.49,5,.52.52,14-4.61,14-.5v32.5c1.86.05,4.18.45,4.86-1.64,1.63-5.04-.55-20.13.13-26.86.26-2.51.65-5.97,3.49-6.51,2.61-.5,17.52-.72,17.52,2.51v32.5h4.99c-.81-2.62-2.27-18,.51-18h15.5c2.49,6.15-2.79,20.39,7.01,18.49-2.24-11.73-.32-23.95-1.15-35.85ZM266.76,429.4c-2.75.93-18.99,5.12-18.99.5v-14.5c4.37-.64,10.4,1.59,13.99-1.51.47-2.42-1.95-1.43-3.49-1.49-9.14-.35-11.86,2.16-10.55-9.55.6-5.41,4.97-4.82,9.54-4.44,3.77.32,6.16,1.8,9.5,2.99v-5s-23.99,0-23.99,0v28.5c0,.38,1.28,7.19,1.47,7.52,1.96,3.45,17.65,2.24,21.27.23,1.94-1.08,1.33-.93,1.25-3.25ZM330.27,404.39c-1.11-2.44-6.72-7.99-9-7.99h-21c-3.13,2.15.02,3.16.47,5.53.93,4.84-.34,12.63-.02,18.01.73,12.01,1.55,16.57,15.31,14.22,13.52-2.3,19.69-17.79,14.24-29.77ZM326.71,418.84c-1.41,9.04-18.4,19.06-19.95,10.07-.83-4.79-.53-11.96-.99-17.01,1.77-3.07-.37-12.37,2.63-13.36,2.74-.9,10.19.46,12.75,1.98,5.67,3.34,6.46,12.46,5.56,18.32ZM346.77,427.9c-1.07-8.85,0-21.63,0-31,0-1.94-4.2-1.81-4.77,1.12-.21,1.05.8,3.2.81,4.83.03,5.06-1.04,28.04,1.19,30.31.97.99,3.36,1.3,4.76,1.23.68-.64-1.86-5.39-1.99-6.49ZM383.89,422.78c-2.44-4.98-7.24-20.93-10.08-23.92-1.04-1.1-1.91-1.75-3.52-1.46l-14.52,34.99c1.91,1.92,8.6-8.89,9.19-10.29,1.98-4.76,1.87-10.41,3.55-15.48.28-.87-.08-3.13,1.74-2.21,3.47,1.74,8.29,31.5,20.51,29.99l-6.87-11.62ZM433.77,423.9c-.89-7.49,0-18.09,0-26,0-1.7-5.03-2.27-6.06-.06l-11.44,27.56c-1.17-.91-1.92-2.07-2.7-3.3-2.27-3.58-10.8-24.74-11.96-25.54-.92-.64-3.51.04-4.85-.16l-1.99,35.99c2.44,2.59,4-7.6,4.03-8.54.1-3.14-1.12-5.81-1.12-8.95-.01-1.29.74-10.1,1.09-10.5,2.02-2.3,5.64,9.32,6.14,10.36,1.04,2.2,7.49,16.36,8.39,16.62,1.44.43,2.72-.22,3.37-1.58l10.11-24.39c1.37.09,1.77,4.54,1.87,5.61.46,5.16-1.36,24.67,5.77,25.26,4.83.4-.35-9.83-.65-12.38ZM459.54,394.63c-7.65.89-12.49,4.75-15.01,12.04-3.4,9.85,2.26,24.49,12.27,28.19,6.93,2.56,16.72-3.89,19.46-10.46,5.46-13.08.11-31.73-16.72-29.77ZM463.58,431.74c-10.34,3.01-16.53-12.07-15.39-20.39,1.29-9.31,11.53-19.11,20.24-10.62,7.74,7.54,7.06,27.53-4.85,31.01ZM516.76,396.39h-2.99c-.08,8.71.61,17.51-1.5,26.01l-20.81-25.69c-8.64-3.84-3.19,2.69-2.66,7.16.52,4.42-1.03,28.44-.03,29.53.53.57,2.76-.69,3-1.5,1.63-5.69-1.21-18.9,0-25.5,1.98-.23,3.33,1.69,4.51,2.99,4.28,4.74,8.05,11.58,12.51,16.49,1.94,2.14,5.93,7.58,8.98,6.01-4.89-11.02.54-23.7-1.01-35.5ZM544.26,396.41c-5.82-.48-11.51,1.28-17.49,0-.39,1.13.95,2.08,1,2.49.84,7.24,0,17.37,0,25,0,.35,1.02,6.2,1.19,6.8.9,3.2,10.07,3.94,13.05,3.49,22.76-3.44,24.98-35.9,2.25-37.78ZM535.42,431.24c-4.93-1.6-2.03-18.12-1.66-22.34.23-2.65-1.09-9.58,1.64-10.43.51-.16,8.56.89,9.63,1.16,16.32,4.22,9.37,37.76-9.61,31.61ZM613.27,396.4c-3.97-.71-10.53.14-15,0-2.39-.07-4.9-2.37-6.44.62,1.21,10.24,2.22,20.59,1.99,30.93-.04,1.61-1.1,4.13-.95,4.87.46,2.19,4.34,2.03,4.9.08.7-2.46,0-11.55,0-15,0-.18.9-3.36,1.01-3.5.34-.46,9.1,3.16,10.98-.51.47-2.42-1.94-1.43-3.48-1.49-5.65-.22-7.88,2.06-8.52-4.48-1.38-14.11,4.85-9.35,14.78-7.79,5.56.88,3.8-3.19.73-3.73ZM634.63,400.04c-1.22-2.47-3.27-2.95-5.86-2.64l-.47,6.04-12.53,28.96c9.27-5.64,8.93-17.78,12.54-26,.36-.84.25-2.8,1.94-1.99,2.7,1.28,4.07,11.48,5.33,14.68,1.14,2.94,10.32,18.98,14.18,15.31,1.36-1.3-15.13-29.55-15.13-34.36ZM681.3,397.37c-12.19-8.81-27.48,1.73-28.47,15.67-.68,9.44,8.4,22.75,18.4,22.42,4.54-.15,13.23-4.41,12.53-10.06-14.86,18.37-32.32-2.96-23.17-20.68,7.07-13.69,14.99-7.37,23.68-.32,1.56,1.26,2.52.08,2.48-.5-.03-.42-4.89-6.13-5.45-6.53ZM720.76,396.4c-6.2-.67-12.46.54-18.49.82-1.72.08-3.54-1.1-5.92-.82-2.58.3-7.22,3.69-8.58,5.99,4.02-.47,9.94-3.65,13.72-3.82.95-.05,2.07.59,2.28,1.33v32c0,1.88,5,1.88,5,0v-31c0-3.17,8.38-2.4,10.52-2.5,1.65-.07,2.74-.9,1.47-2ZM739.5,394.64c-19.32,3.15-20.05,29.31-5.07,38.59,7.63,4.73,16.55.33,20.75-6.92,7.19-12.39,2.04-34.56-15.68-31.67ZM749.31,428.45c-7.57,8.09-16.76,2.04-19.1-6.99-2.09-8.06-1.18-15.62,4.89-21.72.9-.91,2.96-2.07,4.21-2.29,14.58-2.47,18.73,21.67,10,31ZM795.76,432.91c-.67-1.56-5.85-5.4-7.43-7.57-9.37-12.89,3.03-9.65,4.26-19.71.48-3.84-4.74-8.61-8.32-9.23-3.81-.66-10.72,0-15,0-2.53,0-.5,5.87-.46,7.46.12,4.51-.83,26.72.4,28.6.87,1.34,3.14.92,4.55.94.76-3.08-3.25-17.21.59-17.9.5-.09,3.71.8,4.16,1.16.71.58,5.68,9.44,7.74,11.75,1.02,1.15,3.97,4.43,4.96,5.04,1.45.89,5.63,2,4.55-.54ZM775.45,413.21c-2.77-1.02-2.44-14.13-.06-14.74,1.81-.46,10.52,2.49,11.22,4.58,2.55,7.71-3.94,12.81-11.16,10.16ZM832.76,393.4c-5.85,4.66-10.77,11.67-14.41,18.12-1.17,2.06-.34,5.61-4.03.82-4.77-6.18-6.04-18.04-16.55-15.94l8.41,10.09c5.79,8.22,8.14,16.8,7.59,26.91h3.99c-4.42-16.52,5.86-24,13.4-36.1.78-1.25,1.93-2.21,1.6-3.9ZM832.76,393.4c-5.85,4.66-10.77,11.67-14.41,18.12-1.17,2.06-.34,5.61-4.03.82-4.77-6.18-6.04-18.04-16.55-15.94l8.41,10.09c5.79,8.22,8.14,16.8,7.59,26.91h3.99c-4.42-16.52,5.86-24,13.4-36.1.78-1.25,1.93-2.21,1.6-3.9ZM795.76,432.91c-.67-1.56-5.85-5.4-7.43-7.57-9.37-12.89,3.03-9.65,4.26-19.71.48-3.84-4.74-8.61-8.32-9.23-3.81-.66-10.72,0-15,0-2.53,0-.5,5.87-.46,7.46.12,4.51-.83,26.72.4,28.6.87,1.34,3.14.92,4.55.94.76-3.08-3.25-17.21.59-17.9.5-.09,3.71.8,4.16,1.16.71.58,5.68,9.44,7.74,11.75,1.02,1.15,3.97,4.43,4.96,5.04,1.45.89,5.63,2,4.55-.54ZM775.45,413.21c-2.77-1.02-2.44-14.13-.06-14.74,1.81-.46,10.52,2.49,11.22,4.58,2.55,7.71-3.94,12.81-11.16,10.16ZM739.5,394.64c-19.32,3.15-20.05,29.31-5.07,38.59,7.63,4.73,16.55.33,20.75-6.92,7.19-12.39,2.04-34.56-15.68-31.67ZM749.31,428.45c-7.57,8.09-16.76,2.04-19.1-6.99-2.09-8.06-1.18-15.62,4.89-21.72.9-.91,2.96-2.07,4.21-2.29,14.58-2.47,18.73,21.67,10,31ZM720.76,396.4c-6.2-.67-12.46.54-18.49.82-1.72.08-3.54-1.1-5.92-.82-2.58.3-7.22,3.69-8.58,5.99,4.02-.47,9.94-3.65,13.72-3.82.95-.05,2.07.59,2.28,1.33v32c0,1.88,5,1.88,5,0v-31c0-3.17,8.38-2.4,10.52-2.5,1.65-.07,2.74-.9,1.47-2ZM681.3,397.37c-12.19-8.81-27.48,1.73-28.47,15.67-.68,9.44,8.4,22.75,18.4,22.42,4.54-.15,13.23-4.41,12.53-10.06-14.86,18.37-32.32-2.96-23.17-20.68,7.07-13.69,14.99-7.37,23.68-.32,1.56,1.26,2.52.08,2.48-.5-.03-.42-4.89-6.13-5.45-6.53ZM634.63,400.04c-1.22-2.47-3.27-2.95-5.86-2.64l-.47,6.04-12.53,28.96c9.27-5.64,8.93-17.78,12.54-26,.36-.84.25-2.8,1.94-1.99,2.7,1.28,4.07,11.48,5.33,14.68,1.14,2.94,10.32,18.98,14.18,15.31,1.36-1.3-15.13-29.55-15.13-34.36ZM613.27,396.4c-3.97-.71-10.53.14-15,0-2.39-.07-4.9-2.37-6.44.62,1.21,10.24,2.22,20.59,1.99,30.93-.04,1.61-1.1,4.13-.95,4.87.46,2.19,4.34,2.03,4.9.08.7-2.46,0-11.55,0-15,0-.18.9-3.36,1.01-3.5.34-.46,9.1,3.16,10.98-.51.47-2.42-1.94-1.43-3.48-1.49-5.65-.22-7.88,2.06-8.52-4.48-1.38-14.11,4.85-9.35,14.78-7.79,5.56.88,3.8-3.19.73-3.73ZM544.26,396.41c-5.82-.48-11.51,1.28-17.49,0-.39,1.13.95,2.08,1,2.49.84,7.24,0,17.37,0,25,0,.35,1.02,6.2,1.19,6.8.9,3.2,10.07,3.94,13.05,3.49,22.76-3.44,24.98-35.9,2.25-37.78ZM535.42,431.24c-4.93-1.6-2.03-18.12-1.66-22.34.23-2.65-1.09-9.58,1.64-10.43.51-.16,8.56.89,9.63,1.16,16.32,4.22,9.37,37.76-9.61,31.61ZM516.76,396.39h-2.99c-.08,8.71.61,17.51-1.5,26.01l-20.81-25.69c-8.64-3.84-3.19,2.69-2.66,7.16.52,4.42-1.03,28.44-.03,29.53.53.57,2.76-.69,3-1.5,1.63-5.69-1.21-18.9,0-25.5,1.98-.23,3.33,1.69,4.51,2.99,4.28,4.74,8.05,11.58,12.51,16.49,1.94,2.14,5.93,7.58,8.98,6.01-4.89-11.02.54-23.7-1.01-35.5ZM459.54,394.63c-7.65.89-12.49,4.75-15.01,12.04-3.4,9.85,2.26,24.49,12.27,28.19,6.93,2.56,16.72-3.89,19.46-10.46,5.46-13.08.11-31.73-16.72-29.77ZM463.58,431.74c-10.34,3.01-16.53-12.07-15.39-20.39,1.29-9.31,11.53-19.11,20.24-10.62,7.74,7.54,7.06,27.53-4.85,31.01ZM433.77,423.9c-.89-7.49,0-18.09,0-26,0-1.7-5.03-2.27-6.06-.06l-11.44,27.56c-1.17-.91-1.92-2.07-2.7-3.3-2.27-3.58-10.8-24.74-11.96-25.54-.92-.64-3.51.04-4.85-.16l-1.99,35.99c2.44,2.59,4-7.6,4.03-8.54.1-3.14-1.12-5.81-1.12-8.95-.01-1.29.74-10.1,1.09-10.5,2.02-2.3,5.64,9.32,6.14,10.36,1.04,2.2,7.49,16.36,8.39,16.62,1.44.43,2.72-.22,3.37-1.58l10.11-24.39c1.37.09,1.77,4.54,1.87,5.61.46,5.16-1.36,24.67,5.77,25.26,4.83.4-.35-9.83-.65-12.38ZM383.89,422.78c-2.44-4.98-7.24-20.93-10.08-23.92-1.04-1.1-1.91-1.75-3.52-1.46l-14.52,34.99c1.91,1.92,8.6-8.89,9.19-10.29,1.98-4.76,1.87-10.41,3.55-15.48.28-.87-.08-3.13,1.74-2.21,3.47,1.74,8.29,31.5,20.51,29.99l-6.87-11.62ZM346.77,427.9c-1.07-8.85,0-21.63,0-31,0-1.94-4.2-1.81-4.77,1.12-.21,1.05.8,3.2.81,4.83.03,5.06-1.04,28.04,1.19,30.31.97.99,3.36,1.3,4.76,1.23.68-.64-1.86-5.39-1.99-6.49ZM330.27,404.39c-1.11-2.44-6.72-7.99-9-7.99h-21c-3.13,2.15.02,3.16.47,5.53.93,4.84-.34,12.63-.02,18.01.73,12.01,1.55,16.57,15.31,14.22,13.52-2.3,19.69-17.79,14.24-29.77ZM326.71,418.84c-1.41,9.04-18.4,19.06-19.95,10.07-.83-4.79-.53-11.96-.99-17.01,1.77-3.07-.37-12.37,2.63-13.36,2.74-.9,10.19.46,12.75,1.98,5.67,3.34,6.46,12.46,5.56,18.32ZM266.76,429.4c-2.75.93-18.99,5.12-18.99.5v-14.5c4.37-.64,10.4,1.59,13.99-1.51.47-2.42-1.95-1.43-3.49-1.49-9.14-.35-11.86,2.16-10.55-9.55.6-5.41,4.97-4.82,9.54-4.44,3.77.32,6.16,1.8,9.5,2.99v-5s-23.99,0-23.99,0v28.5c0,.38,1.28,7.19,1.47,7.52,1.96,3.45,17.65,2.24,21.27.23,1.94-1.08,1.33-.93,1.25-3.25ZM229.63,398.04c-.76-2.32-3.92-1.6-5.86-1.64v16h-15.5l-1.5-1.5v-14.5h-41.51c-2.83.22-2.66,2.6-2.49,5,.52.52,14-4.61,14-.5v32.5c1.86.05,4.18.45,4.86-1.64,1.63-5.04-.55-20.13.13-26.86.26-2.51.65-5.97,3.49-6.51,2.61-.5,17.52-.72,17.52,2.51v32.5h4.99c-.81-2.62-2.27-18,.51-18h15.5c2.49,6.15-2.79,20.39,7.01,18.49-2.24-11.73-.32-23.95-1.15-35.85ZM229.63,398.04c-.76-2.32-3.92-1.6-5.86-1.64v16h-15.5l-1.5-1.5v-14.5h-41.51c-2.83.22-2.66,2.6-2.49,5,.52.52,14-4.61,14-.5v32.5c1.86.05,4.18.45,4.86-1.64,1.63-5.04-.55-20.13.13-26.86.26-2.51.65-5.97,3.49-6.51,2.61-.5,17.52-.72,17.52,2.51v32.5h4.99c-.81-2.62-2.27-18,.51-18h15.5c2.49,6.15-2.79,20.39,7.01,18.49-2.24-11.73-.32-23.95-1.15-35.85ZM266.76,429.4c-2.75.93-18.99,5.12-18.99.5v-14.5c4.37-.64,10.4,1.59,13.99-1.51.47-2.42-1.95-1.43-3.49-1.49-9.14-.35-11.86,2.16-10.55-9.55.6-5.41,4.97-4.82,9.54-4.44,3.77.32,6.16,1.8,9.5,2.99v-5s-23.99,0-23.99,0v28.5c0,.38,1.28,7.19,1.47,7.52,1.96,3.45,17.65,2.24,21.27.23,1.94-1.08,1.33-.93,1.25-3.25ZM330.27,404.39c-1.11-2.44-6.72-7.99-9-7.99h-21c-3.13,2.15.02,3.16.47,5.53.93,4.84-.34,12.63-.02,18.01.73,12.01,1.55,16.57,15.31,14.22,13.52-2.3,19.69-17.79,14.24-29.77ZM326.71,418.84c-1.41,9.04-18.4,19.06-19.95,10.07-.83-4.79-.53-11.96-.99-17.01,1.77-3.07-.37-12.37,2.63-13.36,2.74-.9,10.19.46,12.75,1.98,5.67,3.34,6.46,12.46,5.56,18.32ZM346.77,427.9c-1.07-8.85,0-21.63,0-31,0-1.94-4.2-1.81-4.77,1.12-.21,1.05.8,3.2.81,4.83.03,5.06-1.04,28.04,1.19,30.31.97.99,3.36,1.3,4.76,1.23.68-.64-1.86-5.39-1.99-6.49ZM383.89,422.78c-2.44-4.98-7.24-20.93-10.08-23.92-1.04-1.1-1.91-1.75-3.52-1.46l-14.52,34.99c1.91,1.92,8.6-8.89,9.19-10.29,1.98-4.76,1.87-10.41,3.55-15.48.28-.87-.08-3.13,1.74-2.21,3.47,1.74,8.29,31.5,20.51,29.99l-6.87-11.62ZM433.77,423.9c-.89-7.49,0-18.09,0-26,0-1.7-5.03-2.27-6.06-.06l-11.44,27.56c-1.17-.91-1.92-2.07-2.7-3.3-2.27-3.58-10.8-24.74-11.96-25.54-.92-.64-3.51.04-4.85-.16l-1.99,35.99c2.44,2.59,4-7.6,4.03-8.54.1-3.14-1.12-5.81-1.12-8.95-.01-1.29.74-10.1,1.09-10.5,2.02-2.3,5.64,9.32,6.14,10.36,1.04,2.2,7.49,16.36,8.39,16.62,1.44.43,2.72-.22,3.37-1.58l10.11-24.39c1.37.09,1.77,4.54,1.87,5.61.46,5.16-1.36,24.67,5.77,25.26,4.83.4-.35-9.83-.65-12.38ZM459.54,394.63c-7.65.89-12.49,4.75-15.01,12.04-3.4,9.85,2.26,24.49,12.27,28.19,6.93,2.56,16.72-3.89,19.46-10.46,5.46-13.08.11-31.73-16.72-29.77ZM463.58,431.74c-10.34,3.01-16.53-12.07-15.39-20.39,1.29-9.31,11.53-19.11,20.24-10.62,7.74,7.54,7.06,27.53-4.85,31.01ZM516.76,396.39h-2.99c-.08,8.71.61,17.51-1.5,26.01l-20.81-25.69c-8.64-3.84-3.19,2.69-2.66,7.16.52,4.42-1.03,28.44-.03,29.53.53.57,2.76-.69,3-1.5,1.63-5.69-1.21-18.9,0-25.5,1.98-.23,3.33,1.69,4.51,2.99,4.28,4.74,8.05,11.58,12.51,16.49,1.94,2.14,5.93,7.58,8.98,6.01-4.89-11.02.54-23.7-1.01-35.5ZM544.26,396.41c-5.82-.48-11.51,1.28-17.49,0-.39,1.13.95,2.08,1,2.49.84,7.24,0,17.37,0,25,0,.35,1.02,6.2,1.19,6.8.9,3.2,10.07,3.94,13.05,3.49,22.76-3.44,24.98-35.9,2.25-37.78ZM535.42,431.24c-4.93-1.6-2.03-18.12-1.66-22.34.23-2.65-1.09-9.58,1.64-10.43.51-.16,8.56.89,9.63,1.16,16.32,4.22,9.37,37.76-9.61,31.61ZM613.27,396.4c-3.97-.71-10.53.14-15,0-2.39-.07-4.9-2.37-6.44.62,1.21,10.24,2.22,20.59,1.99,30.93-.04,1.61-1.1,4.13-.95,4.87.46,2.19,4.34,2.03,4.9.08.7-2.46,0-11.55,0-15,0-.18.9-3.36,1.01-3.5.34-.46,9.1,3.16,10.98-.51.47-2.42-1.94-1.43-3.48-1.49-5.65-.22-7.88,2.06-8.52-4.48-1.38-14.11,4.85-9.35,14.78-7.79,5.56.88,3.8-3.19.73-3.73ZM634.63,400.04c-1.22-2.47-3.27-2.95-5.86-2.64l-.47,6.04-12.53,28.96c9.27-5.64,8.93-17.78,12.54-26,.36-.84.25-2.8,1.94-1.99,2.7,1.28,4.07,11.48,5.33,14.68,1.14,2.94,10.32,18.98,14.18,15.31,1.36-1.3-15.13-29.55-15.13-34.36ZM681.3,397.37c-12.19-8.81-27.48,1.73-28.47,15.67-.68,9.44,8.4,22.75,18.4,22.42,4.54-.15,13.23-4.41,12.53-10.06-14.86,18.37-32.32-2.96-23.17-20.68,7.07-13.69,14.99-7.37,23.68-.32,1.56,1.26,2.52.08,2.48-.5-.03-.42-4.89-6.13-5.45-6.53ZM720.76,396.4c-6.2-.67-12.46.54-18.49.82-1.72.08-3.54-1.1-5.92-.82-2.58.3-7.22,3.69-8.58,5.99,4.02-.47,9.94-3.65,13.72-3.82.95-.05,2.07.59,2.28,1.33v32c0,1.88,5,1.88,5,0v-31c0-3.17,8.38-2.4,10.52-2.5,1.65-.07,2.74-.9,1.47-2ZM739.5,394.64c-19.32,3.15-20.05,29.31-5.07,38.59,7.63,4.73,16.55.33,20.75-6.92,7.19-12.39,2.04-34.56-15.68-31.67ZM749.31,428.45c-7.57,8.09-16.76,2.04-19.1-6.99-2.09-8.06-1.18-15.62,4.89-21.72.9-.91,2.96-2.07,4.21-2.29,14.58-2.47,18.73,21.67,10,31ZM795.76,432.91c-.67-1.56-5.85-5.4-7.43-7.57-9.37-12.89,3.03-9.65,4.26-19.71.48-3.84-4.74-8.61-8.32-9.23-3.81-.66-10.72,0-15,0-2.53,0-.5,5.87-.46,7.46.12,4.51-.83,26.72.4,28.6.87,1.34,3.14.92,4.55.94.76-3.08-3.25-17.21.59-17.9.5-.09,3.71.8,4.16,1.16.71.58,5.68,9.44,7.74,11.75,1.02,1.15,3.97,4.43,4.96,5.04,1.45.89,5.63,2,4.55-.54ZM775.45,413.21c-2.77-1.02-2.44-14.13-.06-14.74,1.81-.46,10.52,2.49,11.22,4.58,2.55,7.71-3.94,12.81-11.16,10.16ZM832.76,393.4c-5.85,4.66-10.77,11.67-14.41,18.12-1.17,2.06-.34,5.61-4.03.82-4.77-6.18-6.04-18.04-16.55-15.94l8.41,10.09c5.79,8.22,8.14,16.8,7.59,26.91h3.99c-4.42-16.52,5.86-24,13.4-36.1.78-1.25,1.93-2.21,1.6-3.9ZM832.76,393.4c-5.85,4.66-10.77,11.67-14.41,18.12-1.17,2.06-.34,5.61-4.03.82-4.77-6.18-6.04-18.04-16.55-15.94l8.41,10.09c5.79,8.22,8.14,16.8,7.59,26.91h3.99c-4.42-16.52,5.86-24,13.4-36.1.78-1.25,1.93-2.21,1.6-3.9ZM795.76,432.91c-.67-1.56-5.85-5.4-7.43-7.57-9.37-12.89,3.03-9.65,4.26-19.71.48-3.84-4.74-8.61-8.32-9.23-3.81-.66-10.72,0-15,0-2.53,0-.5,5.87-.46,7.46.12,4.51-.83,26.72.4,28.6.87,1.34,3.14.92,4.55.94.76-3.08-3.25-17.21.59-17.9.5-.09,3.71.8,4.16,1.16.71.58,5.68,9.44,7.74,11.75,1.02,1.15,3.97,4.43,4.96,5.04,1.45.89,5.63,2,4.55-.54ZM775.45,413.21c-2.77-1.02-2.44-14.13-.06-14.74,1.81-.46,10.52,2.49,11.22,4.58,2.55,7.71-3.94,12.81-11.16,10.16ZM739.5,394.64c-19.32,3.15-20.05,29.31-5.07,38.59,7.63,4.73,16.55.33,20.75-6.92,7.19-12.39,2.04-34.56-15.68-31.67ZM749.31,428.45c-7.57,8.09-16.76,2.04-19.1-6.99-2.09-8.06-1.18-15.62,4.89-21.72.9-.91,2.96-2.07,4.21-2.29,14.58-2.47,18.73,21.67,10,31ZM720.76,396.4c-6.2-.67-12.46.54-18.49.82-1.72.08-3.54-1.1-5.92-.82-2.58.3-7.22,3.69-8.58,5.99,4.02-.47,9.94-3.65,13.72-3.82.95-.05,2.07.59,2.28,1.33v32c0,1.88,5,1.88,5,0v-31c0-3.17,8.38-2.4,10.52-2.5,1.65-.07,2.74-.9,1.47-2ZM681.3,397.37c-12.19-8.81-27.48,1.73-28.47,15.67-.68,9.44,8.4,22.75,18.4,22.42,4.54-.15,13.23-4.41,12.53-10.06-14.86,18.37-32.32-2.96-23.17-20.68,7.07-13.69,14.99-7.37,23.68-.32,1.56,1.26,2.52.08,2.48-.5-.03-.42-4.89-6.13-5.45-6.53ZM634.63,400.04c-1.22-2.47-3.27-2.95-5.86-2.64l-.47,6.04-12.53,28.96c9.27-5.64,8.93-17.78,12.54-26,.36-.84.25-2.8,1.94-1.99,2.7,1.28,4.07,11.48,5.33,14.68,1.14,2.94,10.32,18.98,14.18,15.31,1.36-1.3-15.13-29.55-15.13-34.36ZM613.27,396.4c-3.97-.71-10.53.14-15,0-2.39-.07-4.9-2.37-6.44.62,1.21,10.24,2.22,20.59,1.99,30.93-.04,1.61-1.1,4.13-.95,4.87.46,2.19,4.34,2.03,4.9.08.7-2.46,0-11.55,0-15,0-.18.9-3.36,1.01-3.5.34-.46,9.1,3.16,10.98-.51.47-2.42-1.94-1.43-3.48-1.49-5.65-.22-7.88,2.06-8.52-4.48-1.38-14.11,4.85-9.35,14.78-7.79,5.56.88,3.8-3.19.73-3.73ZM544.26,396.41c-5.82-.48-11.51,1.28-17.49,0-.39,1.13.95,2.08,1,2.49.84,7.24,0,17.37,0,25,0,.35,1.02,6.2,1.19,6.8.9,3.2,10.07,3.94,13.05,3.49,22.76-3.44,24.98-35.9,2.25-37.78ZM535.42,431.24c-4.93-1.6-2.03-18.12-1.66-22.34.23-2.65-1.09-9.58,1.64-10.43.51-.16,8.56.89,9.63,1.16,16.32,4.22,9.37,37.76-9.61,31.61ZM516.76,396.39h-2.99c-.08,8.71.61,17.51-1.5,26.01l-20.81-25.69c-8.64-3.84-3.19,2.69-2.66,7.16.52,4.42-1.03,28.44-.03,29.53.53.57,2.76-.69,3-1.5,1.63-5.69-1.21-18.9,0-25.5,1.98-.23,3.33,1.69,4.51,2.99,4.28,4.74,8.05,11.58,12.51,16.49,1.94,2.14,5.93,7.58,8.98,6.01-4.89-11.02.54-23.7-1.01-35.5ZM459.54,394.63c-7.65.89-12.49,4.75-15.01,12.04-3.4,9.85,2.26,24.49,12.27,28.19,6.93,2.56,16.72-3.89,19.46-10.46,5.46-13.08.11-31.73-16.72-29.77ZM463.58,431.74c-10.34,3.01-16.53-12.07-15.39-20.39,1.29-9.31,11.53-19.11,20.24-10.62,7.74,7.54,7.06,27.53-4.85,31.01ZM433.77,423.9c-.89-7.49,0-18.09,0-26,0-1.7-5.03-2.27-6.06-.06l-11.44,27.56c-1.17-.91-1.92-2.07-2.7-3.3-2.27-3.58-10.8-24.74-11.96-25.54-.92-.64-3.51.04-4.85-.16l-1.99,35.99c2.44,2.59,4-7.6,4.03-8.54.1-3.14-1.12-5.81-1.12-8.95-.01-1.29.74-10.1,1.09-10.5,2.02-2.3,5.64,9.32,6.14,10.36,1.04,2.2,7.49,16.36,8.39,16.62,1.44.43,2.72-.22,3.37-1.58l10.11-24.39c1.37.09,1.77,4.54,1.87,5.61.46,5.16-1.36,24.67,5.77,25.26,4.83.4-.35-9.83-.65-12.38ZM383.89,422.78c-2.44-4.98-7.24-20.93-10.08-23.92-1.04-1.1-1.91-1.75-3.52-1.46l-14.52,34.99c1.91,1.92,8.6-8.89,9.19-10.29,1.98-4.76,1.87-10.41,3.55-15.48.28-.87-.08-3.13,1.74-2.21,3.47,1.74,8.29,31.5,20.51,29.99l-6.87-11.62ZM346.77,427.9c-1.07-8.85,0-21.63,0-31,0-1.94-4.2-1.81-4.77,1.12-.21,1.05.8,3.2.81,4.83.03,5.06-1.04,28.04,1.19,30.31.97.99,3.36,1.3,4.76,1.23.68-.64-1.86-5.39-1.99-6.49ZM330.27,404.39c-1.11-2.44-6.72-7.99-9-7.99h-21c-3.13,2.15.02,3.16.47,5.53.93,4.84-.34,12.63-.02,18.01.73,12.01,1.55,16.57,15.31,14.22,13.52-2.3,19.69-17.79,14.24-29.77ZM326.71,418.84c-1.41,9.04-18.4,19.06-19.95,10.07-.83-4.79-.53-11.96-.99-17.01,1.77-3.07-.37-12.37,2.63-13.36,2.74-.9,10.19.46,12.75,1.98,5.67,3.34,6.46,12.46,5.56,18.32ZM266.76,429.4c-2.75.93-18.99,5.12-18.99.5v-14.5c4.37-.64,10.4,1.59,13.99-1.51.47-2.42-1.95-1.43-3.49-1.49-9.14-.35-11.86,2.16-10.55-9.55.6-5.41,4.97-4.82,9.54-4.44,3.77.32,6.16,1.8,9.5,2.99v-5s-23.99,0-23.99,0v28.5c0,.38,1.28,7.19,1.47,7.52,1.96,3.45,17.65,2.24,21.27.23,1.94-1.08,1.33-.93,1.25-3.25ZM229.63,398.04c-.76-2.32-3.92-1.6-5.86-1.64v16h-15.5l-1.5-1.5v-14.5h-41.51c-2.83.22-2.66,2.6-2.49,5,.52.52,14-4.61,14-.5v32.5c1.86.05,4.18.45,4.86-1.64,1.63-5.04-.55-20.13.13-26.86.26-2.51.65-5.97,3.49-6.51,2.61-.5,17.52-.72,17.52,2.51v32.5h4.99c-.81-2.62-2.27-18,.51-18h15.5c2.49,6.15-2.79,20.39,7.01,18.49-2.24-11.73-.32-23.95-1.15-35.85Z"/>
  <path d="M877.76,108.4l2,6c-2.03.78-3.81-3-4.5-2.99-.35.01-1.79,2.32-3.19,2.8-5.94,2.05-2.19-3.89-2.51-7.08-.14-1.42-4.25-9.97,1.07-6.6.57.36,3.32,8.28,3.15,9.87,6.16-.48,3.14-9.11,3.99-10,2.42-2.54,6.02,10.03-.01,8Z"/>
  <path d="M890.71,105.96c-1.22-8.12-11.24-14.62-19.19-13.37-6.38,1-13.9,8.51-13.68,15.2.25,7.79,10.32,18.95,18.36,17.61.5-.08,6.82-3.14,7.48-3.58,4.64-3.07,7.86-10.36,7.03-15.86ZM886.2,115.33c-3.5,5.02-11.16,10-16.83,5.91-1.07-.77-1.32-2.04-1.91-2.52-1.25-1.02-3.11-.96-4.16-2.35-3.47-4.57-3.28-16.67,2.51-19.42,11.99-5.68,29.4,5.46,20.39,18.38Z"/>
  <path d="M359.77,858.4c.53-.54,3.6.09,3.91,1.58l-1.41,48.43c-3.73.37-7.61-8.61-10.09-11.91s-20.16-27.05-21.9-27.08c-2.87-.06-.52,9.38-.45,11.44.21,6.84-1.19,13.98-1.1,20,.05,3.35,3.59,7.87-2.94,7.54,1.02-9.47,1.28-18.98,1.04-28.54-.06-2.42-1.13-4.55-1.09-6.91.03-1.91,1.17-3.63,1.02-5.92-.38-5.89-5.7-7.06-5.97-8.13-1.04-4.23,6.31-1.05,7.95.05,2.02,1.35,8.93,9.51,11.02,11.98,3.28,3.87,14.82,21.34,17.54,22.47,1.59.66,2.49-3.12,2.49-3.49,0-4.34-1.11-30.38,0-31.5Z"/>
  <path d="M708.12,858.55c-15.92-9.69-29.66,9.07-22.09,25.08,5.08,10.75,15.07,7.42,24.74,6.77.26,13.85-9.24,18.59-22,17,.71,5.62,13.15,2.67,16.69,1.2,15.01-6.22,14.19-43.03,2.66-50.05ZM709.63,888.27c-1.88,1.27-14.15.06-16.56-2.17-7.15-6.62-4.86-30.17,9.76-25.26,6.38,2.14,10.52,24.9,6.8,27.43Z"/>
  <path d="M750.77,907.4c9.49.59,19.68-.31,22.53-10.98,1.09-4.07.97-19.89.23-24.3-2.9-17.26-22.75-15.8-20.66,3.66,1.25,11.65,7.99,14.69,18.89,11.61-.99,2.52-4.04,3.55-6.58,3.9-25.57,3.51-22.53-41.23,2.62-34.44,15.37,4.15,15.45,40.03,4.9,48.97-4.15,3.51-18.7,7.84-21.93,1.57Z"/>
  <path d="M479.77,903.9c.89,5.39,17.04,4,20.93,1.93.84-.44,6.7-7.47,6.09-2.92-.98,7.24-14.85,7.75-20.52,7.49-1.94-.09-10.25-1.2-11.03-1.97-1.02-1.01-1.33-3.08-1.5-4.5-.89-7.77,1.89-38.53-1.5-42.5-1.07-1.25-3.44-1.05-4.47-2.53-.4-2.21.9-1.52,2.41-1.34,8.8,1.03,16.73-.68,25.13-.19,2.21.13,6.71.43,8.42,1.58,2.04,1.37,3.07,6.34.53,7.46-.62.27-1.08-3.17-1.97-4.03-2.38-2.31-18.64-2.68-21.32-.77-2.93,2.09-.13,16.94-.21,20.8h19.5c1.48,0,1.48,3,0,3h-19l-1.5,1.5c.6,5.23-.82,12.03,0,17Z"/>
  <path d="M647.46,905.09c-3.88,4.6-17.43,7.56-22.68,3.79-.47-2.43,1.94-1.42,3.48-1.49,6.42-.29,13.23-.05,16.28-6.72,4.05-8.86,4.85-30.19-2.22-37.34-3.14-3.18-7.9-3.53-11.81-1.69-5.47,2.57-6.15,17.84-2.21,22.71,3.7,4.57,7.15,3.92,12.07,3.13s1.95,2.95-1.32,3.69c-22.65,5.14-25.41-33.66-2.75-34.81,19.79-1.01,20.21,37.99,11.15,48.73Z"/>
  <path d="M246.76,872.4c-4.07-2.77-5.72-9.91-10.94-11.56-6.84-2.16-15.9-.58-15.92,8.05-.04,13.19,33.42,13.24,25.37,32.5-6.73,16.08-32.87,9.76-32.49-6.99,2.73-.54,1.71.68,2.42,2.02,1.31,2.48,1.84,4.83,4.08,6.97,6.82,6.5,23.28,6.09,22.58-5.5-.57-9.6-25.27-14.93-27.04-26.05-3.29-20.67,32.41-20.03,31.94.56Z"/>
  <path d="M438.76,872.39l-7.3-9.68c-23.82-13.33-36.63,19.19-25.15,36.64,6.38,9.69,19.16,11.7,27.95,4.04.59-.52,4.72-7.11,4.49-3.51-16.14,23.69-44.31,7.01-42.03-19.03.67-7.65,6.16-19.51,13.5-22.5,12.33-5.01,28.1-1.33,28.53,14.04Z"/>
  <path d="M586.77,857.4v52h-5v-43c-3.11-.88-4.63,3.01-6.97,3.56-1.36.32-2.27-.89-2.03-2.04.21-1.01,6.47-4.9,7.9-6.11,2.02-1.71,2.24-5.25,6.1-4.4Z"/>
  <path d="M285.77,857.4v36.5c0,1.33,1.04,10.17,1.43,11.59.53,1.89,8.27,6.71-.49,4.47-5.1-1.31-5.3-4.32-5.82-9.18-.96-9.12-1.24-31-.17-39.93.44-3.69,1.36-3.67,5.05-3.45Z"/>
  <path d="M230.78,433.89c-9.8,1.9-4.52-12.34-7.01-18.49h-15.5c-2.78,0-1.32,15.38-.51,18h-4.99v-32.5c0-3.23-14.91-3.01-17.52-2.51-2.84.54-3.23,4-3.49,6.51-.68,6.73,1.5,21.82-.13,26.86-.68,2.09-3,1.69-4.86,1.64v-32.5c0-4.11-13.48,1.02-14,.5-.17-2.4-.34-4.78,2.49-5h41.51v14.5l1.5,1.5h15.5v-16c1.94.04,5.1-.68,5.86,1.64.83,11.9-1.09,24.12,1.15,35.85Z"/>
  <path d="M266.76,429.4c.08,2.32.69,2.17-1.25,3.25-3.62,2.01-19.31,3.22-21.27-.23-.19-.33-1.47-7.14-1.47-7.52v-28.5h24v5c-3.35-1.19-5.74-2.67-9.51-2.99-4.57-.38-8.94-.97-9.54,4.44-1.31,11.71,1.41,9.2,10.55,9.55,1.54.06,3.96-.93,3.49,1.49-3.59,3.1-9.62.87-13.99,1.51v14.5c0,4.62,16.24.43,18.99-.5Z"/>
  <path d="M330.27,404.39c-1.11-2.44-6.72-7.99-9-7.99h-21c-3.13,2.15.02,3.16.47,5.53.93,4.84-.34,12.63-.02,18.01.73,12.01,1.55,16.57,15.31,14.22,13.52-2.3,19.69-17.79,14.24-29.77ZM326.71,418.84c-1.41,9.04-18.4,19.06-19.95,10.07-.83-4.79-.53-11.96-.99-17.01,1.77-3.07-.37-12.37,2.63-13.36,2.74-.9,10.19.46,12.75,1.98,5.67,3.34,6.46,12.46,5.56,18.32Z"/>
  <path d="M346.77,427.9c.13,1.1,2.67,5.85,1.99,6.49-1.4.07-3.79-.24-4.76-1.23-2.23-2.27-1.16-25.25-1.19-30.31,0-1.63-1.02-3.78-.81-4.83.57-2.93,4.77-3.06,4.77-1.12,0,9.37-1.07,22.15,0,31Z"/>
  <path d="M383.89,422.78l6.87,11.62c-12.22,1.51-17.04-28.25-20.51-29.99-1.82-.92-1.46,1.34-1.74,2.21-1.68,5.07-1.57,10.72-3.55,15.48-.59,1.4-7.28,12.21-9.19,10.29l14.52-34.99c1.61-.29,2.48.36,3.52,1.46,2.84,2.99,7.64,18.94,10.08,23.92Z"/>
  <path d="M433.77,423.9c.3,2.55,5.48,12.78.65,12.38-7.13-.59-5.31-20.1-5.77-25.26-.1-1.07-.5-5.52-1.87-5.61l-10.11,24.39c-.65,1.36-1.93,2.01-3.37,1.58-.9-.26-7.35-14.42-8.39-16.62-.5-1.04-4.12-12.66-6.14-10.36-.35.4-1.1,9.21-1.09,10.5,0,3.14,1.22,5.81,1.12,8.95-.03.94-1.59,11.13-4.03,8.54l1.99-35.99c1.34.2,3.93-.48,4.85.16,1.16.8,9.69,21.96,11.96,25.54.78,1.23,1.53,2.39,2.7,3.3l11.44-27.56c1.03-2.21,6.06-1.64,6.06.06,0,7.91-.89,18.51,0,26Z"/>
  <path d="M459.54,394.63c-7.65.89-12.49,4.75-15.01,12.04-3.4,9.85,2.26,24.49,12.27,28.19,6.93,2.56,16.72-3.89,19.46-10.46,5.46-13.08.11-31.73-16.72-29.77ZM463.58,431.74c-10.34,3.01-16.53-12.07-15.39-20.39,1.29-9.31,11.53-19.11,20.24-10.62,7.74,7.54,7.06,27.53-4.85,31.01Z"/>
  <path d="M517.77,431.89c-3.05,1.57-7.04-3.87-8.98-6.01-4.46-4.91-8.23-11.75-12.51-16.49-1.18-1.3-2.53-3.22-4.51-2.99-1.21,6.6,1.63,19.81,0,25.5-.24.81-2.47,2.07-3,1.5-1-1.09.55-25.11.03-29.53-.53-4.47-5.98-11,2.66-7.16l20.81,25.69c2.11-8.5,1.42-17.3,1.5-26.01h2.99c1.55,11.8-3.88,24.48,1.01,35.5Z"/>
  <path d="M544.26,396.41c-5.82-.48-11.51,1.28-17.49,0-.39,1.13.95,2.08,1,2.49.84,7.24,0,17.37,0,25,0,.35,1.02,6.2,1.19,6.8.9,3.2,10.07,3.94,13.05,3.49,22.76-3.44,24.98-35.9,2.25-37.78ZM535.42,431.24c-4.93-1.6-2.03-18.12-1.66-22.34.23-2.65-1.09-9.58,1.64-10.43.51-.16,8.56.89,9.63,1.16,16.32,4.22,9.37,37.76-9.61,31.61Z"/>
  <path d="M612.54,400.13c-9.93-1.56-16.16-6.32-14.78,7.79.64,6.54,2.87,4.26,8.52,4.48,1.54.06,3.95-.93,3.48,1.49-1.88,3.67-10.64.05-10.98.51-.11.14-1.01,3.32-1.01,3.5,0,3.45.7,12.54,0,15-.56,1.95-4.44,2.11-4.9-.08-.15-.74.91-3.26.95-4.87.23-10.34-.78-20.69-1.99-30.93,1.54-2.99,4.05-.69,6.44-.62,4.47.14,11.03-.71,15,0,3.07.54,4.83,4.61-.73,3.73Z"/>
  <path d="M634.63,400.04c0,4.81,16.49,33.06,15.13,34.36-3.86,3.67-13.04-12.37-14.18-15.31-1.26-3.2-2.63-13.4-5.33-14.68-1.69-.81-1.58,1.15-1.94,1.99-3.61,8.22-3.27,20.36-12.54,26l12.53-28.96.47-6.04c2.59-.31,4.64.17,5.86,2.64Z"/>
  <path d="M686.75,403.9c.04.58-.92,1.76-2.48.5-8.69-7.05-16.61-13.37-23.68.32-9.15,17.72,8.31,39.05,23.17,20.68.7,5.65-7.99,9.91-12.53,10.06-10,.33-19.08-12.98-18.4-22.42.99-13.94,16.28-24.48,28.47-15.67.56.4,5.42,6.11,5.45,6.53Z"/>
  <path d="M720.76,396.4c1.27,1.1.18,1.93-1.47,2-2.14.1-10.52-.67-10.52,2.5v31c0,1.88-5,1.88-5,0v-32c-.21-.74-1.33-1.38-2.28-1.33-3.78.17-9.7,3.35-13.72,3.82,1.36-2.3,6-5.69,8.58-5.99,2.38-.28,4.2.9,5.92.82,6.03-.28,12.29-1.49,18.49-.82Z"/>
  <path d="M739.5,394.64c-19.32,3.15-20.05,29.31-5.07,38.59,7.63,4.73,16.55.33,20.75-6.92,7.19-12.39,2.04-34.56-15.68-31.67ZM749.31,428.45c-7.57,8.09-16.76,2.04-19.1-6.99-2.09-8.06-1.18-15.62,4.89-21.72.9-.91,2.96-2.07,4.21-2.29,14.58-2.47,18.73,21.67,10,31Z"/>
  <path d="M795.76,432.91c-.67-1.56-5.85-5.4-7.43-7.57-9.37-12.89,3.03-9.65,4.26-19.71.48-3.84-4.74-8.61-8.32-9.23-3.81-.66-10.72,0-15,0-2.53,0-.5,5.87-.46,7.46.12,4.51-.83,26.72.4,28.6.87,1.34,3.14.92,4.55.94.76-3.08-3.25-17.21.59-17.9.5-.09,3.71.8,4.16,1.16.71.58,5.68,9.44,7.74,11.75,1.02,1.15,3.97,4.43,4.96,5.04,1.45.89,5.63,2,4.55-.54ZM775.45,413.21c-2.77-1.02-2.44-14.13-.06-14.74,1.81-.46,10.52,2.49,11.22,4.58,2.55,7.71-3.94,12.81-11.16,10.16Z"/>
  <path d="M831.16,397.3c-7.54,12.1-17.82,19.58-13.4,36.1h-3.99c.55-10.11-1.8-18.69-7.59-26.91l-8.41-10.09c10.51-2.1,11.78,9.76,16.55,15.94,3.69,4.79,2.86,1.24,4.03-.82,3.64-6.45,8.56-13.46,14.41-18.12.33,1.69-.82,2.65-1.6,3.9Z"/>
  <path d="M877.76,108.4l2,6c-2.03.78-3.81-3-4.5-2.99-.35.01-1.79,2.32-3.19,2.8-5.94,2.05-2.19-3.89-2.51-7.08-.14-1.42-4.25-9.97,1.07-6.6.57.36,3.32,8.28,3.15,9.87,6.16-.48,3.14-9.11,3.99-10,2.42-2.54,6.02,10.03-.01,8Z"/>
  <path d="M230.78,433.89c-9.8,1.9-4.52-12.34-7.01-18.49h-15.5c-2.78,0-1.32,15.38-.51,18h-4.99v-32.5c0-3.23-14.91-3.01-17.52-2.51-2.84.54-3.23,4-3.49,6.51-.68,6.73,1.5,21.82-.13,26.86-.68,2.09-3,1.69-4.86,1.64v-32.5c0-4.11-13.48,1.02-14,.5-.17-2.4-.34-4.78,2.49-5h41.51v14.5l1.5,1.5h15.5v-16c1.94.04,5.1-.68,5.86,1.64.83,11.9-1.09,24.12,1.15,35.85Z"/>
  <path d="M434.42,436.28c-7.13-.59-5.31-20.1-5.77-25.26-.1-1.07-.5-5.52-1.87-5.61l-10.11,24.39c-.65,1.36-1.93,2.01-3.37,1.58-.9-.26-7.35-14.42-8.39-16.62-.5-1.04-4.12-12.66-6.14-10.36-.35.4-1.1,9.21-1.09,10.5,0,3.14,1.22,5.81,1.12,8.95-.03.94-1.59,11.13-4.03,8.54l1.99-35.99c1.34.2,3.93-.48,4.85.16,1.16.8,9.69,21.96,11.96,25.54.78,1.23,1.53,2.39,2.7,3.3l11.44-27.56c1.03-2.21,6.06-1.64,6.06.06,0,7.91-.89,18.51,0,26,.3,2.55,5.48,12.78.65,12.38Z"/>
  <path d="M544.26,396.41c-5.82-.48-11.51,1.28-17.49,0-.39,1.13.95,2.08,1,2.49.84,7.24,0,17.37,0,25,0,.35,1.02,6.2,1.19,6.8.9,3.2,10.07,3.94,13.05,3.49,22.76-3.44,24.98-35.9,2.25-37.78ZM535.42,431.24c-4.93-1.6-2.03-18.12-1.66-22.34.23-2.65-1.09-9.58,1.64-10.43.51-.16,8.56.89,9.63,1.16,16.32,4.22,9.37,37.76-9.61,31.61Z"/>
  <path d="M330.27,404.39c-1.11-2.44-6.72-7.99-9-7.99h-21c-3.13,2.15.02,3.16.47,5.53.93,4.84-.34,12.63-.02,18.01.73,12.01,1.55,16.57,15.31,14.22,13.52-2.3,19.69-17.79,14.24-29.77ZM326.71,418.84c-1.41,9.04-18.4,19.06-19.95,10.07-.83-4.79-.53-11.96-.99-17.01,1.77-3.07-.37-12.37,2.63-13.36,2.74-.9,10.19.46,12.75,1.98,5.67,3.34,6.46,12.46,5.56,18.32Z"/>
  <path d="M459.54,394.63c-7.65.89-12.49,4.75-15.01,12.04-3.4,9.85,2.26,24.49,12.27,28.19,6.93,2.56,16.72-3.89,19.46-10.46,5.46-13.08.11-31.73-16.72-29.77ZM463.58,431.74c-10.34,3.01-16.53-12.07-15.39-20.39,1.29-9.31,11.53-19.11,20.24-10.62,7.74,7.54,7.06,27.53-4.85,31.01Z"/>
  <path d="M739.5,394.64c-19.32,3.15-20.05,29.31-5.07,38.59,7.63,4.73,16.55.33,20.75-6.92,7.19-12.39,2.04-34.56-15.68-31.67ZM749.31,428.45c-7.57,8.09-16.76,2.04-19.1-6.99-2.09-8.06-1.18-15.62,4.89-21.72.9-.91,2.96-2.07,4.21-2.29,14.58-2.47,18.73,21.67,10,31Z"/>
  <path d="M795.76,432.91c-.67-1.56-5.85-5.4-7.43-7.57-9.37-12.89,3.03-9.65,4.26-19.71.48-3.84-4.74-8.61-8.32-9.23-3.81-.66-10.72,0-15,0-2.53,0-.5,5.87-.46,7.46.12,4.51-.83,26.72.4,28.6.87,1.34,3.14.92,4.55.94.76-3.08-3.25-17.21.59-17.9.5-.09,3.71.8,4.16,1.16.71.58,5.68,9.44,7.74,11.75,1.02,1.15,3.97,4.43,4.96,5.04,1.45.89,5.63,2,4.55-.54ZM775.45,413.21c-2.77-1.02-2.44-14.13-.06-14.74,1.81-.46,10.52,2.49,11.22,4.58,2.55,7.71-3.94,12.81-11.16,10.16Z"/>
  <path d="M517.77,431.89c-3.05,1.57-7.04-3.87-8.98-6.01-4.46-4.91-8.23-11.75-12.51-16.49-1.18-1.3-2.53-3.22-4.51-2.99-1.21,6.6,1.63,19.81,0,25.5-.24.81-2.47,2.07-3,1.5-1-1.09.55-25.11.03-29.53-.53-4.47-5.98-11,2.66-7.16l20.81,25.69c2.11-8.5,1.42-17.3,1.5-26.01h2.99c1.55,11.8-3.88,24.48,1.01,35.5Z"/>
  <path d="M265.51,432.65c-3.62,2.01-19.31,3.22-21.27-.23-.19-.33-1.47-7.14-1.47-7.52v-28.5h24v5c-3.35-1.19-5.74-2.67-9.51-2.99-4.57-.38-8.94-.97-9.54,4.44-1.31,11.71,1.41,9.2,10.55,9.55,1.54.06,3.96-.93,3.49,1.49-3.59,3.1-9.62.87-13.99,1.51v14.5c0,4.62,16.24.43,18.99-.5.08,2.32.69,2.17-1.25,3.25Z"/>
  <path d="M649.76,434.4c-3.86,3.67-13.04-12.37-14.18-15.31-1.26-3.2-2.63-13.4-5.33-14.68-1.69-.81-1.58,1.15-1.94,1.99-3.61,8.22-3.27,20.36-12.54,26l12.53-28.96.47-6.04c2.59-.31,4.64.17,5.86,2.64,0,4.81,16.49,33.06,15.13,34.36Z"/>
  <path d="M686.75,403.9c.04.58-.92,1.76-2.48.5-8.69-7.05-16.61-13.37-23.68.32-9.15,17.72,8.31,39.05,23.17,20.68.7,5.65-7.99,9.91-12.53,10.06-10,.33-19.08-12.98-18.4-22.42.99-13.94,16.28-24.48,28.47-15.67.56.4,5.42,6.11,5.45,6.53Z"/>
  <path d="M612.54,400.13c-9.93-1.56-16.16-6.32-14.78,7.79.64,6.54,2.87,4.26,8.52,4.48,1.54.06,3.95-.93,3.48,1.49-1.88,3.67-10.64.05-10.98.51-.11.14-1.01,3.32-1.01,3.5,0,3.45.7,12.54,0,15-.56,1.95-4.44,2.11-4.9-.08-.15-.74.91-3.26.95-4.87.23-10.34-.78-20.69-1.99-30.93,1.54-2.99,4.05-.69,6.44-.62,4.47.14,11.03-.71,15,0,3.07.54,4.83,4.61-.73,3.73Z"/>
  <path d="M719.29,398.4c-2.14.1-10.52-.67-10.52,2.5v31c0,1.88-5,1.88-5,0v-32c-.21-.74-1.33-1.38-2.28-1.33-3.78.17-9.7,3.35-13.72,3.82,1.36-2.3,6-5.69,8.58-5.99,2.38-.28,4.2.9,5.92.82,6.03-.28,12.29-1.49,18.49-.82,1.27,1.1.18,1.93-1.47,2Z"/>
  <path d="M831.16,397.3c-7.54,12.1-17.82,19.58-13.4,36.1h-3.99c.55-10.11-1.8-18.69-7.59-26.91l-8.41-10.09c10.51-2.1,11.78,9.76,16.55,15.94,3.69,4.79,2.86,1.24,4.03-.82,3.64-6.45,8.56-13.46,14.41-18.12.33,1.69-.82,2.65-1.6,3.9Z"/>
  <path d="M390.76,434.4c-12.22,1.51-17.04-28.25-20.51-29.99-1.82-.92-1.46,1.34-1.74,2.21-1.68,5.07-1.57,10.72-3.55,15.48-.59,1.4-7.28,12.21-9.19,10.29l14.52-34.99c1.61-.29,2.48.36,3.52,1.46,2.84,2.99,7.64,18.94,10.08,23.92l6.87,11.62Z"/>
  <path d="M348.76,434.39c-1.4.07-3.79-.24-4.76-1.23-2.23-2.27-1.16-25.25-1.19-30.31,0-1.63-1.02-3.78-.81-4.83.57-2.93,4.77-3.06,4.77-1.12,0,9.37-1.07,22.15,0,31,.13,1.1,2.67,5.85,1.99,6.49Z"/>
  <path d="M877.76,108.4l2,6c-2.03.78-3.81-3-4.5-2.99-.35.01-1.79,2.32-3.19,2.8-5.94,2.05-2.19-3.89-2.51-7.08-.14-1.42-4.25-9.97,1.07-6.6.57.36,3.32,8.28,3.15,9.87,6.16-.48,3.14-9.11,3.99-10,2.42-2.54,6.02,10.03-.01,8Z"/>
</svg>