<?xml version="1.0" encoding="UTF-8"?>
<svg xmlns="http://www.w3.org/2000/svg" xmlns:xlink="http://www.w3.org/1999/xlink" viewBox="0 0 11520 1024">
  <defs>
    <style>
      .cls-1 {
        clip-path: url(#clippath-34);
      }

      .cls-2 {
        clip-path: url(#clippath-21);
      }

      .cls-3 {
        clip-path: url(#clippath-6);
      }

      .cls-4 {
        clip-path: url(#clippath-7);
      }

      .cls-5 {
        clip-path: url(#clippath-17);
      }

      .cls-6 {
        clip-path: url(#clippath-31);
      }

      .cls-7 {
        clip-path: url(#clippath-15);
      }

      .cls-8 {
        clip-path: url(#clippath-33);
      }

      .cls-9 {
        clip-path: url(#clippath-18);
      }

      .cls-10 {
        clip-path: url(#clippath-4);
      }

      .cls-11 {
        clip-path: url(#clippath-22);
      }

      .cls-12 {
        clip-path: url(#clippath-23);
      }

      .cls-13 {
        fill: #f4cc5d;
      }

      .cls-14 {
        clip-path: url(#clippath-9);
      }

      .cls-15 {
        clip-path: url(#clippath-10);
      }

      .cls-16 {
        fill: none;
        stroke: #fcd24c;
        stroke-miterlimit: 10;
      }

      .cls-17 {
        clip-path: url(#clippath-25);
      }

      .cls-18 {
        clip-path: url(#clippath-27);
      }

      .cls-19 {
        clip-path: url(#clippath-11);
      }

      .cls-20 {
        fill: #fcd24c;
      }

      .cls-21 {
        clip-path: url(#clippath-28);
      }

      .cls-22 {
        clip-path: url(#clippath-1);
      }

      .cls-23 {
        clip-path: url(#clippath-5);
      }

      .cls-24 {
        clip-path: url(#clippath-20);
      }

      .cls-25 {
        clip-path: url(#clippath-8);
      }

      .cls-26 {
        clip-path: url(#clippath-3);
      }

      .cls-27 {
        fill: #f2dd5e;
      }

      .cls-28 {
        clip-path: url(#clippath-26);
      }

      .cls-29 {
        fill: #ffe566;
      }

      .cls-30 {
        clip-path: url(#clippath-12);
      }

      .cls-31 {
        clip-path: url(#clippath-14);
      }

      .cls-32 {
        clip-path: url(#clippath-30);
      }

      .cls-33 {
        clip-path: url(#clippath-19);
      }

      .cls-34 {
        clip-path: url(#clippath-32);
      }

      .cls-35 {
        clip-path: url(#clippath-16);
      }

      .cls-36 {
        clip-path: url(#clippath-2);
      }

      .cls-37 {
        clip-path: url(#clippath-29);
      }

      .cls-38 {
        clip-path: url(#clippath-13);
      }

      .cls-39 {
        clip-path: url(#clippath-24);
      }

      .cls-40 {
        clip-path: url(#clippath);
      }
    </style>
    <clipPath id="clippath">
      <path class="cls-29" d="M1127.7,232.55v-46.37c0-.51-.42-.93-.93-.93h-33.3c-.51,0-.93.42-.93.93v41.04c0,6.06-4.96,11.03-11.03,11.03h-168.96c-.51,0-.93.41-.93.92l-.3,31.07c0,.52.41.94.93.94h176.82c21.34,0,38.63-17.3,38.63-38.63Z"/>
    </clipPath>
    <clipPath id="clippath-1">
      <path class="cls-29" d="M376.21,35.45h-2.54c-18.11,0-32.8,15.47-32.8,34.54v65.16s35.34,0,35.34,0v-60.71c0-3.11,2.39-5.63,5.34-5.63h29.92s0-33.37,0-33.37h-34.76s-.5,0-.5,0Z"/>
    </clipPath>
    <clipPath id="clippath-2">
      <path class="cls-29" d="M619.43,35.39l-.05-34.81h-36.38s.09,28.32.09,28.32c0,3.62-2.93,6.55-6.55,6.55h-166.67v33.39h173.44c19.94,0,36.11-13.51,36.11-33.45Z"/>
    </clipPath>
    <clipPath id="clippath-3">
      <polygon class="cls-29" points="744.89 121 172.41 121.32 172.41 153.31 744.89 152.47 744.89 121"/>
    </clipPath>
    <clipPath id="clippath-4">
      <path class="cls-29" d="M11123.29,62.01l.16,58.78c0,2.89,2.36,5.23,5.25,5.22l236-.43v31.99h-253.3c-10.73,0-19.43-8.7-19.43-19.43v-66.65c0-1.71-1.38-3.09-3.09-3.09l-9893.2-.48c-1.08,0-1.96-.88-1.96-1.96v-25.54c0-1.08.88-1.96,1.96-1.96l9896.29.09,7.6-.05c13.05-.08,23.68,10.45,23.71,23.5Z"/>
    </clipPath>
    <clipPath id="clippath-5">
      <path class="cls-29" d="M153.58,25.48V.64h-28.77v14.7c0,4.32-3.5,7.82-7.82,7.82H0v31.88h124.02c16.33,0,29.56-13.24,29.56-29.56Z"/>
    </clipPath>
    <clipPath id="clippath-6">
      <path class="cls-29" d="M11376.79,25.55V.71s28.77,0,28.77,0v14.7c0,4.32,3.5,7.82,7.82,7.82h128.45s0,31.88,0,31.88h-135.48c-16.33,0-29.56-13.24-29.56-29.56Z"/>
    </clipPath>
    <clipPath id="clippath-7">
      <rect class="cls-29" x="63.01" y="8.43" width="29.05" height="78.71"/>
    </clipPath>
    <clipPath id="clippath-8">
      <path class="cls-29" d="M171.67,153.3l.18-31.96-75.17-.18c-2.54,0-4.6-2.1-4.6-4.7v-29.34h-29.06v35.54c0,16.92,13.45,30.64,30.04,30.64h78.62Z"/>
    </clipPath>
    <clipPath id="clippath-9">
      <rect class="cls-29" x="11452.12" y="7.14" width="29.05" height="85.22" transform="translate(22933.29 99.51) rotate(180)"/>
    </clipPath>
    <clipPath id="clippath-10">
      <path class="cls-29" d="M11369.24,157.53l-.7-31.8,78.44-.18c2.83-.11,4.89-2.29,5.12-4.85v-29.34s29.06,0,29.06,0v35.54c0,16.92-13.45,30.64-30.04,30.64h-81.89Z"/>
    </clipPath>
    <clipPath id="clippath-11">
      <path class="cls-29" d="M142.12,121.27v-21.94c0-15.55-12.61-28.16-28.16-28.16H0v31.47h108.41c2.82,0,5.1,2.29,5.1,5.1v13.45l28.61.07Z"/>
    </clipPath>
    <clipPath id="clippath-12">
      <path class="cls-29" d="M11384.39,125.61l-.12-26.07c0-15.55,12.61-28.16,28.16-28.16h134.85s0,31.47,0,31.47h-129.31c-2.82,0-5.1,2.29-5.1,5.1l-.06,17.62-28.42.03Z"/>
    </clipPath>
    <clipPath id="clippath-13">
      <path class="cls-29" d="M1189.59,38.98h-67.33c-15.55,0-29.71,12.98-29.71,28.99v117.28h35.16v-111.57c0-2.9,2.29-5.25,5.1-5.25h56.78s0-29.44,0-29.44Z"/>
    </clipPath>
    <clipPath id="clippath-14">
      <path class="cls-29" d="M888.39,270.9c-16.56,0-29.98-13.42-29.98-29.98v-83.35c0-2.82-2.29-5.1-5.1-5.1h-108.41v-31.47h113.95c15.55,0,28.16,12.61,28.16,28.16v84.15c0,2.77,2.24,5.01,5.01,5.01h20.23v32.59h-23.86Z"/>
    </clipPath>
    <clipPath id="clippath-15">
      <path class="cls-29" d="M11026.5,342.56V1.07h-37.34v329.11c0,2.19-1.78,3.97-3.97,3.97h-83.35c-2.33,0-4.23-1.89-4.23-4.23V1.18h-37.34v340.01c0,16.21,13.14,29.35,29.35,29.35h108.9c15.45,0,27.98-12.53,27.98-27.98Z"/>
    </clipPath>
    <clipPath id="clippath-16">
      <path class="cls-29" d="M1892,169.62v-37h-164.14c-2.62,0-4.75-2.13-4.75-4.75v-59.04h-33.11l-.89,67.41c0,18.44,14.95,33.39,33.39,33.39h169.5Z"/>
    </clipPath>
    <clipPath id="clippath-17">
      <path class="cls-29" d="M10211.81,169.62h-105.03s-8214.78,0-8214.78,0v-37h8196.11s118.34,0,118.34,0c2.62,0,4.75-2.13,4.75-4.75v-59.04h34v67.4c0,18.44-14.95,33.39-33.39,33.39Z"/>
    </clipPath>
    <clipPath id="clippath-18">
      <path class="cls-29" d="M3806.31,393.7l-.78-382.77h-33.53l.76,366.72c0,4.63-3.74,8.39-8.37,8.39h-769.77c-2.75,0-4.99-2.22-5-4.98l-1.81-370.13h-33.53l1.83,384.18c0,15.43,12.51,27.93,27.93,27.93h792.93c16.2,0,29.34-13.13,29.34-29.34Z"/>
    </clipPath>
    <clipPath id="clippath-19">
      <path class="cls-29" d="M3553.86,234.94V10.21h-33.53v206.1c0,3.67-2.97,6.64-6.64,6.64h-849.74c-3,0-5.43-2.43-5.43-5.43V10.93h-33.53v222.47c0,14.67,11.89,26.55,26.55,26.55h877.29c13.81,0,25.01-11.2,25.01-25.01Z"/>
    </clipPath>
    <clipPath id="clippath-20">
      <path class="cls-29" d="M4480.48,344.96c-11.92,0-21.59-9.66-21.59-21.59v-32.7c0-2.66-2.16-4.82-4.82-4.82h-134.43c-16.48,0-29.83-13.36-29.83-29.83V12.31h33.83v224.04c0,6.07,4.92,11,11,11h123.42c18.73,0,33.92,15.19,33.92,33.92l.4,22.78c.03,1.61,1.34,2.91,2.96,2.91h464.56v38h-479.41Z"/>
    </clipPath>
    <clipPath id="clippath-21">
      <path class="cls-29" d="M9995.59,285.18h-128.71c-2.66,0-4.82,2.16-4.82,4.82l-.05,24.48v10.47c0,11.77-9.54,21.3-21.3,21.3h-667.49l-.17-35.76,650.76-2.36c2.83-.01,5.12-2.31,5.12-5.13l.03-22.4c0-18.73,15.19-33.92,33.92-33.92h129.99c2.45,0,4.43-1.98,4.43-4.43l-.63-68.62h34.22l.24,75.99c0,19.64-15.92,35.56-35.56,35.56Z"/>
    </clipPath>
    <clipPath id="clippath-22">
      <path class="cls-29" d="M5404.32,303.91v-39.11h-35.62c-3.74,0-6.77-3.03-6.77-6.77v-24.22c0-19.49-15.8-35.28-35.28-35.28h-53.96c-20.95,0-37.93,16.98-37.93,37.93v84.46c0,3.49-2.83,6.33-6.33,6.33h-132.77c-3.15,0-5.71-2.56-5.71-5.71v-43.39c0-19.48-15.79-35.27-35.27-35.27h-30.39c-17.28,0-31.29,14.01-31.29,31.29v26.09c0,3.69-2.99,6.68-6.68,6.68h-23.01v38.44h30.7c18.69,0,33.85-15.15,33.85-33.85l-.09-27.44c-.01-4.1,3.31-7.43,7.41-7.43h7.6c4.08,0,7.4,3.31,7.41,7.39l.1,46.15c0,20.25,16.42,36.67,36.67,36.67h3.69l144.9-.35c21.35-.05,38.63-17.37,38.63-38.72v-86.75c0-3.55,2.88-6.44,6.44-6.44h37.55c4.01,0,7.27,3.25,7.27,7.27v24.35c0,20.8,16.86,37.66,37.66,37.66h41.23Z"/>
    </clipPath>
    <clipPath id="clippath-23">
      <path class="cls-29" d="M5845.32,306.97v39.11h-35.62c-3.74,0-6.77,3.03-6.77,6.77v24.22c0,19.49-15.8,35.28-35.28,35.28h-53.96c-20.95,0-37.93-16.98-37.93-37.93v-84.46c0-3.49-2.83-6.33-6.33-6.33h-132.77c-3.15,0-5.71,2.56-5.71,5.71v43.39c0,19.48-15.79,35.27-35.27,35.27h-30.39c-17.28,0-31.29-14.01-31.29-31.29v-26.09c0-3.69-2.99-6.68-6.68-6.68h-23.01v-39.12h30.7c18.69,0,33.85,15.15,33.85,33.85l-.09,28.12c-.01,4.1,3.31,7.43,7.41,7.43h7.6c4.08,0,7.4-3.31,7.41-7.39l.1-46.15c0-20.25,16.42-36.67,36.67-36.67h3.69l144.9.35c21.35.05,38.63,17.37,38.63,38.72v86.75c0,3.55,2.88,6.44,6.44,6.44h37.55c4.01,0,7.27-3.25,7.27-7.27v-24.35c0-20.8,16.86-37.66,37.66-37.66h41.23Z"/>
    </clipPath>
    <clipPath id="clippath-24">
      <path class="cls-29" d="M6286.32,303.91v-39.11h-35.62c-3.74,0-6.77-3.03-6.77-6.77v-24.22c0-19.49-15.8-35.28-35.28-35.28h-53.96c-20.95,0-37.93,16.98-37.93,37.93v84.46c0,3.49-2.83,6.33-6.33,6.33h-132.77c-3.15,0-5.71-2.56-5.71-5.71v-43.39c0-19.48-15.79-35.27-35.27-35.27h-30.39c-17.28,0-31.29,14.01-31.29,31.29v26.09c0,3.69-2.99,6.68-6.68,6.68h-23.01v39.12h30.7c18.69,0,33.85-15.15,33.85-33.85l-.09-28.12c-.01-4.1,3.31-7.43,7.41-7.43h7.6c4.08,0,7.4,3.31,7.41,7.39l.1,46.15c0,20.25,16.42,36.67,36.67,36.67h3.69l144.9-.35c21.35-.05,38.63-17.37,38.63-38.72v-86.75c0-3.55,2.88-6.44,6.44-6.44h37.55c4.01,0,7.27,3.25,7.27,7.27v24.35c0,20.8,16.86,37.66,37.66,37.66h41.23Z"/>
    </clipPath>
    <clipPath id="clippath-25">
      <path class="cls-29" d="M6286.32,303.91v-39.11s35.62,0,35.62,0c3.74,0,6.77-3.03,6.77-6.77v-24.22c0-19.49,15.8-35.28,35.28-35.28h53.96c20.95,0,37.93,16.98,37.93,37.93v84.46c0,3.49,2.83,6.33,6.33,6.33h132.77c3.15,0,5.71-2.56,5.71-5.71v-43.39c0-19.48,15.79-35.27,35.27-35.27h30.39c17.28,0,31.29,14.01,31.29,31.29v26.09c0,3.69,2.99,6.68,6.68,6.68h23.01s0,39.12,0,39.12h-30.7c-18.69,0-33.85-15.15-33.85-33.85l.09-28.12c.01-4.1-3.31-7.43-7.41-7.43h-7.6c-4.08,0-7.4,3.31-7.41,7.39l-.1,46.15c0,20.25-16.42,36.67-36.67,36.67h-3s-.69,0-.69,0l-144.9-.35c-21.35-.05-38.63-17.37-38.63-38.72v-86.75c0-3.55-2.88-6.44-6.44-6.44h-37.55c-4.01,0-7.27,3.25-7.27,7.27v24.35c0,20.8-16.86,37.66-37.66,37.66h-41.23Z"/>
    </clipPath>
    <clipPath id="clippath-26">
      <path class="cls-29" d="M6727.32,346.39v-39.11s35.62,0,35.62,0c3.74,0,6.77-3.03,6.77-6.77v-24.22c0-19.49,15.8-35.28,35.28-35.28h53.96c20.95,0,37.93,16.98,37.93,37.93v84.46c0,3.49,2.83,6.33,6.33,6.33h132.77c3.15,0,5.71-2.56,5.71-5.71v-43.39c0-19.48,15.79-35.27,35.27-35.27h30.39c17.28,0,31.29,14.01,31.29,31.29v26.09c0,3.69,2.99,6.68,6.68,6.68h23.01s0,39.12,0,39.12h-30.7c-18.69,0-33.85-15.15-33.85-33.85l.09-28.12c.01-4.1-3.31-7.43-7.41-7.43h-7.6c-4.08,0-7.4,3.31-7.41,7.39l-.1,46.15c0,20.25-16.42,36.67-36.67,36.67h-3s-.69,0-.69,0l-144.9-.35c-21.35-.05-38.63-17.37-38.63-38.72v-86.75c0-3.55-2.88-6.44-6.44-6.44h-37.55c-4.01,0-7.27,3.25-7.27,7.27v24.35c0,20.8-16.86,37.66-37.66,37.66h-41.23Z"/>
    </clipPath>
    <clipPath id="clippath-27">
      <path class="cls-29" d="M7970,237.65v-39.34s35.62.23,35.62.23c3.74,0,6.77-3.03,6.77-6.77v-69.09c0-19.49,15.8-35.28,35.28-35.28h53.96c20.95,0,37.93,16.98,37.93,37.93v129.33c0,3.49,2.83,6.33,6.33,6.33h132.77c3.15,0,5.71-2.56,5.71-5.71v-43.39c0-19.48,15.79-35.27,35.27-35.27h30.39c17.28,0,31.29,14.01,31.29,31.29v26.09c0,3.69,2.99,6.68,6.68,6.68h23.01s0,39.12,0,39.12h-30.7c-18.69,0-33.85-15.15-33.85-33.85l.09-28.12c.01-4.1-3.31-7.43-7.41-7.43h-7.6c-4.08,0-7.4,3.31-7.41,7.39l-.1,46.15c0,20.25-16.42,36.67-36.67,36.67h-3s-.69,0-.69,0l-144.9-.35c-21.35-.05-38.63-17.37-38.63-38.72v-131.62c0-3.55-2.88-6.44-6.44-6.44h-37.55c-4.01,0-7.27,3.25-7.27,7.27v69.22c0,20.8-16.86,37.66-37.66,37.66h-41.23Z"/>
    </clipPath>
    <clipPath id="clippath-28">
      <polygon class="cls-29" points="7609.32 306.93 9170.36 310.38 9170.36 346.16 7609.32 346.16 7609.32 306.93"/>
    </clipPath>
    <clipPath id="clippath-29">
      <path class="cls-29" d="M8744.97,239.15v39.12s35.62-.23,35.62-.23c3.74,0,6.77,3.03,6.77,6.77v77.74c0,19.49,15.8,35.28,35.28,35.28h53.96c20.95,0,37.93-16.98,37.93-37.93v-137.98c0-3.49,2.83-6.33,6.33-6.33h132.77c3.15,0,5.71,2.56,5.71,5.71v43.39c0,19.48,15.79,35.27,35.27,35.27h30.39c17.28,0,31.29-14.01,31.29-31.29v-26.09c0-3.69,2.99-6.68,6.68-6.68h23.01s0-39.4,0-39.4l-30.7.27c-18.69,0-33.85,15.15-33.85,33.85l.09,28.12c.01,4.1-3.31,7.43-7.41,7.43h-7.6c-4.08,0-7.4-3.31-7.41-7.39l-.1-46.15c0-20.25-16.42-36.67-36.67-36.67h-3s-.69,0-.69,0l-144.9.35c-21.35.05-38.63,17.37-38.63,38.72v140.27c0,3.55-2.88,6.44-6.44,6.44h-37.55c-4.01,0-7.27-3.25-7.27-7.27v-77.87c0-20.8-16.86-37.66-37.66-37.66l-41.23.22Z"/>
    </clipPath>
    <clipPath id="clippath-30">
      <path class="cls-29" d="M7609.32,346.1v-39.11h-35.62c-3.74,0-6.77-3.03-6.77-6.77v-24.22c0-19.49-15.8-35.28-35.28-35.28h-53.96c-20.95,0-37.93,16.98-37.93,37.93v84.46c0,3.49-2.83,6.33-6.33,6.33h-132.77c-3.15,0-5.71-2.56-5.71-5.71v-43.39c0-19.48-15.79-35.27-35.27-35.27h-30.39c-17.28,0-31.29,14.01-31.29,31.29v26.09c0,3.69-2.99,6.68-6.68,6.68h-23.01s0,39.12,0,39.12h30.7c18.69,0,33.85-15.15,33.85-33.85l-.09-28.12c-.01-4.1,3.31-7.43,7.41-7.43h7.6c4.08,0,7.4,3.31,7.41,7.39l.1,46.15c0,20.25,16.42,36.67,36.67,36.67h3.69l144.9-.35c21.35-.05,38.63-17.37,38.63-38.72v-82.32c0-6,4.86-10.86,10.86-10.86h33.12c4.01,0,7.27,3.25,7.27,7.27v24.35c0,20.8,16.86,37.66,37.66,37.66h41.23Z"/>
    </clipPath>
    <clipPath id="clippath-31">
      <path class="cls-20" d="M7575.59,355.89s24.17-24.83.83-60.5l33.83-.17-.16,60.83-34.5-.17Z"/>
    </clipPath>
    <clipPath id="clippath-32">
      <path class="cls-29" d="M7885.9,237.73c-20.95,0-37.93-16.98-37.93-37.93v-53.96c0-19.49,15.8-35.28,35.28-35.28h24.22c3.74,0,6.77-3.03,6.77-6.77l.39-94.16h37.29l1.43,99.77c0,20.8-16.86,37.66-37.66,37.66h-24.35c-4.02,0-7.27,3.25-7.27,7.27v37.55c0,3.55,2.88,6.44,6.44,6.44h79.49v39.42h-84.1Z"/>
    </clipPath>
    <clipPath id="clippath-33">
      <path class="cls-29" d="M9270.07,235.9c20.95,0,37.93-16.98,37.93-37.93v-53.96c0-19.49-15.8-35.28-35.28-35.28h-24.22c-3.74,0-6.77-3.03-6.77-6.77l-.3-22.87h-38.81v28.48c0,20.8,16.86,37.66,37.66,37.66h24.35c4.02,0,7.27,3.25,7.27,7.27v37.55c0,3.55-2.88,6.44-6.44,6.44h-79.49c0,12.81,0,26.59,0,39.42h84.1Z"/>
    </clipPath>
    <clipPath id="clippath-34">
      <polygon class="cls-29" points="8744.97 239.15 8411 240.68 8411 279.81 8745.1 278.27 8744.97 239.15"/>
    </clipPath>
  </defs>
  <g id="BG">
    <rect class="cls-27" width="11520" height="1024.08"/>
    <rect class="cls-20" x="0" y="944.5" width="11520" height="79.5"/>
  </g>
  <g id="pipes">
    <g>
      <g>
        <path class="cls-29" d="M1127.7,232.55v-46.37c0-.51-.42-.93-.93-.93h-33.3c-.51,0-.93.42-.93.93v41.04c0,6.06-4.96,11.03-11.03,11.03h-168.96c-.51,0-.93.41-.93.92l-.3,31.07c0,.52.41.94.93.94h176.82c21.34,0,38.63-17.3,38.63-38.63Z"/>
        <g class="cls-40">
          <path class="cls-20" d="M905.62,254.23v-40.22h141.64c12.8,0,23.17-13.03,23.17-29.11v-2.83h38.73v50.86c0,11.11-7.14,20.12-15.98,20.18l-187.56,1.13Z"/>
        </g>
      </g>
      <g>
        <path class="cls-29" d="M376.21,35.45h-2.54c-18.11,0-32.8,15.47-32.8,34.54v65.16s35.34,0,35.34,0v-60.71c0-3.11,2.39-5.63,5.34-5.63h29.92s0-33.37,0-33.37h-34.76s-.5,0-.5,0Z"/>
        <g class="cls-22">
          <path class="cls-20" d="M334.89,103.95c5.5,11.18,45.3,9.29,46.95.73l.82,23.74-48.22.36.44-24.83Z"/>
          <path class="cls-20" d="M412.28,50.53h-35.95c-10.21,0-18.51,8.25-18.56,18.46l-.35,66.16h-22s-.89-99.7-.89-99.7h84.25l-6.5,15.08Z"/>
        </g>
      </g>
      <g>
        <path class="cls-29" d="M619.43,35.39l-.05-34.81h-36.38s.09,28.32.09,28.32c0,3.62-2.93,6.55-6.55,6.55h-166.67v33.39h173.44c19.94,0,36.11-13.51,36.11-33.45Z"/>
        <g class="cls-36">
          <path class="cls-20" d="M364.73,50.53v-28.89h173.7c14.58,0,26.4-11.82,26.4-26.4v-38.93h34.22V32.36c0,9.84-7.96,17.81-17.8,17.83l-216.53.34Z"/>
        </g>
      </g>
      <g>
        <polygon class="cls-29" points="744.89 121 172.41 121.32 172.41 153.31 744.89 152.47 744.89 121"/>
        <g class="cls-26">
          <polyline class="cls-20" points="168.43 55.58 168.43 135.15 743.2 135.15 743.2 53.99 168.43 55.58"/>
        </g>
      </g>
      <path class="cls-13" d="M578.8.03h45.37v2.56c0,3.54-2.87,6.42-6.42,6.42h-32.54c-3.54,0-6.42-2.87-6.42-6.42V.03h0Z"/>
      <path class="cls-13" d="M4281.06.06h50.95v6.5c0,3.54-2.87,6.42-6.42,6.42h-38.12c-3.54,0-6.42-2.87-6.42-6.42V.06h0Z"/>
      <path class="cls-13" d="M9196.76,68.83h50.95v6.27c0,3.54-2.87,6.42-6.42,6.42h-38.12c-3.54,0-6.42-2.87-6.42-6.42v-6.27h0Z"/>
      <path class="cls-13" d="M9988.09,170.17h50.95v5.79c0,3.54-2.87,6.42-6.42,6.42h-38.12c-3.54,0-6.42-2.87-6.42-6.42v-5.79h0Z"/>
      <g>
        <path class="cls-29" d="M11123.29,62.01l.16,58.78c0,2.89,2.36,5.23,5.25,5.22l236-.43v31.99h-253.3c-10.73,0-19.43-8.7-19.43-19.43v-66.65c0-1.71-1.38-3.09-3.09-3.09l-9893.2-.48c-1.08,0-1.96-.88-1.96-1.96v-25.54c0-1.08.88-1.96,1.96-1.96l9896.29.09,7.6-.05c13.05-.08,23.68,10.45,23.71,23.5Z"/>
        <g class="cls-10">
          <path class="cls-20" d="M1190.06,16.15v33.8h913.87s7866.27.18,7866.27.18l-5.64-20.49c-.48-1.81-2.14-3.19-4.01-3.19L1190.06,16.15Z"/>
          <path class="cls-20" d="M9964.01,30.17l5.61,19.9,1128.56-1.57c6.6,0,11.96,7.35,11.96,13.96l-.61,66.35c0,5.11,4.14,9.26,9.26,9.26h250.84l-.65-35.63h-239.04V34.17l-1165.93-4Z"/>
        </g>
      </g>
      <g id="pipe_1" data-name="pipe 1">
        <g>
          <path class="cls-29" d="M153.58,25.48V.64h-28.77v14.7c0,4.32-3.5,7.82-7.82,7.82H0v31.88h124.02c16.33,0,29.56-13.24,29.56-29.56Z"/>
          <g class="cls-23">
            <path class="cls-20" d="M114.29-7.69h26.6v29.54c0,9-7.29,16.29-16.29,16.29H-6.78V12.25h121.07V-7.69Z"/>
          </g>
        </g>
        <path class="cls-13" d="M115.85,0h45.37v7.07c0,2.86-2.32,5.18-5.18,5.18h-35.02c-2.86,0-5.18-2.32-5.18-5.18V0h0Z"/>
      </g>
      <g id="pipe_1-2" data-name="pipe 1">
        <g>
          <path class="cls-29" d="M11376.79,25.55V.71s28.77,0,28.77,0v14.7c0,4.32,3.5,7.82,7.82,7.82h128.45s0,31.88,0,31.88h-135.48c-16.33,0-29.56-13.24-29.56-29.56Z"/>
          <g class="cls-3">
            <path class="cls-20" d="M11388.86-15.13l.58,37.85c0,9.41,7.63,17.04,17.04,17.04h134.29V11.4h-123.75V-15.13h-28.17Z"/>
          </g>
        </g>
        <path class="cls-13" d="M11374.33.07h35.02c2.86,0,5.18,2.32,5.18,5.18v7.07h-45.37v-7.07c0-2.86,2.32-5.18,5.18-5.18Z" transform="translate(22783.68 12.38) rotate(180)"/>
      </g>
      <g id="pipe2">
        <g>
          <rect class="cls-29" x="63.01" y="8.43" width="29.05" height="78.71"/>
          <g class="cls-4">
            <path class="cls-20" d="M60.95,58.15s17.17,9.5,34-.39v20.09l-33.59.06-.41-19.77Z"/>
            <polygon class="cls-20" points="79.33 77.89 79.33 6.12 95.33 6.12 94.95 77.86 79.33 77.89"/>
          </g>
        </g>
        <path class="cls-13" d="M54.85,0h44.86v6.83c0,2.99-2.43,5.42-5.42,5.42h-34.01c-2.99,0-5.42-2.43-5.42-5.42V0h0Z"/>
        <g>
          <path class="cls-29" d="M171.67,153.3l.18-31.96-75.17-.18c-2.54,0-4.6-2.1-4.6-4.7v-29.34h-29.06v35.54c0,16.92,13.45,30.64,30.04,30.64h78.62Z"/>
          <g class="cls-25">
            <path class="cls-20" d="M169.11,135.26h-73.79c-7.72,0-17.04-6.26-17.04-13.99l-.22-46.55h22.61v43.33h68.33l.11,17.2Z"/>
          </g>
        </g>
      </g>
      <g id="pipe2-2" data-name="pipe2">
        <g>
          <rect class="cls-29" x="11452.12" y="7.14" width="29.05" height="85.22" transform="translate(22933.29 99.51) rotate(180)"/>
          <g class="cls-14">
            <path class="cls-20" d="M11483.23,53.73s-17.17,9.5-34-.39v29.74s16.54.03,16.54.03l17.05.03.41-29.42Z"/>
            <polygon class="cls-20" points="11465.77 6.19 11450 6.19 11450 96.23 11466.65 96.23 11465.77 6.19"/>
          </g>
        </g>
        <path class="cls-13" d="M11449.64.07h34.01c2.99,0,5.42,2.43,5.42,5.42v6.83h-44.86v-6.83c0-2.99,2.43-5.42,5.42-5.42Z" transform="translate(22933.29 12.38) rotate(180)"/>
        <g>
          <path class="cls-29" d="M11369.24,157.53l-.7-31.8,78.44-.18c2.83-.11,4.89-2.29,5.12-4.85v-29.34s29.06,0,29.06,0v35.54c0,16.92-13.45,30.64-30.04,30.64h-81.89Z"/>
          <g class="cls-15">
            <path class="cls-20" d="M11362.67,138.06h91.18c7.07,0,12.8-5.73,12.8-12.8v-36.32s-17.7,0-17.7,0v33.56h-86.39l.11,15.56Z"/>
          </g>
        </g>
      </g>
      <g id="pipe3">
        <g>
          <path class="cls-29" d="M142.12,121.27v-21.94c0-15.55-12.61-28.16-28.16-28.16H0v31.47h108.41c2.82,0,5.1,2.29,5.1,5.1v13.45l28.61.07Z"/>
          <g class="cls-19">
            <path class="cls-20" d="M128.94,128.74v-27.11c0-9.53-7.73-17.26-17.26-17.26H-6.78c-.52,0-.94-.42-.94-.94v-19.89c0-.52.42-.94.94-.94h152.11c.52,0,.94.42.94.94v65.01c0,.52-.42.94-.93.94l-15.44.2c-.53,0-.96-.42-.96-.94Z"/>
            <path class="cls-20" d="M111,110.06s13.11,6.78,35.28,0v11.67h-34.72l-.56-11.67Z"/>
          </g>
        </g>
      </g>
      <g id="pipe3-2" data-name="pipe3">
        <g>
          <path class="cls-29" d="M11384.39,125.61l-.12-26.07c0-15.55,12.61-28.16,28.16-28.16h134.85s0,31.47,0,31.47h-129.31c-2.82,0-5.1,2.29-5.1,5.1l-.06,17.62-28.42.03Z"/>
          <g class="cls-30">
            <path class="cls-20" d="M11400.47,130.53v-27.97c0-9.31,7.55-16.86,16.86-16.86h107.97v-20.83h-117.39c-15.62,0-28.28,12.66-28.28,28.28v37.56l20.83-.17Z"/>
          </g>
        </g>
      </g>
      <g id="pipe3-3" data-name="pipe3">
        <g>
          <path class="cls-29" d="M1189.59,38.98h-67.33c-15.55,0-29.71,12.98-29.71,28.99v117.28h35.16v-111.57c0-2.9,2.29-5.25,5.1-5.25h56.78s0-29.44,0-29.44Z"/>
          <g class="cls-38">
            <path class="cls-20" d="M1085.67,184.03h23.5v-111.8c0-11.74,9.51-21.25,21.25-21.25h59.92v-20.89h-105.33l.67,153.94Z"/>
          </g>
        </g>
      </g>
      <g id="pipe3-4" data-name="pipe3">
        <g>
          <path class="cls-29" d="M888.39,270.9c-16.56,0-29.98-13.42-29.98-29.98v-83.35c0-2.82-2.29-5.1-5.1-5.1h-108.41v-31.47h113.95c15.55,0,28.16,12.61,28.16,28.16v84.15c0,2.77,2.24,5.01,5.01,5.01h20.23v32.59h-23.86Z"/>
          <g class="cls-31">
            <path class="cls-20" d="M753.2,152.7s9.49-15.5-.33-31.47h-25.9s-.17,31.48-.17,31.48h26.41Z"/>
            <path class="cls-20" d="M915.14,254.6l-28.23-.32c-7.47,0-13.51-6.06-13.5-13.52l.13-90.29c.01-8.44-6.83-15.3-15.27-15.3h-114.81l-.19-23.05,171.5.32.39,142.16Z"/>
          </g>
        </g>
      </g>
      <g>
        <path class="cls-29" d="M11026.5,342.56V1.07h-37.34v329.11c0,2.19-1.78,3.97-3.97,3.97h-83.35c-2.33,0-4.23-1.89-4.23-4.23V1.18h-37.34v340.01c0,16.21,13.14,29.35,29.35,29.35h108.9c15.45,0,27.98-12.53,27.98-27.98Z"/>
        <g class="cls-7">
          <path class="cls-20" d="M10854.22,47.73l.22-22.72c2.7,1.28,24.44,10.94,47.95-1.28v30.39l-48.34.06.17-6.44Z"/>
          <path class="cls-20" d="M10983.98,48.28l.22-22.72c2.7,1.28,24.44,10.94,47.95-1.28v30.39l-48.34.06.17-6.44Z"/>
          <path class="cls-20" d="M11007.97,63.17v275.4c0,5.78-4.62,10.46-10.33,10.46h-105.06c-7.1,0-12.86-5.83-12.86-13.01V63.4l128.24-.22Z"/>
        </g>
      </g>
      <path class="cls-13" d="M10877.58-20.53h8.68v54.29h-8.68c-2.42,0-4.38-1.96-4.38-4.38V-16.16c0-2.42,1.96-4.38,4.38-4.38Z" transform="translate(10873.12 10886.34) rotate(-90)"/>
      <path class="cls-13" d="M11006.13-20.53h8.08c.17,0,.3.14.3.3v53.99h-8.38c-2.58,0-4.68-2.1-4.68-4.68V-15.85c0-2.58,2.1-4.68,4.68-4.68Z" transform="translate(11001.37 11014.59) rotate(-90)"/>
      <g>
        <path class="cls-29" d="M1892,169.62v-37h-164.14c-2.62,0-4.75-2.13-4.75-4.75v-59.04h-33.11l-.89,67.41c0,18.44,14.95,33.39,33.39,33.39h169.5Z"/>
        <g class="cls-35">
          <path class="cls-20" d="M1927.11,106.64l.67,37.83-204.73.64c-8.92.03-16.16-7.19-16.16-16.11l-.47-102.78h27.5v60.27c0,11.19,9.07,20.27,20.27,20.27l172.93-.12Z"/>
        </g>
      </g>
      <g>
        <path class="cls-29" d="M10211.81,169.62h-105.03s-8214.78,0-8214.78,0v-37h8196.11s118.34,0,118.34,0c2.62,0,4.75-2.13,4.75-4.75v-59.04h34v67.4c0,18.44-14.95,33.39-33.39,33.39Z"/>
        <g class="cls-5">
          <path class="cls-20" d="M2595.7,175.27s19.03-21.61.81-50.61l60.44-.82-1.03,52.21-60.22-.78Z"/>
          <path class="cls-20" d="M2926.81,176.36s19.03-21.61.81-50.61l60.44-.82-1.03,52.21-60.22-.78Z"/>
          <path class="cls-20" d="M3499.25,169.62s7.39-20.82.31-37.09h51.22l.45,36.89-51.97.2Z"/>
          <path class="cls-20" d="M3749.45,169.62s11-15.21-.13-37.58l56.85.58-.38,37.12-56.33-.12Z"/>
          <path class="cls-20" d="M4263.06,176.36s19.03-21.61.81-50.61l60.44-.82-1.03,52.21-60.22-.78Z"/>
          <path class="cls-20" d="M7989.54,177.72s17.72-24.45.81-50.61l60.44-.82-1.03,52.21-60.22-.78Z"/>
          <path class="cls-20" d="M8076.43,176.48s17.72-24.45.81-50.61l60.44-.82-1.03,52.21-60.22-.78Z"/>
          <path class="cls-20" d="M7821.11,183.56s20.91-30.4,4-56.56l59.37,2.17-1.03,52.21-62.34,2.17Z"/>
          <path class="cls-20" d="M9294.09,170.1l-1.64-40.86,26-.21s11.75,23.48,3.69,41.16l-28.05-.09Z"/>
          <polygon class="cls-20" points="1892.71 112.81 1892 145.51 6313.47 145.51 6293.17 113.69 1892.71 112.81"/>
          <polygon class="cls-20" points="7493.08 145.51 9012.85 144.44 9284.89 144.44 9284.89 114.71 7482.88 125.62 7493.08 145.51"/>
          <path class="cls-20" d="M9313.61,114.34v29.11l578.88,1,318.62-1c10.07,0,18.23-8.32,18.23-18.58V54.49h-26.62v70.74l-889.1-10.89Z"/>
          <polygon class="cls-20" points="6293.58 120.15 6300.66 145.51 7493.08 145.51 7476 112.22 6293.58 120.15"/>
        </g>
      </g>
      <path class="cls-13" d="M10227.85,47.58h7.61c.17,0,.3.14.3.3v53.99h-7.92c-2.73,0-4.95-2.22-4.95-4.95v-44.39c0-2.73,2.22-4.95,4.95-4.95Z" transform="translate(10154.6 10304.06) rotate(-90)"/>
      <g>
        <path class="cls-29" d="M3806.31,393.7l-.78-382.77h-33.53l.76,366.72c0,4.63-3.74,8.39-8.37,8.39h-769.77c-2.75,0-4.99-2.22-5-4.98l-1.81-370.13h-33.53l1.83,384.18c0,15.43,12.51,27.93,27.93,27.93h792.93c16.2,0,29.34-13.13,29.34-29.34Z"/>
        <g class="cls-9">
          <path class="cls-20" d="M2996.99,204.65s-22.74,26.18-48.59-7.51l-.47,39.79,47.79,1.63,1.27-33.92Z"/>
          <path class="cls-20" d="M2995.9,21.36s-21.55,27.17-48.88-5.33l1.3,39.78,47.82-.5-.24-33.94Z"/>
          <path class="cls-20" d="M3818.09,23.71s-26.15,20.83-57.34-2.82v52.5l57.34.95V23.71Z"/>
          <path class="cls-20" d="M2976.78-.94v389.11c0,5.92,4.8,10.72,10.72,10.72h785.11c5.61,0,10.17-4.55,10.17-10.17V.12l-806-1.06Z"/>
        </g>
      </g>
      <g>
        <path class="cls-29" d="M3553.86,234.94V10.21h-33.53v206.1c0,3.67-2.97,6.64-6.64,6.64h-849.74c-3,0-5.43-2.43-5.43-5.43V10.93h-33.53v222.47c0,14.67,11.89,26.55,26.55,26.55h877.29c13.81,0,25.01-11.2,25.01-25.01Z"/>
        <g class="cls-33">
          <path class="cls-20" d="M2684.65,17.74s-29.2,36-67.28-4.22v39h67.28V17.74Z"/>
          <path class="cls-20" d="M3577.59,11.87s-22.67,29.33-69.33,1.33l7.56,52.89,58.22-.44,3.56-53.78Z"/>
          <path class="cls-20" d="M2649.67,12.45v210.44c0,5.71,4.63,10.33,10.33,10.33h861.56c4.48,0,8.11-3.63,8.11-8.11V6.23h-878.67l-1.33,6.22Z"/>
        </g>
      </g>
      <path class="cls-13" d="M3539.7-20.65h4.29v54.29h-4.29c-4.75,0-8.61-3.86-8.61-8.61V-12.05c0-4.75,3.86-8.61,8.61-8.61Z" transform="translate(3531.05 3544.04) rotate(-90)"/>
      <path class="cls-13" d="M2972.75-20.86h4.94v54.29h-4.94c-4.08,0-7.39-3.31-7.39-7.39V-13.47c0-4.08,3.31-7.39,7.39-7.39Z" transform="translate(2965.24 2977.81) rotate(-90)"/>
      <path class="cls-13" d="M3790.1-20.49h5.03v54.29h-5.03c-4.55,0-8.24-3.69-8.24-8.24V-12.25c0-4.55,3.69-8.24,8.24-8.24Z" transform="translate(3781.84 3795.14) rotate(-90)"/>
      <g>
        <path class="cls-29" d="M4480.48,344.96c-11.92,0-21.59-9.66-21.59-21.59v-32.7c0-2.66-2.16-4.82-4.82-4.82h-134.43c-16.48,0-29.83-13.36-29.83-29.83V12.31h33.83v224.04c0,6.07,4.92,11,11,11h123.42c18.73,0,33.92,15.19,33.92,33.92l.4,22.78c.03,1.61,1.34,2.91,2.96,2.91h464.56v38h-479.41Z"/>
        <g class="cls-24">
          <path class="cls-20" d="M4337.26,21.54s-37.39,16.78-65.67-2.56l-.86,40,68.89-1.78-2.37-35.67Z"/>
          <path class="cls-20" d="M4932.05,344.96s11.67-18.28.49-38h31.13s-.06,38-.06,38h-31.56Z"/>
          <path class="cls-20" d="M4311.33,6.52v234.04c0,7.73,6.27,14,14,14h131c13.81,0,25,11.19,25,25v28.09c0,4.65,3.77,8.43,8.43,8.43h478.08V6.52h-656.51Z"/>
        </g>
      </g>
      <g>
        <path class="cls-29" d="M9995.59,285.18h-128.71c-2.66,0-4.82,2.16-4.82,4.82l-.05,24.48v10.47c0,11.77-9.54,21.3-21.3,21.3h-667.49l-.17-35.76,650.76-2.36c2.83-.01,5.12-2.31,5.12-5.13l.03-22.4c0-18.73,15.19-33.92,33.92-33.92h129.99c2.45,0,4.43-1.98,4.43-4.43l-.63-68.62h34.22l.24,75.99c0,19.64-15.92,35.56-35.56,35.56Z"/>
        <g class="cls-2">
          <path class="cls-20" d="M9168.08,294.95v34.37h663.04c8.74,0,15.83-7.09,15.83-15.83v-33.09c0-10.1,8.19-18.29,18.29-18.29h134c6.56,0,11.87-5.32,11.87-11.87v-77.29h-25.83v66.83h-163.83v53.28l-653.36,1.89Z"/>
        </g>
      </g>
      <g>
        <path class="cls-29" d="M5404.32,303.91v-39.11h-35.62c-3.74,0-6.77-3.03-6.77-6.77v-24.22c0-19.49-15.8-35.28-35.28-35.28h-53.96c-20.95,0-37.93,16.98-37.93,37.93v84.46c0,3.49-2.83,6.33-6.33,6.33h-132.77c-3.15,0-5.71-2.56-5.71-5.71v-43.39c0-19.48-15.79-35.27-35.27-35.27h-30.39c-17.28,0-31.29,14.01-31.29,31.29v26.09c0,3.69-2.99,6.68-6.68,6.68h-23.01v38.44h30.7c18.69,0,33.85-15.15,33.85-33.85l-.09-27.44c-.01-4.1,3.31-7.43,7.41-7.43h7.6c4.08,0,7.4,3.31,7.41,7.39l.1,46.15c0,20.25,16.42,36.67,36.67,36.67h3.69l144.9-.35c21.35-.05,38.63-17.37,38.63-38.72v-86.75c0-3.55,2.88-6.44,6.44-6.44h37.55c4.01,0,7.27,3.25,7.27,7.27v24.35c0,20.8,16.86,37.66,37.66,37.66h41.23Z"/>
        <g class="cls-11">
          <path class="cls-20" d="M5375.33,311.99s14.89-28.97,1.48-55.81l28.64-1.77-.11,13.7-.33,43.65-29.67.22Z"/>
          <path class="cls-20" d="M4952.67,316.08h38.57c6.31,0,11.43-5.12,11.43-11.43v-34.76c0-8.84,7.16-16,16-16h42.67c8.84,0,16,7.16,16,16v52.33c0,6.81,5.52,12.33,12.33,12.33h142c7.18,0,13-5.82,13-13v-89.7c0-11.25,13.12-23.36,24.36-23.36h64.27c9.59,0,17.36,7.77,17.36,17.36v37.03c0,6.26,5.07,11.33,11.33,11.33l49.61-1v-90h-456.28l-2.67,132.85Z"/>
        </g>
      </g>
      <g>
        <path class="cls-29" d="M5845.32,306.97v39.11h-35.62c-3.74,0-6.77,3.03-6.77,6.77v24.22c0,19.49-15.8,35.28-35.28,35.28h-53.96c-20.95,0-37.93-16.98-37.93-37.93v-84.46c0-3.49-2.83-6.33-6.33-6.33h-132.77c-3.15,0-5.71,2.56-5.71,5.71v43.39c0,19.48-15.79,35.27-35.27,35.27h-30.39c-17.28,0-31.29-14.01-31.29-31.29v-26.09c0-3.69-2.99-6.68-6.68-6.68h-23.01v-39.12h30.7c18.69,0,33.85,15.15,33.85,33.85l-.09,28.12c-.01,4.1,3.31,7.43,7.41,7.43h7.6c4.08,0,7.4-3.31,7.41-7.39l.1-46.15c0-20.25,16.42-36.67,36.67-36.67h3.69l144.9.35c21.35.05,38.63,17.37,38.63,38.72v86.75c0,3.55,2.88,6.44,6.44,6.44h37.55c4.01,0,7.27-3.25,7.27-7.27v-24.35c0-20.8,16.86-37.66,37.66-37.66h41.23Z"/>
        <g class="cls-12">
          <path class="cls-20" d="M5817.81,350.58s15.44-21.56,1-50.72h31.44l.44,50.72h-32.89Z"/>
          <path class="cls-20" d="M5404.32,273.23l26.21.02c15.01-.56,27.47,8.45,27.47,23.47v31.49c0,7.72,6.26,13.98,13.98,13.98h13.04c9.38,0,16.98-7.6,16.98-16.98v-45.05c0-14.4,11.67-26.07,26.07-26.07h148.85c16.61,0,30.07,13.46,30.07,30.07v89.69c0,8.62,6.99,12.62,15.62,12.62h39.27c4.58,0,12.12-1.66,12.12-11.12v-37.27c1.94-14.34,13.13-21.16,23.16-21.16h59.84v-184.29h-478l25.32,140.61Z"/>
        </g>
      </g>
      <g>
        <path class="cls-29" d="M6286.32,303.91v-39.11h-35.62c-3.74,0-6.77-3.03-6.77-6.77v-24.22c0-19.49-15.8-35.28-35.28-35.28h-53.96c-20.95,0-37.93,16.98-37.93,37.93v84.46c0,3.49-2.83,6.33-6.33,6.33h-132.77c-3.15,0-5.71-2.56-5.71-5.71v-43.39c0-19.48-15.79-35.27-35.27-35.27h-30.39c-17.28,0-31.29,14.01-31.29,31.29v26.09c0,3.69-2.99,6.68-6.68,6.68h-23.01v39.12h30.7c18.69,0,33.85-15.15,33.85-33.85l-.09-28.12c-.01-4.1,3.31-7.43,7.41-7.43h7.6c4.08,0,7.4,3.31,7.41,7.39l.1,46.15c0,20.25,16.42,36.67,36.67,36.67h3.69l144.9-.35c21.35-.05,38.63-17.37,38.63-38.72v-86.75c0-3.55,2.88-6.44,6.44-6.44h37.55c4.01,0,7.27,3.25,7.27,7.27v24.35c0,20.8,16.86,37.66,37.66,37.66h41.23Z"/>
        <g class="cls-39">
          <path class="cls-20" d="M6257.34,306.42s10.39-19.04,0-43.09l28.43-.28-.32,43.14-28.11.23Z"/>
          <path class="cls-20" d="M5843.68,319.08h28.77c6.68,0,12.09-5.41,12.09-12.09v-36.14c0-10.65,8.63-19.28,19.28-19.28h35.67c13.65,0,24.71,11.06,24.71,24.71v52.5c0,4.12,3.34,7.45,7.45,7.45h146.83c3.9,0,7.05-3.16,7.05-7.05v-89.83c0-17.37,14.08-31.45,31.45-31.45h52.67c16.32,0,29.55,13.23,29.55,29.55v27.42c0,3.98,3.22,7.2,7.2,7.2h39.9v-92.88h-442.63v139.89Z"/>
        </g>
      </g>
      <g>
        <path class="cls-29" d="M6286.32,303.91v-39.11s35.62,0,35.62,0c3.74,0,6.77-3.03,6.77-6.77v-24.22c0-19.49,15.8-35.28,35.28-35.28h53.96c20.95,0,37.93,16.98,37.93,37.93v84.46c0,3.49,2.83,6.33,6.33,6.33h132.77c3.15,0,5.71-2.56,5.71-5.71v-43.39c0-19.48,15.79-35.27,35.27-35.27h30.39c17.28,0,31.29,14.01,31.29,31.29v26.09c0,3.69,2.99,6.68,6.68,6.68h23.01s0,39.12,0,39.12h-30.7c-18.69,0-33.85-15.15-33.85-33.85l.09-28.12c.01-4.1-3.31-7.43-7.41-7.43h-7.6c-4.08,0-7.4,3.31-7.41,7.39l-.1,46.15c0,20.25-16.42,36.67-36.67,36.67h-3s-.69,0-.69,0l-144.9-.35c-21.35-.05-38.63-17.37-38.63-38.72v-86.75c0-3.55-2.88-6.44-6.44-6.44h-37.55c-4.01,0-7.27,3.25-7.27,7.27v24.35c0,20.8-16.86,37.66-37.66,37.66h-41.23Z"/>
        <g class="cls-17">
          <path class="cls-20" d="M6699.82,354.76s12.5-26.32.53-53.16h26.97v52.51l-27.5.65Z"/>
          <path class="cls-20" d="M6283.17,272.07h48.11c4.11,0,7.45-3.33,7.45-7.45v-31.23c0-13.38,10.84-24.22,24.22-24.22h52.8c16.52,0,29.91,13.39,29.91,29.91v85.78c0,6.31,5.12,11.43,11.43,11.43h144.09c4.54,0,8.22-3.68,8.22-8.22v-52.71c0-12.05,9.77-21.82,21.82-21.82h34.95c12.5,0,22.63,10.13,22.63,22.63v38.32c0,5.72,4.64,10.35,10.35,10.35h34.74v-145h-450.28l-.44,92.23Z"/>
        </g>
      </g>
      <g>
        <path class="cls-29" d="M6727.32,346.39v-39.11s35.62,0,35.62,0c3.74,0,6.77-3.03,6.77-6.77v-24.22c0-19.49,15.8-35.28,35.28-35.28h53.96c20.95,0,37.93,16.98,37.93,37.93v84.46c0,3.49,2.83,6.33,6.33,6.33h132.77c3.15,0,5.71-2.56,5.71-5.71v-43.39c0-19.48,15.79-35.27,35.27-35.27h30.39c17.28,0,31.29,14.01,31.29,31.29v26.09c0,3.69,2.99,6.68,6.68,6.68h23.01s0,39.12,0,39.12h-30.7c-18.69,0-33.85-15.15-33.85-33.85l.09-28.12c.01-4.1-3.31-7.43-7.41-7.43h-7.6c-4.08,0-7.4,3.31-7.41,7.39l-.1,46.15c0,20.25-16.42,36.67-36.67,36.67h-3s-.69,0-.69,0l-144.9-.35c-21.35-.05-38.63-17.37-38.63-38.72v-86.75c0-3.55-2.88-6.44-6.44-6.44h-37.55c-4.01,0-7.27,3.25-7.27,7.27v24.35c0,20.8-16.86,37.66-37.66,37.66h-41.23Z"/>
        <g class="cls-28">
          <path class="cls-20" d="M7139.44,398.39s19.46-32.89-2.82-64.72l29.69-2.08v66.92l-26.87-.11Z"/>
          <path class="cls-20" d="M7166.32,340.63l.05,27.64h-30.24c-8.33.07-15.28-6.45-15.28-14.78l-.12-36.13c0-6.32-5.12-11.44-11.44-11.44h-33.47c-7.32,0-13.25,5.93-13.25,13.25v49.47c0,9.08-7.36,16.44-16.44,16.44h-151.14c-10.23,0-18.53-8.3-18.53-18.53v-87.32c0-9.41-7.63-17.04-17.04-17.04h-55.24c-7.95,0-14.39,6.44-14.39,14.39v29.91c0,10.32-8.37,18.69-18.69,18.69h-44.64v-37.88h32.67v-53.33h148.22v127.56h125.56v-90.44h112.44v69.33l20.98.22Z"/>
        </g>
      </g>
      <g>
        <path class="cls-29" d="M7970,237.65v-39.34s35.62.23,35.62.23c3.74,0,6.77-3.03,6.77-6.77v-69.09c0-19.49,15.8-35.28,35.28-35.28h53.96c20.95,0,37.93,16.98,37.93,37.93v129.33c0,3.49,2.83,6.33,6.33,6.33h132.77c3.15,0,5.71-2.56,5.71-5.71v-43.39c0-19.48,15.79-35.27,35.27-35.27h30.39c17.28,0,31.29,14.01,31.29,31.29v26.09c0,3.69,2.99,6.68,6.68,6.68h23.01s0,39.12,0,39.12h-30.7c-18.69,0-33.85-15.15-33.85-33.85l.09-28.12c.01-4.1-3.31-7.43-7.41-7.43h-7.6c-4.08,0-7.4,3.31-7.41,7.39l-.1,46.15c0,20.25-16.42,36.67-36.67,36.67h-3s-.69,0-.69,0l-144.9-.35c-21.35-.05-38.63-17.37-38.63-38.72v-131.62c0-3.55-2.88-6.44-6.44-6.44h-37.55c-4.01,0-7.27,3.25-7.27,7.27v69.22c0,20.8-16.86,37.66-37.66,37.66h-41.23Z"/>
        <g class="cls-18">
          <path class="cls-20" d="M7962.55,214.01h47.95c11.06,0,20.02-8.96,20.02-20.02v-67.71c0-13.96,11.31-25.27,25.27-25.27h45.48c11.74,0,21.25,9.51,21.25,21.25l-.17,133.16c-.02,12.07,9.77,21.87,21.84,21.87h135.46c11.59,0,20.99-9.38,21.02-20.97l.1-42.11c.03-12.58,10.34-22.87,22.92-22.87h18.96c12.52,0,22.67,10.14,22.7,22.65l.16,23.43c.02,9.15,7.44,16.55,16.58,16.55h30.37l-.11-24.97h-16.26c-3.63,0-6.58-2.94-6.58-6.58v-41.51c0-3.63-2.94-6.58-6.58-6.58h-98.18c-3.63,0-6.58,2.94-6.58,6.58v67.35c0,3.63-2.94,6.58-6.58,6.58h-119.24c-3.63,0-6.58-2.94-6.58-6.58V88.3c0-3.63-2.94-6.58-6.58-6.58h-129.51c-3.63,0-6.58,2.94-6.58,6.58v96.75c0,3.63-2.94,6.58-6.58,6.58h-33.85c-3.59,0-6.51,2.88-6.58,6.46l-.16,9.22c-.06,3.68,2.9,6.69,6.58,6.69Z"/>
        </g>
      </g>
      <g>
        <polygon class="cls-29" points="7609.32 306.93 9170.36 310.38 9170.36 346.16 7609.32 346.16 7609.32 306.93"/>
        <g class="cls-21">
          <path class="cls-20" d="M8771.62,352.31s14.54-25.76-.5-46.64l37.45,1.27-1.67,44.7-35.27.67Z"/>
          <path class="cls-20" d="M8860.55,349.87s14.54-25.76-.5-46.64l37.45,1.27-1.67,44.7-35.27.67Z"/>
          <polygon class="cls-20" points="9170.36 302.74 9170.36 329.33 8908.42 330.52 8908.42 304.75 9170.36 302.74"/>
          <polygon class="cls-20" points="7600.17 328.33 8904.45 329.99 8905.02 295.55 8536.35 292.88 7926.51 295.1 7599.67 295.19 7600.17 328.33"/>
        </g>
      </g>
      <g>
        <path class="cls-29" d="M8744.97,239.15v39.12s35.62-.23,35.62-.23c3.74,0,6.77,3.03,6.77,6.77v77.74c0,19.49,15.8,35.28,35.28,35.28h53.96c20.95,0,37.93-16.98,37.93-37.93v-137.98c0-3.49,2.83-6.33,6.33-6.33h132.77c3.15,0,5.71,2.56,5.71,5.71v43.39c0,19.48,15.79,35.27,35.27,35.27h30.39c17.28,0,31.29-14.01,31.29-31.29v-26.09c0-3.69,2.99-6.68,6.68-6.68h23.01s0-39.4,0-39.4l-30.7.27c-18.69,0-33.85,15.15-33.85,33.85l.09,28.12c.01,4.1-3.31,7.43-7.41,7.43h-7.6c-4.08,0-7.4-3.31-7.41-7.39l-.1-46.15c0-20.25-16.42-36.67-36.67-36.67h-3s-.69,0-.69,0l-144.9.35c-21.35.05-38.63,17.37-38.63,38.72v140.27c0,3.55-2.88,6.44-6.44,6.44h-37.55c-4.01,0-7.27-3.25-7.27-7.27v-77.87c0-20.8-16.86-37.66-37.66-37.66l-41.23.22Z"/>
        <g class="cls-37">
          <path class="cls-20" d="M8746,227.24v25.85h37.11c15.54,0,28.25,12.71,28.25,28.25v83.94c0,5.19,4.21,9.4,9.4,9.4l57.18-.26c5.31,0,9.61-4.3,9.61-9.61v-148.95c0-14.66,12-26.66,26.66-26.66h147.1c13.36,0,24.01,13.6,24.01,26.96l.82,49.26c0,5.89,4.78,10.67,10.67,10.67h26.83c8.25,0,12.06-6.25,12.06-14.5l1.19-36.92c.93-6.93,8.73-13.49,15.93-13.49l30.5-1v-26.67l-43.17,1.78-21.43,21.96-4.85,52.76h-7v-55.83l-10.67-20.89-18.44-10.89h-177.3c-8.11,0-15.65,4.17-19.96,11.04l-14.4,22.96,3.11,150.13h-39.11v-96.99l-23.11-31.8-61-.5Z"/>
        </g>
      </g>
      <g>
        <path class="cls-29" d="M7609.32,346.1v-39.11h-35.62c-3.74,0-6.77-3.03-6.77-6.77v-24.22c0-19.49-15.8-35.28-35.28-35.28h-53.96c-20.95,0-37.93,16.98-37.93,37.93v84.46c0,3.49-2.83,6.33-6.33,6.33h-132.77c-3.15,0-5.71-2.56-5.71-5.71v-43.39c0-19.48-15.79-35.27-35.27-35.27h-30.39c-17.28,0-31.29,14.01-31.29,31.29v26.09c0,3.69-2.99,6.68-6.68,6.68h-23.01s0,39.12,0,39.12h30.7c18.69,0,33.85-15.15,33.85-33.85l-.09-28.12c-.01-4.1,3.31-7.43,7.41-7.43h7.6c4.08,0,7.4,3.31,7.41,7.39l.1,46.15c0,20.25,16.42,36.67,36.67,36.67h3.69l144.9-.35c21.35-.05,38.63-17.37,38.63-38.72v-82.32c0-6,4.86-10.86,10.86-10.86h33.12c4.01,0,7.27,3.25,7.27,7.27v24.35c0,20.8,16.86,37.66,37.66,37.66h41.23Z"/>
        <g class="cls-32">
          <g>
            <path class="cls-20" d="M7575.59,355.89s24.17-24.83.83-60.5l33.83-.17-.16,60.83-34.5-.17Z"/>
            <g class="cls-6">
              <polygon class="cls-20" points="7290.01 419.75 7307.06 370.35 7382.01 350.08 7362.67 428.08 7290.01 419.75"/>
            </g>
          </g>
          <path class="cls-20" d="M7167.14,368.2h33.49c8.75,0,15.85-7.1,15.85-15.85v-31.47c0-6.77,5.92-19.15,12.69-19.15h33.56c8.57,0,15.08,13.83,15.08,22.4v45.28c0,10.62,8.61,19.24,19.24,19.24h142.43c10.86,0,19.67-8.81,19.67-19.67v-95.6c0-7.14,5.79-12.93,12.93-12.93h60.44c8.94,0,16.18,7.24,16.18,16.18l.58,35.25c0,8.99,7.29,16.28,16.28,16.28h42.61l-.58-93.74h-178.22v124.67h-128.89v-79.56h-110.22v62h-23.68l.57,26.67Z"/>
        </g>
      </g>
      <g>
        <path class="cls-29" d="M7885.9,237.73c-20.95,0-37.93-16.98-37.93-37.93v-53.96c0-19.49,15.8-35.28,35.28-35.28h24.22c3.74,0,6.77-3.03,6.77-6.77l.39-94.16h37.29l1.43,99.77c0,20.8-16.86,37.66-37.66,37.66h-24.35c-4.02,0-7.27,3.25-7.27,7.27v37.55c0,3.55,2.88,6.44,6.44,6.44h79.49v39.42h-84.1Z"/>
        <g class="cls-34">
          <path class="cls-20" d="M7952.99,26.07s-21.97,13.16-38.65-.17l.5,35.28h38s.15-35.11.15-35.11Z"/>
          <path class="cls-20" d="M7966.83,194.01l-.17,20.11h-79.73c-9.96,0-18.03-8.09-18.01-18.05l.1-48.09c.02-9.35,7.6-16.92,16.95-16.92h32.21c10.92,0,19.76-8.85,19.76-19.76v-49.35h26.44v80l-34.44,12h-39.56v40.06h76.44Z"/>
        </g>
      </g>
      <g>
        <path class="cls-29" d="M9270.07,235.9c20.95,0,37.93-16.98,37.93-37.93v-53.96c0-19.49-15.8-35.28-35.28-35.28h-24.22c-3.74,0-6.77-3.03-6.77-6.77l-.3-22.87h-38.81v28.48c0,20.8,16.86,37.66,37.66,37.66h24.35c4.02,0,7.27,3.25,7.27,7.27v37.55c0,3.55-2.88,6.44-6.44,6.44h-79.49c0,12.81,0,26.59,0,39.42h84.1Z"/>
        <g class="cls-8">
          <path class="cls-20" d="M9190.67,79.08h31.57v33.15c0,10.3,8.48,18.65,18.94,18.65h27.88c9.24,0,16.72,7.37,16.72,16.47v49.9c0,7.1-5.85,12.86-13.06,12.86h-87.61v-23.86h78.89v-34.8h-73.11l-.22-72.37Z"/>
        </g>
      </g>
      <g>
        <polygon class="cls-29" points="8744.97 239.15 8411 240.68 8411 279.81 8745.1 278.27 8744.97 239.15"/>
        <g class="cls-1">
          <polygon class="cls-20" points="8406.98 253.75 8406.98 226.19 8745.1 226.19 8745.1 253.33 8406.98 253.75"/>
        </g>
      </g>
      <path class="cls-13" d="M7906.98.07h50.95v4.91c0,3.54-2.87,6.42-6.42,6.42h-38.12c-3.54,0-6.42-2.87-6.42-6.42V.07h0Z"/>
      <path class="cls-13" d="M2643.7-20.92h3.77v54.29h-3.77c-4.73,0-8.57-3.84-8.57-8.57V-12.35c0-4.73,3.84-8.57,8.57-8.57Z" transform="translate(2635.08 2647.54) rotate(-90)"/>
      <path class="cls-13" d="M1707.25,48.53h6.16c.17,0,.3.14.3.3v53.99h-6.46c-4.48,0-8.12-3.64-8.12-8.12v-38.04c0-4.48,3.64-8.12,8.12-8.12Z" transform="translate(1630.74 1782.1) rotate(-90)"/>
      <path class="cls-16" d="M3193.58,169.62s13.7-16.11,2.61-37"/>
      <path class="cls-16" d="M508.81,68.61s10.75-14.44,2.05-33.16"/>
      <path class="cls-16" d="M584.15,152.81s10.75-13.79,2.05-31.68"/>
      <path class="cls-16" d="M1760.35,67.97s10.75-12.92,2.05-29.68"/>
      <path class="cls-16" d="M1768.04,169.62s10.75-16.11,2.05-37"/>
      <path class="cls-16" d="M2197.01,169.62s10.75-16.11,2.05-37"/>
      <path class="cls-16" d="M2383.61,68s10.75-12.84,2.05-29.5"/>
      <path class="cls-16" d="M2774.27,169.62s10.75-16.11,2.05-37"/>
      <path class="cls-16" d="M2840.08,259.95s10.75-16.11,2.05-37"/>
      <path class="cls-16" d="M2955.55,326.61s15.31,9.84,33.81,0"/>
      <path class="cls-16" d="M2954.96,99.53s14.98,9.98,33.24.32"/>
      <path class="cls-16" d="M3319.62,259.95s10.75-16.11,2.05-37"/>
      <path class="cls-16" d="M3430.05,68.05s10.75-12.84,2.05-29.5"/>
      <path class="cls-16" d="M3772.78,311.89s15.2,9.68,33.28-.36"/>
      <path class="cls-16" d="M4050.92,169.62s10.75-16.11,2.05-37"/>
      <path class="cls-16" d="M3874.46,68.08s10.75-12.87,2.05-29.56"/>
      <path class="cls-16" d="M4260.89,68.1s10.75-12.87,2.05-29.58"/>
      <path class="cls-16" d="M4397.79,285.85s10.75-16.76,2.05-38.5"/>
      <path class="cls-16" d="M4289.72,199.3s15.41,9.73,33.87-.24"/>
      <path class="cls-16" d="M1983.21,38.51c7.63,7.18,6.85,22.63-.91,29.42"/>
      <path class="cls-16" d="M2805.62,38.51c6.5,9.42,3.85,25.34-.03,29.51"/>
      <path class="cls-16" d="M3665.08,68.07s7.48-13.09.11-29.56"/>
      <path class="cls-16" d="M4500.7,68.01s9.35-13.88.25-29.61"/>
      <path class="cls-16" d="M4556.68,344.96s10.75-16.54,2.05-38"/>
      <path class="cls-16" d="M5113.09,366.82s10.75-17.23,2.05-39.58"/>
      <path class="cls-16" d="M4821.16,345.1s10.75-16.71,2.05-38.39"/>
      <path class="cls-16" d="M5294.77,234.63s10.75-15.72,2.05-36.11"/>
      <path class="cls-16" d="M5606.42,283.64s10.75-17.17,2.05-39.45"/>
      <path class="cls-16" d="M6055.09,366.68s10.75-17.23,2.05-39.59"/>
      <path class="cls-16" d="M6176.02,234.63s10.75-15.72,2.05-36.11"/>
      <path class="cls-16" d="M6393.66,234.63s10.75-15.72,2.05-36.11"/>
      <path class="cls-16" d="M6541.53,366.75s10.75-17.2,2.05-39.51"/>
      <path class="cls-16" d="M6842.46,68.22s10.75-12.94,2.05-29.72"/>
      <path class="cls-16" d="M6970.76,409.2s10.75-17.18,2.05-39.48"/>
      <path class="cls-16" d="M7243.26,318.86s10.75-14.71,2.05-33.79"/>
      <path class="cls-16" d="M7370.12,408.89s10.75-17.18,2.05-39.46"/>
      <path class="cls-16" d="M7904.26,346.1s10.75-16.73,2.05-38.44"/>
      <path class="cls-16" d="M7742.45,169.62s10.75-16.11,2.05-37"/>
      <path class="cls-16" d="M8222.44,300.48s10.75-17.19,2.05-39.5"/>
      <path class="cls-16" d="M8480.06,279.48s10.75-17.04,2.05-39.14"/>
      <path class="cls-16" d="M8632.31,346.1s10.75-16.04,2.05-36.86"/>
      <path class="cls-16" d="M8845.48,397.84s10.75-15.72,2.05-36.11"/>
      <path class="cls-16" d="M8996.57,346.1s10.75-15.69,2.05-36.03"/>
      <path class="cls-16" d="M9007.47,215.6s10.75-17.21,2.05-39.53"/>
      <path class="cls-16" d="M9447.82,346.25s10.75-16,2.05-36.77"/>
      <path class="cls-16" d="M9662.62,169.42s10.75-16.02,2.05-36.8"/>
      <path class="cls-16" d="M9928.51,285.18s10.75-16.76,2.05-38.5"/>
      <path class="cls-16" d="M10860.2,209.82s16.76,9.92,37.37.16"/>
      <path class="cls-16" d="M10989.05,273.98s16.6,10.25,37.44.91"/>
      <path class="cls-16" d="M10801.15,68.41s10.75-12.98,2.05-29.82"/>
      <path class="cls-16" d="M11224.67,157.54s10.75-13.79,2.05-31.68"/>
      <path class="cls-16" d="M11422.14,157.54s10.75-13.79,2.05-31.68"/>
      <path class="cls-16" d="M11418.64,55.11s10.75-13.79,2.05-31.68"/>
      <path class="cls-16" d="M8076.29,123.5s10.75-15.63,2.05-35.91"/>
      <path class="cls-16" d="M7847.95,168.14s16.4,9.6,36.06-.54"/>
      <path class="cls-16" d="M7983.49,68.28s10.75-12.96,2.05-29.77"/>
      <path class="cls-16" d="M4560.72,169.62s10.75-16.11,2.05-37"/>
      <path class="cls-16" d="M4702.54,68.12s10.75-12.88,2.05-29.6"/>
      <path class="cls-16" d="M3520.14,190.81s15.23,9.88,33.67.09"/>
      <path class="cls-16" d="M3721.26,423.04s10.75-16.15,2.05-37.1"/>
      <path class="cls-16" d="M3160.27,423.04s10.75-16.22,2.05-37.27"/>
      <path class="cls-16" d="M3583.38,169.62s10.75-15.97,2.05-36.68"/>
      <path class="cls-16" d="M2624.9,182.06s15.03,10.14,33.59.66"/>
      <path class="cls-16" d="M1388.49,67.96s10.75-12.82,2.05-29.45"/>
      <path class="cls-16" d="M858.18,183.83s13.31,9.69,28.73-.31"/>
      <path class="cls-16" d="M1092.36,201.72s16.06,9.73,35.42-.25"/>
      <path class="cls-16" d="M37.62,102.88s10.75-13.8,2.05-31.7"/>
      <path class="cls-16" d="M111.56,55.05s10.75-13.8,2.05-31.7"/>
      <path class="cls-16" d="M5057.53,169.62s9.53-18.5,0-37"/>
      <path class="cls-16" d="M8765.93,68.55s9.5-17.02.17-29.94"/>
      <path class="cls-16" d="M7262.17,68.29s7.97-11.07-.14-29.78"/>
      <path class="cls-16" d="M5759.82,68.05s6.51-16.92-.32-29.62"/>
      <path class="cls-16" d="M6295.69,169.62s10-17.61-1.22-37"/>
      <path class="cls-13" d="M8595.36,169.62s11.78-15.16,0-37"/>
      <path class="cls-16" d="M9960.11,68.56s9-15.67,0-29.94"/>
      <path class="cls-13" d="M4946.81,344.96h4.18c2.46,0,4.39-1.66,5.46-3.85,1.81-3.68,2.68-9.23,2.6-15.67-.07-5.97-1.31-10.97-2.61-14.64-.82-2.31-3.01-3.84-5.46-3.84h-4.18v-1.54c0-1.86,1.1-3.55,2.82-4.27,1.1-.46,2.45-.85,4.01-.96,2.04-.15,3.81.23,5.23.74,2.11.76,4.74,3.27,5.93,6.38,1.72,4.48,2.79,9.12,3,17.37.26,9.95-.75,15.65-3.03,20.27-1.67,3.38-3.72,5.54-5.51,6.4-1.44.69-3.32,1.25-5.55,1.08-1.48-.11-2.75-.51-3.79-1-1.91-.9-3.12-2.83-3.12-4.95v-1.52Z"/>
      <path class="cls-13" d="M5390.57,303.9h4.18c2.46,0,4.39-1.71,5.46-3.97,1.81-3.79,2.68-9.51,2.6-16.14-.07-6.15-1.31-11.3-2.61-15.08-.82-2.38-3.01-3.95-5.46-3.95h-4.18v-1.59c0-1.92,1.1-3.65,2.82-4.39,1.1-.48,2.45-.88,4.01-.99,2.04-.15,3.81.23,5.23.76,2.11.79,4.74,3.37,5.93,6.58,1.72,4.61,2.79,9.39,3,17.9.26,10.25-.75,16.12-3.03,20.88-1.67,3.48-3.72,5.71-5.51,6.59-1.44.71-3.32,1.28-5.55,1.11-1.48-.11-2.75-.53-3.79-1.03-1.91-.93-3.12-2.92-3.12-5.1v-1.57Z"/>
      <path class="cls-13" d="M5829.69,346.19h4.18c2.46,0,4.39-1.72,5.46-3.98,1.81-3.8,2.68-9.54,2.6-16.2-.07-6.18-1.31-11.34-2.61-15.14-.82-2.39-3.01-3.97-5.46-3.97h-4.18v-1.6c0-1.92,1.1-3.67,2.82-4.41,1.1-.48,2.45-.88,4.01-1,2.04-.15,3.81.23,5.23.77,2.11.79,4.74,3.38,5.93,6.6,1.72,4.63,2.79,9.43,3,17.97.26,10.28-.75,16.18-3.03,20.96-1.67,3.5-3.72,5.73-5.51,6.62-1.44.72-3.32,1.29-5.55,1.12-1.48-.11-2.75-.53-3.79-1.04-1.91-.93-3.12-2.93-3.12-5.12v-1.58Z"/>
      <path class="cls-13" d="M6269.18,303.96h4.18c2.46,0,4.39-1.71,5.46-3.98,1.81-3.79,2.68-9.53,2.6-16.18-.07-6.17-1.31-11.32-2.61-15.11-.82-2.38-3.01-3.96-5.46-3.96h-4.18v-1.59c0-1.92,1.1-3.66,2.82-4.4,1.1-.48,2.45-.88,4.01-.99,2.04-.15,3.81.23,5.23.76,2.11.79,4.74,3.38,5.93,6.59,1.72,4.62,2.79,9.41,3,17.94.26,10.27-.75,16.16-3.03,20.93-1.67,3.49-3.72,5.72-5.51,6.61-1.44.72-3.32,1.29-5.55,1.11-1.48-.11-2.75-.53-3.79-1.04-1.91-.93-3.12-2.93-3.12-5.11v-1.57Z"/>
      <path class="cls-13" d="M6713.1,346.35h4.18c2.46,0,4.39-1.73,5.46-4.02,1.81-3.83,2.68-9.62,2.6-16.34-.07-6.23-1.31-11.44-2.61-15.27-.82-2.41-3.01-4-5.46-4h-4.18v-1.61c0-1.94,1.1-3.7,2.82-4.45,1.1-.48,2.45-.89,4.01-1,2.04-.15,3.81.24,5.23.77,2.11.8,4.74,3.41,5.93,6.66,1.72,4.67,2.79,9.51,3,18.12.26,10.37-.75,16.32-3.03,21.14-1.67,3.53-3.72,5.78-5.51,6.67-1.44.72-3.32,1.3-5.55,1.12-1.48-.12-2.75-.54-3.79-1.05-1.91-.94-3.12-2.96-3.12-5.16v-1.59Z"/>
      <path class="cls-13" d="M7153.4,388.76h4.18c2.46,0,4.39-1.73,5.46-4,1.81-3.82,2.68-9.59,2.6-16.29-.07-6.21-1.31-11.4-2.61-15.22-.82-2.4-3.01-3.99-5.46-3.99h-4.18v-1.6c0-1.93,1.1-3.69,2.82-4.43,1.1-.48,2.45-.89,4.01-1,2.04-.15,3.81.24,5.23.77,2.11.79,4.74,3.4,5.93,6.64,1.72,4.65,2.79,9.48,3,18.06.26,10.34-.75,16.27-3.03,21.07-1.67,3.51-3.72,5.76-5.51,6.65-1.44.72-3.32,1.29-5.55,1.12-1.48-.12-2.75-.53-3.79-1.04-1.91-.94-3.12-2.95-3.12-5.15v-1.59Z"/>
      <path class="cls-13" d="M7593.46,346.19h4.18c2.46,0,4.39-1.72,5.46-3.98,1.81-3.8,2.68-9.53,2.6-16.19-.07-6.17-1.31-11.33-2.61-15.13-.82-2.38-3.01-3.96-5.46-3.96h-4.18v-1.59c0-1.92,1.1-3.66,2.82-4.41,1.1-.48,2.45-.88,4.01-.99,2.04-.15,3.81.23,5.23.76,2.11.79,4.74,3.38,5.93,6.6,1.72,4.62,2.79,9.42,3,17.95.26,10.28-.75,16.17-3.03,20.94-1.67,3.49-3.72,5.72-5.51,6.61-1.44.72-3.32,1.29-5.55,1.11-1.48-.11-2.75-.53-3.79-1.04-1.91-.93-3.12-2.93-3.12-5.11v-1.58Z"/>
      <path class="cls-13" d="M7954.29,237.8h4.18c2.46,0,4.39-1.73,5.46-4,1.81-3.82,2.68-9.59,2.6-16.28-.07-6.21-1.31-11.4-2.61-15.21-.82-2.4-3.01-3.99-5.46-3.99h-4.18v-1.6c0-1.93,1.1-3.68,2.82-4.43,1.1-.48,2.45-.88,4.01-1,2.04-.15,3.81.24,5.23.77,2.11.79,4.74,3.4,5.93,6.63,1.72,4.65,2.79,9.48,3,18.05.26,10.34-.75,16.26-3.03,21.06-1.67,3.51-3.72,5.76-5.51,6.65-1.44.72-3.32,1.29-5.55,1.12-1.48-.12-2.75-.53-3.79-1.04-1.91-.93-3.12-2.95-3.12-5.14v-1.58Z"/>
      <path class="cls-13" d="M8395.77,279.81h4.18c2.46,0,4.39-1.71,5.46-3.97,1.81-3.79,2.68-9.51,2.6-16.14-.07-6.15-1.31-11.3-2.61-15.08-.82-2.38-3.01-3.95-5.46-3.95h-4.18v-1.59c0-1.92,1.1-3.65,2.82-4.39,1.1-.48,2.45-.88,4.01-.99,2.04-.15,3.81.23,5.23.76,2.11.79,4.74,3.37,5.93,6.58,1.72,4.61,2.79,9.39,3,17.9.26,10.25-.75,16.12-3.03,20.88-1.67,3.48-3.72,5.71-5.51,6.59-1.44.71-3.32,1.28-5.55,1.11-1.48-.11-2.75-.53-3.79-1.03-1.91-.93-3.12-2.92-3.12-5.1v-1.57Z"/>
      <path class="cls-13" d="M8728.15,278.55h4.18c2.46,0,4.39-1.72,5.46-3.99,1.81-3.81,2.68-9.56,2.6-16.23-.07-6.18-1.31-11.36-2.61-15.16-.82-2.39-3.01-3.97-5.46-3.97h-4.18v-1.6c0-1.93,1.1-3.67,2.82-4.42,1.1-.48,2.45-.88,4.01-1,2.04-.15,3.81.24,5.23.77,2.11.79,4.74,3.39,5.93,6.61,1.72,4.63,2.79,9.44,3,17.99.26,10.3-.75,16.21-3.03,20.99-1.67,3.5-3.72,5.74-5.51,6.63-1.44.72-3.32,1.29-5.55,1.12-1.48-.11-2.75-.53-3.79-1.04-1.91-.93-3.12-2.94-3.12-5.13v-1.58Z"/>
      <path class="cls-13" d="M9169.87,235.93h4.18c2.46,0,4.39-1.73,5.46-4,1.81-3.82,2.68-9.59,2.6-16.28-.07-6.21-1.31-11.4-2.61-15.21-.82-2.4-3.01-3.99-5.46-3.99h-4.18v-1.6c0-1.93,1.1-3.68,2.82-4.43,1.1-.48,2.45-.88,4.01-1,2.04-.15,3.81.24,5.23.77,2.11.79,4.74,3.4,5.93,6.63,1.72,4.65,2.79,9.48,3,18.05.26,10.34-.75,16.26-3.03,21.06-1.67,3.51-3.72,5.76-5.51,6.65-1.44.72-3.32,1.29-5.55,1.12-1.48-.12-2.75-.53-3.79-1.04-1.91-.93-3.12-2.95-3.12-5.14v-1.58Z"/>
      <path class="cls-13" d="M9156.42,346.28h4.18c2.46,0,4.39-1.57,5.46-3.64,1.81-3.47,2.68-8.72,2.6-14.81-.07-5.64-1.31-10.37-2.61-13.84-.82-2.18-3.01-3.63-5.46-3.63h-4.18v-1.46c0-1.76,1.1-3.35,2.82-4.03,1.1-.44,2.45-.8,4.01-.91,2.04-.14,3.81.21,5.23.7,2.11.72,4.74,3.09,5.93,6.03,1.72,4.23,2.79,8.62,3,16.42.26,9.4-.75,14.79-3.03,19.16-1.67,3.2-3.72,5.23-5.51,6.05-1.44.66-3.32,1.18-5.55,1.02-1.48-.1-2.75-.49-3.79-.95-1.91-.85-3.12-2.68-3.12-4.68v-1.44Z"/>
      <path class="cls-13" d="M9879.53,170.31h4.18c2.46,0,4.39-1.66,5.46-3.85,1.81-3.68,2.68-9.23,2.6-15.68-.07-5.98-1.31-10.97-2.61-14.65-.82-2.31-3.01-3.84-5.46-3.84h-4.18v-1.54c0-1.86,1.1-3.55,2.82-4.27,1.1-.46,2.45-.85,4.01-.96,2.04-.15,3.81.23,5.23.74,2.11.76,4.74,3.27,5.93,6.39,1.72,4.48,2.79,9.12,3,17.38.26,9.95-.75,15.66-3.03,20.28-1.67,3.38-3.72,5.54-5.51,6.4-1.44.69-3.32,1.25-5.55,1.08-1.48-.11-2.75-.51-3.79-1-1.91-.9-3.12-2.84-3.12-4.95v-1.53Z"/>
      <path class="cls-13" d="M11350.75,157.76h4.18c2.46,0,4.39-1.41,5.46-3.26,1.81-3.11,2.68-7.81,2.6-13.27-.07-5.06-1.31-9.29-2.61-12.4-.82-1.95-3.01-3.25-5.46-3.25h-4.18v-1.31c0-1.57,1.1-3,2.82-3.61,1.1-.39,2.45-.72,4.01-.82,2.04-.12,3.81.19,5.23.63,2.11.65,4.74,2.77,5.93,5.41,1.72,3.79,2.79,7.72,3,14.71.26,8.42-.75,13.25-3.03,17.16-1.67,2.86-3.72,4.69-5.51,5.42-1.44.59-3.32,1.05-5.55.91-1.48-.09-2.75-.43-3.79-.85-1.91-.76-3.12-2.4-3.12-4.19v-1.29Z"/>
      <path class="cls-13" d="M10422.13,68.67h4.18c2.46,0,4.39-1.32,5.46-3.06,1.81-2.92,2.68-7.32,2.6-12.43-.07-4.74-1.31-8.7-2.61-11.62-.82-1.83-3.01-3.04-5.46-3.04h-4.18v-1.22c0-1.48,1.1-2.81,2.82-3.38,1.1-.37,2.45-.68,4.01-.76,2.04-.12,3.81.18,5.23.59,2.11.61,4.74,2.6,5.93,5.07,1.72,3.55,2.79,7.23,3,13.78.26,7.89-.75,12.42-3.03,16.08-1.67,2.68-3.72,4.39-5.51,5.08-1.44.55-3.32.99-5.55.86-1.48-.09-2.75-.41-3.79-.8-1.91-.71-3.12-2.25-3.12-3.93v-1.21Z"/>
      <path class="cls-13" d="M9052.72,68.57h4.18c2.46,0,4.39-1.33,5.46-3.08,1.81-2.94,2.68-7.37,2.6-12.52-.07-4.77-1.31-8.77-2.61-11.7-.82-1.84-3.01-3.07-5.46-3.07h-4.18v-1.23c0-1.49,1.1-2.83,2.82-3.41,1.1-.37,2.45-.68,4.01-.77,2.04-.12,3.81.18,5.23.59,2.11.61,4.74,2.62,5.93,5.1,1.72,3.58,2.79,7.29,3,13.89.26,7.95-.75,12.51-3.03,16.2-1.67,2.7-3.72,4.43-5.51,5.11-1.44.55-3.32,1-5.55.86-1.48-.09-2.75-.41-3.79-.8-1.91-.72-3.12-2.27-3.12-3.96v-1.22Z"/>
      <path class="cls-13" d="M8267.94,68.74h4.18c2.46,0,4.39-1.34,5.46-3.1,1.81-2.96,2.68-7.42,2.6-12.6-.07-4.8-1.31-8.82-2.61-11.78-.82-1.86-3.01-3.08-5.46-3.08h-4.18v-1.24c0-1.5,1.1-2.85,2.82-3.43,1.1-.37,2.45-.68,4.01-.77,2.04-.12,3.81.18,5.23.6,2.11.61,4.74,2.63,5.93,5.13,1.72,3.6,2.79,7.33,3,13.97.26,8-.75,12.59-3.03,16.3-1.67,2.72-3.72,4.45-5.51,5.15-1.44.56-3.32,1-5.55.87-1.48-.09-2.75-.41-3.79-.81-1.91-.72-3.12-2.28-3.12-3.98v-1.23Z"/>
      <path class="cls-13" d="M6513.38,68.55h4.18c2.46,0,4.39-1.32,5.46-3.06,1.81-2.92,2.68-7.33,2.6-12.44-.07-4.74-1.31-8.71-2.61-11.63-.82-1.83-3.01-3.05-5.46-3.05h-4.18v-1.23c0-1.48,1.1-2.82,2.82-3.39,1.1-.37,2.45-.68,4.01-.76,2.04-.12,3.81.18,5.23.59,2.11.61,4.74,2.6,5.93,5.07,1.72,3.55,2.79,7.24,3,13.8.26,7.9-.75,12.43-3.03,16.1-1.67,2.69-3.72,4.4-5.51,5.08-1.44.55-3.32.99-5.55.86-1.48-.09-2.75-.41-3.79-.8-1.91-.71-3.12-2.25-3.12-3.93v-1.21Z"/>
      <path class="cls-13" d="M4782.05,169.82h4.18c2.46,0,4.39-1.63,5.46-3.78,1.81-3.6,2.68-9.05,2.6-15.36-.07-5.86-1.31-10.75-2.61-14.36-.82-2.26-3.01-3.76-5.46-3.76h-4.18v-1.51c0-1.82,1.1-3.48,2.82-4.18,1.1-.45,2.45-.83,4.01-.94,2.04-.14,3.81.22,5.23.73,2.11.75,4.74,3.21,5.93,6.26,1.72,4.39,2.79,8.94,3,17.03.26,9.75-.75,15.35-3.03,19.87-1.67,3.31-3.72,5.43-5.51,6.27-1.44.68-3.32,1.22-5.55,1.06-1.48-.11-2.75-.5-3.79-.98-1.91-.88-3.12-2.78-3.12-4.85v-1.5Z"/>
      <path class="cls-13" d="M5978.35,169.65h4.18c2.46,0,4.39-1.63,5.46-3.78,1.81-3.61,2.68-9.06,2.6-15.39-.07-5.87-1.31-10.77-2.61-14.38-.82-2.27-3.01-3.77-5.46-3.77h-4.18v-1.51c0-1.83,1.1-3.48,2.82-4.19,1.1-.45,2.45-.84,4.01-.95,2.04-.14,3.81.22,5.23.73,2.11.75,4.74,3.21,5.93,6.27,1.72,4.4,2.79,8.96,3,17.06.26,9.77-.75,15.37-3.03,19.91-1.67,3.32-3.72,5.44-5.51,6.29-1.44.68-3.32,1.22-5.55,1.06-1.48-.11-2.75-.5-3.79-.98-1.91-.88-3.12-2.78-3.12-4.86v-1.5Z"/>
      <path class="cls-13" d="M5289.69,68.5h4.18c2.46,0,4.39-1.32,5.46-3.06,1.81-2.92,2.68-7.34,2.6-12.46-.07-4.75-1.31-8.72-2.61-11.64-.82-1.84-3.01-3.05-5.46-3.05h-4.18v-1.23c0-1.48,1.1-2.82,2.82-3.39,1.1-.37,2.45-.68,4.01-.77,2.04-.12,3.81.18,5.23.59,2.11.61,4.74,2.6,5.93,5.08,1.72,3.56,2.79,7.25,3,13.82.26,7.91-.75,12.45-3.03,16.12-1.67,2.69-3.72,4.4-5.51,5.09-1.44.55-3.32.99-5.55.86-1.48-.09-2.75-.41-3.79-.8-1.91-.72-3.12-2.25-3.12-3.94v-1.21Z"/>
      <path class="cls-13" d="M2530.29,68.17h4.18c2.46,0,4.39-1.3,5.46-3.02,1.81-2.88,2.68-7.24,2.6-12.29-.07-4.69-1.31-8.6-2.61-11.49-.82-1.81-3.01-3.01-5.46-3.01h-4.18v-1.21c0-1.46,1.1-2.78,2.82-3.35,1.1-.36,2.45-.67,4.01-.76,2.04-.11,3.81.18,5.23.58,2.11.6,4.74,2.57,5.93,5.01,1.72,3.51,2.79,7.15,3,13.63.26,7.8-.75,12.28-3.03,15.9-1.67,2.65-3.72,4.35-5.51,5.02-1.44.54-3.32.98-5.55.85-1.48-.09-2.75-.4-3.79-.79-1.91-.71-3.12-2.22-3.12-3.88v-1.2Z"/>
      <path class="cls-13" d="M3468.29,423.21h4.18c2.46,0,4.39-1.63,5.46-3.77,1.81-3.6,2.68-9.04,2.6-15.34-.07-5.85-1.31-10.74-2.61-14.34-.82-2.26-3.01-3.76-5.46-3.76h-4.18v-1.51c0-1.82,1.1-3.47,2.82-4.18,1.1-.45,2.45-.83,4.01-.94,2.04-.14,3.81.22,5.23.72,2.11.75,4.74,3.21,5.93,6.25,1.72,4.38,2.79,8.93,3,17.01.26,9.74-.75,15.33-3.03,19.85-1.67,3.31-3.72,5.42-5.51,6.27-1.44.68-3.32,1.22-5.55,1.06-1.48-.11-2.75-.5-3.79-.98-1.91-.88-3.12-2.78-3.12-4.85v-1.49Z"/>
      <path class="cls-13" d="M3772.48,265.55v3.42c-.01,2.01,1.46,3.59,3.4,4.47,3.26,1.48,8.18,2.2,13.9,2.15,5.3-.05,9.73-1.05,12.99-2.11,2.05-.66,3.41-2.45,3.41-4.45v-3.42s1.38,0,1.38,0c1.65,0,3.14.91,3.78,2.31.41.9.75,2,.85,3.28.13,1.67-.21,3.12-.67,4.27-.68,1.72-2.91,3.87-5.67,4.84-3.97,1.4-8.09,2.26-15.42,2.42-8.82.19-13.88-.64-17.98-2.51-3-1.37-4.91-3.05-5.67-4.51-.61-1.18-1.1-2.72-.95-4.54.1-1.21.46-2.25.9-3.1.8-1.56,2.52-2.55,4.4-2.54h1.35Z"/>
      <path class="cls-13" d="M3925.5,169.72h4.18c2.46,0,4.39-1.63,5.46-3.77,1.81-3.6,2.68-9.04,2.6-15.34-.07-5.85-1.31-10.74-2.61-14.34-.82-2.26-3.01-3.76-5.46-3.76h-4.18v-1.51c0-1.82,1.1-3.47,2.82-4.18,1.1-.45,2.45-.83,4.01-.94,2.04-.14,3.81.22,5.23.72,2.11.75,4.74,3.21,5.93,6.25,1.72,4.38,2.79,8.93,3,17.01.26,9.74-.75,15.33-3.03,19.85-1.67,3.31-3.72,5.42-5.51,6.27-1.44.68-3.32,1.22-5.55,1.06-1.48-.11-2.75-.5-3.79-.98-1.91-.88-3.12-2.78-3.12-4.85v-1.49Z"/>
      <path class="cls-13" d="M3572.86,68.41h4.18c2.46,0,4.39-1.31,5.46-3.04,1.81-2.9,2.68-7.29,2.6-12.38-.07-4.72-1.31-8.67-2.61-11.57-.82-1.82-3.01-3.03-5.46-3.03h-4.18v-1.22c0-1.47,1.1-2.8,2.82-3.37,1.1-.36,2.45-.67,4.01-.76,2.04-.11,3.81.18,5.23.59,2.11.6,4.74,2.59,5.93,5.04,1.72,3.54,2.79,7.21,3,13.73.26,7.86-.75,12.37-3.03,16.02-1.67,2.67-3.72,4.38-5.51,5.06-1.44.55-3.32.98-5.55.85-1.48-.09-2.75-.41-3.79-.79-1.91-.71-3.12-2.24-3.12-3.91v-1.2Z"/>
      <path class="cls-13" d="M3057,169.73h4.18c2.46,0,4.39-1.63,5.46-3.79,1.81-3.61,2.68-9.08,2.6-15.41-.07-5.87-1.31-10.79-2.61-14.4-.82-2.27-3.01-3.77-5.46-3.77h-4.18v-1.52c0-1.83,1.1-3.49,2.82-4.2,1.1-.45,2.45-.84,4.01-.95,2.04-.14,3.81.22,5.23.73,2.11.75,4.74,3.22,5.93,6.28,1.72,4.4,2.79,8.97,3,17.09.26,9.78-.75,15.39-3.03,19.94-1.67,3.33-3.72,5.45-5.51,6.29-1.44.68-3.32,1.23-5.55,1.06-1.48-.11-2.75-.5-3.79-.99-1.91-.88-3.12-2.79-3.12-4.87v-1.5Z"/>
      <path class="cls-13" d="M2996.28,423.25h4.18c2.46,0,4.39-1.63,5.46-3.78,1.81-3.61,2.68-9.07,2.6-15.4-.07-5.87-1.31-10.78-2.61-14.39-.82-2.27-3.01-3.77-5.46-3.77h-4.18v-1.52c0-1.83,1.1-3.48,2.82-4.19,1.1-.45,2.45-.84,4.01-.95,2.04-.14,3.81.22,5.23.73,2.11.75,4.74,3.22,5.93,6.27,1.72,4.4,2.79,8.96,3,17.07.26,9.77-.75,15.38-3.03,19.92-1.67,3.32-3.72,5.44-5.51,6.29-1.44.68-3.32,1.22-5.55,1.06-1.48-.11-2.75-.5-3.79-.99-1.91-.88-3.12-2.79-3.12-4.86v-1.5Z"/>
      <path class="cls-13" d="M1876.12,169.77h4.18c2.46,0,4.39-1.63,5.46-3.78,1.81-3.61,2.68-9.07,2.6-15.4-.07-5.87-1.31-10.78-2.61-14.39-.82-2.27-3.01-3.77-5.46-3.77h-4.18v-1.52c0-1.83,1.1-3.48,2.82-4.19,1.1-.45,2.45-.84,4.01-.95,2.04-.14,3.81.22,5.23.73,2.11.75,4.74,3.22,5.93,6.27,1.72,4.4,2.79,8.96,3,17.07.26,9.77-.75,15.38-3.03,19.92-1.67,3.32-3.72,5.44-5.51,6.29-1.44.68-3.32,1.22-5.55,1.06-1.48-.11-2.75-.5-3.79-.99-1.91-.88-3.12-2.79-3.12-4.86v-1.5Z"/>
      <path class="cls-13" d="M1176.71,68.76h4.3c2.53,0,4.51-1.31,5.62-3.05,1.86-2.91,2.75-7.31,2.68-12.41-.07-4.73-1.34-8.68-2.68-11.59-.84-1.83-3.1-3.04-5.62-3.04h-4.3v-1.22c0-1.47,1.14-2.81,2.9-3.38,1.13-.37,2.52-.67,4.13-.76,2.1-.11,3.92.18,5.38.59,2.17.6,4.88,2.59,6.11,5.06,1.77,3.54,2.87,7.22,3.09,13.76.26,7.88-.77,12.39-3.12,16.05-1.71,2.68-3.83,4.39-5.67,5.07-1.48.55-3.42.99-5.71.85-1.52-.09-2.83-.41-3.9-.79-1.97-.71-3.21-2.24-3.21-3.92v-1.21Z"/>
      <path class="cls-13" d="M1092.38,171.91v4.18c0,2.46,1.55,4.39,3.59,5.46,3.43,1.81,8.61,2.68,14.62,2.6,5.57-.07,10.24-1.31,13.66-2.61,2.15-.82,3.58-3.01,3.58-5.46v-4.18h1.44c1.74,0,3.31,1.1,3.98,2.82.43,1.1.79,2.45.9,4.01.14,2.04-.21,3.81-.69,5.23-.71,2.11-3.05,4.74-5.96,5.93-4.18,1.72-8.51,2.79-16.21,3-9.28.26-14.61-.75-18.92-3.03-3.16-1.67-5.17-3.72-5.97-5.51-.65-1.44-1.16-3.32-1.01-5.55.1-1.48.48-2.75.94-3.79.84-1.91,2.65-3.12,4.62-3.12h1.42Z"/>
      <path class="cls-13" d="M897.76,271.31h4.18c2.46,0,4.39-1.45,5.46-3.36,1.81-3.21,2.68-8.06,2.6-13.68-.07-5.21-1.31-9.57-2.61-12.78-.82-2.01-3.01-3.35-5.46-3.35h-4.18v-1.35c0-1.62,1.1-3.1,2.82-3.72,1.1-.4,2.45-.74,4.01-.84,2.04-.13,3.81.2,5.23.65,2.11.67,4.74,2.86,5.93,5.57,1.72,3.91,2.79,7.96,3,15.17.26,8.68-.75,13.66-3.03,17.7-1.67,2.95-3.72,4.84-5.51,5.59-1.44.61-3.32,1.09-5.55.94-1.48-.1-2.75-.45-3.79-.88-1.91-.79-3.12-2.47-3.12-4.32v-1.33Z"/>
      <path class="cls-13" d="M728.83,152.87h4.18c2.46,0,4.39-1.4,5.46-3.24,1.81-3.09,2.68-7.76,2.6-13.17-.07-5.02-1.31-9.22-2.61-12.31-.82-1.94-3.01-3.23-5.46-3.23h-4.18v-1.3c0-1.56,1.1-2.98,2.82-3.59,1.1-.39,2.45-.72,4.01-.81,2.04-.12,3.81.19,5.23.62,2.11.64,4.74,2.75,5.93,5.37,1.72,3.76,2.79,7.67,3,14.61.26,8.36-.75,13.16-3.03,17.04-1.67,2.84-3.72,4.66-5.51,5.38-1.44.58-3.32,1.05-5.55.91-1.48-.09-2.75-.43-3.79-.84-1.91-.76-3.12-2.38-3.12-4.16v-1.28Z"/>
      <path class="cls-13" d="M395.01,68.98h4.18c2.46,0,4.39-1.47,5.46-3.42,1.81-3.26,2.68-8.2,2.6-13.92-.07-5.3-1.31-9.74-2.61-13-.82-2.05-3.01-3.41-5.46-3.41h-4.18v-1.37c0-1.65,1.1-3.15,2.82-3.79,1.1-.41,2.45-.76,4.01-.86,2.04-.13,3.81.2,5.23.66,2.11.68,4.74,2.91,5.93,5.67,1.72,3.98,2.79,8.1,3,15.43.26,8.83-.75,13.9-3.03,18-1.67,3-3.72,4.92-5.51,5.68-1.44.62-3.32,1.11-5.55.96-1.48-.1-2.75-.46-3.79-.89-1.91-.8-3.12-2.52-3.12-4.4v-1.35Z"/>
      <path class="cls-13" d="M157.33,153.55h4.18c2.46,0,4.39-1.42,5.46-3.28,1.81-3.13,2.68-7.87,2.6-13.36-.07-5.09-1.31-9.35-2.61-12.49-.82-1.97-3.01-3.27-5.46-3.27h-4.18v-1.32c0-1.59,1.1-3.02,2.82-3.64,1.1-.39,2.45-.73,4.01-.82,2.04-.12,3.81.19,5.23.63,2.11.65,4.74,2.79,5.93,5.44,1.72,3.82,2.79,7.78,3,14.82.26,8.48-.75,13.35-3.03,17.29-1.67,2.88-3.72,4.72-5.51,5.46-1.44.59-3.32,1.06-5.55.92-1.48-.09-2.75-.44-3.79-.86-1.91-.77-3.12-2.42-3.12-4.22v-1.3Z"/>
      <path class="cls-13" d="M24.81,55.34h4.18c2.46,0,4.39-1.41,5.46-3.28,1.81-3.13,2.68-7.85,2.6-13.33-.07-5.08-1.31-9.33-2.61-12.46-.82-1.96-3.01-3.26-5.46-3.26h-4.18v-1.31c0-1.58,1.1-3.02,2.82-3.63,1.1-.39,2.45-.72,4.01-.82,2.04-.12,3.81.19,5.23.63,2.11.65,4.74,2.78,5.93,5.43,1.72,3.81,2.79,7.76,3,14.78.26,8.46-.75,13.32-3.03,17.25-1.67,2.88-3.72,4.71-5.51,5.44-1.44.59-3.32,1.06-5.55.92-1.48-.09-2.75-.44-3.79-.85-1.91-.77-3.12-2.41-3.12-4.21v-1.3Z"/>
    </g>
  </g>
</svg>